<svg xmlns="http://www.w3.org/2000/svg" xmlns:xlink="http://www.w3.org/1999/xlink" viewBox="0 0 64 64"><defs><style>.cls-1{fill:url(#linear-gradient);}.cls-2{fill:url(#linear-gradient-2);}.cls-3{fill:#c7cdd8;}.cls-4{fill:url(#linear-gradient-3);}.cls-5{fill:url(#linear-gradient-4);}.cls-6{fill:url(#linear-gradient-5);}.cls-7{fill:url(#linear-gradient-6);}.cls-8{fill:url(#linear-gradient-7);}.cls-9{fill:url(#linear-gradient-8);}.cls-10{fill:url(#linear-gradient-9);}.cls-11{fill:#cf4055;}.cls-12{fill:#231f20;}</style><linearGradient id="linear-gradient" x1="41" y1="43" x2="63" y2="43" gradientUnits="userSpaceOnUse"><stop offset="0" stop-color="#d4d8e1"/><stop offset="1" stop-color="#f3f4f5"/></linearGradient><linearGradient id="linear-gradient-2" x1="21" y1="58" x2="21" y2="23" xlink:href="#linear-gradient"/><linearGradient id="linear-gradient-3" x1="51" y1="43" x2="51" y2="32" gradientUnits="userSpaceOnUse"><stop offset="0" stop-color="#9dd5df"/><stop offset="1" stop-color="#c3e1f5"/></linearGradient><linearGradient id="linear-gradient-4" x1="59" y1="51" x2="63" y2="51" gradientUnits="userSpaceOnUse"><stop offset="0" stop-color="#fbcc88"/><stop offset="1" stop-color="#ffe5c3"/></linearGradient><linearGradient id="linear-gradient-5" x1="49" y1="63" x2="49" y2="53" gradientUnits="userSpaceOnUse"><stop offset="0" stop-color="#474f72"/><stop offset="1" stop-color="#878c9f"/></linearGradient><linearGradient id="linear-gradient-6" x1="12" x2="12" xlink:href="#linear-gradient-5"/><linearGradient id="linear-gradient-7" x1="41" y1="47" x2="1" y2="47" gradientUnits="userSpaceOnUse"><stop offset="0" stop-color="#7aa8d7"/><stop offset="1" stop-color="#c3d2e7"/></linearGradient><linearGradient id="linear-gradient-8" x1="21" y1="41" x2="21" y2="27" gradientUnits="userSpaceOnUse"><stop offset="0" stop-color="#da5466"/><stop offset="1" stop-color="#f4929c"/></linearGradient><linearGradient id="linear-gradient-9" x1="32" y1="17" x2="32" y2="3" xlink:href="#linear-gradient-8"/></defs><title>Ambulance</title><g id="Ambulance"><path class="cls-1" d="M54,58h9V47.24a2,2,0,0,0-1.11-1.79L57,43,54.07,32l-.67-2.52A2,2,0,0,0,51.46,28H41V58h3"/><polyline class="cls-2" points="17 58 41 58 41 23 1 23 1 58 7 58"/><polyline class="cls-3" points="25.8 58 63 58 63 55 1 55 1 58 10.3 58"/><polygon class="cls-4" points="57 43 45 43 45 32 54.07 32 57 43"/><path class="cls-5" d="M61,49h2a0,0,0,0,1,0,0v4a0,0,0,0,1,0,0H61a2,2,0,0,1-2-2v0A2,2,0,0,1,61,49Z"/><circle class="cls-6" cx="49" cy="58" r="5"/><circle class="cls-7" cx="12" cy="58" r="5"/><rect class="cls-8" x="1" y="45" width="40" height="4"/><circle class="cls-9" cx="21" cy="34" r="7"/><rect class="cls-3" x="41" y="28" width="2" height="30"/><circle class="cls-10" cx="32" cy="10" r="7"/><path class="cls-11" d="M39,10a7,7,0,0,1-14,0,5.47,5.47,0,0,1,.08-1A7,7,0,0,0,38.92,9,5.47,5.47,0,0,1,39,10Z"/><path class="cls-12" d="M62.34,44.56l-4.49-2.25-3.49-13.1A3,3,0,0,0,51.46,27H42V23a1,1,0,0,0-1-1H1a1,1,0,0,0-1,1V58a1,1,0,0,0,1,1H6.09a6,6,0,0,0,11.82,0H43.09a6,6,0,0,0,11.82,0H63a1,1,0,0,0,1-1V47.24A3,3,0,0,0,62.34,44.56ZM55.7,42H46V33h7.3ZM2,46H40v2H2ZM40,24V44H2V24ZM2,50H40v7H17.91A6,6,0,0,0,6.09,57H2ZM12,62a4,4,0,1,1,4-4A4,4,0,0,1,12,62Zm37,0a4,4,0,1,1,4-4A4,4,0,0,1,49,62Zm5.91-5a6,6,0,0,0-11.82,0H42V29h9.46a1,1,0,0,1,1,.74L52.77,31H45a1,1,0,0,0-1,1V43a1,1,0,0,0,1,1H56.76l4.68,2.34a1,1,0,0,1,.56.9V48H61a3,3,0,0,0,0,6h1v3ZM62,52H61a1,1,0,0,1,0-2h1Z"/><path class="cls-12" d="M47,46H45a1,1,0,0,0,0,2h2a1,1,0,0,0,0-2Z"/><circle class="cls-12" cx="12" cy="58" r="2"/><circle class="cls-12" cx="49" cy="58" r="2"/><path class="cls-12" d="M21,42a8,8,0,1,0-8-8A8,8,0,0,0,21,42Zm0-14a6,6,0,1,1-6,6A6,6,0,0,1,21,28Z"/><path class="cls-12" d="M18,35h2v2a1,1,0,0,0,2,0V35h2a1,1,0,0,0,0-2H22V31a1,1,0,0,0-2,0v2H18a1,1,0,0,0,0,2Z"/><path class="cls-12" d="M23,11h1.06a8.13,8.13,0,0,0,1.62,3.9h0l-1.39,1.39a1,1,0,0,0,0,1.42,1,1,0,0,0,1.42,0l1.39-1.39h0A8.13,8.13,0,0,0,31,17.94V19a1,1,0,0,0,2,0V17.94a8.13,8.13,0,0,0,3.9-1.62h0l1.39,1.39a1,1,0,0,0,1.42,0,1,1,0,0,0,0-1.42L38.32,14.9h0A8.13,8.13,0,0,0,39.94,11H41a1,1,0,0,0,0-2H39.94a8.13,8.13,0,0,0-1.62-3.9h0l1.39-1.39a1,1,0,1,0-1.42-1.42L36.9,3.68h0A8.13,8.13,0,0,0,33,2.06V1a1,1,0,0,0-2,0V2.06a8.13,8.13,0,0,0-3.9,1.62h0L25.71,2.29a1,1,0,0,0-1.42,1.42L25.68,5.1h0A8.13,8.13,0,0,0,24.06,9H23a1,1,0,0,0,0,2ZM36.24,5.76A5.86,5.86,0,0,1,37.91,9h0a1,1,0,0,0,0,2h0A6,6,0,0,1,33,15.91h0a1,1,0,0,0-2,0h0A6,6,0,0,1,26.09,11h0a1,1,0,0,0,0-2h0A6,6,0,0,1,31,4.09h0a1,1,0,0,0,2,0h0A5.86,5.86,0,0,1,36.24,5.76Z"/><circle class="cls-12" cx="29.5" cy="8.5" r="1.5"/><circle class="cls-12" cx="35" cy="9" r="1"/><circle class="cls-12" cx="32" cy="12" r="1"/></g></svg>