<svg xmlns="http://www.w3.org/2000/svg" xmlns:xlink="http://www.w3.org/1999/xlink" viewBox="0 0 64 64"><defs><style>.cls-1{fill:url(#linear-gradient);}.cls-2{fill:url(#linear-gradient-2);}.cls-3{fill:#77cacb;}.cls-4{fill:url(#linear-gradient-3);}.cls-5{fill:#cf4055;}.cls-6{fill:url(#linear-gradient-4);}.cls-7{fill:url(#linear-gradient-5);}.cls-8{fill:url(#linear-gradient-6);}.cls-9{fill:url(#linear-gradient-7);}.cls-10{fill:#231f20;}</style><linearGradient id="linear-gradient" x1="32" y1="63" x2="32" y2="1" gradientUnits="userSpaceOnUse"><stop offset="0" stop-color="#a0a6ba"/><stop offset="1" stop-color="#c6ccda"/></linearGradient><linearGradient id="linear-gradient-2" x1="32" y1="59" x2="32" y2="5" gradientUnits="userSpaceOnUse"><stop offset="0" stop-color="#9dd5df"/><stop offset="1" stop-color="#c3e1f5"/></linearGradient><linearGradient id="linear-gradient-3" x1="32" y1="41" x2="32" y2="23" gradientUnits="userSpaceOnUse"><stop offset="0" stop-color="#da5466"/><stop offset="1" stop-color="#f4929c"/></linearGradient><linearGradient id="linear-gradient-4" x1="39.19" y1="22.81" x2="43.19" y2="22.81" xlink:href="#linear-gradient-3"/><linearGradient id="linear-gradient-5" x1="20.81" y1="41.19" x2="24.81" y2="41.19" xlink:href="#linear-gradient-3"/><linearGradient id="linear-gradient-6" x1="39.19" y1="41.19" x2="43.19" y2="41.19" xlink:href="#linear-gradient-3"/><linearGradient id="linear-gradient-7" x1="20.81" y1="22.81" x2="24.81" y2="22.81" xlink:href="#linear-gradient-3"/></defs><title>Apps Covid</title><g id="Apps_Covid" data-name="Apps Covid"><rect class="cls-1" x="12" y="1" width="40" height="62" rx="4"/><path class="cls-2" d="M48,6V58a1,1,0,0,1-1,1H17a1,1,0,0,1-1-1V6a1,1,0,0,1,1-1h7a2,2,0,0,0,2,2H38a2,2,0,0,0,2-2h7A1,1,0,0,1,48,6Z"/><path class="cls-3" d="M48,56v2a1,1,0,0,1-1,1H17a1,1,0,0,1-1-1V56a1,1,0,0,0,1,1H47A1,1,0,0,0,48,56Z"/><circle class="cls-4" cx="32" cy="32" r="9"/><path class="cls-5" d="M38.36,38.36A9,9,0,0,1,23.06,31a9,9,0,0,0,17.88,0A8.92,8.92,0,0,1,38.36,38.36Z"/><path class="cls-6" d="M41.19,24.81a2,2,0,1,1,1.42-.59A2,2,0,0,1,41.19,24.81Zm0-2Z"/><path class="cls-7" d="M22.81,43.19a2,2,0,1,1,1.41-.58A2,2,0,0,1,22.81,43.19Zm0-2Z"/><path class="cls-8" d="M41.19,43.19a2,2,0,0,1-1.41-.58,2,2,0,1,1,1.41.58Zm0-2Z"/><path class="cls-9" d="M22.81,24.81a2,2,0,1,1,1.41-.59A2,2,0,0,1,22.81,24.81Zm0-2Z"/><path class="cls-10" d="M48,0H16a5,5,0,0,0-5,5V59a5,5,0,0,0,5,5H48a5,5,0,0,0,5-5V5A5,5,0,0,0,48,0Zm3,59a3,3,0,0,1-3,3H16a3,3,0,0,1-3-3V5a3,3,0,0,1,3-3H48a3,3,0,0,1,3,3Z"/><path class="cls-10" d="M48,4H40a1,1,0,0,0-1,1,1,1,0,0,1-1,1H26a1,1,0,0,1-1-1,1,1,0,0,0-1-1H16a1,1,0,0,0-1,1V59a1,1,0,0,0,1,1H48a1,1,0,0,0,1-1V5A1,1,0,0,0,48,4ZM47,58H17V6h6.17A3,3,0,0,0,26,8H38a3,3,0,0,0,2.83-2H47Z"/><circle class="cls-10" cx="28" cy="4" r="1"/><circle class="cls-10" cx="36" cy="4" r="1"/><path class="cls-10" d="M29.88,29.88h0a2,2,0,0,0-2.83,0,2,2,0,0,0,0,2.83,2,2,0,0,0,2.83,0,2,2,0,0,0,0-2.83Z"/><circle class="cls-10" cx="34.83" cy="29.88" r="1.5"/><path class="cls-10" d="M31.29,35.54a1,1,0,0,0,0,1.41,1,1,0,0,0,1.42,0,1,1,0,0,0,0-1.41A1,1,0,0,0,31.29,35.54Z"/><path class="cls-10" d="M39.27,23.32l-.94.94A9.92,9.92,0,0,0,33,22.05V20a1,1,0,1,0-2,0v2.06a9.92,9.92,0,0,0-5.33,2.21l-.94-.94a2,2,0,1,0-3.34.9,2,2,0,0,0,1.42.59,1.81,1.81,0,0,0,.51-.08l.94.94A9.92,9.92,0,0,0,22.05,31H20a1,1,0,1,0,0,2h2.06a9.92,9.92,0,0,0,2.21,5.33l-.94.94a2,2,0,1,0,1.41,1.41l.94-.94A9.92,9.92,0,0,0,31,42V44a1,1,0,0,0,2,0V42a9.92,9.92,0,0,0,5.33-2.21l.94.94a2,2,0,1,0,1.41-1.41l-.94-.94A9.92,9.92,0,0,0,42,33H44a1,1,0,0,0,0-2H42a9.92,9.92,0,0,0-2.21-5.33l.94-.94a1.81,1.81,0,0,0,.51.08,2,2,0,1,0-1.41-3.42A2,2,0,0,0,39.27,23.32ZM40,32s0,0,0,0,0,0,0,0a7.94,7.94,0,0,1-1.69,4.88l-.65-.66a1,1,0,0,0-1.42,1.42l.66.65A7.94,7.94,0,0,1,32,40h0a7.94,7.94,0,0,1-4.88-1.69l.66-.65a1,1,0,0,0-1.42-1.42l-.65.66A7.94,7.94,0,0,1,24,32s0,0,0,0,0,0,0,0a7.94,7.94,0,0,1,1.69-4.88l.65.66a1,1,0,0,0,1.42,0,1,1,0,0,0,0-1.42l-.66-.65A7.94,7.94,0,0,1,32,24h0a7.94,7.94,0,0,1,4.88,1.69l-.66.65a1,1,0,0,0,0,1.42,1,1,0,0,0,1.42,0l.65-.66A7.94,7.94,0,0,1,40,32Z"/></g></svg>