<svg xmlns="http://www.w3.org/2000/svg" xmlns:xlink="http://www.w3.org/1999/xlink" viewBox="0 0 64 64"><defs><style>.cls-1{fill:url(#linear-gradient);}.cls-2{fill:#cba07a;}.cls-3{fill:url(#linear-gradient-2);}.cls-4{fill:url(#linear-gradient-3);}.cls-5{fill:#8a6762;}.cls-6{fill:url(#linear-gradient-4);}.cls-7{fill:url(#linear-gradient-5);}.cls-8{fill:url(#linear-gradient-6);}.cls-9{fill:url(#linear-gradient-8);}.cls-10{fill:url(#linear-gradient-9);}.cls-11{fill:#cf4055;}.cls-12{fill:#231f20;}</style><linearGradient id="linear-gradient" x1="14.22" y1="35.53" x2="14.22" y2="8.16" gradientUnits="userSpaceOnUse"><stop offset="0" stop-color="#deb895"/><stop offset="1" stop-color="#f2d3b8"/></linearGradient><linearGradient id="linear-gradient-2" x1="66.65" y1="35.37" x2="66.65" y2="8" gradientTransform="matrix(-1, 0, 0, 1, 116.43, 0)" xlink:href="#linear-gradient"/><linearGradient id="linear-gradient-3" x1="26.43" y1="18.75" x2="26.43" y2="5" gradientUnits="userSpaceOnUse"><stop offset="0" stop-color="#9b756d"/><stop offset="1" stop-color="#bc9388"/></linearGradient><linearGradient id="linear-gradient-4" x1="37.58" y1="18.75" x2="37.58" y2="5" xlink:href="#linear-gradient-3"/><linearGradient id="linear-gradient-5" x1="32" y1="45" x2="32" y2="24.73" xlink:href="#linear-gradient-3"/><linearGradient id="linear-gradient-6" x1="32" y1="26.05" x2="32" y2="12.37" xlink:href="#linear-gradient-3"/><linearGradient id="linear-gradient-8" x1="49" y1="59" x2="49" y2="31" gradientUnits="userSpaceOnUse"><stop offset="0" stop-color="#9dd5df"/><stop offset="1" stop-color="#c3e1f5"/></linearGradient><linearGradient id="linear-gradient-9" x1="49" y1="52" x2="49" y2="38" gradientUnits="userSpaceOnUse"><stop offset="0" stop-color="#da5466"/><stop offset="1" stop-color="#f4929c"/></linearGradient></defs><title>Bat Virus</title><g id="Bat_Virus" data-name="Bat Virus"><path class="cls-1" d="M26.35,35.15a13.74,13.74,0,0,0-8.35.38,14.29,14.29,0,0,0-7-6.32c-1.9-.66-6,0-6,0,.28-.09.74-7.61,0-10.53s-4-7.36-4-7.36,5-3.16,9-3.16h8s1.47,13.12,9.43,16.89"/><path class="cls-2" d="M27.43,25.05l-1.08,10.1c-.36-.1-.64-3.09-.79-5.2A3.87,3.87,0,0,0,23.92,27C17.28,22.44,16,11,16,11H8a15.82,15.82,0,0,0-6.09,1.62c-.53-.79-.91-1.3-.91-1.3s5-3.16,9-3.16h8S19.47,21.28,27.43,25.05Z"/><path class="cls-3" d="M37.65,35a13.74,13.74,0,0,1,8.35.38,14.33,14.33,0,0,1,7-6.32c1.9-.66,6,0,6,0-.28-.09-.74-7.61,0-10.52.77-3.06,4-7.37,4-7.37S58,8,54,8H46s-1.47,13.13-9.43,16.89"/><path class="cls-2" d="M36.57,24.89,37.65,35c.36-.1.64-3.08.79-5.19a3.88,3.88,0,0,1,1.64-2.94c6.64-4.58,7.92-16,7.92-16h8a15.82,15.82,0,0,1,6.09,1.62c.53-.79.91-1.3.91-1.3S58,8,54,8H46S44.53,21.12,36.57,24.89Z"/><path class="cls-4" d="M29.85,12.89a7.79,7.79,0,0,0-4.2,4.29,8,8,0,0,0-.45,1.57A9.35,9.35,0,0,1,23,13.42,59.43,59.43,0,0,1,24,5s4,2.11,5,4.21A12.19,12.19,0,0,1,29.85,12.89Z"/><path class="cls-5" d="M29.85,12.89a7.79,7.79,0,0,0-4.2,4.29,8,8,0,0,0-.45,1.57c-.27-.35.49-2.94,1.47-4.57a5.26,5.26,0,0,0,.55-4.43A4.35,4.35,0,0,0,27,9.21,9.61,9.61,0,0,0,23.81,6.1C23.92,5.42,24,5,24,5s4,2.11,5,4.21A12.19,12.19,0,0,1,29.85,12.89Z"/><path class="cls-6" d="M41,13.42a9.35,9.35,0,0,1-2.2,5.33,8,8,0,0,0-.45-1.57,7.79,7.79,0,0,0-4.2-4.29A12.19,12.19,0,0,1,35,9.21C36,7.11,40,5,40,5A59.43,59.43,0,0,1,41,13.42Z"/><path class="cls-7" d="M38,32.37a11.89,11.89,0,0,1-.35,2.78h0C36.36,40.41,32,45,32,45s-4.36-4.59-5.64-9.85h0A11.89,11.89,0,0,1,26,32.37a19.38,19.38,0,0,1,.86-5.74c.17-.56.37-1.09.57-1.58.05-.11.09-.22.14-.32a8.38,8.38,0,0,0,1.92.89,7.54,7.54,0,0,0,5,0,8.38,8.38,0,0,0,1.92-.89c0,.1.09.21.14.32.2.49.4,1,.57,1.58A19.38,19.38,0,0,1,38,32.37Z"/><path class="cls-8" d="M39,20.79a4.83,4.83,0,0,1-2.57,3.94,8.38,8.38,0,0,1-1.92.89,7.54,7.54,0,0,1-5,0,8.38,8.38,0,0,1-1.92-.89A4.83,4.83,0,0,1,25,20.79a9.94,9.94,0,0,1,.2-2,8,8,0,0,1,.45-1.57,7.79,7.79,0,0,1,4.2-4.29.75.75,0,0,1,.13-.06,5.6,5.6,0,0,1,2-.46,5.6,5.6,0,0,1,2,.46.75.75,0,0,1,.13.06,7.79,7.79,0,0,1,4.2,4.29,8,8,0,0,1,.45,1.57A9.94,9.94,0,0,1,39,20.79Z"/><path class="cls-8" d="M39,20.79a4.83,4.83,0,0,1-2.57,3.94,8.38,8.38,0,0,1-1.92.89,7.54,7.54,0,0,1-5,0,8.38,8.38,0,0,1-1.92-.89A4.83,4.83,0,0,1,25,20.79a9.94,9.94,0,0,1,.2-2,8,8,0,0,1,.45-1.57,7.79,7.79,0,0,1,4.2-4.29.75.75,0,0,1,.13-.06,5.6,5.6,0,0,1,2-.46,5.6,5.6,0,0,1,2,.46.75.75,0,0,1,.13.06,7.79,7.79,0,0,1,4.2,4.29,8,8,0,0,1,.45,1.57A9.94,9.94,0,0,1,39,20.79Z"/><circle class="cls-9" cx="49" cy="45" r="14"/><circle class="cls-10" cx="49" cy="45" r="7"/><path class="cls-11" d="M56,45a7,7,0,0,1-14,0,5.47,5.47,0,0,1,.08-1,7,7,0,0,0,13.84,0A5.47,5.47,0,0,1,56,45Z"/><path class="cls-5" d="M34.15,12.89a7.79,7.79,0,0,1,4.2,4.29,8,8,0,0,1,.45,1.57c.27-.35-.49-2.94-1.47-4.57a5.26,5.26,0,0,1-.55-4.43A4.35,4.35,0,0,1,37,9.21,9.61,9.61,0,0,1,40.19,6.1C40.08,5.42,40,5,40,5s-4,2.11-5,4.21A12.19,12.19,0,0,0,34.15,12.89Z"/><path class="cls-12" d="M29,19.79a1,1,0,0,0,0,2v.05a1,1,0,1,0,2,0v-.05h2v.05a1,1,0,1,0,2,0v-.05a1,1,0,0,0,0-2Z"/><path class="cls-12" d="M58,44H56.94a8.13,8.13,0,0,0-1.62-3.9h0l1.39-1.39a1,1,0,0,0-1.42-1.42L53.9,38.68h0A8.13,8.13,0,0,0,50,37.06V36a1,1,0,0,0-2,0v1.06a8.13,8.13,0,0,0-3.9,1.62h0l-1.39-1.39a1,1,0,0,0-1.42,1.42l1.39,1.39h0A8.13,8.13,0,0,0,41.06,44H40a1,1,0,0,0,0,2h1.06a8.13,8.13,0,0,0,1.62,3.9h0l-1.39,1.39a1,1,0,0,0,0,1.42,1,1,0,0,0,1.42,0l1.39-1.39h0A8.13,8.13,0,0,0,48,52.94V54a1,1,0,0,0,2,0V52.94a8.13,8.13,0,0,0,3.9-1.62h0l1.39,1.39a1,1,0,0,0,1.42,0,1,1,0,0,0,0-1.42L55.32,49.9h0A8.13,8.13,0,0,0,56.94,46H58a1,1,0,0,0,0-2ZM44.76,49.24A5.86,5.86,0,0,1,43.09,46h0a1,1,0,0,0,0-2h0A6,6,0,0,1,48,39.09h0a1,1,0,0,0,2,0h0A6,6,0,0,1,54.91,44h0a1,1,0,0,0,0,2h0A6,6,0,0,1,50,50.91h0a1,1,0,0,0-2,0h0A5.86,5.86,0,0,1,44.76,49.24Z"/><circle class="cls-12" cx="46.5" cy="43.5" r="1.5"/><circle class="cls-12" cx="52" cy="44" r="1"/><circle class="cls-12" cx="49" cy="47" r="1"/><path class="cls-12" d="M52.63,30.44c.24-.11.47-.21.7-.29,1.36-.47,4.44-.12,5.51.05a1,1,0,0,0,1-1.46c-.21-1-.54-7.33.09-9.82.71-2.81,3.8-7,3.83-7a1,1,0,0,0-.27-1.45c-.21-.13-5.29-3.31-9.53-3.31H47a2.64,2.64,0,0,1,.68-1.47,1,1,0,0,0-1.44-1.38A4.64,4.64,0,0,0,45,7.54V8.1c-.08.67-1.1,8.13-5,12.93a1.94,1.94,0,0,0,0-.24A11.14,11.14,0,0,0,39.85,19,9.75,9.75,0,0,0,42,13.42a59.88,59.88,0,0,0-1-8.61,1,1,0,0,0-1.45-.69c-.44.23-4.32,2.32-5.43,4.66a10.2,10.2,0,0,0-.78,2.77A5.8,5.8,0,0,0,32,11.37a6,6,0,0,0-1.32.18,9.85,9.85,0,0,0-.78-2.77c-1.11-2.34-5-4.43-5.43-4.66A1,1,0,0,0,23,4.81a59.88,59.88,0,0,0-1,8.61A9.75,9.75,0,0,0,24.15,19,11.34,11.34,0,0,0,24,20.79,1.94,1.94,0,0,0,24,21c-3.9-4.79-4.93-12.24-5-12.93V7.54a4.67,4.67,0,0,0-1.27-3.23,1,1,0,0,0-1.46,1.38A2.56,2.56,0,0,1,17,7.16H10C5.76,7.16.68,10.33.47,10.47a1,1,0,0,0-.45.66,1,1,0,0,0,.18.79s3.12,4.18,3.83,7c.63,2.48.3,8.79.09,9.81a1,1,0,0,0-.09.71,1,1,0,0,0,1.13.75c1.07-.18,4.15-.52,5.51-.05A13.41,13.41,0,0,1,17.1,36a1,1,0,0,0,.9.57,1,1,0,0,0,.33-.06A13.11,13.11,0,0,1,25.56,36a27,27,0,0,0,5.71,9.7,1,1,0,0,0,1.46,0c.06-.07.58-.63,1.3-1.54h0q0,.42,0,.84A15,15,0,1,0,52.63,30.44Zm8.92-18.81A25.2,25.2,0,0,0,58,18.43a29.22,29.22,0,0,0-.41,6.6c0,1.33.08,2.3.15,3a13.85,13.85,0,0,0-5.1.23A11.52,11.52,0,0,0,49.55,30H49a13.94,13.94,0,0,0-1.45.07A29.56,29.56,0,0,0,49,20.79a44,44,0,0,0-1-8.62c5.52,6.77,6.18,8.61,7,12A1,1,0,0,0,57,23.72C56,19.65,55,17.45,48.15,9.16H54C56.69,9.16,60,10.77,61.55,11.63ZM46.1,12.72a41.78,41.78,0,0,1,.9,8.07,27.11,27.11,0,0,1-1.72,9.67A15,15,0,0,0,39,33.83h-.1a10.62,10.62,0,0,0,.1-1.48,20.1,20.1,0,0,0-1.21-6.86C42.62,22.74,45,16.86,46.1,12.72ZM35.9,9.64a10,10,0,0,1,3.36-3.05A49.25,49.25,0,0,1,40,13.42a6.62,6.62,0,0,1-.88,3c-.07-.17-.16-.32-.24-.48l-.12-.24c-.17-.29-.34-.56-.52-.81a.76.76,0,0,0-.08-.11c-.16-.21-.32-.41-.48-.59l-.2-.21c-.13-.14-.26-.27-.4-.4l-.21-.18-.41-.34L36.28,13c-.19-.13-.37-.26-.55-.37h0l-.48-.27A9.86,9.86,0,0,1,35.9,9.64Zm-2.35,4.08.11,0,.1.05a6.7,6.7,0,0,1,3.66,3.73,6.53,6.53,0,0,1,.4,1.4A9,9,0,0,1,38,20.79a4,4,0,0,1-2.11,3.1,7.22,7.22,0,0,1-1.7.78,6.61,6.61,0,0,1-4.39,0,7.21,7.21,0,0,1-1.7-.79A3.93,3.93,0,0,1,26,20.79a8.79,8.79,0,0,1,.19-1.87,6.17,6.17,0,0,1,.39-1.37,6.7,6.7,0,0,1,3.66-3.73l.11-.06h0A4.53,4.53,0,0,1,32,13.37,4.32,4.32,0,0,1,33.55,13.72ZM24.74,6.59A10,10,0,0,1,28.1,9.64a9.86,9.86,0,0,1,.67,2.66l-.36.21-.1.05-.57.38-.16.13c-.15.1-.29.22-.44.34l-.2.19c-.14.12-.27.26-.41.4l-.19.2a6.86,6.86,0,0,0-.48.59l-.1.12a8,8,0,0,0-.51.81c-.05.08-.08.16-.13.24s-.17.31-.24.48a6.55,6.55,0,0,1-.88-3A49.25,49.25,0,0,1,24.74,6.59ZM18.48,34.32a15.43,15.43,0,0,0-7.15-6.05A13.64,13.64,0,0,0,6.23,28c.07-.71.12-1.68.15-3A29.09,29.09,0,0,0,6,18.44a25.27,25.27,0,0,0-3.52-6.81C4,10.77,7.31,9.16,10,9.16h5.86C9,17.45,8,19.65,7,23.72A1,1,0,1,0,9,24.18c.81-3.4,1.47-5.24,7-12a44,44,0,0,0-1,8.62,27.43,27.43,0,0,0,2.1,11,1,1,0,0,0,.9.57,1.12,1.12,0,0,0,.43-.1,1,1,0,0,0,.47-1.33A26,26,0,0,1,17,20.79a41.78,41.78,0,0,1,.9-8.07c1.11,4.14,3.48,10,8.31,12.79A20,20,0,0,0,25,32.37a10.62,10.62,0,0,0,.1,1.48A15.27,15.27,0,0,0,18.48,34.32ZM32,43.48a23.46,23.46,0,0,1-4.67-8.57.56.56,0,0,0,0-.12A11.15,11.15,0,0,1,27,32.37a18,18,0,0,1,1.08-6.23,10.75,10.75,0,0,0,1.09.43,8.85,8.85,0,0,0,2.83.48,8.75,8.75,0,0,0,2.82-.48,10.94,10.94,0,0,0,1.1-.43A18.06,18.06,0,0,1,37,32.37a10.42,10.42,0,0,1-.29,2.41.65.65,0,0,0,0,.13A23.46,23.46,0,0,1,32,43.48ZM49,58a13,13,0,0,1-8.92-22.45l.14-.13A13,13,0,0,1,49,32c.28,0,.57,0,.85,0A13,13,0,0,1,49,58Z"/></g></svg>