<svg xmlns="http://www.w3.org/2000/svg" xmlns:xlink="http://www.w3.org/1999/xlink" viewBox="0 0 64 64"><defs><style>.cls-1{fill:url(#linear-gradient);}.cls-2{fill:url(#linear-gradient-2);}.cls-3{fill:url(#linear-gradient-3);}.cls-4{fill:url(#linear-gradient-4);}.cls-5{fill:#dd8b37;}.cls-6{fill:url(#linear-gradient-5);}.cls-7{fill:#cf4055;}.cls-8{fill:#231f20;}</style><linearGradient id="linear-gradient" x1="8" y1="63" x2="8" y2="41" gradientUnits="userSpaceOnUse"><stop offset="0" stop-color="#e9a254"/><stop offset="1" stop-color="#f4bb79"/></linearGradient><linearGradient id="linear-gradient-2" x1="40" x2="40" y2="49" gradientTransform="translate(80 112) rotate(-180)" xlink:href="#linear-gradient"/><linearGradient id="linear-gradient-3" x1="24" x2="24" y2="35" gradientTransform="translate(48 98) rotate(-180)" xlink:href="#linear-gradient"/><linearGradient id="linear-gradient-4" x1="56" x2="56" y2="21" xlink:href="#linear-gradient"/><linearGradient id="linear-gradient-5" x1="32" y1="22" x2="32" y2="4" gradientUnits="userSpaceOnUse"><stop offset="0" stop-color="#da5466"/><stop offset="1" stop-color="#f4929c"/></linearGradient></defs><title>Chart</title><g id="Chart"><rect class="cls-1" x="4" y="41" width="8" height="22"/><rect class="cls-2" x="36" y="49" width="8" height="14" transform="translate(80 112) rotate(180)"/><rect class="cls-3" x="20" y="35" width="8" height="28" transform="translate(48 98) rotate(180)"/><rect class="cls-4" x="52" y="21" width="8" height="42"/><rect class="cls-5" x="4" y="60" width="8" height="3"/><rect class="cls-5" x="20" y="60" width="8" height="3"/><rect class="cls-5" x="36" y="60" width="8" height="3"/><rect class="cls-5" x="52" y="60" width="8" height="3"/><circle class="cls-6" cx="32" cy="13" r="9"/><path class="cls-7" d="M38.36,19.36A9,9,0,0,1,23.06,12a9,9,0,0,0,17.88,0A8.92,8.92,0,0,1,38.36,19.36Z"/><path class="cls-8" d="M63,62H61V21a1,1,0,0,0-1-1H52a1,1,0,0,0-1,1V62H45V49a1,1,0,0,0-1-1H36a1,1,0,0,0-1,1V62H29V35a1,1,0,0,0-1-1H20a1,1,0,0,0-1,1V62H13V41a1,1,0,0,0-1-1H4a1,1,0,0,0-1,1V62H1a1,1,0,0,0,0,2H63a1,1,0,0,0,0-2ZM5,62V42h6V62Zm16,0V36h6V62Zm16,0V50h6V62Zm16,0V22h6V62Z"/><path class="cls-8" d="M20,14h2.07a9.93,9.93,0,0,0,2.2,5.32l-.94.94a2,2,0,1,0,1.41,1.42l.94-.94A9.93,9.93,0,0,0,31,23V25a1,1,0,1,0,2,0V23a9.93,9.93,0,0,0,5.33-2.2l.94.94a2,2,0,0,0,1.92,2.51,2,2,0,0,0,1.42-.59,2,2,0,0,0-1.93-3.34l-.94-.94A9.93,9.93,0,0,0,41.94,14H44a1,1,0,0,0,0-2H41.94a9.93,9.93,0,0,0-2.2-5.33l.94-.94a2.24,2.24,0,0,0,.51.07,2,2,0,1,0-1.92-1.48l-.94.93A10,10,0,0,0,33,3.06V1a1,1,0,0,0-2,0V3.06a10,10,0,0,0-5.33,2.2l-.94-.93a2,2,0,1,0-1.92,1.48,2.24,2.24,0,0,0,.51-.07l.94.94A9.93,9.93,0,0,0,22.06,12H20a1,1,0,0,0,0,2Zm6.35-5.25a1,1,0,1,0,1.42-1.41l-.66-.66A8,8,0,0,1,32,5h0A8,8,0,0,1,36.9,6.69l-.66.66a1,1,0,1,0,1.42,1.41l.66-.65A8,8,0,0,1,40,13h0a8.07,8.07,0,0,1-1.68,4.89l-.66-.66a1,1,0,0,0-1.42,0,1,1,0,0,0,0,1.41l.66.66A7.92,7.92,0,0,1,32,21h0a7.92,7.92,0,0,1-4.89-1.68l.66-.66a1,1,0,0,0,0-1.41,1,1,0,0,0-1.42,0l-.66.66A8.07,8.07,0,0,1,24,13h0a8,8,0,0,1,1.68-4.89Z"/><path class="cls-8" d="M28.46,14.3h0a2,2,0,1,0,0-4h0a2,2,0,0,0,0,4Z"/><circle class="cls-8" cx="34.83" cy="10.89" r="1.5"/><path class="cls-8" d="M32.71,18a1,1,0,1,0-1.42,0A1,1,0,0,0,32.71,18Z"/></g></svg>