<svg xmlns="http://www.w3.org/2000/svg" xmlns:xlink="http://www.w3.org/1999/xlink" viewBox="0 0 64 64"><defs><style>.cls-1{fill:url(#linear-gradient);}.cls-2{fill:#77cacb;}.cls-3{fill:url(#linear-gradient-2);}.cls-4{fill:#f6b756;}.cls-5{fill:url(#linear-gradient-3);}.cls-6{fill:url(#linear-gradient-4);}.cls-7{fill:#cf4055;}.cls-8{fill:#231f20;}</style><linearGradient id="linear-gradient" x1="24" y1="63" x2="24" y2="5" gradientUnits="userSpaceOnUse"><stop offset="0" stop-color="#9dd5df"/><stop offset="1" stop-color="#c3e1f5"/></linearGradient><linearGradient id="linear-gradient-2" x1="24" y1="59" x2="24" y2="37.85" gradientUnits="userSpaceOnUse"><stop offset="0" stop-color="#fbcc88"/><stop offset="1" stop-color="#ffe5c3"/></linearGradient><linearGradient id="linear-gradient-3" x1="16" y1="3" x2="32" y2="3" xlink:href="#linear-gradient"/><linearGradient id="linear-gradient-4" x1="51" y1="22" x2="51" y2="4" gradientUnits="userSpaceOnUse"><stop offset="0" stop-color="#da5466"/><stop offset="1" stop-color="#f4929c"/></linearGradient></defs><title>Chemical</title><g id="Chemical"><path class="cls-1" d="M30,29V5H18V29L2,53.46a6.24,6.24,0,0,0-1,3.38H1A6.16,6.16,0,0,0,7.16,63H40.84A6.16,6.16,0,0,0,47,56.84h0a6.24,6.24,0,0,0-1-3.38Z"/><path class="cls-2" d="M47,56.84A6.16,6.16,0,0,1,40.84,63H7.16A6.15,6.15,0,0,1,1,56.84a5.77,5.77,0,0,1,.09-1A6.11,6.11,0,0,0,7.16,61H40.84a6.14,6.14,0,0,0,6.07-5.18A5.77,5.77,0,0,1,47,56.84Z"/><path class="cls-3" d="M43,56.84A2.16,2.16,0,0,1,40.84,59H7.16a2.17,2.17,0,0,1-1.81-3.35l11-16.81c7.62-3.58,8.74,4,15.48.25L42.65,55.65A2.15,2.15,0,0,1,43,56.84Z"/><path class="cls-4" d="M43,56.84A2.16,2.16,0,0,1,40.84,59H7.16a2.17,2.17,0,0,1-1.81-3.35l.22-.34A2.21,2.21,0,0,0,7.16,56H40.84a2.21,2.21,0,0,0,1.59-.69l.22.34A2.15,2.15,0,0,1,43,56.84Z"/><rect class="cls-5" x="16" y="1" width="16" height="4" rx="2"/><circle class="cls-6" cx="51" cy="13" r="9"/><path class="cls-7" d="M57.36,19.36A9,9,0,0,1,42.06,12a9,9,0,0,0,17.88,0A8.92,8.92,0,0,1,57.36,19.36Z"/><path class="cls-8" d="M31,28.7V5.82A3,3,0,0,0,30,0H18a3,3,0,0,0-1,5.82V28.7L1.17,52.92A7.07,7.07,0,0,0,0,56.84,7.17,7.17,0,0,0,7.16,64H40.84A7.17,7.17,0,0,0,48,56.84a7.07,7.07,0,0,0-1.17-3.92ZM18,2H30a1,1,0,0,1,0,2H18a1,1,0,0,1,0-2ZM40.84,62H7.16a5.17,5.17,0,0,1-4.32-8l16-24.46A1.1,1.1,0,0,0,19,29V6H29V29a1.1,1.1,0,0,0,.16.55L45.16,54a5.17,5.17,0,0,1-4.32,8Z"/><path class="cls-8" d="M32.66,38.54s-.09-.08-.13-.13a.68.68,0,0,0-.12-.12.75.75,0,0,0-.2-.1.52.52,0,0,0-.13-.06.83.83,0,0,0-.27,0h-.1a.87.87,0,0,0-.31.1h-.06c-2.89,1.6-4.46.86-6.44-.07a9.77,9.77,0,0,0-5.45-1.26,11.25,11.25,0,0,0-3.54,1,1.86,1.86,0,0,0-.28.21l-.06.08a.46.46,0,0,1-.07.07L4.51,55.1A3.17,3.17,0,0,0,7.16,60H40.84a3.17,3.17,0,0,0,2.65-4.9ZM40.84,58H7.16A1.16,1.16,0,0,1,6,56.84a1.1,1.1,0,0,1,.19-.64L17,39.64l.1,0a8.53,8.53,0,0,1,1-.39l.15,0a6.53,6.53,0,0,1,.9-.22l.12,0a4.83,4.83,0,0,1,.82-.08h.11a4.78,4.78,0,0,1,.76,0h.09c.24,0,.48.08.71.14l.08,0c.23.06.46.14.69.22l.06,0,.69.29h0L24,40l.46.21h0l.42.19.07,0,.44.18,0,0a9.75,9.75,0,0,0,1,.32l.09,0L27,41l.12,0c.15,0,.31.05.47.06h.07a5.3,5.3,0,0,0,.57,0h0a6.58,6.58,0,0,0,.87-.06h0A7.8,7.8,0,0,0,30,40.9l.12,0c.3-.09.61-.2.92-.32l.18-.08.21-.09L41.81,56.2a1.1,1.1,0,0,1,.19.64A1.16,1.16,0,0,1,40.84,58Z"/><path class="cls-8" d="M63,12H61a9.85,9.85,0,0,0-2.21-5.33l.94-.94a2.24,2.24,0,0,0,.51.07A2,2,0,1,0,58.78,2.4a2,2,0,0,0-.51,1.92l-.94.94A10,10,0,0,0,52,3.06V1a1,1,0,0,0-2,0V3.06a10,10,0,0,0-5.33,2.2l-.94-.94a2,2,0,0,0-.51-1.92,2,2,0,1,0-1.41,3.41,2.24,2.24,0,0,0,.51-.07l.94.94A9.85,9.85,0,0,0,41.05,12H39a1,1,0,0,0,0,2h2.06a9.92,9.92,0,0,0,2.21,5.33l-.94.93a2,2,0,1,0,1.41,1.42l.94-.94A9.93,9.93,0,0,0,50,23V25a1,1,0,1,0,2,0V23a9.93,9.93,0,0,0,5.33-2.2l.94.94a2,2,0,0,0,1.92,2.51,2,2,0,0,0,1.42-.59,2,2,0,0,0-1.93-3.34l-.94-.93A9.92,9.92,0,0,0,61,14H63a1,1,0,1,0,0-2Zm-6.35,5.24a1,1,0,0,0-1.42,0,1,1,0,0,0,0,1.41l.66.66A7.92,7.92,0,0,1,51,21h0a7.92,7.92,0,0,1-4.89-1.68l.66-.66a1,1,0,0,0,0-1.41,1,1,0,0,0-1.42,0l-.66.66A8,8,0,0,1,43,13v0a8,8,0,0,1,1.68-4.88l.66.65a1,1,0,0,0,1.42-1.41l-.66-.66A8,8,0,0,1,51,5h0A8,8,0,0,1,55.9,6.69l-.66.66a1,1,0,1,0,1.42,1.41l.66-.65A8,8,0,0,1,59,13v0a8,8,0,0,1-1.68,4.88Z"/><path class="cls-8" d="M48.88,10.89a2,2,0,0,0-2.83,0,2,2,0,1,0,2.83,0Z"/><circle class="cls-8" cx="53.83" cy="10.89" r="1.5"/><path class="cls-8" d="M50.29,16.54a1,1,0,1,0,1.42,0A1,1,0,0,0,50.29,16.54Z"/></g></svg>