<svg xmlns="http://www.w3.org/2000/svg" xmlns:xlink="http://www.w3.org/1999/xlink" viewBox="0 0 64 64"><defs><style>.cls-1{fill:url(#linear-gradient);}.cls-2{fill:url(#linear-gradient-2);}.cls-3{fill:url(#linear-gradient-3);}.cls-4{fill:url(#linear-gradient-4);}.cls-5{fill:url(#linear-gradient-5);}.cls-6{fill:url(#linear-gradient-6);}.cls-7{fill:#9ca0ad;}.cls-8{fill:url(#linear-gradient-7);}.cls-9{fill:#231f20;}</style><linearGradient id="linear-gradient" x1="32" y1="63" x2="32" y2="16.14" gradientUnits="userSpaceOnUse"><stop offset="0" stop-color="#9dd5df"/><stop offset="1" stop-color="#c3e1f5"/></linearGradient><linearGradient id="linear-gradient-2" x1="19" y1="63" x2="19" y2="39" gradientUnits="userSpaceOnUse"><stop offset="0" stop-color="#474f72"/><stop offset="1" stop-color="#878c9f"/></linearGradient><linearGradient id="linear-gradient-3" x1="32" y1="22" x2="32" y2="9" gradientUnits="userSpaceOnUse"><stop offset="0" stop-color="#e9a254"/><stop offset="1" stop-color="#f4bb79"/></linearGradient><linearGradient id="linear-gradient-4" x1="46" x2="46" y2="40" xlink:href="#linear-gradient-2"/><linearGradient id="linear-gradient-5" x1="51.5" y1="63" x2="51.5" y2="47" gradientUnits="userSpaceOnUse"><stop offset="0" stop-color="#a0a6ba"/><stop offset="1" stop-color="#c6ccda"/></linearGradient><linearGradient id="linear-gradient-6" x1="14" x2="14" y2="49" xlink:href="#linear-gradient-5"/><linearGradient id="linear-gradient-7" x1="33" x2="33" y2="35" xlink:href="#linear-gradient-5"/></defs><title>City Lockdown</title><g id="City_Lockdown" data-name="City Lockdown"><path class="cls-1" d="M40,16.14C53.24,20,63,33.25,63,49V63H1V49c0-15.75,9.76-29,23-32.86"/><polyline class="cls-2" points="13 45 13 39 25 39 25 63 21 63 13 63"/><rect class="cls-3" x="24" y="9" width="16" height="13"/><polyline class="cls-4" points="51 47 51 40 41 40 41 63 46 63 51 63"/><rect class="cls-5" x="46" y="47" width="11" height="16"/><rect class="cls-6" x="7" y="49" width="14" height="14"/><rect class="cls-7" x="9" y="45" width="10" height="4"/><polyline class="cls-8" points="41 40 41 35 39 35 27 35 25 35 25 63 36 63 41 63"/><rect class="cls-7" x="27" y="31" width="12" height="4"/><path class="cls-9" d="M41,15.41V9a1,1,0,0,0-1-1H38V6A6,6,0,0,0,26,6V8H24a1,1,0,0,0-1,1v6.41C9.42,19.75,0,33.44,0,49V63a1,1,0,0,0,1,1H63a1,1,0,0,0,1-1V49C64,33.44,54.58,19.75,41,15.41ZM28,6a4,4,0,0,1,8,0V8H28Zm-3,4H39V21H25ZM17,62V53a1,1,0,0,0-2,0v9H13V53a1,1,0,0,0-2,0v9H8V50H20V62Zm7,0H22V49a1,1,0,0,0-1-1H20V45a1,1,0,0,0-1-1H14V40H24ZM18,46v2H10V46Zm8-7V36H40V62H26Zm12-7v2H28V32Zm4,9h8v5H46a1,1,0,0,0-1,1V62H42Zm9,21H47V48h9V62Zm11,0H58V47a1,1,0,0,0-1-1H52V40a1,1,0,0,0-1-1H42V35a1,1,0,0,0-1-1H40V31a1,1,0,0,0-1-1H34V26a1,1,0,0,0-2,0v4H27a1,1,0,0,0-1,1v3H25a1,1,0,0,0-1,1v3H13a1,1,0,0,0-1,1v5H9a1,1,0,0,0-1,1v3H7a1,1,0,0,0-1,1V62H2V49c0-14.45,8.58-27.17,21-31.46V22a1,1,0,0,0,1,1H40a1,1,0,0,0,1-1V17.54c12.42,4.29,21,17,21,31.46Z"/><path class="cls-9" d="M32,12a2,2,0,0,0-1,3.72V18a1,1,0,0,0,2,0V15.72A2,2,0,0,0,32,12Z"/><path class="cls-9" d="M29,38a1,1,0,0,0-1,1v1a1,1,0,0,0,2,0V39A1,1,0,0,0,29,38Z"/><path class="cls-9" d="M33,38a1,1,0,0,0-1,1v1a1,1,0,0,0,2,0V39A1,1,0,0,0,33,38Z"/><path class="cls-9" d="M37,38a1,1,0,0,0-1,1v1a1,1,0,0,0,2,0V39A1,1,0,0,0,37,38Z"/><path class="cls-9" d="M29,43a1,1,0,0,0-1,1v1a1,1,0,0,0,2,0V44A1,1,0,0,0,29,43Z"/><path class="cls-9" d="M33,43a1,1,0,0,0-1,1v1a1,1,0,0,0,2,0V44A1,1,0,0,0,33,43Z"/><path class="cls-9" d="M37,43a1,1,0,0,0-1,1v1a1,1,0,0,0,2,0V44A1,1,0,0,0,37,43Z"/><path class="cls-9" d="M29,48a1,1,0,0,0-1,1v1a1,1,0,0,0,2,0V49A1,1,0,0,0,29,48Z"/><path class="cls-9" d="M33,48a1,1,0,0,0-1,1v1a1,1,0,0,0,2,0V49A1,1,0,0,0,33,48Z"/><path class="cls-9" d="M37,48a1,1,0,0,0-1,1v1a1,1,0,0,0,2,0V49A1,1,0,0,0,37,48Z"/><path class="cls-9" d="M29,53a1,1,0,0,0-1,1v1a1,1,0,0,0,2,0V54A1,1,0,0,0,29,53Z"/><path class="cls-9" d="M33,53a1,1,0,0,0-1,1v1a1,1,0,0,0,2,0V54A1,1,0,0,0,33,53Z"/><path class="cls-9" d="M37,53a1,1,0,0,0-1,1v1a1,1,0,0,0,2,0V54A1,1,0,0,0,37,53Z"/><path class="cls-9" d="M29,58a1,1,0,0,0-1,1v1a1,1,0,0,0,2,0V59A1,1,0,0,0,29,58Z"/><path class="cls-9" d="M33,58a1,1,0,0,0-1,1v1a1,1,0,0,0,2,0V59A1,1,0,0,0,33,58Z"/><path class="cls-9" d="M37,58a1,1,0,0,0-1,1v1a1,1,0,0,0,2,0V59A1,1,0,0,0,37,58Z"/><path class="cls-9" d="M53,50H50a1,1,0,0,0,0,2h3a1,1,0,0,0,0-2Z"/><path class="cls-9" d="M53,54H50a1,1,0,0,0,0,2h3a1,1,0,0,0,0-2Z"/><path class="cls-9" d="M53,58H50a1,1,0,0,0,0,2h3a1,1,0,0,0,0-2Z"/></g></svg>