<svg xmlns="http://www.w3.org/2000/svg" xmlns:xlink="http://www.w3.org/1999/xlink" viewBox="0 0 64 64"><defs><style>.cls-1{fill:url(#linear-gradient);}.cls-2{fill:#231f20;}</style><linearGradient id="linear-gradient" x1="24.45" y1="64" x2="24.45" y2="1" gradientUnits="userSpaceOnUse"><stop offset="0" stop-color="#f2c4b0"/><stop offset="1" stop-color="#ffe3d7"/></linearGradient></defs><title>Cough</title><g id="Cough"><path class="cls-1" d="M28,64V55l6.17,1.76a6.05,6.05,0,0,0,1.69.24h0A6.14,6.14,0,0,0,42,50.86V50l.79-1.18a1.17,1.17,0,0,0-1-1.82H40a2,2,0,0,1-2-2h0a2,2,0,0,1,2-2h2.17A1.17,1.17,0,0,0,43,41h0V39l2.89-.58A2.63,2.63,0,0,0,48,35.84h0a2.63,2.63,0,0,0-.49-1.53l-3.58-5a2.69,2.69,0,0,1-.21-2.75h0A2.74,2.74,0,0,0,44,25.37V22.5A21.51,21.51,0,0,0,22.5,1h0A21.59,21.59,0,0,0,.91,22.5v1a30.8,30.8,0,0,0,2.38,12l.06.16A31,31,0,0,1,5.69,49.21C5.37,55.22,5,64,5,64Z"/><path class="cls-2" d="M44,39.82l1.93-.39a3.74,3.74,0,0,0,3-3,3.58,3.58,0,0,0-.63-2.7l-3.57-5a1.61,1.61,0,0,1-.17-1.66,3.6,3.6,0,0,0,.42-1.7V23.05C45,10.88,35.56.5,23.4,0A22.62,22.62,0,0,0-.09,22.5v1.05a31.44,31.44,0,0,0,2.45,12.3l.07.15A29.85,29.85,0,0,1,4.69,49.15C4.44,54,4.15,60.5,4,63a1,1,0,0,0,1,1H5a1,1,0,0,0,1-1c.11-2.47.39-9,.65-13.79a31.76,31.76,0,0,0-2.43-14l-.06-.15A29.63,29.63,0,0,1,1.9,23.55V23C2,11.9,10.58,2.45,21.68,2A20.51,20.51,0,0,1,43,22.5v2.87a2.26,2.26,0,0,1-.21.81,3.67,3.67,0,0,0,.33,3.71l3.58,5a1.57,1.57,0,0,1,.3.94,1.63,1.63,0,0,1-1.31,1.6L42.8,38a1,1,0,0,0-.8,1v2a1,1,0,0,0,.29.71.17.17,0,0,1-.12.29H40.12a3.08,3.08,0,0,0-3.06,2.4A3,3,0,0,0,40,48h1.81a.16.16,0,0,1,.15.09.15.15,0,0,1,0,.18l-.78,1.18A1,1,0,0,0,41,50v.71a5.25,5.25,0,0,1-2.34,4.47,5.18,5.18,0,0,1-4.21.62L28.27,54a1,1,0,0,0-.87.16,1,1,0,0,0-.4.8v8a1,1,0,0,0,2,0V56.33l4.9,1.4a7.14,7.14,0,0,0,9.1-7.1V50.3l.62-.92a2.2,2.2,0,0,0,.11-2.23A2.18,2.18,0,0,0,41.81,46H40a1,1,0,0,1,0-2h2.07a2.26,2.26,0,0,0,1.87-.91A2.18,2.18,0,0,0,44,40.66Z"/><path class="cls-2" d="M48.06,42.34A1,1,0,0,0,49,43a1,1,0,0,0,.34-.06l11-4a1,1,0,1,0-.68-1.88l-11,4A1,1,0,0,0,48.06,42.34Z"/><path class="cls-2" d="M60.34,53.06l-11-4a1,1,0,1,0-.68,1.88l11,4A1,1,0,0,0,60,55a1,1,0,0,0,.34-1.94Z"/><path class="cls-2" d="M63,45H47a1,1,0,0,0,0,2H63a1,1,0,0,0,0-2Z"/></g></svg>