<svg xmlns="http://www.w3.org/2000/svg" xmlns:xlink="http://www.w3.org/1999/xlink" viewBox="0 0 64 64"><defs><style>.cls-1{fill:url(#linear-gradient);}.cls-2{fill:url(#linear-gradient-2);}.cls-3{fill:#cf4055;}.cls-4{fill:#231f20;}</style><linearGradient id="linear-gradient" x1="24.55" y1="64" x2="24.55" y2="1" gradientUnits="userSpaceOnUse"><stop offset="0" stop-color="#f2c4b0"/><stop offset="1" stop-color="#ffe3d7"/></linearGradient><linearGradient id="linear-gradient-2" x1="22" y1="26" x2="22" y2="12" gradientUnits="userSpaceOnUse"><stop offset="0" stop-color="#da5466"/><stop offset="1" stop-color="#f4929c"/></linearGradient></defs><title>Dizzy</title><g id="Dizzy"><path class="cls-1" d="M48.1,35.84A2.63,2.63,0,0,1,46,38.42L43.1,39v3l.18.27A1.77,1.77,0,0,1,41.81,45h-1a1.74,1.74,0,0,1,1.59,1,1.84,1.84,0,0,1,.17.77A1.71,1.71,0,0,1,42.1,48v2.86a6.13,6.13,0,0,1-7.83,5.9L28.1,55v9H5.1s.37-8.78.69-14.79A31,31,0,0,0,3.44,35.62l-.07-.16A30.86,30.86,0,0,1,1,23.47v-1a21.55,21.55,0,0,1,43.1,0v2.87a2.74,2.74,0,0,1-.28,1.19A2.67,2.67,0,0,0,44,29.31l3.58,5A2.63,2.63,0,0,1,48.1,35.84Z"/><circle class="cls-2" cx="22" cy="19" r="7"/><path class="cls-3" d="M29,19a7,7,0,0,1-14,0,5.47,5.47,0,0,1,.08-1,7,7,0,0,0,13.84,0A5.47,5.47,0,0,1,29,19Z"/><path class="cls-4" d="M31,18H29.93a7.94,7.94,0,0,0-1.62-3.9l1.4-1.39a1,1,0,0,0-1.42-1.42l-1.39,1.4A7.94,7.94,0,0,0,23,11.07V10a1,1,0,0,0-2,0v1.07a7.94,7.94,0,0,0-3.9,1.62l-1.39-1.4a1,1,0,0,0-1.42,1.42l1.4,1.39A7.94,7.94,0,0,0,14.07,18H13a1,1,0,0,0,0,2h1.07a7.94,7.94,0,0,0,1.62,3.9l-1.4,1.39a1,1,0,0,0,0,1.42,1,1,0,0,0,1.42,0l1.39-1.4A7.94,7.94,0,0,0,21,26.93V28a1,1,0,0,0,2,0V26.93a7.94,7.94,0,0,0,3.9-1.62l1.39,1.4a1,1,0,0,0,1.42,0,1,1,0,0,0,0-1.42l-1.4-1.39A7.94,7.94,0,0,0,29.93,20H31a1,1,0,0,0,0-2Zm-3.09,2A6,6,0,0,1,23,24.91a1,1,0,0,0-2,0A6,6,0,0,1,16.09,20a1,1,0,0,0,0-2A6,6,0,0,1,21,13.09a1,1,0,0,0,2,0A6,6,0,0,1,27.91,18a1,1,0,0,0,0,2Z"/><circle class="cls-4" cx="19.5" cy="17.5" r="1.5"/><circle class="cls-4" cx="25" cy="18" r="1"/><circle class="cls-4" cx="22" cy="21" r="1"/><path class="cls-4" d="M44.84,28.73A1.67,1.67,0,0,1,44.71,27a3.09,3.09,0,0,0,.39-1.35v-2.6C45.1,10.89,35.66.5,23.5,0A22.64,22.64,0,0,0,0,22.5v1A31.57,31.57,0,0,0,2.45,35.85l.06.15A29.72,29.72,0,0,1,4.79,49.15C4.53,54,4.24,60.55,4.14,63a1,1,0,0,0,.92,1h.06a1,1,0,0,0,1-.92c.1-2.45.39-9,.65-13.82a31.91,31.91,0,0,0-2.43-14l-.06-.15A29.37,29.37,0,0,1,2,23.53V23c0-11.11,8.67-20.57,19.78-21A20.52,20.52,0,0,1,43.1,22.5v2.87a2.26,2.26,0,0,1-.21.81,3.67,3.67,0,0,0,.33,3.71l3.57,5a1.61,1.61,0,0,1,.28,1.24,1.71,1.71,0,0,1-1.39,1.33L42.9,38a1,1,0,0,0-.8,1v3a1,1,0,0,0,.17.56l.17.26a.75.75,0,0,1,0,.78.74.74,0,0,1-.67.4h-4.3a4.39,4.39,0,0,0-3.12,1.29A1,1,0,0,0,35.1,47a1,1,0,0,0,.74-.33A2.38,2.38,0,0,1,37.61,46h3.24a.72.72,0,0,1,.7.47.73.73,0,0,1-.13.79,1.11,1.11,0,0,0-.32.74v2.63a5.32,5.32,0,0,1-4.16,5.28,5.25,5.25,0,0,1-2.4-.11L28.37,54a1,1,0,0,0-.88.16,1,1,0,0,0-.39.8v8a1,1,0,0,0,2,0V56.33L34,57.72a7.14,7.14,0,0,0,4.38-.14,7.31,7.31,0,0,0,4.73-7V48.37a2.71,2.71,0,0,0,.3-2.67l-.07-.16a2.59,2.59,0,0,0,.91-1,2.77,2.77,0,0,0-.13-2.83V39.82L46,39.43a3.74,3.74,0,0,0,3-3,3.63,3.63,0,0,0-.63-2.7Z"/><path class="cls-4" d="M63,10H55a1,1,0,0,0-.89,1.45L55.38,14H49a1,1,0,0,0,0,2h8a1,1,0,0,0,.89-1.45L56.62,12H63a1,1,0,0,0,0-2Z"/><path class="cls-4" d="M62.56,22.9l-6.93-4a1,1,0,0,0-1,0,1,1,0,0,0-.52.82L54,22.56l-5.52-3.19a1,1,0,0,0-1.37.36,1,1,0,0,0,.37,1.37l6.93,4a1,1,0,0,0,.5.13,1,1,0,0,0,.47-.12,1,1,0,0,0,.52-.82L56,21.44l5.52,3.19a1,1,0,0,0,1.37-.36A1,1,0,0,0,62.56,22.9Z"/><path class="cls-4" d="M44.94,12.46a1,1,0,0,0,.5-.13l6.93-4a1,1,0,0,0,.05-1.7L50,5.06l5.52-3.19A1,1,0,0,0,55.93.5,1,1,0,0,0,54.56.13l-6.93,4a1,1,0,0,0-.5.84,1,1,0,0,0,.45.86L50,7.41,44.44,10.6a1,1,0,0,0,.5,1.86Z"/></g></svg>