<svg xmlns="http://www.w3.org/2000/svg" xmlns:xlink="http://www.w3.org/1999/xlink" viewBox="0 0 64 64"><defs><style>.cls-1{fill:url(#linear-gradient);}.cls-2{fill:#77cacb;}.cls-3{fill:#cf4055;}.cls-4{fill:url(#linear-gradient-3);}.cls-5{fill:url(#linear-gradient-4);}.cls-6{fill:url(#linear-gradient-5);}.cls-7{fill:url(#linear-gradient-6);}.cls-8{fill:url(#linear-gradient-7);}.cls-9{fill:url(#linear-gradient-8);}.cls-10{fill:url(#linear-gradient-9);}.cls-11{fill:#231f20;}</style><linearGradient id="linear-gradient" x1="32" y1="63" x2="32" y2="1" gradientUnits="userSpaceOnUse"><stop offset="0" stop-color="#9dd5df"/><stop offset="1" stop-color="#c3e1f5"/></linearGradient><linearGradient id="linear-gradient-3" x1="47" y1="48" x2="47" y2="44" gradientUnits="userSpaceOnUse"><stop offset="0" stop-color="#da5466"/><stop offset="1" stop-color="#f4929c"/></linearGradient><linearGradient id="linear-gradient-4" x1="25" y1="25" x2="25" y2="19" xlink:href="#linear-gradient-3"/><linearGradient id="linear-gradient-5" x1="32" y1="49" x2="32" y2="31" xlink:href="#linear-gradient-3"/><linearGradient id="linear-gradient-6" x1="41.19" y1="32.81" x2="41.19" y2="28.81" xlink:href="#linear-gradient-3"/><linearGradient id="linear-gradient-7" x1="22.81" y1="51.19" x2="22.81" y2="47.19" xlink:href="#linear-gradient-3"/><linearGradient id="linear-gradient-8" x1="41.19" y1="51.19" x2="41.19" y2="47.19" xlink:href="#linear-gradient-3"/><linearGradient id="linear-gradient-9" x1="22.81" y1="32.81" x2="22.81" y2="28.81" xlink:href="#linear-gradient-3"/></defs><title>Droplet</title><g id="Droplet"><path class="cls-1" d="M53,42.33A20.83,20.83,0,0,1,32,63,20.83,20.83,0,0,1,11,42.33C11,25.11,32,1,32,1S53,25.11,53,42.33Z"/><path class="cls-1" d="M53,42.33A20.83,20.83,0,0,1,32,63,20.83,20.83,0,0,1,11,42.33C11,25.11,32,1,32,1S53,25.11,53,42.33Z"/><path class="cls-2" d="M53,42.33A20.83,20.83,0,0,1,32,63,20.83,20.83,0,0,1,11,42.33c0-.52,0-1,.06-1.58A20.84,20.84,0,0,0,32,60,20.84,20.84,0,0,0,52.94,40.75C53,41.28,53,41.81,53,42.33Z"/><circle class="cls-3" cx="26" cy="57" r="2"/><path class="cls-4" d="M47,48a2,2,0,1,1,2-2A2,2,0,0,1,47,48Zm0-2h0Zm0,0h0Zm0,0h0Zm0,0h0Zm0,0h0Zm0,0h0Zm0,0h0Zm0,0h0Z"/><circle class="cls-5" cx="25" cy="22" r="3"/><path class="cls-3" d="M39,24a2,2,0,1,1,2-2A2,2,0,0,1,39,24Zm0-2h0Zm0,0h0Zm0,0h0Zm0,0h0Zm0,0h0Zm0,0h0Zm0,0h0Zm0,0h0Z"/><circle class="cls-6" cx="32" cy="40" r="9"/><path class="cls-3" d="M38.36,46.36A9,9,0,0,1,23.06,39a9,9,0,0,0,17.88,0A8.92,8.92,0,0,1,38.36,46.36Z"/><path class="cls-7" d="M41.19,32.81a2,2,0,1,1,1.42-.59A2,2,0,0,1,41.19,32.81Zm0-2Z"/><path class="cls-8" d="M22.81,51.19a2,2,0,1,1,1.41-.58A2,2,0,0,1,22.81,51.19Zm0-2Z"/><path class="cls-9" d="M41.19,51.19a2,2,0,0,1-1.41-.58,2,2,0,1,1,1.41.58Zm0-2Z"/><path class="cls-10" d="M22.81,32.81a2,2,0,1,1,1.41-.59A2,2,0,0,1,22.81,32.81Zm0-2Z"/><path class="cls-11" d="M32.75.34a1,1,0,0,0-1.5,0c-.87,1-21.25,24.6-21.25,42a22,22,0,0,0,44,0C54,24.94,33.62,1.34,32.75.34ZM32,62A19.86,19.86,0,0,1,12,42.33C12,27.52,28.27,7.05,32,2.55c3.73,4.5,20,25,20,39.78A19.86,19.86,0,0,1,32,62Z"/><path class="cls-11" d="M44,39H42a9.92,9.92,0,0,0-2.21-5.33l.94-.94a1.81,1.81,0,0,0,.51.08,2,2,0,1,0-1.41-3.42,2,2,0,0,0-.51,1.93l-.94.94A9.93,9.93,0,0,0,33,30.06V28a1,1,0,1,0-2,0v2.07a9.93,9.93,0,0,0-5.33,2.2l-.94-.94a2,2,0,1,0-3.34.9,2,2,0,0,0,1.42.59,1.81,1.81,0,0,0,.51-.08l.94.94A9.92,9.92,0,0,0,22.05,39H20a1,1,0,1,0,0,2h2.06a9.92,9.92,0,0,0,2.21,5.33l-.94.94a2,2,0,1,0,1.41,1.41l.94-.94A9.93,9.93,0,0,0,31,49.94V52a1,1,0,0,0,2,0V49.94a9.93,9.93,0,0,0,5.33-2.2l.94.94a2,2,0,1,0,1.41-1.41l-.94-.94A9.92,9.92,0,0,0,42,41H44a1,1,0,0,0,0-2Zm-6.35,5.24a1,1,0,0,0-1.42,1.42l.66.66A8,8,0,0,1,32,48h0a8,8,0,0,1-4.89-1.68l.66-.66a1,1,0,0,0-1.42-1.42l-.66.66A8,8,0,0,1,24,40s0,0,0,0,0,0,0,0a8,8,0,0,1,1.68-4.88l.66.66a1,1,0,0,0,1.42,0,1,1,0,0,0,0-1.42l-.66-.66A8,8,0,0,1,32,32h0a8,8,0,0,1,4.89,1.68l-.66.66a1,1,0,0,0,0,1.42,1,1,0,0,0,1.42,0l.66-.66A8,8,0,0,1,40,40s0,0,0,0,0,0,0,0a8,8,0,0,1-1.68,4.88Z"/><path class="cls-11" d="M29.88,37.88a2,2,0,0,0-2.83,0,2,2,0,1,0,2.83,0Z"/><circle class="cls-11" cx="34.83" cy="37.88" r="1.5"/><path class="cls-11" d="M31.29,43.54a1,1,0,0,0,0,1.41,1,1,0,0,0,1.42,0,1,1,0,0,0,0-1.41A1,1,0,0,0,31.29,43.54Z"/><path class="cls-11" d="M26,54a3,3,0,1,0,3,3A3,3,0,0,0,26,54Zm0,4a1,1,0,1,1,1-1A1,1,0,0,1,26,58Z"/><circle class="cls-11" cx="47" cy="46" r="2"/><path class="cls-11" d="M25,26a4,4,0,1,0-4-4A4,4,0,0,0,25,26Zm0-6a2,2,0,1,1-2,2A2,2,0,0,1,25,20Z"/><circle class="cls-11" cx="39" cy="22" r="2"/></g></svg>