<svg xmlns="http://www.w3.org/2000/svg" xmlns:xlink="http://www.w3.org/1999/xlink" viewBox="0 0 64 64"><defs><style>.cls-1{fill:url(#linear-gradient);}.cls-2{fill:url(#linear-gradient-2);}.cls-3{fill:#5b8dc9;}.cls-4{fill:url(#linear-gradient-3);}.cls-5{fill:url(#linear-gradient-4);}.cls-6{fill:url(#linear-gradient-5);}.cls-7{fill:#cf4055;}.cls-8{fill:#231f20;}</style><linearGradient id="linear-gradient" x1="32" y1="37" x2="32" y2="3" gradientUnits="userSpaceOnUse"><stop offset="0" stop-color="#d4d8e1"/><stop offset="1" stop-color="#f3f4f5"/></linearGradient><linearGradient id="linear-gradient-2" x1="32" y1="33" x2="32" y2="3" gradientUnits="userSpaceOnUse"><stop offset="0" stop-color="#7aa8d7"/><stop offset="1" stop-color="#c3d2e7"/></linearGradient><linearGradient id="linear-gradient-3" x1="32" y1="20" x2="32" y2="12" gradientUnits="userSpaceOnUse"><stop offset="0" stop-color="#474f72"/><stop offset="1" stop-color="#878c9f"/></linearGradient><linearGradient id="linear-gradient-4" x1="49" y1="61" x2="49" y2="33" gradientUnits="userSpaceOnUse"><stop offset="0" stop-color="#9dd5df"/><stop offset="1" stop-color="#c3e1f5"/></linearGradient><linearGradient id="linear-gradient-5" x1="49" y1="54" x2="49" y2="40" gradientUnits="userSpaceOnUse"><stop offset="0" stop-color="#da5466"/><stop offset="1" stop-color="#f4929c"/></linearGradient></defs><title>Eye Infected</title><g id="Eye_Infected" data-name="Eye Infected"><path class="cls-1" d="M49.61,33C55.74,30,60.5,25.41,63,20,59.91,13.31,53.36,7.9,45,5.09A41.72,41.72,0,0,0,19,5.09C10.64,7.9,4.09,13.31,1,20c4.57,9.91,16.73,17,31,17a41.7,41.7,0,0,0,8.08-.78Z"/><path class="cls-2" d="M49,16A17,17,0,1,1,19,5.09,41.72,41.72,0,0,1,45,5.09,16.93,16.93,0,0,1,49,16Z"/><circle class="cls-3" cx="32" cy="16" r="9"/><circle class="cls-4" cx="32" cy="16" r="4"/><circle class="cls-5" cx="49" cy="47" r="14"/><circle class="cls-6" cx="49" cy="47" r="7"/><path class="cls-7" d="M56,47a7,7,0,0,1-14,0,5.47,5.47,0,0,1,.08-1,7,7,0,0,0,13.84,0A5.47,5.47,0,0,1,56,47Z"/><path class="cls-8" d="M32,26A10,10,0,1,0,22,16,10,10,0,0,0,32,26ZM32,8a8,8,0,1,1-8,8A8,8,0,0,1,32,8Z"/><path class="cls-8" d="M32,21a5,5,0,1,0-5-5A5,5,0,0,0,32,21Zm0-8a3,3,0,1,1-3,3A3,3,0,0,1,32,13Z"/><path class="cls-8" d="M56.93,46a7.94,7.94,0,0,0-1.62-3.9l1.4-1.39a1,1,0,0,0-1.42-1.42l-1.39,1.4A7.94,7.94,0,0,0,50,39.07V38a1,1,0,0,0-2,0v1.07a7.94,7.94,0,0,0-3.9,1.62l-1.39-1.4a1,1,0,0,0-1.42,1.42l1.4,1.39A7.94,7.94,0,0,0,41.07,46H40a1,1,0,0,0,0,2h1.07a7.94,7.94,0,0,0,1.62,3.9l-1.4,1.39a1,1,0,0,0,0,1.42,1,1,0,0,0,1.42,0l1.39-1.4A7.94,7.94,0,0,0,48,54.93V56a1,1,0,0,0,2,0V54.93a7.94,7.94,0,0,0,3.9-1.62l1.39,1.4a1,1,0,0,0,1.42,0,1,1,0,0,0,0-1.42l-1.4-1.39A7.94,7.94,0,0,0,56.93,48H58a1,1,0,0,0,0-2Zm-2,2A6,6,0,0,1,50,52.91a1,1,0,0,0-2,0A6,6,0,0,1,43.09,48a1,1,0,0,0,0-2A6,6,0,0,1,48,41.09a1,1,0,0,0,2,0A6,6,0,0,1,54.91,46a1,1,0,0,0,0,2Z"/><circle class="cls-8" cx="46.5" cy="45.5" r="1.5"/><circle class="cls-8" cx="52" cy="46" r="1"/><circle class="cls-8" cx="49" cy="49" r="1"/><path class="cls-8" d="M52.66,32.47a28.32,28.32,0,0,0,11.25-12,1,1,0,0,0,0-.84C60.72,12.67,54,7.05,45.36,4.14A42,42,0,0,0,32,2c-1.23,0-2.44,0-3.65.16a41.66,41.66,0,0,0-9.71,2h0C10,7.05,3.28,12.67.09,19.58a1,1,0,0,0,0,.84C4.94,30.93,17.76,38,32,38a44,44,0,0,0,5.28-.33,15,15,0,1,0,15.38-5.2ZM19.54,6l.68-.21.7-.21.84-.22c.23-.06.46-.13.69-.18l.85-.19.7-.16.87-.15.7-.13.9-.12.69-.1.95-.09c.22,0,.43-.05.65-.06l1.07-.07.54,0c.54,0,1.09,0,1.63,0s1.09,0,1.63,0l.54,0,1.07.07c.22,0,.43,0,.64.06l1,.09.7.1.89.12.72.13.84.15.74.16.81.18.73.2c.27.07.54.13.8.21l.73.22.66.2A16,16,0,1,1,19.54,6ZM2.11,20c2.64-5.42,7.72-10,14.2-12.81a18,18,0,1,0,31.38,0C54.17,10,59.25,14.58,61.89,20A27.41,27.41,0,0,1,49.36,32L49,32a14.87,14.87,0,0,0-9.33,3.28A41.37,41.37,0,0,1,32,36C18.72,36,6.78,29.59,2.11,20ZM49,60A13,13,0,1,1,62,47,13,13,0,0,1,49,60Z"/></g></svg>