<svg xmlns="http://www.w3.org/2000/svg" xmlns:xlink="http://www.w3.org/1999/xlink" viewBox="0 0 64 64"><defs><style>.cls-1{fill:url(#linear-gradient);}.cls-2{fill:#eab39b;}.cls-3{fill:url(#linear-gradient-2);}.cls-4{fill:url(#linear-gradient-3);}.cls-5{fill:#cf4055;}.cls-6{fill:#231f20;}</style><linearGradient id="linear-gradient" x1="25" y1="44" x2="25" gradientUnits="userSpaceOnUse"><stop offset="0" stop-color="#f2c4b0"/><stop offset="1" stop-color="#ffe3d7"/></linearGradient><linearGradient id="linear-gradient-2" x1="17" y1="63" x2="17" y2="45" gradientUnits="userSpaceOnUse"><stop offset="0" stop-color="#8cdd79"/><stop offset="1" stop-color="#d4e6b6"/></linearGradient><linearGradient id="linear-gradient-3" x1="54" y1="17" x2="54" y2="3" gradientUnits="userSpaceOnUse"><stop offset="0" stop-color="#da5466"/><stop offset="1" stop-color="#f4929c"/></linearGradient></defs><title>Flu</title><g id="Flu"><path class="cls-1" d="M34.83,0C36.09,7.52,37.91,16.91,40,19c3.54,3.54,9,8,9,14,0,8-6,10-10,10a8.76,8.76,0,0,1-6-2s-4,3-8,3-8-3-8-3a8.76,8.76,0,0,1-6,2C7,43,1,41,1,33c0-6,5.46-10.46,9-14,2.09-2.09,3.91-11.48,5.17-19Z"/><path class="cls-2" d="M49,33c0,8-6,10-10,10a8.76,8.76,0,0,1-6-2s-4,3-8,3-8-3-8-3a8.76,8.76,0,0,1-6,2C7,43,1,41,1,33a6.85,6.85,0,0,1,.05-.91C1.56,39.18,7.19,41,11,41a8.76,8.76,0,0,0,6-2s4,3,8,3,8-3,8-3a8.76,8.76,0,0,0,6,2c3.81,0,9.44-1.82,10-8.91A6.85,6.85,0,0,1,49,33Z"/><path class="cls-3" d="M23,57a6,6,0,0,1-12,0c0-5,6-12,6-12S23,52,23,57Z"/><circle class="cls-4" cx="54" cy="10" r="7"/><path class="cls-5" d="M61,10a7,7,0,0,1-14,0,5.47,5.47,0,0,1,.08-1A7,7,0,0,0,60.92,9,5.47,5.47,0,0,1,61,10Z"/><path class="cls-6" d="M42.05,19.61c-.47-.46-.92-.89-1.34-1.32C39.83,17.41,38,14,35.82.83a1,1,0,0,0-2,.34C36.48,16.89,38.6,19,39.29,19.71c.43.43.89.87,1.37,1.33C43.93,24.21,48,28.15,48,33c0,8.35-6.89,9-9,9a8.13,8.13,0,0,1-5.09-1.54A5.09,5.09,0,0,1,37,39c2.37,0,3.26.68,3.32.73a1,1,0,0,0,1.39-1.44C41.49,38.08,40.25,37,37,37c-2.17,0-3.8,1.42-5.38,2.79C29.8,41.37,27.93,43,25,43s-4.8-1.63-6.62-3.21C16.8,38.42,15.17,37,13,37c-3.25,0-4.49,1.08-4.71,1.29a1,1,0,0,0,0,1.38,1,1,0,0,0,1.4.06S10.56,39,13,39a5.09,5.09,0,0,1,3.09,1.46A8.09,8.09,0,0,1,11,42c-2.11,0-9-.65-9-9,0-4.85,4.07-8.79,7.34-12,.48-.46.94-.9,1.37-1.33.69-.7,2.81-2.82,5.45-18.54a1,1,0,0,0-2-.34C12,14,10.17,17.41,9.29,18.29c-.42.43-.87.86-1.34,1.32C4.41,23,0,27.3,0,33c0,8.12,5.93,11,11,11a9.85,9.85,0,0,0,6.63-2.22c1.8,1.54,4,3.22,7.37,3.22s5.57-1.68,7.37-3.22A9.85,9.85,0,0,0,39,44c5.07,0,11-2.88,11-11C50,27.3,45.59,23,42.05,19.61Z"/><path class="cls-6" d="M16.24,44.35C16,44.65,10,51.69,10,57a7,7,0,0,0,14,0c0-5.31-6-12.35-6.24-12.65A1,1,0,0,0,16.24,44.35ZM17,62a5,5,0,0,1-5-5c0-3.55,3.44-8.39,5-10.4,1.56,2,5,6.85,5,10.4A5,5,0,0,1,17,62Z"/><path class="cls-6" d="M63,9H61.93a7.94,7.94,0,0,0-1.62-3.9l1.4-1.39a1,1,0,1,0-1.42-1.42L58.9,3.69A7.94,7.94,0,0,0,55,2.07V1a1,1,0,0,0-2,0V2.07a7.94,7.94,0,0,0-3.9,1.62l-1.39-1.4a1,1,0,0,0-1.42,1.42l1.4,1.39A7.94,7.94,0,0,0,46.07,9H45a1,1,0,0,0,0,2h1.07a7.94,7.94,0,0,0,1.62,3.9l-1.4,1.39a1,1,0,0,0,0,1.42,1,1,0,0,0,1.42,0l1.39-1.4A7.94,7.94,0,0,0,53,17.93V19a1,1,0,0,0,2,0V17.93a7.94,7.94,0,0,0,3.9-1.62l1.39,1.4a1,1,0,0,0,1.42,0,1,1,0,0,0,0-1.42l-1.4-1.39A7.94,7.94,0,0,0,61.93,11H63a1,1,0,0,0,0-2Zm-3.09,2A6,6,0,0,1,55,15.91a1,1,0,0,0-2,0A6,6,0,0,1,48.09,11a1,1,0,0,0,0-2A6,6,0,0,1,53,4.09a1,1,0,0,0,2,0A6,6,0,0,1,59.91,9a1,1,0,0,0,0,2Z"/><circle class="cls-6" cx="51.5" cy="8.5" r="1.5"/><circle class="cls-6" cx="57" cy="9" r="1"/><circle class="cls-6" cx="54" cy="12" r="1"/></g></svg>