<svg xmlns="http://www.w3.org/2000/svg" xmlns:xlink="http://www.w3.org/1999/xlink" viewBox="0 0 64 64"><defs><style>.cls-1{fill:url(#linear-gradient);}.cls-2{fill:url(#linear-gradient-2);}.cls-3{fill:url(#linear-gradient-3);}.cls-4{fill:url(#linear-gradient-4);}.cls-5{fill:url(#linear-gradient-5);}.cls-6{fill:#f6b756;}.cls-7{fill:url(#linear-gradient-6);}.cls-8{fill:#cf4055;}.cls-9{fill:#231f20;}</style><linearGradient id="linear-gradient" x1="27.95" y1="42.9" x2="27.95" y2="28.73" gradientUnits="userSpaceOnUse"><stop offset="0" stop-color="#6ab891"/><stop offset="1" stop-color="#85cba9"/></linearGradient><linearGradient id="linear-gradient-2" x1="49" y1="63" x2="49" y2="35" gradientUnits="userSpaceOnUse"><stop offset="0" stop-color="#9dd5df"/><stop offset="1" stop-color="#c3e1f5"/></linearGradient><linearGradient id="linear-gradient-3" x1="28" y1="37.82" x2="28" y2="1" xlink:href="#linear-gradient"/><linearGradient id="linear-gradient-4" x1="13.32" y1="19.08" x2="13.32" y2="11.38" xlink:href="#linear-gradient"/><linearGradient id="linear-gradient-5" x1="42.68" y1="19.08" x2="42.68" y2="11.38" xlink:href="#linear-gradient"/><linearGradient id="linear-gradient-6" x1="49" y1="56" x2="49" y2="42" gradientUnits="userSpaceOnUse"><stop offset="0" stop-color="#da5466"/><stop offset="1" stop-color="#f4929c"/></linearGradient></defs><title>Frog Quarantine</title><g id="Frog_Quarantine" data-name="Frog Quarantine"><path class="cls-1" d="M48.16,35a2.55,2.55,0,0,0,.74-1.3c0-1.64,0-4.09-2.61-4.91-1.31-.41-3.69.61-5.76,1.73H15.47C13.4,29.43,11,28.41,9.71,28.82c-2.61.82-2.61,3.27-2.61,4.91S14,40,14,40H10L7,41l.1.09s9.91,3.46,11.32.82c.87-1.64-.87-3.27-.87-3.27l-6.1-4.09a42,42,0,0,0,6.15,4.14h0c3,1.68,6.8,3.22,10.39,3.22s7.35-1.54,10.39-3.22h0a42,42,0,0,0,6.15-4.14l-6.1,4.09-.05,0a3.34,3.34,0,0,0-1,2.54Z"/><circle class="cls-2" cx="49" cy="49" r="14"/><path class="cls-3" d="M32.35,37.82c8.71-4.09,8.71-8.18,8.71-11.46,0-3.57-1.84-6.7-2.84-9.72l-.84-5.26a16.25,16.25,0,0,0-1-3.32L34.15,4.31A8,8,0,0,0,28,1a8,8,0,0,0-6.15,3.31L19.64,8.06a16.25,16.25,0,0,0-1,3.32l-.84,5.26c-1,3-2.84,6.15-2.84,9.72,0,3.28,0,7.37,8.71,11.46Z"/><path class="cls-4" d="M18.62,11.38a10.4,10.4,0,0,0-.2,1.89,10.63,10.63,0,0,1-.64,3.37c-1.55,1.41-3.62,2.79-5.46,2.36-3-.71-4.07-5.72-4.3-7,.48,1.61,4.3,3.77,4.3,3.77A23.34,23.34,0,0,1,18.62,11.38Z"/><path class="cls-5" d="M48,12c-.23,1.32-1.28,6.33-4.3,7-1.84.43-3.91-.95-5.46-2.36a10.63,10.63,0,0,1-.64-3.37,10.4,10.4,0,0,0-.2-1.89,23.34,23.34,0,0,1,6.3,4.35S47.5,13.57,48,12Z"/><ellipse class="cls-6" cx="21.47" cy="6.73" rx="2.18" ry="2.45"/><ellipse class="cls-6" cx="34.53" cy="6.73" rx="2.18" ry="2.45"/><circle class="cls-7" cx="49" cy="49" r="7"/><path class="cls-8" d="M56,49a7,7,0,0,1-14,0,5.47,5.47,0,0,1,.08-1,7,7,0,0,0,13.84,0A5.47,5.47,0,0,1,56,49Z"/><path class="cls-9" d="M58,48H56.94a8.13,8.13,0,0,0-1.62-3.9h0l1.39-1.39a1,1,0,0,0-1.42-1.42L53.9,42.68h0A8.13,8.13,0,0,0,50,41.06V40a1,1,0,0,0-2,0v1.06a8.13,8.13,0,0,0-3.9,1.62h0l-1.39-1.39a1,1,0,0,0-1.42,1.42l1.39,1.39h0A8.13,8.13,0,0,0,41.06,48H40a1,1,0,0,0,0,2h1.06a8.13,8.13,0,0,0,1.62,3.9h0l-1.39,1.39a1,1,0,0,0,0,1.42,1,1,0,0,0,1.42,0l1.39-1.39h0A8.13,8.13,0,0,0,48,56.94V58a1,1,0,0,0,2,0V56.94a8.13,8.13,0,0,0,3.9-1.62h0l1.39,1.39a1,1,0,0,0,1.42,0,1,1,0,0,0,0-1.42L55.32,53.9h0A8.13,8.13,0,0,0,56.94,50H58a1,1,0,0,0,0-2ZM44.76,53.24A5.86,5.86,0,0,1,43.09,50h0a1,1,0,0,0,0-2h0A6,6,0,0,1,48,43.09h0a1,1,0,0,0,2,0h0A6,6,0,0,1,54.91,48h0a1,1,0,0,0,0,2h0A6,6,0,0,1,50,54.91h0a1,1,0,0,0-2,0h0A5.86,5.86,0,0,1,44.76,53.24Z"/><circle class="cls-9" cx="46.5" cy="47.5" r="1.5"/><circle class="cls-9" cx="52" cy="48" r="1"/><circle class="cls-9" cx="49" cy="51" r="1"/><path class="cls-9" d="M49.87,34h0a1.54,1.54,0,0,0,0-.3c0-1.69,0-4.82-3.31-5.86-1.08-.34-2.57-.06-4.63.86a19.6,19.6,0,0,0,.1-2.37,18.38,18.38,0,0,0-1.71-7,5.85,5.85,0,0,0,2.61.69,3.8,3.8,0,0,0,.95-.11c3.57-.84,4.76-6.15,5.05-7.82v0l3-2.82a1.81,1.81,0,1,0-1.45-1.76,2.07,2.07,0,0,0,0,.35L49,9.33V6.62a1.79,1.79,0,0,0,.87-1.53,1.87,1.87,0,0,0-3.74,0A1.79,1.79,0,0,0,47,6.62v2.7L45.51,7.9a1.39,1.39,0,0,0,0-.35,1.87,1.87,0,1,0-1.87,1.81,2,2,0,0,0,.42,0l2.79,2.63a11.58,11.58,0,0,1-3.08,2.55,24.17,24.17,0,0,0-5.55-3.8,17.17,17.17,0,0,0-.82-2.59,3.64,3.64,0,0,0,.27-1.37,3.32,3.32,0,0,0-3.14-3.45A8.74,8.74,0,0,0,28,0a8.74,8.74,0,0,0-6.57,3.28,3.32,3.32,0,0,0-3.14,3.45,3.64,3.64,0,0,0,.27,1.37,17.17,17.17,0,0,0-.82,2.59,24.17,24.17,0,0,0-5.55,3.8,11.58,11.58,0,0,1-3.08-2.55L11.9,9.31a2,2,0,0,0,.42,0,1.82,1.82,0,1,0-1.87-1.81,1.39,1.39,0,0,0,0,.35L9,9.32V6.62a1.79,1.79,0,0,0,.87-1.53,1.87,1.87,0,0,0-3.74,0A1.79,1.79,0,0,0,7,6.62V9.33L5.45,7.9a2.07,2.07,0,0,0,0-.35A1.84,1.84,0,0,0,3.61,5.73,1.82,1.82,0,1,0,4,9.31l3,2.82v0c.29,1.67,1.48,7,5.05,7.82a3.8,3.8,0,0,0,.95.11,5.85,5.85,0,0,0,2.61-.69,18.38,18.38,0,0,0-1.71,7,19.6,19.6,0,0,0,.1,2.37c-2-.91-3.57-1.2-4.63-.87C6.1,28.9,6.1,32,6.1,33.73c0,1.4,2.81,4,5.85,6.36H10L6.32,37.3a1.53,1.53,0,0,0,0-.3,1.87,1.87,0,1,0-1.87,1.82,2.32,2.32,0,0,0,.46-.06l1.77,1.33H3.43a1.89,1.89,0,0,0-1.56-.82,1.82,1.82,0,1,0,0,3.64,1.89,1.89,0,0,0,1.56-.82H6.71L4.94,43.42a2.32,2.32,0,0,0-.46-.06,1.82,1.82,0,1,0,1.87,1.82,1.36,1.36,0,0,0,0-.29l2.81-2.11a25,25,0,0,0,6.42,1.11c1.72,0,3.16-.39,3.75-1.51a3,3,0,0,0,.35-1.55A20.63,20.63,0,0,0,28,42.91a20.63,20.63,0,0,0,8.35-2.08v.11s0,0,0,0A15,15,0,1,0,49.87,34ZM43,16.46a1,1,0,0,0,1.18.14c.26-.15.93-.54,1.68-1.06A4.15,4.15,0,0,1,43.45,18c-1.1.25-2.64-.44-4.36-2a9.17,9.17,0,0,1-.51-2.8s0-.1,0-.15A24.08,24.08,0,0,1,43,16.46ZM34.53,5.27a1.35,1.35,0,0,1,1.18,1.46,1.21,1.21,0,1,1-2.36,0A1.35,1.35,0,0,1,34.53,5.27Zm-13.06,0a1.35,1.35,0,0,1,1.18,1.46,1.34,1.34,0,0,1-1.18,1.45,1.34,1.34,0,0,1-1.18-1.45A1.35,1.35,0,0,1,21.47,5.27ZM12.55,18a4.15,4.15,0,0,1-2.4-2.49c.75.52,1.42.91,1.68,1.06A1,1,0,0,0,13,16.46a24.08,24.08,0,0,1,4.42-3.34c0,.05,0,.11,0,.15a9.17,9.17,0,0,1-.51,2.8C15.19,17.59,13.65,18.28,12.55,18ZM28,40.91c-2.84,0-6.16-1-9.86-3.06l-.06,0L18,37.76a.6.6,0,0,0-.11-.06,41.93,41.93,0,0,1-5.78-3.92,1,1,0,0,0-1.29,1.53A42.3,42.3,0,0,0,17,39.48c.27.3,1,1.19.57,2-.19.35-.94.5-2,.46a1,1,0,0,0,.37-.5,1,1,0,0,0-.36-1.12c-3.39-2.47-7.18-5.73-7.43-6.55,0-1.9.14-3.4,1.91-4,.27-.08,1.43-.21,4.66,1.5,1,2.38,3.24,5,8.55,7.45a.92.92,0,0,0,.42.1,1,1,0,0,0,.43-1.91c-8.13-3.82-8.13-7.39-8.13-10.55a18.18,18.18,0,0,1,1.78-6.76,17.19,17.19,0,0,0,1.7-6.33,11.66,11.66,0,0,1,.64-3.46,2.93,2.93,0,0,0,1.41.37,3.33,3.33,0,0,0,3.18-3.45,3.56,3.56,0,0,0-1.2-2.68A6.54,6.54,0,0,1,28,2a6.54,6.54,0,0,1,4.55,2.05,3.56,3.56,0,0,0-1.2,2.68,3.33,3.33,0,0,0,3.18,3.45,2.93,2.93,0,0,0,1.41-.37,11.66,11.66,0,0,1,.64,3.46,17.19,17.19,0,0,0,1.7,6.33,18.18,18.18,0,0,1,1.78,6.76c0,3.16,0,6.73-8.13,10.55a1,1,0,0,0,.43,1.91.92.92,0,0,0,.42-.1c5.31-2.49,7.58-5.07,8.55-7.46,3.23-1.69,4.38-1.57,4.66-1.49,1.77.56,1.91,2.06,1.92,3.88a1.66,1.66,0,0,1-.26.42,13.44,13.44,0,0,0-2.11.33h0a.92.92,0,0,0-.21-.51,1,1,0,0,0-1.41-.12,40.83,40.83,0,0,1-6,4l-.06,0C34.16,39.88,30.84,40.91,28,40.91ZM49,62A13,13,0,0,1,38.12,41.88l0,0,0,0,.06-.09A13,13,0,0,1,48.16,36q.42,0,.84,0a13,13,0,0,1,0,26Z"/></g></svg>