<svg xmlns="http://www.w3.org/2000/svg" xmlns:xlink="http://www.w3.org/1999/xlink" viewBox="0 0 64 64"><defs><style>.cls-1{fill:url(#linear-gradient);}.cls-2{fill:url(#linear-gradient-2);}.cls-3{fill:url(#linear-gradient-3);}.cls-4{fill:#cf4055;}.cls-5{fill:#231f20;}</style><linearGradient id="linear-gradient" x1="21" y1="64" x2="21" y2="1" gradientUnits="userSpaceOnUse"><stop offset="0" stop-color="#f2c4b0"/><stop offset="1" stop-color="#ffe3d7"/></linearGradient><linearGradient id="linear-gradient-2" x1="47" y1="63" x2="47" y2="35" gradientUnits="userSpaceOnUse"><stop offset="0" stop-color="#9dd5df"/><stop offset="1" stop-color="#c3e1f5"/></linearGradient><linearGradient id="linear-gradient-3" x1="47" y1="56" x2="47" y2="42" gradientUnits="userSpaceOnUse"><stop offset="0" stop-color="#da5466"/><stop offset="1" stop-color="#f4929c"/></linearGradient></defs><title>Hand Infected</title><g id="Hand_Infected" data-name="Hand Infected"><path class="cls-1" d="M39,11.6V34.78c0,.94,0,1.87-.06,2.78L34,54.19V64H12V55.57A8,8,0,0,0,9.53,49.8,19,19,0,0,1,3,34.78V22a2,2,0,0,1,2-2,5.88,5.88,0,0,1,4,1.54A6,6,0,0,1,11,26V6.6a3.56,3.56,0,0,1,2.77-3.52A3.5,3.5,0,0,1,18,6.5v-2a3.5,3.5,0,0,1,4.23-3.42,3.36,3.36,0,0,1,1.77,1A3.67,3.67,0,0,1,25,4.6V6.5a3.5,3.5,0,0,1,4.23-3.42,3.36,3.36,0,0,1,1.77,1A3.67,3.67,0,0,1,32,6.6v4.9a3.5,3.5,0,0,1,4.23-3.42A3.56,3.56,0,0,1,39,11.6Z"/><circle class="cls-2" cx="47" cy="49" r="14"/><circle class="cls-3" cx="47" cy="49" r="7"/><path class="cls-4" d="M54,49a7,7,0,0,1-14,0,5.47,5.47,0,0,1,.08-1,7,7,0,0,0,13.84,0A5.47,5.47,0,0,1,54,49Z"/><path class="cls-5" d="M56,48H54.93a7.94,7.94,0,0,0-1.62-3.9l1.4-1.39a1,1,0,0,0-1.42-1.42l-1.39,1.4A7.94,7.94,0,0,0,48,41.07V40a1,1,0,0,0-2,0v1.07a7.94,7.94,0,0,0-3.9,1.62l-1.39-1.4a1,1,0,0,0-1.42,1.42l1.4,1.39A7.94,7.94,0,0,0,39.07,48H38a1,1,0,0,0,0,2h1.07a7.94,7.94,0,0,0,1.62,3.9l-1.4,1.39a1,1,0,0,0,0,1.42,1,1,0,0,0,1.42,0l1.39-1.4A7.94,7.94,0,0,0,46,56.93V58a1,1,0,0,0,2,0V56.93a7.94,7.94,0,0,0,3.9-1.62l1.39,1.4a1,1,0,0,0,1.42,0,1,1,0,0,0,0-1.42l-1.4-1.39A7.94,7.94,0,0,0,54.93,50H56a1,1,0,0,0,0-2Zm-3.09,2A6,6,0,0,1,48,54.91a1,1,0,0,0-2,0A6,6,0,0,1,41.09,50a1,1,0,0,0,0-2A6,6,0,0,1,46,43.09a1,1,0,0,0,2,0A6,6,0,0,1,52.91,48a1,1,0,0,0,0,2Z"/><circle class="cls-5" cx="49.5" cy="47.5" r="1.5"/><circle class="cls-5" cx="44" cy="48" r="1"/><circle class="cls-5" cx="47" cy="51" r="1"/><path class="cls-5" d="M47,34a15,15,0,0,0-7,1.75c0-.33,0-.67,0-1V11.6a4.55,4.55,0,0,0-3.57-4.5A4.5,4.5,0,0,0,33,7.76V6.6a4.55,4.55,0,0,0-3.57-4.5A4.47,4.47,0,0,0,25.71,3,4.46,4.46,0,0,0,22.43.1a4.52,4.52,0,0,0-3.77.9,4.62,4.62,0,0,0-1.39,2,4.49,4.49,0,0,0-3.7-.85A4.55,4.55,0,0,0,10,6.6V21.11A7,7,0,0,0,5.05,19a3,3,0,0,0-2.17.88A3,3,0,0,0,2,22V34.78A20,20,0,0,0,8.84,50.52a7,7,0,0,1,2.16,5V63a1,1,0,0,0,2,0V55.57a9,9,0,0,0-2.78-6.5A17.93,17.93,0,0,1,4,34.78V22a1,1,0,0,1,.29-.7A1.12,1.12,0,0,1,5,21a5,5,0,0,1,5,5v8a1,1,0,0,0,.78,1L11,35a10.16,10.16,0,0,1,8,10,1,1,0,0,0,2,0,12.14,12.14,0,0,0-9-11.79V6.6a2.55,2.55,0,0,1,2-2.54A2.5,2.5,0,0,1,17,6.5V28a1,1,0,0,0,2,0V4.5a2.5,2.5,0,0,1,3-2.44A2.55,2.55,0,0,1,24,4.6V28a1,1,0,0,0,2,0V6.5a2.5,2.5,0,0,1,3-2.44A2.55,2.55,0,0,1,31,6.6V28a1,1,0,0,0,2,0V11.5a2.5,2.5,0,0,1,3-2.44,2.55,2.55,0,0,1,2,2.54V34.78c0,.69,0,1.49,0,2.28A15,15,0,0,0,32,49a14.82,14.82,0,0,0,1,5.34V63a1,1,0,0,0,2,0V58A15,15,0,1,0,47,34Zm0,28A13,13,0,1,1,60,49,13,13,0,0,1,47,62Z"/></g></svg>