<svg xmlns="http://www.w3.org/2000/svg" xmlns:xlink="http://www.w3.org/1999/xlink" viewBox="0 0 64 64"><defs><style>.cls-1{fill:url(#linear-gradient);}.cls-2{fill:url(#linear-gradient-2);}.cls-3{fill:#eab39b;}.cls-4{fill:url(#linear-gradient-3);}.cls-5{fill:url(#linear-gradient-4);}.cls-6{fill:url(#linear-gradient-5);}.cls-7{fill:url(#linear-gradient-6);}.cls-8{fill:url(#linear-gradient-7);}.cls-9{fill:#cf4055;}.cls-10{fill:#231f20;}</style><linearGradient id="linear-gradient" x1="32" y1="43" x2="32" y2="30" gradientUnits="userSpaceOnUse"><stop offset="0" stop-color="#f2c4b0"/><stop offset="1" stop-color="#ffe3d7"/></linearGradient><linearGradient id="linear-gradient-2" y1="63" y2="43" xlink:href="#linear-gradient"/><linearGradient id="linear-gradient-3" x1="52" y1="43" x2="52" y2="30" xlink:href="#linear-gradient"/><linearGradient id="linear-gradient-4" x1="52" y1="63" x2="52" y2="43" xlink:href="#linear-gradient"/><linearGradient id="linear-gradient-5" x1="12" y1="43" x2="12" y2="30" xlink:href="#linear-gradient"/><linearGradient id="linear-gradient-6" x1="12" y1="63" x2="12" y2="43" xlink:href="#linear-gradient"/><linearGradient id="linear-gradient-7" x1="32" y1="22" x2="32" y2="4" gradientUnits="userSpaceOnUse"><stop offset="0" stop-color="#da5466"/><stop offset="1" stop-color="#f4929c"/></linearGradient></defs><title>Infected Crowd</title><g id="Infected_Crowd" data-name="Infected Crowd"><rect class="cls-1" x="27" y="30" width="10" height="13" rx="5"/><path class="cls-2" d="M42,49V61a2,2,0,0,1-2,2,1.85,1.85,0,0,1-.81-.18h0A2,2,0,0,1,38,61v2H26V61a2,2,0,0,1-1.18,1.82h0A1.85,1.85,0,0,1,24,63a2,2,0,0,1-2-2V49a6,6,0,0,1,6-6h8A6,6,0,0,1,42,49Z"/><path class="cls-3" d="M37,36v2a5,5,0,0,1-10,0V36a5,5,0,0,0,10,0Z"/><rect class="cls-4" x="47" y="30" width="10" height="13" rx="5"/><path class="cls-5" d="M62,49V61a2,2,0,0,1-2,2,1.85,1.85,0,0,1-.81-.18h0A2,2,0,0,1,58,61v2H46V61a2,2,0,0,1-1.18,1.82h0A1.85,1.85,0,0,1,44,63a2,2,0,0,1-2-2V49a6,6,0,0,1,6-6h8A6,6,0,0,1,62,49Z"/><path class="cls-3" d="M57,36v2a5,5,0,0,1-10,0V36a5,5,0,0,0,10,0Z"/><rect class="cls-6" x="7" y="30" width="10" height="13" rx="5"/><path class="cls-7" d="M22,49V61a2,2,0,0,1-2,2,1.85,1.85,0,0,1-.81-.18h0A2,2,0,0,1,18,61v2H6V61a2,2,0,0,1-1.18,1.82h0A1.85,1.85,0,0,1,4,63a2,2,0,0,1-2-2V49a6,6,0,0,1,6-6h8A6,6,0,0,1,22,49Z"/><path class="cls-3" d="M17,36v2A5,5,0,0,1,7,38V36a5,5,0,0,0,10,0Z"/><circle class="cls-8" cx="32" cy="13" r="9"/><path class="cls-9" d="M38.36,19.36A9,9,0,0,1,23.06,12a9,9,0,0,0,17.88,0A8.92,8.92,0,0,1,38.36,19.36Z"/><path class="cls-10" d="M20,14h2.07a9.93,9.93,0,0,0,2.2,5.32l-.94.94a2,2,0,1,0,1.41,1.42l.94-.94A9.93,9.93,0,0,0,31,23V25a1,1,0,1,0,2,0V23a9.93,9.93,0,0,0,5.33-2.2l.94.94a2,2,0,0,0,1.92,2.51,2,2,0,0,0,1.42-.59,2,2,0,0,0-1.93-3.34l-.94-.94A9.93,9.93,0,0,0,41.94,14H44a1,1,0,0,0,0-2H41.94a9.93,9.93,0,0,0-2.2-5.33l.94-.94a2.24,2.24,0,0,0,.51.07,2,2,0,1,0-1.92-1.48l-.94.93A10,10,0,0,0,33,3.06V1a1,1,0,0,0-2,0V3.06a10,10,0,0,0-5.33,2.2l-.94-.93a2,2,0,1,0-1.92,1.48,2.24,2.24,0,0,0,.51-.07l.94.94A9.93,9.93,0,0,0,22.06,12H20a1,1,0,0,0,0,2Zm6.35-5.25a1,1,0,1,0,1.42-1.41l-.66-.66A8,8,0,0,1,32,5h0A8,8,0,0,1,36.9,6.69l-.66.66a1,1,0,1,0,1.42,1.41l.66-.65A8,8,0,0,1,40,13h0a8.07,8.07,0,0,1-1.68,4.89l-.66-.66a1,1,0,0,0-1.42,0,1,1,0,0,0,0,1.41l.66.66A7.92,7.92,0,0,1,32,21h0a7.92,7.92,0,0,1-4.89-1.68l.66-.66a1,1,0,0,0,0-1.41,1,1,0,0,0-1.42,0l-.66.66A8.07,8.07,0,0,1,24,13h0a8,8,0,0,1,1.68-4.89Z"/><path class="cls-10" d="M28.46,14.3h0a2,2,0,1,0,0-4h0a2,2,0,0,0,0,4Z"/><circle class="cls-10" cx="34.83" cy="10.89" r="1.5"/><path class="cls-10" d="M32.71,18a1,1,0,1,0-1.42,0A1,1,0,0,0,32.71,18Z"/><path class="cls-10" d="M63,62h-.19A2.87,2.87,0,0,0,63,61V49a7,7,0,0,0-6.56-7A6,6,0,0,0,58,38V35a6,6,0,0,0-12,0v3a6,6,0,0,0,1.56,4A7,7,0,0,0,42,45.4,7,7,0,0,0,36.44,42,6,6,0,0,0,38,38V35a6,6,0,1,0-12,0v3a6,6,0,0,0,1.56,4A7,7,0,0,0,22,45.4,7,7,0,0,0,16.44,42,6,6,0,0,0,18,38V35A6,6,0,0,0,6,35v3a6,6,0,0,0,1.56,4A7,7,0,0,0,1,49V61a2.87,2.87,0,0,0,.19,1H1a1,1,0,0,0,0,2H63a1,1,0,0,0,0-2ZM48,35a4,4,0,1,1,8,0v3a4,4,0,1,1-8,0Zm0,9h8a5,5,0,0,1,5,5V61a1,1,0,0,1-1,1,1,1,0,0,1-.38-.08l-.08,0A1,1,0,0,1,59,61V48a1,1,0,0,0-2,0V62H47V48a1,1,0,0,0-2,0V61a1,1,0,0,1-.54.88l-.08,0A1,1,0,0,1,44,62a1,1,0,0,1-1-1V49A5,5,0,0,1,48,44ZM28,35a4,4,0,1,1,8,0v3a4,4,0,1,1-8,0Zm0,9h8a5,5,0,0,1,5,5V61a1,1,0,0,1-1,1,1,1,0,0,1-.38-.08l-.08,0A1,1,0,0,1,39,61V48a1,1,0,0,0-2,0V62H27V48a1,1,0,0,0-2,0V61a1,1,0,0,1-.54.88l-.08,0A1,1,0,0,1,24,62a1,1,0,0,1-1-1V49A5,5,0,0,1,28,44ZM8,35a4,4,0,1,1,8,0v3a4,4,0,0,1-8,0ZM7,61V48a1,1,0,0,0-2,0V61a1,1,0,0,1-.54.88l-.08,0A1,1,0,0,1,4,62a1,1,0,0,1-1-1V49a5,5,0,0,1,5-5h8a5,5,0,0,1,5,5V61a1,1,0,0,1-1,1,1,1,0,0,1-.38-.08l-.08,0A1,1,0,0,1,19,61V48a1,1,0,0,0-2,0V62H7Z"/></g></svg>