<svg xmlns="http://www.w3.org/2000/svg" xmlns:xlink="http://www.w3.org/1999/xlink" viewBox="0 0 64 64"><defs><style>.cls-1{fill:url(#linear-gradient);}.cls-2{fill:url(#linear-gradient-2);}.cls-3{fill:#7ece67;}.cls-4{fill:url(#linear-gradient-3);}.cls-5{fill:url(#linear-gradient-4);}.cls-6{fill:#cf4055;}.cls-7{fill:#231f20;}</style><linearGradient id="linear-gradient" x1="32" y1="63" x2="32" y2="42" gradientUnits="userSpaceOnUse"><stop offset="0" stop-color="#8cdd79"/><stop offset="1" stop-color="#d4e6b6"/></linearGradient><linearGradient id="linear-gradient-2" x1="32" y1="53" x2="32" y2="1" gradientUnits="userSpaceOnUse"><stop offset="0" stop-color="#7aa8d7"/><stop offset="1" stop-color="#c3d2e7"/></linearGradient><linearGradient id="linear-gradient-3" x1="32" y1="34" x2="32" y2="6" gradientUnits="userSpaceOnUse"><stop offset="0" stop-color="#d4d8e1"/><stop offset="1" stop-color="#f3f4f5"/></linearGradient><linearGradient id="linear-gradient-4" x1="32" y1="27" x2="32" y2="13" gradientUnits="userSpaceOnUse"><stop offset="0" stop-color="#da5466"/><stop offset="1" stop-color="#f4929c"/></linearGradient></defs><title>Location</title><g id="Location"><polygon class="cls-1" points="63 63 1 63 2.57 60 12 42 51 42 61.29 60 63 63"/><path class="cls-2" d="M13,20a19,19,0,0,1,38,0c0,15.83-19,33-19,33S13,35.83,13,20Z"/><polygon class="cls-3" points="63 63 1 63 2.57 60 61.29 60 63 63"/><circle class="cls-4" cx="32" cy="20" r="14"/><circle class="cls-5" cx="32" cy="20" r="7"/><path class="cls-6" d="M39,20a7,7,0,0,1-14,0,5.47,5.47,0,0,1,.08-1,7,7,0,0,0,13.84,0A5.47,5.47,0,0,1,39,20Z"/><path class="cls-7" d="M33,29V27.93a7.94,7.94,0,0,0,3.9-1.62l1.39,1.4a1,1,0,0,0,1.42,0,1,1,0,0,0,0-1.42l-1.4-1.39A7.94,7.94,0,0,0,39.93,21H41a1,1,0,0,0,0-2H39.93a7.94,7.94,0,0,0-1.62-3.9l1.4-1.39a1,1,0,0,0-1.42-1.42l-1.39,1.4A7.94,7.94,0,0,0,33,12.07V11a1,1,0,0,0-2,0v1.07a7.94,7.94,0,0,0-3.9,1.62l-1.39-1.4a1,1,0,0,0-1.42,1.42l1.4,1.39A7.94,7.94,0,0,0,24.07,19H23a1,1,0,0,0,0,2h1.07a7.94,7.94,0,0,0,1.62,3.9l-1.4,1.39a1,1,0,0,0,0,1.42,1,1,0,0,0,1.42,0l1.39-1.4A7.94,7.94,0,0,0,31,27.93V29a1,1,0,0,0,2,0Zm-2-3.09A6,6,0,0,1,26.09,21a1,1,0,0,0,0-2A6,6,0,0,1,31,14.09a1,1,0,0,0,2,0A6,6,0,0,1,37.91,19a1,1,0,0,0,0,2A6,6,0,0,1,33,25.91a1,1,0,0,0-2,0Z"/><circle class="cls-7" cx="34.5" cy="18.5" r="1.5"/><circle class="cls-7" cx="29" cy="19" r="1"/><circle class="cls-7" cx="32" cy="22" r="1"/><path class="cls-7" d="M47,20A15,15,0,1,0,32,35,15,15,0,0,0,47,20ZM19,20A13,13,0,1,1,32,33,13,13,0,0,1,19,20Z"/><path class="cls-7" d="M63.87,62.5l-12-21A1,1,0,0,0,51,41H43.82C48.11,34.91,52,27.37,52,20a20,20,0,0,0-40,0c0,7.37,3.89,14.91,8.18,21H12a1,1,0,0,0-.89.54l-11,21A1,1,0,0,0,1,64H63a1,1,0,0,0,.87-.5A1,1,0,0,0,63.87,62.5ZM14,20a18,18,0,0,1,36,0c0,13.54-14.66,28.41-18,31.63C28.66,48.42,14,33.55,14,20ZM2.65,62l10-19h9a84.23,84.23,0,0,0,9.69,10.74,1,1,0,0,0,1.34,0A84.23,84.23,0,0,0,42.36,43h8.06L61.28,62Z"/></g></svg>