<svg xmlns="http://www.w3.org/2000/svg" xmlns:xlink="http://www.w3.org/1999/xlink" viewBox="0 0 64 64"><defs><style>.cls-1{fill:url(#linear-gradient);}.cls-2{fill:url(#linear-gradient-2);}.cls-3{fill:url(#linear-gradient-3);}.cls-4{fill:url(#linear-gradient-4);}.cls-5{fill:#dd8b37;}.cls-6{fill:url(#linear-gradient-5);}.cls-7{fill:url(#linear-gradient-6);}.cls-8{fill:url(#linear-gradient-7);}.cls-9{fill:url(#linear-gradient-8);}.cls-10{fill:url(#linear-gradient-9);}.cls-11{fill:url(#linear-gradient-10);}.cls-12{fill:#f6b756;}.cls-13{fill:url(#linear-gradient-11);}.cls-14{fill:#cf4055;}.cls-15{fill:#231f20;}</style><linearGradient id="linear-gradient" x1="12" y1="63" x2="12" y2="41" gradientUnits="userSpaceOnUse"><stop offset="0" stop-color="#474f72"/><stop offset="1" stop-color="#878c9f"/></linearGradient><linearGradient id="linear-gradient-2" x1="52" x2="52" xlink:href="#linear-gradient"/><linearGradient id="linear-gradient-3" x1="14" y1="50" x2="50" y2="50" xlink:href="#linear-gradient"/><linearGradient id="linear-gradient-4" x1="32" y1="41" x2="32" y2="29" gradientUnits="userSpaceOnUse"><stop offset="0" stop-color="#e9a254"/><stop offset="1" stop-color="#f4bb79"/></linearGradient><linearGradient id="linear-gradient-5" x1="12" y1="26" x2="12" y2="22" gradientUnits="userSpaceOnUse"><stop offset="0" stop-color="#fbcc88"/><stop offset="1" stop-color="#ffe5c3"/></linearGradient><linearGradient id="linear-gradient-6" x1="52" x2="52" xlink:href="#linear-gradient-5"/><linearGradient id="linear-gradient-7" x1="11" y1="41" x2="11" y2="29" xlink:href="#linear-gradient-5"/><linearGradient id="linear-gradient-8" x1="25" y1="41" x2="25" y2="29" xlink:href="#linear-gradient-5"/><linearGradient id="linear-gradient-9" x1="39" y1="41" x2="39" y2="29" xlink:href="#linear-gradient-5"/><linearGradient id="linear-gradient-10" x1="53" y1="41" x2="53" y2="29" xlink:href="#linear-gradient-5"/><linearGradient id="linear-gradient-11" x1="32" y1="22" x2="32" y2="4" gradientUnits="userSpaceOnUse"><stop offset="0" stop-color="#da5466"/><stop offset="1" stop-color="#f4929c"/></linearGradient></defs><title>Lockdown Area</title><g id="Lockdown_Area" data-name="Lockdown Area"><rect class="cls-1" x="10" y="41" width="4" height="22"/><rect class="cls-2" x="50" y="41" width="4" height="22"/><rect class="cls-3" x="14" y="48" width="36" height="4"/><rect class="cls-4" x="5" y="29" width="54" height="12"/><rect class="cls-5" x="5" y="39" width="54" height="2"/><circle class="cls-6" cx="12" cy="24" r="2"/><circle class="cls-7" cx="52" cy="24" r="2"/><polygon class="cls-8" points="17 29 11 41 5 41 11 29 17 29"/><polygon class="cls-9" points="31 29 25 41 19 41 25 29 31 29"/><polygon class="cls-10" points="45 29 39 41 33 41 39 29 45 29"/><polygon class="cls-11" points="59 29 53 41 47 41 53 29 59 29"/><polygon class="cls-12" points="12 39 11 41 5 41 6 39 12 39"/><polygon class="cls-12" points="20 39 26 39 25 41 19 41 20 39"/><polygon class="cls-12" points="34 39 40 39 39 41 33 41 34 39"/><polygon class="cls-12" points="54 39 53 41 47 41 48 39 54 39"/><circle class="cls-13" cx="32" cy="13" r="9"/><path class="cls-14" d="M38.36,19.36A9,9,0,0,1,23.06,12a9,9,0,0,0,17.88,0A8.92,8.92,0,0,1,38.36,19.36Z"/><path class="cls-15" d="M60,29a1,1,0,0,0-.07-.33.2.2,0,0,0,0-.08.42.42,0,0,0,0-.1,1.58,1.58,0,0,0-.12-.15l0,0a1.07,1.07,0,0,0-.28-.19l-.08,0A.94.94,0,0,0,59,28H53V26.82a3,3,0,1,0-2,0V28H13V26.82a3,3,0,1,0-2,0V28H5a1,1,0,0,0-1,1V41a1.3,1.3,0,0,0,.07.33.3.3,0,0,0,0,.08.42.42,0,0,0,0,.1,1.58,1.58,0,0,0,.12.15l0,0a1.07,1.07,0,0,0,.28.19l.07,0A1,1,0,0,0,5,42H9V63a1,1,0,0,0,1,1h4a1,1,0,0,0,1-1V53H49V63a1,1,0,0,0,1,1h4a1,1,0,0,0,1-1V42h4a1,1,0,0,0,1-1V29Zm-8-6a1,1,0,1,1-1,1A1,1,0,0,1,52,23ZM12,23a1,1,0,1,1-1,1A1,1,0,0,1,12,23Zm45.38,7-5,10H48.62l5-10ZM49,47H15V42H49ZM23.38,30l-5,10H12.62l5-10Zm14,0-5,10H26.62l5-10Zm14,0-5,10H40.62l5-10Zm-8,0-5,10H34.62l5-10Zm-14,0-5,10H20.62l5-10Zm-20,0L6,36.76V30Zm2.24,0h3.76l-5,10H6.62ZM13,62H11V42h2V62Zm2-11V49H49v2ZM53,62H51V42h2Zm1.62-22L58,33.24V40Z"/><path class="cls-15" d="M20,14h2.06a9.92,9.92,0,0,0,2.21,5.33l-.94.93a2,2,0,1,0,1.41,1.42l.94-.94A9.93,9.93,0,0,0,31,23V25a1,1,0,1,0,2,0V23a9.93,9.93,0,0,0,5.33-2.2l.94.94a2,2,0,0,0,1.92,2.51,2,2,0,0,0,1.42-.59,2,2,0,0,0-1.93-3.34l-.94-.94A9.93,9.93,0,0,0,41.94,14H44a1,1,0,0,0,0-2H41.94a9.93,9.93,0,0,0-2.2-5.33l.94-.94a2.24,2.24,0,0,0,.51.07,2,2,0,1,0-1.92-1.48l-.94.93A10,10,0,0,0,33,3.06V1a1,1,0,0,0-2,0V3.06a10,10,0,0,0-5.33,2.2l-.94-.94a2,2,0,0,0-.51-1.92,2,2,0,1,0-1.41,3.41,2.24,2.24,0,0,0,.51-.07l.94.94A9.85,9.85,0,0,0,22.05,12H20a1,1,0,0,0,0,2Zm6.35-5.25a1,1,0,1,0,1.42-1.41l-.66-.66A8,8,0,0,1,32,5h0A8,8,0,0,1,36.9,6.69l-.66.66a1,1,0,1,0,1.42,1.41l.66-.65A8,8,0,0,1,40,13h0a8.07,8.07,0,0,1-1.68,4.89l-.66-.66a1,1,0,0,0-1.42,0,1,1,0,0,0,0,1.41l.66.66A7.92,7.92,0,0,1,32,21h0a7.92,7.92,0,0,1-4.89-1.68l.66-.66a1,1,0,0,0,0-1.41,1,1,0,0,0-1.42,0l-.66.66A8,8,0,0,1,24,13v0a8,8,0,0,1,1.68-4.88Z"/><path class="cls-15" d="M28.46,14.3a2,2,0,0,0,1.42-3.41h0a2,2,0,0,0-2.83,0,2,2,0,0,0,1.41,3.41Z"/><circle class="cls-15" cx="34.83" cy="10.89" r="1.5"/><circle class="cls-15" cx="32" cy="17.25" r="1"/></g></svg>