<svg xmlns="http://www.w3.org/2000/svg" xmlns:xlink="http://www.w3.org/1999/xlink" viewBox="0 0 64 64"><defs><style>.cls-1{fill:url(#linear-gradient);}.cls-2{fill:#d861b0;}.cls-3{fill:url(#linear-gradient-2);}.cls-4{fill:url(#linear-gradient-3);}.cls-5{fill:url(#linear-gradient-4);}.cls-6{fill:url(#linear-gradient-5);}.cls-7{fill:url(#linear-gradient-6);}.cls-8{fill:url(#linear-gradient-7);}.cls-9{fill:url(#linear-gradient-8);}.cls-10{fill:url(#linear-gradient-9);}.cls-11{fill:#231f20;}</style><linearGradient id="linear-gradient" x1="32" y1="63" x2="32" gradientUnits="userSpaceOnUse"><stop offset="0" stop-color="#d96bb0"/><stop offset="1" stop-color="#e49fc6"/></linearGradient><linearGradient id="linear-gradient-2" x1="53" y1="53" x2="53" y2="45" gradientUnits="userSpaceOnUse"><stop offset="0" stop-color="#da5466"/><stop offset="1" stop-color="#f4929c"/></linearGradient><linearGradient id="linear-gradient-3" x1="12" y1="41" x2="12" y2="33" xlink:href="#linear-gradient-2"/><linearGradient id="linear-gradient-4" x1="17.5" y1="53" x2="17.5" y2="48" xlink:href="#linear-gradient-2"/><linearGradient id="linear-gradient-5" x1="53.5" y1="38" x2="53.5" y2="33" xlink:href="#linear-gradient-2"/><linearGradient id="linear-gradient-6" x1="45" y1="42" x2="45" y2="38" xlink:href="#linear-gradient-2"/><linearGradient id="linear-gradient-7" x1="50" y1="25" x2="50" y2="21" xlink:href="#linear-gradient-2"/><linearGradient id="linear-gradient-8" x1="8" y1="54" x2="8" y2="50" xlink:href="#linear-gradient-2"/><linearGradient id="linear-gradient-9" x1="15" y1="26" x2="15" y2="22" xlink:href="#linear-gradient-2"/></defs><title>Lung Infected</title><g id="Lung_Infected" data-name="Lung Infected"><path class="cls-1" d="M50.28,15.11A7.87,7.87,0,0,0,44.91,13h0A5.89,5.89,0,0,0,39,18.89v4.34l-4-2.31V0H29V20.9l-4,2.31V18.89A5.89,5.89,0,0,0,19.13,13h0a7.87,7.87,0,0,0-5.37,2.12A40.13,40.13,0,0,0,1,44.41V56.93A6.08,6.08,0,0,0,7.07,63a6,6,0,0,0,1.82-.28l10.79-3.83A8,8,0,0,0,25,51.35V28.14l7-4,7,4v23.2a8,8,0,0,0,5.32,7.54l10.79,3.83a6,6,0,0,0,1.82.28A6.08,6.08,0,0,0,63,56.93V44.41A40.13,40.13,0,0,0,50.28,15.11Z"/><path class="cls-2" d="M25,48.35v3a8,8,0,0,1-5.32,7.54L8.89,62.72A6,6,0,0,1,7.07,63,6.08,6.08,0,0,1,1,56.93v-3A6.08,6.08,0,0,0,7.07,60a6,6,0,0,0,1.82-.28l10.79-3.83A8,8,0,0,0,25,48.35Z"/><path class="cls-2" d="M63,53.93v3A6.08,6.08,0,0,1,56.93,63a6,6,0,0,1-1.82-.28L44.32,58.89A8,8,0,0,1,39,51.35v-3a8,8,0,0,0,5.32,7.54l10.79,3.83a6,6,0,0,0,1.82.28A6.08,6.08,0,0,0,63,53.93Z"/><circle class="cls-3" cx="53" cy="49" r="4"/><circle class="cls-4" cx="12" cy="37" r="4"/><circle class="cls-5" cx="17.5" cy="50.5" r="2.5"/><circle class="cls-6" cx="53.5" cy="35.5" r="2.5"/><path class="cls-7" d="M45,42a2,2,0,1,1,2-2A2,2,0,0,1,45,42Zm0-2h0Zm0,0h0Zm0,0h0Zm0,0h0Zm0,0h0Zm0,0h0Zm0,0h0Zm0,0h0Z"/><path class="cls-8" d="M50,25a2,2,0,1,1,2-2A2,2,0,0,1,50,25Zm0-2h0Zm0,0h0Zm0,0h0Zm0,0h0Zm0,0h0Zm0,0h0Zm0,0h0Zm0,0h0Z"/><path class="cls-9" d="M8,54a2,2,0,1,1,2-2A2,2,0,0,1,8,54Zm0-2H8Zm0,0H8Zm0,0H8Zm0,0H8Zm0,0H8Zm0,0H8Zm0,0H8Zm0,0H8Z"/><path class="cls-10" d="M15,26a2,2,0,1,1,2-2A2,2,0,0,1,15,26Zm0-2h0Zm0,0h0Zm0,0h0Zm0,0h0Zm0,0h0Zm0,0h0Zm0,0h0Zm0,0h0Z"/><path class="cls-11" d="M51,14.38A8.88,8.88,0,0,0,44.86,12,6.9,6.9,0,0,0,38,18.89V21.5l-2-1.16V1a1,1,0,0,0-2,0v.68A5.3,5.3,0,0,1,32,2a5.3,5.3,0,0,1-2-.32V1a1,1,0,0,0-2,0V20.32l-2,1.16V18.89A6.88,6.88,0,0,0,19.09,12,8.84,8.84,0,0,0,13,14.38a41.26,41.26,0,0,0-13,30V56.93A7.07,7.07,0,0,0,7.07,64a6.81,6.81,0,0,0,2.15-.34L20,59.83a9,9,0,0,0,6-8.48V28.72l6-3.46,6,3.47V51.35a9,9,0,0,0,6,8.48L54.8,63.67a6.88,6.88,0,0,0,2.13.33A7.07,7.07,0,0,0,64,56.93V44.41A41.26,41.26,0,0,0,51,14.38Zm-17-2.7A5.3,5.3,0,0,1,32,12a5.3,5.3,0,0,1-2-.32V8.78a9.2,9.2,0,0,0,4,0Zm-4,2.1a9.2,9.2,0,0,0,4,0v2.9A5.3,5.3,0,0,1,32,17a5.3,5.3,0,0,1-2-.32ZM32,4a8.7,8.7,0,0,0,2-.22v2.9A5.3,5.3,0,0,1,32,7a5.3,5.3,0,0,1-2-.32V3.78A8.7,8.7,0,0,0,32,4ZM62,56.93A5.09,5.09,0,0,1,56.93,62a4.94,4.94,0,0,1-1.48-.22L44.65,58A7,7,0,0,1,40,51.35V29.88l2.5,1.45a1,1,0,1,0,1-1.74l-11-6.35a1,1,0,0,0-1,0l-11,6.34a1,1,0,0,0,1,1.74L24,29.87V51.35A7,7,0,0,1,19.34,58L8.58,61.77A5,5,0,0,1,7.07,62,5.09,5.09,0,0,1,2,56.93V44.41A39.28,39.28,0,0,1,14.4,15.84,6.9,6.9,0,0,1,19.12,14,4.88,4.88,0,0,1,24,18.89v3.74l-3.5,2a1,1,0,0,0,1,1.74l8-4.62a1,1,0,0,0,.5-.87V18.78a9.2,9.2,0,0,0,4,0v2.14a1,1,0,0,0,.5.87l8,4.62a1,1,0,1,0,1-1.74l-3.5-2V18.89A4.9,4.9,0,0,1,44.91,14a6.88,6.88,0,0,1,4.69,1.85A39.28,39.28,0,0,1,62,44.41Z"/><path class="cls-11" d="M55.75,44.83A5,5,0,0,0,54,44.1V43a1,1,0,0,0-2,0v1.1a5,5,0,0,0-1.75.73l-.79-.78a1,1,0,1,0-1.41,1.41l.78.79A5,5,0,0,0,48.1,48H47a1,1,0,0,0,0,2h1.1a5,5,0,0,0,.73,1.75l-.78.79a1,1,0,0,0,0,1.41,1,1,0,0,0,.71.29,1,1,0,0,0,.7-.29l.79-.78A5,5,0,0,0,52,53.9V55a1,1,0,0,0,2,0V53.9a5,5,0,0,0,1.75-.73l.79.78a1,1,0,0,0,.7.29A1,1,0,0,0,58,54a1,1,0,0,0,0-1.41l-.78-.79A5,5,0,0,0,57.9,50H59a1,1,0,0,0,0-2H57.9a5,5,0,0,0-.73-1.75l.78-.79a1,1,0,1,0-1.41-1.41Zm-1.34,5.58a1,1,0,0,0-.09,1.27,2.88,2.88,0,0,1-2.64,0,1,1,0,0,0-1.36-1.36,2.88,2.88,0,0,1,0-2.64,1,1,0,0,0,.56.2,1,1,0,0,0,.71-.29,1,1,0,0,0,.09-1.27,2.88,2.88,0,0,1,2.64,0,1,1,0,0,0,.09,1.27,1,1,0,0,0,.71.29,1,1,0,0,0,.56-.2,2.88,2.88,0,0,1,0,2.64A1,1,0,0,0,54.41,50.41Z"/><path class="cls-11" d="M14.75,41.17l.79.78a1,1,0,0,0,.7.29A1,1,0,0,0,17,42a1,1,0,0,0,0-1.41l-.78-.79A5,5,0,0,0,16.9,38H18a1,1,0,0,0,0-2H16.9a5,5,0,0,0-.73-1.75l.78-.79a1,1,0,1,0-1.41-1.41l-.79.78A5,5,0,0,0,13,32.1V31a1,1,0,0,0-2,0v1.1a5,5,0,0,0-1.75.73l-.79-.78a1,1,0,1,0-1.41,1.41l.78.79A5,5,0,0,0,7.1,36H6a1,1,0,0,0,0,2H7.1a5,5,0,0,0,.73,1.75l-.78.79a1,1,0,0,0,0,1.41,1,1,0,0,0,.71.29,1,1,0,0,0,.7-.29l.79-.78A5,5,0,0,0,11,41.9V43a1,1,0,0,0,2,0V41.9A5,5,0,0,0,14.75,41.17Zm-4.07-1.49a1,1,0,0,0-1.36-1.36,2.88,2.88,0,0,1,0-2.64,1,1,0,0,0,.56.2,1,1,0,0,0,.71-.29,1,1,0,0,0,.09-1.27,2.88,2.88,0,0,1,2.64,0,1,1,0,0,0,.09,1.27,1,1,0,0,0,.71.29,1,1,0,0,0,.56-.2,2.88,2.88,0,0,1,0,2.64,1,1,0,0,0-1.36,1.36,2.88,2.88,0,0,1-2.64,0Z"/><path class="cls-11" d="M17.5,47A3.5,3.5,0,1,0,21,50.5,3.5,3.5,0,0,0,17.5,47Zm0,5A1.5,1.5,0,1,1,19,50.5,1.5,1.5,0,0,1,17.5,52Z"/><path class="cls-11" d="M50,35.5A3.5,3.5,0,1,0,53.5,32,3.5,3.5,0,0,0,50,35.5ZM53.5,34A1.5,1.5,0,1,1,52,35.5,1.5,1.5,0,0,1,53.5,34Z"/><circle class="cls-11" cx="45" cy="40" r="2"/><circle class="cls-11" cx="50" cy="23" r="2"/><circle class="cls-11" cx="8" cy="52" r="2"/><circle class="cls-11" cx="15" cy="24" r="2"/></g></svg>