<svg xmlns="http://www.w3.org/2000/svg" xmlns:xlink="http://www.w3.org/1999/xlink" viewBox="0 0 64 64"><defs><style>.cls-1{fill:url(#linear-gradient);}.cls-2{fill:url(#linear-gradient-2);}.cls-3{fill:url(#linear-gradient-3);}.cls-4{fill:#77cacb;}.cls-5{fill:url(#linear-gradient-4);}.cls-6{fill:url(#linear-gradient-5);}.cls-7{fill:url(#linear-gradient-6);}.cls-8{fill:#c7cdd8;}.cls-9{fill:url(#linear-gradient-7);}.cls-10{fill:url(#linear-gradient-8);}.cls-11{fill:#cf4055;}.cls-12{fill:#231f20;}</style><linearGradient id="linear-gradient" x1="51.57" y1="63" x2="51.57" y2="47" gradientUnits="userSpaceOnUse"><stop offset="0" stop-color="#d4d8e1"/><stop offset="1" stop-color="#f3f4f5"/></linearGradient><linearGradient id="linear-gradient-2" x1="53.5" y1="58" x2="53.5" y2="47" gradientUnits="userSpaceOnUse"><stop offset="0" stop-color="#da5466"/><stop offset="1" stop-color="#f4929c"/></linearGradient><linearGradient id="linear-gradient-3" x1="1" y1="38" x2="37" y2="38" gradientUnits="userSpaceOnUse"><stop offset="0" stop-color="#9dd5df"/><stop offset="1" stop-color="#c3e1f5"/></linearGradient><linearGradient id="linear-gradient-4" x1="19" y1="13" x2="19" y2="1" xlink:href="#linear-gradient"/><linearGradient id="linear-gradient-5" x1="19" y1="54" x2="19" y2="32" xlink:href="#linear-gradient"/><linearGradient id="linear-gradient-6" x1="19" y1="50" x2="19" y2="36" gradientUnits="userSpaceOnUse"><stop offset="0" stop-color="#7aa8d7"/><stop offset="1" stop-color="#c3d2e7"/></linearGradient><linearGradient id="linear-gradient-7" x1="40" y1="63" x2="40" y2="49" gradientUnits="userSpaceOnUse"><stop offset="0" stop-color="#fbcc88"/><stop offset="1" stop-color="#ffe5c3"/></linearGradient><linearGradient id="linear-gradient-8" x1="51" y1="22" x2="51" y2="4" xlink:href="#linear-gradient-2"/></defs><title>Medicine</title><g id="Medicine"><path class="cls-1" d="M59,51.24a4.25,4.25,0,0,1-1.24,3l-7.52,7.52a4.24,4.24,0,0,1-6.11-.12l2.4-8.17,5.23-5.23a4.24,4.24,0,0,1,7.24,3Z"/><path class="cls-2" d="M59,51.24a4.25,4.25,0,0,1-1.24,3L54,58l-6-6,3.76-3.76a4.24,4.24,0,0,1,7.24,3Z"/><path class="cls-3" d="M36,61.7A4,4,0,0,1,33,63H5a4,4,0,0,1-4-4V27.26a4,4,0,0,1,1.94-3.43L11,19V13H27v6l8.06,4.83A4,4,0,0,1,37,27.26V49.68Z"/><rect class="cls-4" x="11" y="13" width="16" height="3"/><path class="cls-4" d="M37,46.68v3l-1,12A4,4,0,0,1,33,63H5a4,4,0,0,1-4-4V56a4,4,0,0,0,4,4H33a4,4,0,0,0,3-1.3Z"/><rect class="cls-5" x="9" y="1" width="20" height="12"/><polygon class="cls-6" points="37 54 1 54 1 32 37 32 37 49.68 37 54"/><circle class="cls-7" cx="19" cy="43" r="7"/><rect class="cls-8" x="1" y="52" width="36" height="2"/><circle class="cls-9" cx="40" cy="56" r="7"/><circle class="cls-10" cx="51" cy="13" r="9"/><path class="cls-11" d="M57.36,19.36A9,9,0,0,1,42.06,12a9,9,0,0,0,17.88,0A8.92,8.92,0,0,1,57.36,19.36Z"/><path class="cls-12" d="M17,11a1,1,0,0,0,1-1V4a1,1,0,0,0-2,0v6A1,1,0,0,0,17,11Z"/><path class="cls-12" d="M21,11a1,1,0,0,0,1-1V4a1,1,0,0,0-2,0v6A1,1,0,0,0,21,11Z"/><path class="cls-12" d="M25,11a1,1,0,0,0,1-1V4a1,1,0,0,0-2,0v6A1,1,0,0,0,25,11Z"/><path class="cls-12" d="M13,11a1,1,0,0,0,1-1V4a1,1,0,0,0-2,0v6A1,1,0,0,0,13,11Z"/><path class="cls-12" d="M19,35a8,8,0,1,0,8,8A8,8,0,0,0,19,35Zm0,14a6,6,0,1,1,6-6A6,6,0,0,1,19,49Z"/><path class="cls-12" d="M22,42H20V40a1,1,0,0,0-2,0v2H16a1,1,0,0,0,0,2h2v2a1,1,0,0,0,2,0V44h2a1,1,0,0,0,0-2Z"/><path class="cls-12" d="M54.76,46a5.31,5.31,0,0,0-3.71,1.53l-4.26,4.26A8,8,0,0,0,40,48a8.24,8.24,0,0,0-2,.26v-21A5,5,0,0,0,35.57,23L28,18.43V14h1a1,1,0,0,0,1-1V1a1,1,0,0,0-1-1H9A1,1,0,0,0,8,1V13a1,1,0,0,0,1,1h1v4.43L2.42,23A5,5,0,0,0,0,27.26V59a5,5,0,0,0,5,5H33a5.07,5.07,0,0,0,3-1,7.94,7.94,0,0,0,8-.05A5.25,5.25,0,0,0,51,62.47L58.47,55A5.31,5.31,0,0,0,60,51.24,5.24,5.24,0,0,0,54.76,46ZM32.59,53H2V33H36V49.08A8.06,8.06,0,0,0,32.59,53ZM10,2H28V12H10ZM3.45,24.69l8.06-4.83A1,1,0,0,0,12,19V14H26v5a1,1,0,0,0,.49.86l8.05,4.82A3.05,3.05,0,0,1,36,27.26V31H2V27.26A3,3,0,0,1,3.45,24.69ZM33,62H5a3,3,0,0,1-3-3V55H32.07A8.26,8.26,0,0,0,32,56a7.93,7.93,0,0,0,2.36,5.66A2.92,2.92,0,0,1,33,62Zm1-6a6,6,0,1,1,6,6A6,6,0,0,1,34,56Zm15.53,5a3.19,3.19,0,0,1-3.82.55,8,8,0,0,0,2-7.86l.33-.33L52.59,58Zm7.52-7.52-3,3.06L49.41,52l3.06-3a3.35,3.35,0,0,1,4.58,0,3.25,3.25,0,0,1,0,4.59Z"/><path class="cls-12" d="M42.29,52.29l-6,6a1,1,0,0,0,0,1.42,1,1,0,0,0,1.42,0l6-6a1,1,0,0,0-1.42-1.42Z"/><path class="cls-12" d="M63,12H60.94a9.93,9.93,0,0,0-2.2-5.33l.94-.94a2.24,2.24,0,0,0,.51.07,2,2,0,1,0-1.92-1.48l-.94.93A10,10,0,0,0,52,3.06V1a1,1,0,0,0-2,0V3.06a10,10,0,0,0-5.33,2.2l-.94-.93a2,2,0,1,0-1.92,1.48,2.24,2.24,0,0,0,.51-.07l.94.94A9.93,9.93,0,0,0,41.06,12H39a1,1,0,0,0,0,2h2.07a9.93,9.93,0,0,0,2.2,5.32l-.94.94a2,2,0,1,0,1.41,1.42l.94-.94A9.93,9.93,0,0,0,50,23V25a1,1,0,1,0,2,0V23a9.93,9.93,0,0,0,5.33-2.2l.94.94a2,2,0,0,0,1.92,2.51,2,2,0,0,0,1.42-.59,2,2,0,0,0-1.93-3.34l-.94-.94A9.93,9.93,0,0,0,60.94,14H63a1,1,0,1,0,0-2Zm-6.35,5.24a1,1,0,0,0-1.42,0,1,1,0,0,0,0,1.41l.66.66A7.92,7.92,0,0,1,51,21h0a7.92,7.92,0,0,1-4.89-1.68l.66-.66a1,1,0,0,0,0-1.41,1,1,0,0,0-1.42,0l-.66.66A8.07,8.07,0,0,1,43,13h0a8,8,0,0,1,1.68-4.89l.66.65a1,1,0,0,0,1.42-1.41l-.66-.66A8,8,0,0,1,51,5h0A8,8,0,0,1,55.9,6.69l-.66.66a1,1,0,1,0,1.42,1.41l.66-.65A8,8,0,0,1,59,13h0a8.07,8.07,0,0,1-1.68,4.89Z"/><path class="cls-12" d="M47.46,10.3h0a2,2,0,0,0,0,4h0a2,2,0,1,0,0-4Z"/><circle class="cls-12" cx="53.83" cy="10.89" r="1.5"/><path class="cls-12" d="M50.29,16.54a1,1,0,1,0,1.42,0A1,1,0,0,0,50.29,16.54Z"/></g></svg>