<svg xmlns="http://www.w3.org/2000/svg" xmlns:xlink="http://www.w3.org/1999/xlink" viewBox="0 0 64 64"><defs><style>.cls-1{fill:url(#linear-gradient);}.cls-2{fill:url(#linear-gradient-2);}.cls-3{fill:url(#linear-gradient-3);}.cls-4{fill:#c7cdd8;}.cls-5{fill:url(#linear-gradient-4);}.cls-6{fill:url(#linear-gradient-5);}.cls-7{fill:url(#linear-gradient-6);}.cls-8{fill:#5b8dc9;}.cls-9{fill:#8288a1;}.cls-10{fill:url(#linear-gradient-7);}.cls-11{fill:#9ca0ad;}.cls-12{fill:url(#linear-gradient-8);}.cls-13{fill:#cf4055;}.cls-14{fill:url(#linear-gradient-9);}.cls-15{fill:#42455e;}.cls-16{fill:#231f20;}</style><linearGradient id="linear-gradient" x1="1.5" y1="6.25" x2="11" y2="6.25" gradientTransform="matrix(-0.71, -0.78, 0.71, -0.78, 7.25, 16.97)" gradientUnits="userSpaceOnUse"><stop offset="0" stop-color="#474f72"/><stop offset="1" stop-color="#878c9f"/></linearGradient><linearGradient id="linear-gradient-2" x1="28" y1="63" x2="28" y2="45" gradientUnits="userSpaceOnUse"><stop offset="0" stop-color="#7aa8d7"/><stop offset="1" stop-color="#c3d2e7"/></linearGradient><linearGradient id="linear-gradient-3" x1="25" y1="49" x2="45" y2="49" gradientTransform="translate(70 98) rotate(180)" gradientUnits="userSpaceOnUse"><stop offset="0" stop-color="#d4d8e1"/><stop offset="1" stop-color="#f3f4f5"/></linearGradient><linearGradient id="linear-gradient-4" x1="19.25" y1="31" x2="19.25" y2="6.5" xlink:href="#linear-gradient-2"/><linearGradient id="linear-gradient-5" x1="6.59" y1="10.8" x2="16" y2="10.8" gradientTransform="translate(10.85 24.5) rotate(-135)" gradientUnits="userSpaceOnUse"><stop offset="0" stop-color="#a0a6ba"/><stop offset="1" stop-color="#c6ccda"/></linearGradient><linearGradient id="linear-gradient-6" x1="23" y1="27.5" x2="33" y2="27.5" gradientTransform="translate(28.35 66.74) rotate(-135)" xlink:href="#linear-gradient-5"/><linearGradient id="linear-gradient-7" x1="7.76" y1="54.44" x2="7.76" y2="22.31" gradientTransform="matrix(1, 0, 0, 1, 0, 0)" xlink:href="#linear-gradient-5"/><linearGradient id="linear-gradient-8" x1="51" y1="22" x2="51" y2="4" gradientUnits="userSpaceOnUse"><stop offset="0" stop-color="#da5466"/><stop offset="1" stop-color="#f4929c"/></linearGradient><linearGradient id="linear-gradient-9" x1="14" y1="29" x2="14" y2="19" gradientTransform="matrix(1, 0, 0, 1, 0, 0)" xlink:href="#linear-gradient"/></defs><title>Microscope</title><g id="Microscope"><rect class="cls-1" x="4.07" y="3.36" width="6.36" height="7.78" transform="translate(17.5 7.25) rotate(135)"/><path class="cls-2" d="M9,57v6H47V61a4,4,0,0,0-4-4H29a4,4,0,0,1-4-4V45H16l-1.31,2.24-3.21,5.5Z"/><rect class="cls-3" x="25" y="47" width="20" height="4" transform="translate(70 98) rotate(-180)"/><rect class="cls-4" x="25" y="49" width="20" height="2" transform="translate(70 100) rotate(-180)"/><polygon class="cls-5" points="31.5 21 21.5 31 19.75 29.25 17.78 27.28 10.72 20.22 7 16.5 17 6.5 31.5 21"/><path class="cls-6" d="M4.84,7.88H16.16a0,0,0,0,1,0,0v.4a3.84,3.84,0,0,1-3.84,3.84H8.69A3.84,3.84,0,0,1,4.84,8.28v-.4A0,0,0,0,1,4.84,7.88Z" transform="translate(25 9.65) rotate(135)"/><rect class="cls-7" x="23.05" y="25.38" width="9.9" height="4.24" transform="translate(67.24 27.15) rotate(135)"/><rect class="cls-8" x="18.55" y="23.89" width="14.14" height="2.47" transform="translate(-10.26 25.48) rotate(-45)"/><rect class="cls-9" x="28.17" y="28.38" width="5.66" height="4.24" transform="translate(74.49 30.15) rotate(135)"/><path class="cls-10" d="M14.52,47.54l-4,6.9a16.58,16.58,0,0,1-1.67-1.1A19,19,0,0,1,7,24.15a17.48,17.48,0,0,1,2.28-1.84h0L13.7,29a10.66,10.66,0,0,0-1.88,1.67,11,11,0,0,0,1.06,15.73A10.35,10.35,0,0,0,14.52,47.54Z"/><path class="cls-11" d="M13.7,29a10.66,10.66,0,0,0-1.88,1.67A7,7,0,0,1,7,24.15a17.48,17.48,0,0,1,2.28-1.84h0Z"/><circle class="cls-12" cx="51" cy="13" r="9"/><path class="cls-13" d="M57.36,19.36A9,9,0,0,1,42.06,12a9,9,0,0,0,17.88,0A8.92,8.92,0,0,1,57.36,19.36Z"/><circle class="cls-14" cx="14" cy="24" r="5"/><path class="cls-15" d="M14,26a2,2,0,1,1,2-2A2,2,0,0,1,14,26Zm0-2Z"/><rect class="cls-8" x="9" y="61" width="38" height="2"/><path class="cls-9" d="M14.52,47.54l-4,6.9a16.58,16.58,0,0,1-1.67-1.1l.93-1.61,3.13-5.35A10.35,10.35,0,0,0,14.52,47.54Z"/><path class="cls-16" d="M43,56H29a3,3,0,0,1-3-3V52H45a1,1,0,0,0,1-1V47a1,1,0,0,0-1-1H26V45a1,1,0,0,0-1-1H16a1,1,0,0,0-.86.5l-1,1.62A10,10,0,0,1,14,30a6,6,0,0,0,3.74-1.33l3,3a1,1,0,0,0,1.42,0l.79-.8,2.29,2.3a1,1,0,0,0,1.42,0l.79-.8,2.29,2.3a1,1,0,0,0,1.42,0l4-4a1,1,0,0,0,0-1.42L32.91,27l.8-.79a1,1,0,0,0,0-1.42l-2.3-2.29.8-.79a1,1,0,0,0,0-1.42L17.71,5.79a1,1,0,0,0-1.42,0L16,6.13a4.84,4.84,0,0,0-4.64-.72L7.37,1.46A1,1,0,0,0,7.21.29a1,1,0,0,0-1.42,0l-.5.5L.79,5.29l-.5.5a1,1,0,0,0,0,1.42A1,1,0,0,0,1,7.5a1,1,0,0,0,.46-.13l4.22,4.22a4.86,4.86,0,0,0,1,3.87l-.34.33a1,1,0,0,0,0,1.42l3,3a5.91,5.91,0,0,0-.86,1.43,20,20,0,0,0,.67,33.11l-1,1.72A1,1,0,0,0,8,57v6a1,1,0,0,0,1,1H47a1,1,0,0,0,1-1V61A5,5,0,0,0,43,56Zm1-8v2H26V48ZM14,20a4,4,0,1,1-4,4A4,4,0,0,1,14,20ZM33.09,30,30.5,32.59,28.91,31l2.59-2.59Zm-1.5-4.5-.8.79-4,4-.79.8L24.41,29.5,30,23.91ZM6.5,9.59,2.91,6,6,2.91,9.59,6.5h0L7,9.08Zm1.92.9L11,7.92a2.85,2.85,0,0,1,3.55-.38L8,14A2.85,2.85,0,0,1,8.42,10.49Zm.29,5.72,8-8,.29-.3L30.09,21l-.8.79-7,7-.79.8-2.42-2.42A5.94,5.94,0,0,0,20,24a6,6,0,0,0-6-6,5.94,5.94,0,0,0-3.17.92L8.41,16.5ZM2,38A18,18,0,0,1,8,24.56a6,6,0,0,0,3.55,4.92,11.94,11.94,0,0,0,1.6,18.37l-3,5.2A18,18,0,0,1,2,38ZM46,62H10V57.27l5.38-9.22h0l1.18-2H24v7a5,5,0,0,0,5,5H43a3,3,0,0,1,3,3Z"/><circle class="cls-16" cx="14" cy="24" r="2"/><path class="cls-16" d="M63,12H61a9.85,9.85,0,0,0-2.21-5.33l.94-.94a2.24,2.24,0,0,0,.51.07A2,2,0,0,0,61.61,2.4h0a2,2,0,0,0-2.83,0,2,2,0,0,0-.59,1.41,1.82,1.82,0,0,0,.08.52l-.94.93A10,10,0,0,0,52,3.06V1a1,1,0,0,0-2,0V3.06a10,10,0,0,0-5.33,2.2l-.94-.93a1.82,1.82,0,0,0,.08-.52,2,2,0,0,0-.59-1.41h0a2,2,0,1,0-1.41,3.41,2.24,2.24,0,0,0,.51-.07l.94.94A9.85,9.85,0,0,0,41.05,12H39a1,1,0,0,0,0,2h2.06a9.92,9.92,0,0,0,2.21,5.33l-.94.93a2,2,0,1,0-.51,3.93,2,2,0,0,0,1.41-.59,2,2,0,0,0,.59-1.41,1.7,1.7,0,0,0-.08-.51l.94-.94A9.93,9.93,0,0,0,50,23V25a1,1,0,1,0,2,0V23a9.93,9.93,0,0,0,5.33-2.2l.94.94a1.7,1.7,0,0,0-.08.51,2,2,0,0,0,.59,1.41,2,2,0,0,0,1.41.59,2,2,0,0,0,2-2,2,2,0,0,0-.58-1.41h0a2,2,0,0,0-1.93-.51l-.94-.93A9.92,9.92,0,0,0,61,14H63a1,1,0,1,0,0-2Zm-6.35,5.24a1,1,0,0,0-1.42,0,1,1,0,0,0,0,1.41l.66.66A7.92,7.92,0,0,1,51,21h0a7.92,7.92,0,0,1-4.89-1.68l.66-.66a1,1,0,0,0,0-1.41,1,1,0,0,0-1.42,0l-.65.66A7.94,7.94,0,0,1,43,13v0a8,8,0,0,1,1.68-4.88l.66.65a1,1,0,0,0,1.42-1.41l-.66-.66A8,8,0,0,1,51,5h0A8,8,0,0,1,55.9,6.69l-.66.66a1,1,0,1,0,1.42,1.41l.66-.65A8,8,0,0,1,59,13v0a7.94,7.94,0,0,1-1.69,4.88Z"/><path class="cls-16" d="M46.05,10.89a2,2,0,1,0,2.83,0A2,2,0,0,0,46.05,10.89Z"/><circle class="cls-16" cx="53.83" cy="10.89" r="1.5"/><path class="cls-16" d="M50.29,16.54a1,1,0,1,0,1.42,0A1,1,0,0,0,50.29,16.54Z"/></g></svg>