<svg xmlns="http://www.w3.org/2000/svg" xmlns:xlink="http://www.w3.org/1999/xlink" viewBox="0 0 64 64"><defs><style>.cls-1{fill:url(#linear-gradient);}.cls-2{fill:url(#linear-gradient-2);}.cls-3{fill:#d861b0;}.cls-4{fill:url(#linear-gradient-3);}.cls-5{fill:#cf4055;}.cls-6{fill:url(#linear-gradient-4);}.cls-7{fill:url(#linear-gradient-5);}.cls-8{fill:#231f20;}</style><linearGradient id="linear-gradient" x1="32" y1="19.6" x2="32" y2="10" gradientUnits="userSpaceOnUse"><stop offset="0" stop-color="#da5466"/><stop offset="1" stop-color="#f4929c"/></linearGradient><linearGradient id="linear-gradient-2" x1="32" y1="10.28" x2="32" y2="52" gradientUnits="userSpaceOnUse"><stop offset="0" stop-color="#d96bb0"/><stop offset="1" stop-color="#e49fc6"/></linearGradient><linearGradient id="linear-gradient-3" y1="13" y2="1" xlink:href="#linear-gradient"/><linearGradient id="linear-gradient-4" x1="49" y1="63" x2="49" y2="35" gradientUnits="userSpaceOnUse"><stop offset="0" stop-color="#9dd5df"/><stop offset="1" stop-color="#c3e1f5"/></linearGradient><linearGradient id="linear-gradient-5" x1="49" y1="56" x2="49" y2="42" xlink:href="#linear-gradient"/></defs><title>Mouth Infected</title><g id="Mouth_Infected" data-name="Mouth Infected"><path class="cls-1" d="M49,19.6A144.42,144.42,0,0,1,63,10c-17.86,5.18-43.94,5.24-62,0a139.52,139.52,0,0,1,14,9.6Z"/><path class="cls-2" d="M49,10.28V35L35.26,51.69A17,17,0,0,1,15,35V10.28Z"/><path class="cls-3" d="M49,10.28v2c-9.81.48-12.15,1.43-13.58,2a8.59,8.59,0,0,1-6.84,0c-1.43-.59-3.77-1.54-13.58-2v-2Z"/><path class="cls-4" d="M63,10c-31,0-26.41,3-31,3s0-3-31-3c4.59,0,13.78-9,20.67-9S29.7,3,32,3s3.44-2,10.33-2S58.41,10,63,10Z"/><path class="cls-5" d="M15,10.28v3.78l-.12,0h-.06L1,10C6.82,10,11.39,10.11,15,10.28Z"/><path class="cls-5" d="M63,10,49.23,14l-.23.06V10.28C52.61,10.11,57.18,10,63,10Z"/><circle class="cls-6" cx="49" cy="49" r="14"/><circle class="cls-7" cx="49" cy="49" r="7"/><path class="cls-5" d="M56,49a7,7,0,0,1-14,0,5.47,5.47,0,0,1,.08-1,7,7,0,0,0,13.84,0A5.47,5.47,0,0,1,56,49Z"/><path class="cls-8" d="M56.94,48a8.13,8.13,0,0,0-1.62-3.9h0l1.39-1.39a1,1,0,0,0-1.42-1.42L53.9,42.68h0A8.13,8.13,0,0,0,50,41.06V40a1,1,0,0,0-2,0v1.06a8.13,8.13,0,0,0-3.9,1.62h0l-1.39-1.39a1,1,0,0,0-1.42,1.42l1.39,1.39h0A8.13,8.13,0,0,0,41.06,48H40a1,1,0,0,0,0,2h1.06a8.13,8.13,0,0,0,1.62,3.9h0l-1.39,1.39a1,1,0,0,0,0,1.42,1,1,0,0,0,1.42,0l1.39-1.39h0A8.13,8.13,0,0,0,48,56.94V58a1,1,0,0,0,2,0V56.94a8.13,8.13,0,0,0,3.9-1.62h0l1.39,1.39a1,1,0,0,0,1.42,0,1,1,0,0,0,0-1.42L55.32,53.9h0A8.13,8.13,0,0,0,56.94,50H58a1,1,0,0,0,0-2ZM44.76,53.24A5.86,5.86,0,0,1,43.09,50h0a1,1,0,0,0,0-2h0A6,6,0,0,1,48,43.09h0a1,1,0,0,0,2,0h0A6,6,0,0,1,54.91,48h0a1,1,0,0,0,0,2h0A6,6,0,0,1,50,54.91h0a1,1,0,0,0-2,0h0A5.86,5.86,0,0,1,44.76,53.24Z"/><circle class="cls-8" cx="52" cy="48" r="1"/><circle class="cls-8" cx="49" cy="51" r="1"/><path class="cls-8" d="M50,34V20.09a160.83,160.83,0,0,1,13.53-9.24l0,0,.09-.07.1-.11.08-.1a.31.31,0,0,0,0-.1l0-.12c0-.05,0-.09,0-.14s0-.07,0-.11,0,0,0-.06,0-.05,0-.07,0-.1,0-.15,0,0,0-.06l0-.05a.69.69,0,0,0,0-.13s0,0,0-.07,0,0,0,0l-.07-.09-.11-.1-.1-.08-.1-.05-.12,0-.13,0H63c-1.78,0-4.72-1.79-7.83-3.67C51.06,2.83,46.41,0,42.33,0A20,20,0,0,0,34,1.46,5.65,5.65,0,0,1,32,2a5.65,5.65,0,0,1-2-.54A20,20,0,0,0,21.67,0C17.59,0,12.94,2.83,8.83,5.33,5.72,7.21,2.78,9,1,9H.82l-.13,0-.12,0-.1.05-.1.08-.11.1-.07.09s0,0,0,0,0,0,0,.07a.69.69,0,0,0,0,.13l0,.05s0,0,0,.06,0,.1,0,.15S0,10,0,10s0,0,0,.06,0,.07,0,.11,0,.09,0,.14l.05.12a.31.31,0,0,0,.05.1l.08.1.1.11.09.07,0,0A160.12,160.12,0,0,1,14,20.09V35A18,18,0,0,0,32,53a19,19,0,0,0,2.48-.19h0A15,15,0,1,0,50,34Zm5.75-23-3,.86-2.8.81v-1.5C51.7,11.16,53.61,11.1,55.75,11.06ZM50,14.78c.72-.17,1.78-.48,3.36-.94l3.3-1C54.18,14.54,52,16.1,50,17.58ZM9.87,7c3.88-2.36,8.29-5,11.8-5a18.36,18.36,0,0,1,7.57,1.32A7.1,7.1,0,0,0,32,4a7.1,7.1,0,0,0,2.76-.68A18.36,18.36,0,0,1,42.33,2c3.52,0,7.92,2.67,11.8,5,1.19.73,2.32,1.41,3.39,2-17.75.23-21.14,1.61-23.24,2.47a5.55,5.55,0,0,1-4.56,0C27.62,10.65,24.23,9.27,6.48,9,7.55,8.44,8.68,7.76,9.87,7ZM14,12.73l-3.62-1.05-2.13-.62c2.14,0,4.05.1,5.75.17Zm-6.66.15,2.49.72c2,.59,3.31,1,4.17,1.17v2.8C11.91,16,9.6,14.38,7.34,12.88ZM21.8,47.33A16,16,0,0,1,16,35V11.33c9.2.5,11.52,1.44,13,2A7.3,7.3,0,0,0,31,14V38a1,1,0,0,0,2,0V14a7.3,7.3,0,0,0,2-.59c1.44-.59,3.76-1.53,13-2V34A15,15,0,0,0,34,49a14.1,14.1,0,0,0,.12,1.84A16.06,16.06,0,0,1,21.8,47.33ZM49,62A13,13,0,0,1,36.24,51.52v0h0A12.82,12.82,0,0,1,36,49,13,13,0,1,1,49,62Z"/><circle class="cls-8" cx="46.5" cy="47.5" r="1.5"/></g></svg>