<svg xmlns="http://www.w3.org/2000/svg" xmlns:xlink="http://www.w3.org/1999/xlink" viewBox="0 0 64 64"><defs><style>.cls-1{fill:url(#linear-gradient);}.cls-2{fill:url(#linear-gradient-2);}.cls-3{fill:#5b8dc9;}.cls-4{fill:url(#linear-gradient-3);}.cls-5{fill:url(#linear-gradient-4);}.cls-6{fill:url(#linear-gradient-5);}.cls-7{fill:url(#linear-gradient-6);}.cls-8{fill:url(#linear-gradient-7);}.cls-9{fill:url(#linear-gradient-8);}.cls-10{fill:url(#linear-gradient-9);}.cls-11{fill:url(#linear-gradient-10);}.cls-12{fill:#cf4055;}.cls-13{fill:#231f20;}</style><linearGradient id="linear-gradient" x1="9.5" y1="63" x2="9.5" y2="32" gradientUnits="userSpaceOnUse"><stop offset="0" stop-color="#7aa8d7"/><stop offset="1" stop-color="#c3d2e7"/></linearGradient><linearGradient id="linear-gradient-2" x1="26.5" y1="32" x2="26.5" y2="1" xlink:href="#linear-gradient"/><linearGradient id="linear-gradient-3" x1="18" x2="18" y2="1" xlink:href="#linear-gradient"/><linearGradient id="linear-gradient-4" x1="12" y1="5" x2="12" y2="1" gradientUnits="userSpaceOnUse"><stop offset="0" stop-color="#da5466"/><stop offset="1" stop-color="#f4929c"/></linearGradient><linearGradient id="linear-gradient-5" x1="24" y1="13" x2="24" y2="9" xlink:href="#linear-gradient-4"/><linearGradient id="linear-gradient-6" x1="18" y1="21" x2="18" y2="17" xlink:href="#linear-gradient-4"/><linearGradient id="linear-gradient-7" x1="14" y1="47" x2="14" y2="43" xlink:href="#linear-gradient-4"/><linearGradient id="linear-gradient-8" x1="24" y1="55" x2="24" y2="51" xlink:href="#linear-gradient-4"/><linearGradient id="linear-gradient-9" x1="18" y1="63" x2="18" y2="59" xlink:href="#linear-gradient-4"/><linearGradient id="linear-gradient-10" x1="51" y1="41" x2="51" y2="23" xlink:href="#linear-gradient-4"/></defs><title>Mutation</title><g id="Mutation"><path class="cls-1" d="M18,32v2.2c-.81.37-1.56.76-2.27,1.17C5.83,41.09,5,50.56,5,63H1c0-12.18.9-22.94,10.68-29.79A20.68,20.68,0,0,1,13.55,32Z"/><path class="cls-2" d="M35,1c0,12.18-.9,22.94-10.68,29.79A20.68,20.68,0,0,1,22.45,32H18V29.8c.81-.37,1.56-.76,2.27-1.17C30.17,22.91,31,13.44,31,1Z"/><path class="cls-3" d="M13.55,32H18v2.2c-.81.37-1.56.76-2.27,1.17a32.72,32.72,0,0,1-4.05-2.16A20.68,20.68,0,0,1,13.55,32Z"/><path class="cls-3" d="M24.32,30.79A20.68,20.68,0,0,1,22.45,32H18V29.8c.81-.37,1.56-.76,2.27-1.17A32.72,32.72,0,0,1,24.32,30.79Z"/><path class="cls-4" d="M35,63H31c0-13.62-1-23.68-13.79-29.16C2.22,27.41,1,15.17,1,1H5C5,14.62,6,24.68,18.79,30.16,33.78,36.59,35,48.83,35,63Z"/><circle class="cls-5" cx="12" cy="3" r="2"/><circle class="cls-6" cx="24" cy="11" r="2"/><circle class="cls-7" cx="18" cy="19" r="2"/><circle class="cls-8" cx="14" cy="45" r="2"/><circle class="cls-9" cx="24" cy="53" r="2"/><circle class="cls-10" cx="18" cy="61" r="2"/><circle class="cls-11" cx="51" cy="32" r="9"/><path class="cls-12" d="M57.36,38.36A9,9,0,0,1,42.06,31a9,9,0,0,0,17.88,0A8.92,8.92,0,0,1,57.36,38.36Z"/><path class="cls-13" d="M63,31H60.94a9.93,9.93,0,0,0-2.2-5.33l.94-.94a1.81,1.81,0,0,0,.51.08,2,2,0,1,0-1.41-3.42,2,2,0,0,0-.51,1.93l-.94.94A9.93,9.93,0,0,0,52,22.06V20a1,1,0,1,0-2,0v2.07a9.93,9.93,0,0,0-5.33,2.2l-.94-.94a2,2,0,1,0-3.34.9,2,2,0,0,0,1.42.59,1.81,1.81,0,0,0,.51-.08l.94.94A9.93,9.93,0,0,0,41.06,31H39a1,1,0,0,0,0,2h2.07a9.93,9.93,0,0,0,2.2,5.33l-.94.94a2,2,0,1,0,1.41,1.41l.94-.94A9.93,9.93,0,0,0,50,41.94V44a1,1,0,0,0,2,0V41.94a9.93,9.93,0,0,0,5.33-2.2l.94.94a2,2,0,1,0,1.41-1.41l-.94-.94A9.93,9.93,0,0,0,60.94,33H63a1,1,0,0,0,0-2Zm-6.35,5.24a1,1,0,0,0-1.42,1.42l.66.66A8,8,0,0,1,51,40h0a8,8,0,0,1-4.89-1.68l.66-.66a1,1,0,0,0-1.42-1.42l-.66.66A8,8,0,0,1,43,32h0a8,8,0,0,1,1.68-4.89l.66.66a1,1,0,0,0,1.42,0,1,1,0,0,0,0-1.42l-.66-.66A8,8,0,0,1,51,24h0a8,8,0,0,1,4.89,1.68l-.66.66a1,1,0,0,0,0,1.42,1,1,0,0,0,1.42,0l.66-.66A8,8,0,0,1,59,32h0a8,8,0,0,1-1.68,4.89Z"/><path class="cls-13" d="M47.46,29.29h0a2,2,0,0,0-1.41.59,2,2,0,0,0,1.41,3.41h0a2,2,0,0,0,1.42-3.41A2,2,0,0,0,47.46,29.29Z"/><circle class="cls-13" cx="53.83" cy="29.88" r="1.5"/><path class="cls-13" d="M50.29,35.54a1,1,0,0,0,0,1.41,1,1,0,0,0,1.42,0,1,1,0,0,0,0-1.41A1,1,0,0,0,50.29,35.54Z"/><path class="cls-13" d="M36,1a1,1,0,0,0-1-1H31a1,1,0,0,0-1,1V2H14.82A3,3,0,0,0,9.18,2H6V1A1,1,0,0,0,5,0H1A1,1,0,0,0,0,1C0,13.72,1,24.94,11.66,32,.93,39.17,0,50.75,0,63a1,1,0,0,0,1,1H5a1,1,0,0,0,1-1V62h9.18a3,3,0,0,0,5.64,0H30v1a1,1,0,0,0,1,1h4a1,1,0,0,0,1-1c0-12.72-1-23.94-11.66-31C35.07,24.83,36,13.25,36,1ZM18,28.7A18.63,18.63,0,0,1,8.74,20h6.44a3,3,0,0,0,5.64,0h6.37A18.68,18.68,0,0,1,18,28.7ZM17,19a1,1,0,1,1,1,1A1,1,0,0,1,17,19Zm11.05-1H20.82a3,3,0,0,0-5.64,0H7.9a28.64,28.64,0,0,1-1.38-6H21.18a3,3,0,0,0,5.64,0h2.64A28.94,28.94,0,0,1,28.05,18ZM23,11a1,1,0,1,1,1,1A1,1,0,0,1,23,11ZM12,2a1,1,0,1,1-1,1A1,1,0,0,1,12,2ZM9.18,4a3,3,0,0,0,5.64,0H30c0,2.1-.12,4.1-.29,6H26.82a3,3,0,0,0-5.64,0H6.3C6.13,8.11,6.05,6.11,6,4ZM2,62c0-12,1.17-22.44,11.57-28.84.68.38,1.38.74,2.13,1.09A19.92,19.92,0,0,0,6.41,44.48a1,1,0,0,0-.13.3A32.78,32.78,0,0,0,4.41,53v0h0C4.14,55.52,4,58.19,4,61v0s0,0,0,0c0,.33,0,.65,0,1ZM26.82,52a3,3,0,0,0-5.64,0H6.54A28.94,28.94,0,0,1,8,46h3.23a3,3,0,0,0,5.64,0H28.1a28.64,28.64,0,0,1,1.38,6ZM25,53a1,1,0,1,1-1-1A1,1,0,0,1,25,53ZM13,45a1,1,0,1,1,1,1A1,1,0,0,1,13,45Zm3.82-1a3,3,0,0,0-5.64,0H8.81A18.68,18.68,0,0,1,18,35.3,18.63,18.63,0,0,1,27.26,44ZM18,62a1,1,0,1,1,1-1A1,1,0,0,1,18,62Zm2.82-2a3,3,0,0,0-5.64,0H6c0-2.1.12-4.1.29-6H21.18a3,3,0,0,0,5.64,0H29.7c.17,1.89.25,3.89.28,6ZM34,62H32c0-.33,0-.65,0-1,0,0,0,0,0,0s0,0,0,0c-.12-13-1.67-22.61-14.38-28.06C3.52,26.88,2.06,15.38,2,2H4c0,.33,0,.65,0,1C4,3,4,3,4,3S4,3,4,3c.12,13,1.67,22.61,14.38,28.06C32.48,37.12,33.94,48.62,34,62ZM22.43,30.84c-.68-.38-1.38-.74-2.13-1.09a19.92,19.92,0,0,0,9.29-10.23,1,1,0,0,0,.13-.3A32.78,32.78,0,0,0,31.59,11v0h0c.27-2.51.37-5.18.4-8V3s0,0,0,0c0-.33,0-.65,0-1h2C34,14,32.83,24.44,22.43,30.84Z"/></g></svg>