<svg xmlns="http://www.w3.org/2000/svg" xmlns:xlink="http://www.w3.org/1999/xlink" viewBox="0 0 64 64"><defs><style>.cls-1{fill:url(#linear-gradient);}.cls-2{fill:url(#linear-gradient-2);}.cls-3{fill:url(#linear-gradient-3);}.cls-4{fill:#231f20;}</style><linearGradient id="linear-gradient" x1="32" y1="25" x2="32" y2="1" gradientUnits="userSpaceOnUse"><stop offset="0" stop-color="#da5466"/><stop offset="1" stop-color="#f4929c"/></linearGradient><linearGradient id="linear-gradient-2" x1="48.13" y1="62.52" x2="48.13" y2="24.99" gradientUnits="userSpaceOnUse"><stop offset="0" stop-color="#f2c4b0"/><stop offset="1" stop-color="#ffe3d7"/></linearGradient><linearGradient id="linear-gradient-3" x1="15.87" y1="62.52" x2="15.87" y2="24.99" xlink:href="#linear-gradient-2"/></defs><title>No Contact</title><g id="No_Contact" data-name="No Contact"><path class="cls-1" d="M32,1A12,12,0,1,0,44,13,12,12,0,0,0,32,1ZM24,13A8,8,0,0,1,36.06,6.11l-11,11A8,8,0,0,1,24,13Zm8,8a8,8,0,0,1-4.06-1.11l11-11A8,8,0,0,1,32,21Z"/><path class="cls-2" d="M64,25.49V40.92l-1.81,1.81a6.13,6.13,0,0,0-1.57,2.78A12.23,12.23,0,0,1,57.45,51L46.62,61.86a2.23,2.23,0,0,1-3,.16A2,2,0,0,1,43,61a2.08,2.08,0,0,1,.55-2l-1.69,1.69a2.28,2.28,0,0,1-1.95.65,1.84,1.84,0,0,1-1-.41,2.1,2.1,0,0,1-.16-3.12l-1.7,1.7a2.25,2.25,0,0,1-2,.62,1.82,1.82,0,0,1-.86-.39,2.1,2.1,0,0,1-.16-3.12l1.48-1.48.3-.3a2.11,2.11,0,0,1-2,.56,2.07,2.07,0,0,1-1.28-.9A2.19,2.19,0,0,1,33,51.76l9.9-9.9,1-1-1,0L38.2,40.7a3.37,3.37,0,0,1-3.36-3.36,1.71,1.71,0,0,1,.49-1.19,1.67,1.67,0,0,1,1.19-.49l7.93-.15.73-.36a7.64,7.64,0,0,1,4.56-.72,6.89,6.89,0,0,0,6-1.86l7.44-7.44A.5.5,0,0,1,64,25.49Z"/><path class="cls-3" d="M28.16,54.82l1.78,1.78a2.1,2.1,0,0,1-.16,3.12,1.82,1.82,0,0,1-.86.39,2.25,2.25,0,0,1-2-.62l-1.7-1.7A2.1,2.1,0,0,1,25,60.91a1.84,1.84,0,0,1-1,.41,2.28,2.28,0,0,1-1.95-.65L20.44,59A2.08,2.08,0,0,1,21,61,2,2,0,0,1,20.36,62a2.23,2.23,0,0,1-3-.16L6.55,51a12.23,12.23,0,0,1-3.17-5.52,6.13,6.13,0,0,0-1.57-2.78L0,40.92V25.49a.5.5,0,0,1,.85-.36l7.44,7.44a6.89,6.89,0,0,0,6,1.86,7.64,7.64,0,0,1,4.56.72l.73.36,7.93.15a1.67,1.67,0,0,1,1.19.49,1.71,1.71,0,0,1,.49,1.19A3.37,3.37,0,0,1,25.8,40.7l-5.66.16L31,51.76a2.19,2.19,0,0,1,.37,2.72,2.07,2.07,0,0,1-1.28.9A2.11,2.11,0,0,1,28.16,54.82Z"/><path class="cls-4" d="M32,26A13,13,0,1,0,19,13,13,13,0,0,0,32,26ZM32,2A11,11,0,1,1,21,13,11,11,0,0,1,32,2Z"/><path class="cls-4" d="M25,18.05h.13a1,1,0,0,0,.71-.29l11-10.95A1,1,0,0,0,37.05,6a1,1,0,0,0-.48-.73A9,9,0,0,0,24.25,17.57,1,1,0,0,0,25,18.05ZM32,6a7,7,0,0,1,2.35.41l-8.94,8.94A7,7,0,0,1,32,6Z"/><path class="cls-4" d="M27,20a1,1,0,0,0,.48.73A9,9,0,0,0,39.75,8.43a1,1,0,0,0-1.57-.2l-10.95,11A1,1,0,0,0,27,20Zm11.64-9.37a7,7,0,0,1-8.94,8.94Z"/><path class="cls-4" d="M63.71,41.21a1,1,0,0,0-1.42,0l-.81.81a7.14,7.14,0,0,0-1.83,3.28,11.3,11.3,0,0,1-2.91,5L45.91,61.15a1.17,1.17,0,0,1-1.55.17,1.09,1.09,0,0,1-.41-.81,1.06,1.06,0,0,1,.32-.82h0a1.88,1.88,0,0,0,.12-.18l.18-.12,4.75-4.76a1,1,0,0,0-1.41-1.41L43.15,58a1.88,1.88,0,0,0-.12.18,1.88,1.88,0,0,0-.18.12h0L41.16,60a1.21,1.21,0,0,1-1.56.18,1.11,1.11,0,0,1-.4-.81,1.08,1.08,0,0,1,.32-.83h0l6.83-6.84a1,1,0,0,0-1.41-1.41l-7.13,7.13h0l-1.41,1.4a1.2,1.2,0,0,1-1.55.17,1.11,1.11,0,0,1-.4-.81,1.08,1.08,0,0,1,.32-.83l1.78-1.78h0l6.83-6.83a1,1,0,0,0,0-1.41,1,1,0,0,0-1.42,0l-6.83,6.83A1.1,1.1,0,0,1,33.5,54a1.19,1.19,0,0,1,.17-1.56L44,42.19a8.8,8.8,0,0,0,10.61.06,1,1,0,1,0-1.2-1.6,6.8,6.8,0,0,1-8.23-.07l-.66-.51h0a.85.85,0,0,0-.3-.15.25.25,0,0,0-.12,0,.7.7,0,0,0-.14,0L38.2,39.7a2.38,2.38,0,0,1-2.36-2.36.7.7,0,0,1,.2-.48.67.67,0,0,1,.5-.2l7.93-.15a1,1,0,0,0,.42-.1l.74-.37a6.61,6.61,0,0,1,4-.62,7.86,7.86,0,0,0,6.83-2.14L63.71,26a1,1,0,0,0-1.42-1.42L55,31.87a5.9,5.9,0,0,1-5.11,1.57,8.69,8.69,0,0,0-5.15.81l-.53.26-7.69.15a2.66,2.66,0,0,0-2.68,2.69,4.37,4.37,0,0,0,4.33,4.35h0l3.34.09-9.26,9.26a3.76,3.76,0,0,0-.25.31,3.76,3.76,0,0,0-.25-.31l-9.26-9.26,3.31-.09a4.38,4.38,0,0,0,4.36-4.36,2.72,2.72,0,0,0-.78-1.9,2.68,2.68,0,0,0-1.88-.78h0l-7.71-.15-.52-.25a8.67,8.67,0,0,0-5.16-.82A5.84,5.84,0,0,1,9,31.86L1.71,24.57A1,1,0,0,0,.29,26l7.29,7.29a7.86,7.86,0,0,0,6.83,2.14,6.58,6.58,0,0,1,4,.63l.73.36a1,1,0,0,0,.42.1l8,.15a.65.65,0,0,1,.47.19.7.7,0,0,1,.21.48,2.39,2.39,0,0,1-2.39,2.37l-5.66.16a1,1,0,0,0-.68,1.71l10.9,10.9A1.21,1.21,0,0,1,30.51,54a1.11,1.11,0,0,1-.81.4,1.09,1.09,0,0,1-.83-.32L22,47.28a1,1,0,0,0-1.42,0,1,1,0,0,0,0,1.41l6.83,6.83h0l1.78,1.78a1.1,1.1,0,0,1-.08,1.63,1.18,1.18,0,0,1-1.55-.16l-1.41-1.4h0l-7.13-7.13a1,1,0,1,0-1.41,1.41l6.83,6.84h0a1.1,1.1,0,0,1-.08,1.63A1.19,1.19,0,0,1,22.84,60l-1.69-1.69h0a1.88,1.88,0,0,0-.18-.12,1.88,1.88,0,0,0-.12-.18l-4.76-4.75a1,1,0,1,0-1.41,1.41l4.75,4.76.18.12a1.88,1.88,0,0,0,.12.18h0a1.06,1.06,0,0,1,.32.82,1.08,1.08,0,0,1-.4.8,1.18,1.18,0,0,1-1.56-.16L7.26,50.32a11.3,11.3,0,0,1-2.91-5A7.14,7.14,0,0,0,2.52,42l-.81-.81A1,1,0,0,0,.29,42.63l.81.81a5.33,5.33,0,0,1,1.33,2.38,13.26,13.26,0,0,0,3.41,5.92L16.67,62.57a3.32,3.32,0,0,0,2.32,1,3.05,3.05,0,0,0,1.93-.68,3.17,3.17,0,0,0,.87-1.16,3.19,3.19,0,0,0,3.87,0,3.1,3.1,0,0,0,.89-1.17,3.17,3.17,0,0,0,3.86,0,3.08,3.08,0,0,0,1.14-2.24,3.17,3.17,0,0,0-.65-2.08,3.05,3.05,0,0,0,1.1-.83,3.05,3.05,0,0,0,1.1.83,3.17,3.17,0,0,0-.65,2.08,3.12,3.12,0,0,0,1.14,2.25,3.18,3.18,0,0,0,3.86,0,3.08,3.08,0,0,0,4.76,1.19,3.12,3.12,0,0,0,.88,1.17,3.05,3.05,0,0,0,1.92.67,3.32,3.32,0,0,0,2.32-1L58.16,51.74a13.26,13.26,0,0,0,3.41-5.92,5.33,5.33,0,0,1,1.33-2.38l.81-.81A1,1,0,0,0,63.71,41.21Z"/></g></svg>