<svg xmlns="http://www.w3.org/2000/svg" xmlns:xlink="http://www.w3.org/1999/xlink" viewBox="0 0 64 64"><defs><style>.cls-1{fill:url(#linear-gradient);}.cls-2{fill:url(#linear-gradient-2);}.cls-3{fill:url(#linear-gradient-3);}.cls-4{fill:#eab39b;}.cls-5{fill:url(#linear-gradient-4);}.cls-6{fill:url(#linear-gradient-5);}.cls-7{fill:url(#linear-gradient-6);}.cls-8{fill:url(#linear-gradient-7);}.cls-9{fill:#231f20;}</style><linearGradient id="linear-gradient" x1="32" y1="25" x2="32" y2="1" gradientUnits="userSpaceOnUse"><stop offset="0" stop-color="#da5466"/><stop offset="1" stop-color="#f4929c"/></linearGradient><linearGradient id="linear-gradient-2" x1="32" y1="43" x2="32" y2="30" gradientUnits="userSpaceOnUse"><stop offset="0" stop-color="#f2c4b0"/><stop offset="1" stop-color="#ffe3d7"/></linearGradient><linearGradient id="linear-gradient-3" y1="63" y2="43" xlink:href="#linear-gradient-2"/><linearGradient id="linear-gradient-4" x1="52" y1="43" x2="52" y2="30" xlink:href="#linear-gradient-2"/><linearGradient id="linear-gradient-5" x1="52" y1="63" x2="52" y2="43" xlink:href="#linear-gradient-2"/><linearGradient id="linear-gradient-6" x1="12" y1="43" x2="12" y2="30" xlink:href="#linear-gradient-2"/><linearGradient id="linear-gradient-7" x1="12" y1="63" x2="12" y2="43" xlink:href="#linear-gradient-2"/></defs><title>No Crowd</title><g id="No_Crowd" data-name="No Crowd"><path class="cls-1" d="M32,1A12,12,0,1,0,44,13,12,12,0,0,0,32,1ZM24,13A8,8,0,0,1,36.06,6.11l-11,11A8,8,0,0,1,24,13Zm8,8a8,8,0,0,1-4.06-1.11l11-11A8,8,0,0,1,32,21Z"/><rect class="cls-2" x="27" y="30" width="10" height="13" rx="5"/><path class="cls-3" d="M42,49V61a2,2,0,0,1-2,2,1.85,1.85,0,0,1-.81-.18h0A2,2,0,0,1,38,61v2H26V61a2,2,0,0,1-1.18,1.82h0A1.85,1.85,0,0,1,24,63a2,2,0,0,1-2-2V49a6,6,0,0,1,6-6h8A6,6,0,0,1,42,49Z"/><path class="cls-4" d="M37,36v2a5,5,0,0,1-10,0V36a5,5,0,0,0,10,0Z"/><rect class="cls-5" x="47" y="30" width="10" height="13" rx="5"/><path class="cls-6" d="M62,49V61a2,2,0,0,1-2,2,1.85,1.85,0,0,1-.81-.18h0A2,2,0,0,1,58,61v2H46V61a2,2,0,0,1-1.18,1.82h0A1.85,1.85,0,0,1,44,63a2,2,0,0,1-2-2V49a6,6,0,0,1,6-6h8A6,6,0,0,1,62,49Z"/><path class="cls-4" d="M57,36v2a5,5,0,0,1-10,0V36a5,5,0,0,0,10,0Z"/><rect class="cls-7" x="7" y="30" width="10" height="13" rx="5"/><path class="cls-8" d="M22,49V61a2,2,0,0,1-2,2,1.85,1.85,0,0,1-.81-.18h0A2,2,0,0,1,18,61v2H6V61a2,2,0,0,1-1.18,1.82h0A1.85,1.85,0,0,1,4,63a2,2,0,0,1-2-2V49a6,6,0,0,1,6-6h8A6,6,0,0,1,22,49Z"/><path class="cls-4" d="M17,36v2A5,5,0,0,1,7,38V36a5,5,0,0,0,10,0Z"/><path class="cls-9" d="M32,26A13,13,0,1,0,19,13,13,13,0,0,0,32,26ZM32,2A11,11,0,1,1,21,13,11,11,0,0,1,32,2Z"/><path class="cls-9" d="M25,18.05h.13a1,1,0,0,0,.71-.29l11-10.95a1,1,0,0,0-.2-1.57A9,9,0,0,0,24.25,17.57,1,1,0,0,0,25,18.05ZM32,6a7,7,0,0,1,2.35.41l-8.94,8.94A7,7,0,0,1,32,6Z"/><path class="cls-9" d="M27,20a1,1,0,0,0,.48.73A9,9,0,0,0,39.75,8.43a1,1,0,0,0-1.57-.2l-10.95,11A1,1,0,0,0,27,20Zm11.64-9.37a7,7,0,0,1-8.94,8.94Z"/><path class="cls-9" d="M63,62h-.19A2.87,2.87,0,0,0,63,61V49a7,7,0,0,0-6.56-7A6,6,0,0,0,58,38V35a6,6,0,0,0-12,0v3a6,6,0,0,0,1.56,4A7,7,0,0,0,42,45.4,7,7,0,0,0,36.44,42,6,6,0,0,0,38,38V35a6,6,0,1,0-12,0v3a6,6,0,0,0,1.56,4A7,7,0,0,0,22,45.4,7,7,0,0,0,16.44,42,6,6,0,0,0,18,38V35A6,6,0,0,0,6,35v3a6,6,0,0,0,1.56,4A7,7,0,0,0,1,49V61a2.87,2.87,0,0,0,.19,1H1a1,1,0,0,0,0,2H63a1,1,0,0,0,0-2ZM48,35a4,4,0,1,1,8,0v3a4,4,0,1,1-8,0Zm0,9h8a5,5,0,0,1,5,5V61a1,1,0,0,1-1,1,1,1,0,0,1-.38-.08l-.08,0A1,1,0,0,1,59,61V48a1,1,0,0,0-2,0V62H47V48a1,1,0,0,0-2,0V61a1,1,0,0,1-.54.88l-.08,0A1,1,0,0,1,44,62a1,1,0,0,1-1-1V49A5,5,0,0,1,48,44ZM28,35a4,4,0,1,1,8,0v3a4,4,0,1,1-8,0Zm0,9h8a5,5,0,0,1,5,5V61a1,1,0,0,1-1,1,1,1,0,0,1-.38-.08l-.08,0A1,1,0,0,1,39,61V48a1,1,0,0,0-2,0V62H27V48a1,1,0,0,0-2,0V61a1,1,0,0,1-.54.88l-.08,0A1,1,0,0,1,24,62a1,1,0,0,1-1-1V49A5,5,0,0,1,28,44ZM8,35a4,4,0,1,1,8,0v3a4,4,0,0,1-8,0ZM7,61V48a1,1,0,0,0-2,0V61a1,1,0,0,1-.54.88l-.08,0A1,1,0,0,1,4,62a1,1,0,0,1-1-1V49a5,5,0,0,1,5-5h8a5,5,0,0,1,5,5V61a1,1,0,0,1-1,1,1,1,0,0,1-.38-.08l-.08,0A1,1,0,0,1,19,61V48a1,1,0,0,0-2,0V62H7Z"/></g></svg>