<svg xmlns="http://www.w3.org/2000/svg" xmlns:xlink="http://www.w3.org/1999/xlink" viewBox="0 0 64 64"><defs><style>.cls-1{fill:url(#linear-gradient);}.cls-2{fill:url(#linear-gradient-2);}.cls-3{fill:url(#linear-gradient-3);}.cls-4{fill:#5b8dc9;}.cls-5{fill:url(#linear-gradient-4);}.cls-6{fill:url(#linear-gradient-5);}.cls-7{fill:url(#linear-gradient-6);}.cls-8{fill:url(#linear-gradient-8);}.cls-9{fill:#231f20;}</style><linearGradient id="linear-gradient" x1="32" y1="63" x2="32" y2="1" gradientUnits="userSpaceOnUse"><stop offset="0" stop-color="#da5466"/><stop offset="1" stop-color="#f4929c"/></linearGradient><linearGradient id="linear-gradient-2" x1="43" y1="52.56" x2="34.29" y2="52.56" gradientUnits="userSpaceOnUse"><stop offset="0" stop-color="#7aa8d7"/><stop offset="1" stop-color="#c3d2e7"/></linearGradient><linearGradient id="linear-gradient-3" x1="21" y1="52.56" x2="29.71" y2="52.56" xlink:href="#linear-gradient-2"/><linearGradient id="linear-gradient-4" x1="32" y1="56" x2="32" y2="6" gradientUnits="userSpaceOnUse"><stop offset="0" stop-color="#d4d8e1"/><stop offset="1" stop-color="#f3f4f5"/></linearGradient><linearGradient id="linear-gradient-5" x1="37" y1="30" x2="58" y2="30" xlink:href="#linear-gradient-2"/><linearGradient id="linear-gradient-6" x1="27" y1="30" x2="6" y2="30" xlink:href="#linear-gradient-2"/><linearGradient id="linear-gradient-8" x1="32" y1="51.26" x2="32" y2="12.74" xlink:href="#linear-gradient"/></defs><title>No Flight</title><g id="No_Flight" data-name="No Flight"><path class="cls-1" d="M32,1A31,31,0,1,0,63,32,31,31,0,0,0,32,1ZM9.15,24.65c5-15.54,24.07-21.78,37.16-11.91L12.74,46.31A23.89,23.89,0,0,1,9.15,24.65Zm46,13.52a24.61,24.61,0,0,1-1.6,4.31,24,24,0,0,1-35.9,8.78L51.26,17.69A24,24,0,0,1,55.19,38.17Z"/><polyline class="cls-2" points="35.66 48.11 43 53 43 57 34.29 55.06"/><polygon class="cls-3" points="29.71 55.06 21 57 21 53 28.34 48.11 29.71 55.06"/><polygon class="cls-4" points="43 55 43 57 34.29 55.06 34.67 53.14 43 55"/><polygon class="cls-4" points="29.71 55.06 21 57 21 55 29.33 53.14 29.71 55.06"/><path class="cls-5" d="M37,32V37L35.78,48.19,35.25,53a3.24,3.24,0,0,1-1,2.05l-.08.08A3.26,3.26,0,0,1,28.75,53l-.53-4.82-.73-6.73L27,32.05V14.66a11.24,11.24,0,0,1,3.29-7.95,2.41,2.41,0,0,1,3.42,0,10.77,10.77,0,0,1,1.23,1.47h0a11.23,11.23,0,0,1,2,6.48V32Z"/><polygon class="cls-6" points="58 34 58 39 41 34 37 34 37 21 37.65 21.4 43.76 25.19 55.98 32.75 58 34"/><polygon class="cls-7" points="27 32.05 27 21 6 34 6 39 8.8 38.18 23 34 25.05 34 27 32.05"/><polygon class="cls-6" points="58 34 58 39 41 34 37 34 37 21 37.65 21.4 43.76 25.19 55.98 32.75 58 34"/><polygon class="cls-4" points="58 37 58 39 41 34 37 34 37 32 41 32 58 37"/><polygon class="cls-4" points="27 32.05 25.05 34 23 34 8.8 38.18 6 39 6 37 8.8 36.18 23 32 25.05 32 27 32.05"/><path class="cls-8" d="M51.26,17.69,17.69,51.26l-5-4.95L46.31,12.74Z"/><path class="cls-9" d="M37.71,22.76,47,13.45a1,1,0,0,0,.29-.78,1,1,0,0,0-.4-.73A24.9,24.9,0,0,0,35.49,7.25,13.88,13.88,0,0,0,34.42,6a3.51,3.51,0,0,0-4.84,0,13.06,13.06,0,0,0-1.09,1.27A25,25,0,0,0,7,32c0,.07,0,.13,0,.2l-1.54.95A1,1,0,0,0,5,34v5a1,1,0,0,0,.4.8A1,1,0,0,0,6,40a.9.9,0,0,0,.28,0l1.86-.55a24.92,24.92,0,0,0,3.8,7.5,1,1,0,0,0,.73.4h.07a1,1,0,0,0,.71-.29L37.71,22.76ZM38,19.64v-5a12.12,12.12,0,0,0-1.13-5.13,23,23,0,0,1,7.89,3.34ZM33,7.42a9.4,9.4,0,0,1,1.12,1.33.39.39,0,0,0,.08.1A10.31,10.31,0,0,1,36,14.66v7l-8,8v-15a10.13,10.13,0,0,1,3-7.24A1.44,1.44,0,0,1,33,7.42ZM27.13,9.53A12.27,12.27,0,0,0,26,14.66v5.78L9.05,30.94A23,23,0,0,1,27.13,9.53ZM7,34.56,26,22.79v8.85L24.64,33H23a.86.86,0,0,0-.28,0L7,37.67Zm5.87,10.2a22.92,22.92,0,0,1-2.81-5.91l12.36-3.64Z"/><path class="cls-9" d="M58.53,33.15,57,32.2c0-.07,0-.13,0-.2a24.79,24.79,0,0,0-4.94-14.91,1,1,0,0,0-.73-.4,1,1,0,0,0-.78.29L17,50.55a1,1,0,0,0-.29.78,1,1,0,0,0,.4.73A24,24,0,0,0,20,53.91V57a1,1,0,0,0,1,1l.22,0,6.28-1.4A22.38,22.38,0,0,0,31,57v1a1,1,0,0,0,2,0V57a24.3,24.3,0,0,0,3.5-.37L42.78,58,43,58a1,1,0,0,0,1-1V53.91A25,25,0,0,0,55.87,39.42l1.85.54A.9.9,0,0,0,58,40a1,1,0,0,0,.6-.2A1,1,0,0,0,59,39V34A1,1,0,0,0,58.53,33.15Zm-7.4-13.91A22.74,22.74,0,0,1,55,30.94L45.36,25ZM34.84,47.54s0,0,0,0a1,1,0,0,0-.09.9l-.49,4.46A2.12,2.12,0,0,1,33,54.75V52a1,1,0,0,0-2,0v2.75a2.36,2.36,0,0,1-.59-.4,2.26,2.26,0,0,1-.67-1.45l-.48-4.44a1,1,0,0,0-.09-.9s0,0,0,0l-.62-5.71L36,34.36V37Zm-8.12-3.9.44,4L20.68,52c-.49-.28-1-.57-1.45-.88ZM22,53.54l5.41-3.61.34,3.17a4.16,4.16,0,0,0,.34,1.3L22,55.75Zm20,2.21-5.25-1.17h0l-.82-.18a3.84,3.84,0,0,0,.33-1.28l.35-3.19L42,53.54ZM43.31,52l-6.47-4.32L38,37.11A.41.41,0,0,0,38,37V35h2.86L54,38.85A23,23,0,0,1,43.31,52ZM57,37.66l-1.54-.45h0L41.28,33A.86.86,0,0,0,41,33H38v-.64l5.91-5.9L57,34.56Z"/><path class="cls-9" d="M32,0A32,32,0,1,0,64,32,32,32,0,0,0,32,0Zm0,62A30,30,0,1,1,62,32,30,30,0,0,1,32,62Z"/></g></svg>