<svg xmlns="http://www.w3.org/2000/svg" xmlns:xlink="http://www.w3.org/1999/xlink" viewBox="0 0 64 64"><defs><style>.cls-1{fill:url(#linear-gradient);}.cls-2{fill:#c7cdd8;}.cls-3{fill:url(#linear-gradient-2);}.cls-4{fill:#d7f1ff;}.cls-5{fill:url(#linear-gradient-3);}.cls-6{fill:#77cacb;}.cls-7{fill:url(#linear-gradient-4);}.cls-8{fill:#231f20;}</style><linearGradient id="linear-gradient" x1="32" y1="55" x2="32" y2="1" gradientUnits="userSpaceOnUse"><stop offset="0" stop-color="#d4d8e1"/><stop offset="1" stop-color="#f3f4f5"/></linearGradient><linearGradient id="linear-gradient-2" x1="32" y1="50" x2="32" y2="21.77" gradientUnits="userSpaceOnUse"><stop offset="0" stop-color="#f2c4b0"/><stop offset="1" stop-color="#ffe3d7"/></linearGradient><linearGradient id="linear-gradient-3" x1="32" y1="64" x2="32" y2="55" xlink:href="#linear-gradient"/><linearGradient id="linear-gradient-4" x1="32" y1="50" x2="32" y2="34" gradientUnits="userSpaceOnUse"><stop offset="0" stop-color="#9dd5df"/><stop offset="1" stop-color="#c3e1f5"/></linearGradient></defs><title>Paramedic</title><g id="Paramedic"><path class="cls-1" d="M29,1h6A20,20,0,0,1,55,21V47a8,8,0,0,1-8,8H17a8,8,0,0,1-8-8V21A20,20,0,0,1,29,1Z"/><path class="cls-2" d="M55,44v3a8,8,0,0,1-8,8H17a8,8,0,0,1-8-8V44a8,8,0,0,0,8,8H47A8,8,0,0,0,55,44Z"/><path class="cls-3" d="M48,25.77V34A16,16,0,0,1,32,50h0A16,16,0,0,1,16,34V26a4,4,0,0,1,4-4l24-.2A4,4,0,0,1,48,25.77Z"/><path class="cls-4" d="M48,23.84v6.32A5.83,5.83,0,0,1,42.16,36h-2a10.5,10.5,0,0,0-4.73-1.77l-.78-2.33a2.77,2.77,0,0,0-5.26,0l-.78,2.33A10.5,10.5,0,0,0,23.86,36h-2A5.83,5.83,0,0,1,16,30.16V23.84A5.83,5.83,0,0,1,21.84,18H42.16A5.83,5.83,0,0,1,48,23.84Z"/><path class="cls-5" d="M63,64H1c1.8-5.41,6.4-9,11.54-9H51.46C56.6,55,61.2,58.59,63,64Z"/><path class="cls-6" d="M48,23.84v4A5.83,5.83,0,0,0,42.16,22H21.84A5.83,5.83,0,0,0,16,27.84v-4A5.83,5.83,0,0,1,21.84,18H42.16A5.83,5.83,0,0,1,48,23.84Z"/><path class="cls-7" d="M43,43c0,4-6,7-11,7s-11-3-11-7c0-2.83.65-5.35,2.86-7a10.5,10.5,0,0,1,4.73-1.77,25.39,25.39,0,0,1,6.82,0A10.5,10.5,0,0,1,40.14,36C42.35,37.65,43,40.17,43,43Z"/><path class="cls-6" d="M43,43c0,4-6,7-11,7s-11-3-11-7c0-.47,0-.92.06-1.37C21.64,45.31,27.29,48,32,48s10.36-2.69,10.94-6.37C43,42.08,43,42.53,43,43Z"/><path class="cls-8" d="M49,30.16V23.84A6.85,6.85,0,0,0,42.16,17H21.84A6.85,6.85,0,0,0,15,23.84V34A17,17,0,0,0,30.68,50.93c.44,0,.88.07,1.32.07s.88,0,1.32-.07A17,17,0,0,0,49,34ZM32,49c-.37,0-.73,0-1.1-.06C26.63,48.56,22,46.06,22,43s.78-5,2.46-6.2a7.06,7.06,0,0,1,1-.59,11.18,11.18,0,0,1,3.3-1A21.8,21.8,0,0,1,32,35a21.71,21.71,0,0,1,3.26.22,11.57,11.57,0,0,1,1.28.26,8.31,8.31,0,0,1,3,1.32C41.22,38.05,42,40,42,43s-4.63,5.56-8.9,5.94C32.73,49,32.37,49,32,49ZM30,33.07l.29-.85a1.77,1.77,0,0,1,3.36,0l.29.85A28.78,28.78,0,0,0,30,33.07ZM40.46,35c-.18-.12-.37-.22-.56-.33l-.28-.17A9.69,9.69,0,0,0,38.49,34l-.23-.08c-.33-.11-.67-.22-1-.32l-.46-.11-.59-.13-.59-1.77a3.77,3.77,0,0,0-7.16,0l-.59,1.77c-.2,0-.39.09-.58.13l-.48.11c-.36.1-.7.21-1,.33l-.23.07a9.69,9.69,0,0,0-1.13.51l-.27.16c-.2.11-.39.22-.57.34h-1.7A4.84,4.84,0,0,1,17,30.16V27.84A4.84,4.84,0,0,1,21.84,23H42.16A4.84,4.84,0,0,1,47,27.84v2.32A4.84,4.84,0,0,1,42.16,35ZM21.84,19H42.16a4.84,4.84,0,0,1,4.75,3.93A6.83,6.83,0,0,0,42.16,21H21.84a6.83,6.83,0,0,0-4.75,1.93A4.84,4.84,0,0,1,21.84,19ZM17.05,35a6.84,6.84,0,0,0,4.52,2A10.41,10.41,0,0,0,20,43,14.92,14.92,0,0,1,17.05,35ZM44,43a10.41,10.41,0,0,0-1.57-6A6.84,6.84,0,0,0,47,35,14.92,14.92,0,0,1,44,43Z"/><path class="cls-8" d="M36,40H28a1,1,0,0,0,0,2h8a1,1,0,0,0,0-2Z"/><path class="cls-8" d="M36,44H28a1,1,0,0,0,0,2h8a1,1,0,0,0,0-2Z"/><ellipse class="cls-8" cx="24.5" cy="30" rx="1.5" ry="2"/><ellipse class="cls-8" cx="39.5" cy="30" rx="1.5" ry="2"/><path class="cls-8" d="M63.94,62.65a13.4,13.4,0,0,0-11.36-8.6A9,9,0,0,0,56,47V21A21,21,0,0,0,35,0H29A21,21,0,0,0,8,21V47a9,9,0,0,0,3.42,7A13.4,13.4,0,0,0,.06,62.65a1,1,0,0,0,.59,1.29A1,1,0,0,0,1,64a1,1,0,0,0,.94-.65A11.37,11.37,0,0,1,12.54,56H31v7a1,1,0,0,0,2,0V56H51.46a11.36,11.36,0,0,1,10.6,7.35A1,1,0,0,0,63,64a1,1,0,0,0,.35-.06A1,1,0,0,0,63.94,62.65ZM43,54H17a7,7,0,0,1-7-7V21A19,19,0,0,1,29,2h6A19,19,0,0,1,54,21V47a7,7,0,0,1-7,7Z"/><path class="cls-8" d="M21.12,25.46a1,1,0,1,0,1.42,1.42,2.75,2.75,0,0,1,3.9,0,1,1,0,0,0,.7.29,1,1,0,0,0,.71-.29,1,1,0,0,0,0-1.42A4.77,4.77,0,0,0,21.12,25.46Z"/><path class="cls-8" d="M36.15,25.46a1,1,0,0,0,0,1.42,1,1,0,0,0,1.41,0,2.75,2.75,0,0,1,3.9,0,1,1,0,0,0,.71.29,1,1,0,0,0,.71-.29,1,1,0,0,0,0-1.42A4.77,4.77,0,0,0,36.15,25.46Z"/></g></svg>