<svg xmlns="http://www.w3.org/2000/svg" xmlns:xlink="http://www.w3.org/1999/xlink" viewBox="0 0 64 64"><defs><style>.cls-1{fill:url(#linear-gradient);}.cls-2{fill:#42455e;}.cls-3{fill:url(#linear-gradient-2);}.cls-4{fill:url(#linear-gradient-3);}.cls-5{fill:url(#linear-gradient-4);}.cls-6{fill:url(#linear-gradient-5);}.cls-7{fill:#cf4055;}.cls-8{fill:url(#linear-gradient-6);}.cls-9{fill:url(#linear-gradient-7);}.cls-10{fill:url(#linear-gradient-8);}.cls-11{fill:#77cacb;}.cls-12{fill:url(#linear-gradient-9);}.cls-13{fill:#eab39b;}.cls-14{fill:none;stroke:#231f20;stroke-linecap:round;stroke-linejoin:round;stroke-width:2px;}.cls-15{fill:url(#linear-gradient-10);}.cls-16{fill:#231f20;}</style><linearGradient id="linear-gradient" x1="32" y1="63" x2="32" y2="57" gradientUnits="userSpaceOnUse"><stop offset="0" stop-color="#474f72"/><stop offset="1" stop-color="#878c9f"/></linearGradient><linearGradient id="linear-gradient-2" x1="32" y1="57" x2="32" y2="1" gradientUnits="userSpaceOnUse"><stop offset="0" stop-color="#9dd5df"/><stop offset="1" stop-color="#c3e1f5"/></linearGradient><linearGradient id="linear-gradient-3" x1="59.5" y1="26" x2="59.5" y2="21" gradientUnits="userSpaceOnUse"><stop offset="0" stop-color="#da5466"/><stop offset="1" stop-color="#f4929c"/></linearGradient><linearGradient id="linear-gradient-4" x1="58" y1="51" x2="58" y2="47" xlink:href="#linear-gradient-3"/><linearGradient id="linear-gradient-5" x1="53" y1="5" x2="53" y2="1" xlink:href="#linear-gradient-3"/><linearGradient id="linear-gradient-6" x1="5.5" y1="51" x2="5.5" y2="46" xlink:href="#linear-gradient-3"/><linearGradient id="linear-gradient-7" x1="5" y1="31" x2="5" y2="27" xlink:href="#linear-gradient-3"/><linearGradient id="linear-gradient-8" x1="9" y1="6" x2="9" y2="2" xlink:href="#linear-gradient-3"/><linearGradient id="linear-gradient-9" x1="32" y1="20" x2="32" y2="7" gradientUnits="userSpaceOnUse"><stop offset="0" stop-color="#f2c4b0"/><stop offset="1" stop-color="#ffe3d7"/></linearGradient><linearGradient id="linear-gradient-10" y1="57" y2="20" xlink:href="#linear-gradient-9"/></defs><title>Self Quarantine</title><g id="Self_Quarantine" data-name="Self Quarantine"><rect class="cls-1" x="9" y="57" width="46" height="6"/><rect class="cls-2" x="9" y="61" width="46" height="2"/><path class="cls-3" d="M32,1h0A20,20,0,0,1,52,21V57a0,0,0,0,1,0,0H12a0,0,0,0,1,0,0V21A20,20,0,0,1,32,1Z"/><circle class="cls-4" cx="59.5" cy="23.5" r="2.5"/><circle class="cls-5" cx="58" cy="49" r="2"/><circle class="cls-6" cx="53" cy="3" r="2"/><path class="cls-7" d="M60,13a2,2,0,1,1,2-2A2,2,0,0,1,60,13Zm0-2h0Zm0,0h0Zm0,0h0Zm0,0h0Zm0,0h0Zm0,0h0Zm0,0h0Zm0,0h0Z"/><circle class="cls-8" cx="5.5" cy="48.5" r="2.5"/><circle class="cls-9" cx="5" cy="29" r="2"/><circle class="cls-10" cx="9" cy="4" r="2"/><rect class="cls-11" x="12" y="55" width="40" height="2"/><rect class="cls-12" x="27" y="7" width="10" height="13" rx="5"/><path class="cls-13" d="M37,13v2a5,5,0,0,1-10,0V13a5,5,0,0,0,10,0Z"/><polyline class="cls-14" points="26 38 26 36 26 25"/><line class="cls-14" x1="26" y1="38" x2="26" y2="36"/><path class="cls-15" d="M42,26V38a2,2,0,0,1-2,2,1.85,1.85,0,0,1-.81-.18h0A2,2,0,0,1,38,38V54l.21.11A3.21,3.21,0,0,1,40,57H33L32,38,31,57H24a3.21,3.21,0,0,1,1.79-2.89L26,54V38a2,2,0,0,1-1.18,1.82h0A1.85,1.85,0,0,1,24,40a2,2,0,0,1-2-2V26a6,6,0,0,1,6-6h8A6,6,0,0,1,42,26Z"/><path class="cls-13" d="M31.11,55,31,57H24a3.18,3.18,0,0,1,.7-2Z"/><path class="cls-13" d="M40,57H33l-.11-2H39.3A3.18,3.18,0,0,1,40,57Z"/><path class="cls-16" d="M55,56H53V21a21,21,0,0,0-42,0V56H9a1,1,0,0,0-1,1v6a1,1,0,0,0,1,1H55a1,1,0,0,0,1-1V57A1,1,0,0,0,55,56ZM13,21a19,19,0,0,1,38,0V56H40.88A4.19,4.19,0,0,0,39,53.4V40.82A2.81,2.81,0,0,0,40,41a3,3,0,0,0,3-3V26a7,7,0,0,0-6.56-7A5.93,5.93,0,0,0,38,15V12a6,6,0,0,0-12,0v3a5.93,5.93,0,0,0,1.56,4A7,7,0,0,0,21,26V38a3,3,0,0,0,3,3,2.81,2.81,0,0,0,1-.18V53.4A4.18,4.18,0,0,0,23.12,56H13ZM33,38a1,1,0,0,0-2,0l-.95,18H25.23a2.25,2.25,0,0,1,1-1l.21-.11A1,1,0,0,0,27,54V25a1,1,0,0,0-2,0V38a1,1,0,0,1-.54.88l-.08,0A1,1,0,0,1,24,39a1,1,0,0,1-1-1V26a5,5,0,0,1,5-5h8a5,5,0,0,1,5,5V38a1,1,0,0,1-1,1,1,1,0,0,1-.38-.08l-.08,0A1,1,0,0,1,39,38V25a1,1,0,0,0-2,0V54a1,1,0,0,0,.54.89l.23.12a2.23,2.23,0,0,1,1,1H34ZM28,15V12a4,4,0,0,1,8,0v3a4,4,0,0,1-8,0ZM54,62H10V58H54Z"/><path class="cls-16" d="M59.5,20A3.5,3.5,0,1,0,63,23.5,3.5,3.5,0,0,0,59.5,20Zm0,5A1.5,1.5,0,1,1,61,23.5,1.5,1.5,0,0,1,59.5,25Z"/><path class="cls-16" d="M58,46a3,3,0,1,0,3,3A3,3,0,0,0,58,46Zm0,4a1,1,0,1,1,1-1A1,1,0,0,1,58,50Z"/><circle class="cls-16" cx="63" cy="42" r="1"/><circle class="cls-16" cx="56.5" cy="34.5" r="1.5"/><path class="cls-16" d="M53,6a3,3,0,1,0-3-3A3,3,0,0,0,53,6Zm0-4a1,1,0,1,1-1,1A1,1,0,0,1,53,2Z"/><circle class="cls-16" cx="60" cy="11" r="2"/><path class="cls-16" d="M5.5,45A3.5,3.5,0,1,0,9,48.5,3.5,3.5,0,0,0,5.5,45Zm0,5A1.5,1.5,0,1,1,7,48.5,1.5,1.5,0,0,1,5.5,50Z"/><path class="cls-16" d="M2,29a3,3,0,1,0,3-3A3,3,0,0,0,2,29Zm3-1a1,1,0,1,1-1,1A1,1,0,0,1,5,28Z"/><circle class="cls-16" cx="7" cy="19" r="1"/><circle class="cls-16" cx="8.5" cy="37.5" r="1.5"/><path class="cls-16" d="M9,7A3,3,0,1,0,6,4,3,3,0,0,0,9,7ZM9,3A1,1,0,1,1,8,4,1,1,0,0,1,9,3Z"/><circle class="cls-16" cx="2" cy="11" r="2"/></g></svg>