<svg xmlns="http://www.w3.org/2000/svg" xmlns:xlink="http://www.w3.org/1999/xlink" viewBox="0 0 64 64"><defs><style>.cls-1{fill:url(#linear-gradient);}.cls-2{fill:url(#linear-gradient-2);}.cls-3{fill:#231f20;}</style><linearGradient id="linear-gradient" x1="52" y1="55" x2="52" y2="44" gradientUnits="userSpaceOnUse"><stop offset="0" stop-color="#8cdd79"/><stop offset="1" stop-color="#d4e6b6"/></linearGradient><linearGradient id="linear-gradient-2" x1="24.45" y1="64" x2="24.45" y2="1" gradientUnits="userSpaceOnUse"><stop offset="0" stop-color="#f2c4b0"/><stop offset="1" stop-color="#ffe3d7"/></linearGradient></defs><title>Sneeze</title><g id="Sneeze"><path class="cls-1" d="M55.67,51.33a3.67,3.67,0,0,1-7.34,0C48.33,48.28,52,44,52,44S55.67,48.28,55.67,51.33Z"/><path class="cls-2" d="M28,64V55l6.17,1.76a6.05,6.05,0,0,0,1.69.24h0A6.14,6.14,0,0,0,42,50.86V49l1.81-.6A1.75,1.75,0,0,0,45,46.74h0A1.74,1.74,0,0,0,43.26,45h0A1.74,1.74,0,0,0,45,43.26v-.18a1.74,1.74,0,0,0-1-1.56L43,41V39l2.89-.58A2.63,2.63,0,0,0,48,35.84h0a2.63,2.63,0,0,0-.49-1.53l-3.58-5a2.69,2.69,0,0,1-.21-2.75h0A2.74,2.74,0,0,0,44,25.37V22.5A21.51,21.51,0,0,0,22.5,1h0A21.59,21.59,0,0,0,.91,22.5v1a30.87,30.87,0,0,0,2.38,12l.06.16A31,31,0,0,1,5.69,49.21C5.37,55.22,5,64,5,64"/><path class="cls-3" d="M51.24,43.35c-.4.47-3.91,4.65-3.91,8a4.67,4.67,0,0,0,9.34,0c0-3.33-3.51-7.51-3.91-8A1,1,0,0,0,51.24,43.35ZM52,54a2.68,2.68,0,0,1-2.67-2.67c0-1.73,1.55-4.21,2.67-5.72,1.12,1.51,2.67,4,2.67,5.72A2.68,2.68,0,0,1,52,54Z"/><path class="cls-3" d="M45.93,39.43a3.72,3.72,0,0,0,3-3,3.57,3.57,0,0,0-.63-2.69l-3.57-5a1.61,1.61,0,0,1-.17-1.66,3.6,3.6,0,0,0,.42-1.7V23.05C45,10.88,35.56.5,23.4,0A22.62,22.62,0,0,0-.09,22.5v1A31.82,31.82,0,0,0,2.35,35.85l.07.15A29.85,29.85,0,0,1,4.69,49.15C4.44,54,4.15,60.5,4,63a1,1,0,0,0,1,1H5a1,1,0,0,0,1-1c.11-2.47.39-9,.65-13.79a31.76,31.76,0,0,0-2.43-14l-.06-.15A29.92,29.92,0,0,1,1.9,23.49V23C2,11.91,10.58,2.45,21.68,2A20.51,20.51,0,0,1,43,22.5v2.87a2.26,2.26,0,0,1-.21.81,3.67,3.67,0,0,0,.33,3.71l3.58,5A1.66,1.66,0,0,1,47,36.13a1.72,1.72,0,0,1-1.38,1.33L43.07,38c-.74.14-1.07.55-1.07,1v2a1,1,0,0,0,.55.89l1,.52a.75.75,0,0,1,.41.67v.18a.74.74,0,0,1-.74.74H41a1,1,0,0,0,0,2h2.26a.74.74,0,0,1,.23,1.45l-1.81.6A1,1,0,0,0,41,49v1.68a5.31,5.31,0,0,1-2.32,4.49,5.19,5.19,0,0,1-4.23.63L28.27,54a1,1,0,0,0-.87.16,1,1,0,0,0-.4.8v8a1,1,0,0,0,2,0V56.33l4.9,1.4A7.22,7.22,0,0,0,39,57.26a7.33,7.33,0,0,0,4-6.65v-.89l1-.32a2.89,2.89,0,0,0,2-2.52A2.76,2.76,0,0,0,45.37,45,2.73,2.73,0,0,0,46,43.26v-.18a2.76,2.76,0,0,0-1.52-2.46L44,40.38v-.56Z"/><path class="cls-3" d="M51,29a1,1,0,0,0,1-1V24a1,1,0,0,0-2,0v4A1,1,0,0,0,51,29Z"/><path class="cls-3" d="M63,35H59a1,1,0,0,0,0,2h4a1,1,0,0,0,0-2Z"/><path class="cls-3" d="M56.66,31.34a1,1,0,0,0,.7-.29l2.83-2.83a1,1,0,0,0-1.41-1.41L56,29.64a1,1,0,0,0,0,1.41A1,1,0,0,0,56.66,31.34Z"/><path class="cls-3" d="M57.36,41A1,1,0,0,0,56,42.36l2.83,2.83a1,1,0,0,0,1.41,0,1,1,0,0,0,0-1.41Z"/></g></svg>