<svg xmlns="http://www.w3.org/2000/svg" xmlns:xlink="http://www.w3.org/1999/xlink" viewBox="0 0 64 64"><defs><style>.cls-1{fill:url(#linear-gradient);}.cls-2{fill:url(#linear-gradient-2);}.cls-3{fill:#231f20;}</style><linearGradient id="linear-gradient" x1="32" y1="64" x2="32" y2="1" gradientUnits="userSpaceOnUse"><stop offset="0" stop-color="#f2c4b0"/><stop offset="1" stop-color="#ffe3d7"/></linearGradient><linearGradient id="linear-gradient-2" x1="25" y1="61" x2="25" y2="51" gradientUnits="userSpaceOnUse"><stop offset="0" stop-color="#da5466"/><stop offset="1" stop-color="#f4929c"/></linearGradient></defs><title>Sore Troath</title><g id="Sore_Troath" data-name="Sore Troath"><path class="cls-1" d="M55.55,35.84a2.63,2.63,0,0,1-2.12,2.58L50.55,39v3l.18.27A1.72,1.72,0,0,1,50.85,44a1.74,1.74,0,0,1-1.59,1h-.95a1.74,1.74,0,0,1,1.59,1,1.84,1.84,0,0,1,.17.77A1.72,1.72,0,0,1,49.55,48v2.86a6.13,6.13,0,0,1-7.83,5.9L35.55,55v9h-23s.37-8.78.69-14.79a31,31,0,0,0-2.35-13.59l-.07-.16a30.86,30.86,0,0,1-2.37-12v-1a21.55,21.55,0,0,1,43.09,0v2.87a2.74,2.74,0,0,1-.28,1.19,2.67,2.67,0,0,0,.21,2.75l3.58,5A2.63,2.63,0,0,1,55.55,35.84Z"/><circle class="cls-2" cx="25" cy="56" r="5"/><path class="cls-3" d="M55.87,33.73l-3.57-5a1.61,1.61,0,0,1-.17-1.66,3.72,3.72,0,0,0,.42-1.7V23.05C52.55,10.88,43.11.5,31,0A22.62,22.62,0,0,0,7.46,22.5v1.18A30.84,30.84,0,0,0,9.9,35.85L10,36a29.85,29.85,0,0,1,2.27,13.15C12,54,11.7,60.5,11.59,63a1,1,0,0,0,.95,1h0a1,1,0,0,0,1.05-1c.11-2.47.39-9,.65-13.79a31.71,31.71,0,0,0-2.43-14h0A29.67,29.67,0,0,1,9.45,23.54V23C9.5,11.91,18.12,2.45,29.23,2A20.52,20.52,0,0,1,50.55,22.5v2.87a2.26,2.26,0,0,1-.21.81,3.67,3.67,0,0,0,.33,3.71l3.57,5a1.61,1.61,0,0,1,.28,1.24,1.69,1.69,0,0,1-1.39,1.33L50.35,38a1,1,0,0,0-.8,1v3a1,1,0,0,0,.17.55l.17.27a.73.73,0,0,1,0,.78.74.74,0,0,1-.67.4H45a4.39,4.39,0,0,0-3.12,1.29,1,1,0,0,0,0,1.42,1,1,0,0,0,.71.29,1,1,0,0,0,.74-.33A2.38,2.38,0,0,1,45.06,46h3.25a.72.72,0,0,1,.69.47.71.71,0,0,1-.13.79,1.11,1.11,0,0,0-.32.74v2.67a5.27,5.27,0,0,1-3.5,5.06,5,5,0,0,1-3,.07L35.82,54a1,1,0,0,0-.87.16,1,1,0,0,0-.4.8v8a1,1,0,0,0,2,0V56.33l4.9,1.4a7.19,7.19,0,0,0,4.35-.14,7.31,7.31,0,0,0,4.75-7V48.36a2.69,2.69,0,0,0,.3-2.66,1,1,0,0,0-.07-.15,2.72,2.72,0,0,0,.92-1,2.75,2.75,0,0,0-.14-2.82v-1.9l1.93-.39a3.74,3.74,0,0,0,3-3A3.63,3.63,0,0,0,55.87,33.73Z"/><path class="cls-3" d="M31.55,55H30.46a6,6,0,0,0-1-2.47l.78-.77a1,1,0,1,0-1.42-1.42l-.77.77a6,6,0,0,0-2.47-1V49a1,1,0,0,0-2,0v1.09a6,6,0,0,0-2.47,1l-.77-.77a1,1,0,1,0-1.42,1.42l.77.77a6,6,0,0,0-1,2.47H17.55a1,1,0,1,0,0,2h1.09a6,6,0,0,0,1,2.47l-.77.77a1,1,0,0,0,0,1.42,1,1,0,0,0,.71.29,1,1,0,0,0,.71-.29l.77-.77a6,6,0,0,0,2.47,1V63a1,1,0,0,0,2,0V61.91a6,6,0,0,0,2.47-1l.77.77a1,1,0,0,0,.71.29,1,1,0,0,0,.71-.29,1,1,0,0,0,0-1.42l-.78-.77a6,6,0,0,0,1-2.47h1.09a1,1,0,0,0,0-2Zm-3.13,2a4,4,0,0,1-2.9,2.9,1,1,0,0,0-1-.87,1,1,0,0,0-1,.87,4,4,0,0,1-2.9-2.9,1,1,0,0,0,0-1.94,4,4,0,0,1,2.9-2.9,1,1,0,0,0,1,.87,1,1,0,0,0,1-.87,4,4,0,0,1,2.9,2.9,1,1,0,0,0,0,1.94Z"/></g></svg>