<svg xmlns="http://www.w3.org/2000/svg" xmlns:xlink="http://www.w3.org/1999/xlink" viewBox="0 0 64 64"><defs><style>.cls-1{fill:url(#linear-gradient);}.cls-2{fill:#cf4055;}.cls-3{fill:url(#linear-gradient-2);}.cls-4{fill:url(#linear-gradient-3);}.cls-5{fill:url(#linear-gradient-4);}.cls-6{fill:url(#linear-gradient-5);}.cls-7{fill:#231f20;}</style><linearGradient id="linear-gradient" x1="10" y1="42" x2="10" y2="28" gradientUnits="userSpaceOnUse"><stop offset="0" stop-color="#da5466"/><stop offset="1" stop-color="#f4929c"/></linearGradient><linearGradient id="linear-gradient-2" x1="26" y1="57" x2="26" y2="47" xlink:href="#linear-gradient"/><linearGradient id="linear-gradient-3" x1="40" y1="29" x2="40" y2="21" xlink:href="#linear-gradient"/><linearGradient id="linear-gradient-4" x1="21" y1="16" x2="21" y2="12" xlink:href="#linear-gradient"/><linearGradient id="linear-gradient-5" x1="59" y1="50" x2="59" y2="46" xlink:href="#linear-gradient"/></defs><title>Spread</title><g id="Spread"><circle class="cls-1" cx="10" cy="35" r="7"/><path class="cls-2" d="M17,35A7,7,0,0,1,3,35a5.47,5.47,0,0,1,.08-1,7,7,0,0,0,13.84,0A5.47,5.47,0,0,1,17,35Z"/><circle class="cls-3" cx="26" cy="52" r="5"/><circle class="cls-4" cx="40" cy="25" r="4"/><circle class="cls-5" cx="21" cy="14" r="2"/><circle class="cls-6" cx="59" cy="48" r="2"/><path class="cls-7" d="M8,22H26A9,9,0,1,0,19.64,6.63,1,1,0,1,0,21,8.05a7,7,0,1,1,5,12H8a1,1,0,0,0,0,2Z"/><path class="cls-7" d="M64,25a11,11,0,0,0-18.78-7.78,1,1,0,0,0,1.42,1.42A9,9,0,1,1,53,34H30a1,1,0,0,0,0,2H53A11,11,0,0,0,64,25Z"/><path class="cls-7" d="M43,40H22a1,1,0,0,0,0,2H43a8,8,0,0,1,8,8,8,8,0,0,1-8,8,7.91,7.91,0,0,1-5.65-2.34,1,1,0,0,0-1.41,0,1,1,0,0,0,0,1.42A9.9,9.9,0,0,0,43,60,10,10,0,0,0,53,50,10,10,0,0,0,43,40Z"/><path class="cls-7" d="M19,34H17.93a7.94,7.94,0,0,0-1.62-3.9l1.4-1.39a1,1,0,0,0-1.42-1.42l-1.39,1.4A7.94,7.94,0,0,0,11,27.07V26a1,1,0,0,0-2,0v1.07a7.94,7.94,0,0,0-3.9,1.62l-1.39-1.4a1,1,0,0,0-1.42,1.42l1.4,1.39A7.94,7.94,0,0,0,2.07,34H1a1,1,0,0,0,0,2H2.07a7.94,7.94,0,0,0,1.62,3.9l-1.4,1.39a1,1,0,0,0,0,1.42,1,1,0,0,0,1.42,0l1.39-1.4A7.94,7.94,0,0,0,9,42.93V44a1,1,0,0,0,2,0V42.93a7.94,7.94,0,0,0,3.9-1.62l1.39,1.4a1,1,0,0,0,1.42,0,1,1,0,0,0,0-1.42l-1.4-1.39A7.94,7.94,0,0,0,17.93,36H19a1,1,0,0,0,0-2Zm-3.09,2A6,6,0,0,1,11,40.91a1,1,0,0,0-2,0A6,6,0,0,1,4.09,36a1,1,0,0,0,0-2A6,6,0,0,1,9,29.09a1,1,0,0,0,2,0A6,6,0,0,1,15.91,34a1,1,0,0,0,0,2Z"/><circle class="cls-7" cx="7.5" cy="33.5" r="1.5"/><circle class="cls-7" cx="13" cy="34" r="1"/><circle class="cls-7" cx="10" cy="37" r="1"/><path class="cls-7" d="M33,51H31.91a6,6,0,0,0-1-2.47l.77-.77a1,1,0,1,0-1.42-1.42l-.77.77a6,6,0,0,0-2.47-1V45a1,1,0,0,0-2,0v1.09a6,6,0,0,0-2.47,1l-.77-.77a1,1,0,1,0-1.42,1.42l.77.77a6,6,0,0,0-1,2.47H19a1,1,0,0,0,0,2h1.09a6,6,0,0,0,1,2.47l-.77.77a1,1,0,0,0,0,1.42,1,1,0,0,0,1.42,0l.77-.77a6,6,0,0,0,2.47,1V59a1,1,0,0,0,2,0V57.91a6,6,0,0,0,2.47-1l.77.77a1,1,0,0,0,1.42,0,1,1,0,0,0,0-1.42l-.77-.77a6,6,0,0,0,1-2.47H33a1,1,0,0,0,0-2Zm-3.13,2a4,4,0,0,1-2.9,2.9,1,1,0,0,0-1.94,0,4,4,0,0,1-2.9-2.9,1,1,0,0,0,0-1.94,4,4,0,0,1,2.9-2.9,1,1,0,0,0,1.94,0,4,4,0,0,1,2.9,2.9,1,1,0,0,0,0,1.94Z"/><path class="cls-7" d="M35.22,21.63l.79.78a5,5,0,0,0-.74,1.76h-1.1a1,1,0,0,0,0,2h1.1A4.87,4.87,0,0,0,36,27.92l-.79.78a1,1,0,0,0,0,1.42,1,1,0,0,0,.71.29,1,1,0,0,0,.71-.29l.78-.79a5,5,0,0,0,1.75.74v1.1a1,1,0,0,0,2,0v-1.1a5,5,0,0,0,1.76-.74l.78.79a1,1,0,1,0,1.41-1.42l-.78-.78a4.93,4.93,0,0,0,.73-1.75h1.1a1,1,0,0,0,0-2h-1.1a4.85,4.85,0,0,0-.73-1.75l.78-.79a1,1,0,1,0-1.41-1.41l-.78.78a5,5,0,0,0-1.76-.73v-1.1a1,1,0,0,0-2,0v1.1a5,5,0,0,0-1.75.73l-.78-.78a1,1,0,0,0-1.42,0A1,1,0,0,0,35.22,21.63Zm2.83,2.42a1,1,0,0,0,.71-.3,1,1,0,0,0,.1-1.26,2.86,2.86,0,0,1,2.63,0,1,1,0,0,0,.81,1.56,1,1,0,0,0,.56-.2,3.05,3.05,0,0,1,.31,1.32,3,3,0,0,1-.31,1.31,1,1,0,0,0-1.37,1.37,2.86,2.86,0,0,1-2.63,0,1,1,0,0,0-.1-1.27,1,1,0,0,0-1.27-.09,3,3,0,0,1-.32-1.32,2.92,2.92,0,0,1,.32-1.32A1,1,0,0,0,38.05,24.05Z"/><path class="cls-7" d="M32,28a1,1,0,0,0-1-1H23a1,1,0,0,0,0,2h8A1,1,0,0,0,32,28Z"/><path class="cls-7" d="M21,17a3,3,0,1,0-3-3A3,3,0,0,0,21,17Zm0-4a1,1,0,1,1-1,1A1,1,0,0,1,21,13Z"/><path class="cls-7" d="M59,45a3,3,0,1,0,3,3A3,3,0,0,0,59,45Zm0,4a1,1,0,1,1,1-1A1,1,0,0,1,59,49Z"/><circle class="cls-7" cx="40" cy="47" r="2"/><circle class="cls-7" cx="42" cy="11" r="2"/><circle class="cls-7" cx="9" cy="52" r="2"/><circle class="cls-7" cx="26" cy="35" r="1"/><circle class="cls-7" cx="4" cy="21" r="1"/></g></svg>