<svg xmlns="http://www.w3.org/2000/svg" xmlns:xlink="http://www.w3.org/1999/xlink" viewBox="0 0 64 64"><defs><style>.cls-1{fill:url(#linear-gradient);}.cls-2{fill:none;stroke:#231f20;stroke-linecap:round;stroke-linejoin:round;stroke-width:2px;}.cls-3{fill:url(#linear-gradient-2);}.cls-4{fill:url(#linear-gradient-3);}.cls-5{fill:#eab39b;}.cls-6{fill:url(#linear-gradient-4);}.cls-7{fill:url(#linear-gradient-5);}.cls-8{fill:#cf4055;}.cls-9{fill:#231f20;}</style><linearGradient id="linear-gradient" x1="11" y1="26" x2="11" y2="13" gradientUnits="userSpaceOnUse"><stop offset="0" stop-color="#f2c4b0"/><stop offset="1" stop-color="#ffe3d7"/></linearGradient><linearGradient id="linear-gradient-2" y1="63" y2="26" xlink:href="#linear-gradient"/><linearGradient id="linear-gradient-3" x1="53" y1="26" x2="53" y2="13" xlink:href="#linear-gradient"/><linearGradient id="linear-gradient-4" x1="53" y1="63" x2="53" y2="26" xlink:href="#linear-gradient"/><linearGradient id="linear-gradient-5" x1="32" y1="17" x2="32" y2="3" gradientUnits="userSpaceOnUse"><stop offset="0" stop-color="#da5466"/><stop offset="1" stop-color="#f4929c"/></linearGradient></defs><title>Virus Transmission</title><g id="Virus_Transmission" data-name="Virus Transmission"><rect class="cls-1" x="6" y="13" width="10" height="13" rx="5"/><polyline class="cls-2" points="5 44 5 42 5 31"/><line class="cls-2" x1="5" y1="44" x2="5" y2="42"/><path class="cls-3" d="M21,32V44a2,2,0,0,1-2,2,1.85,1.85,0,0,1-.81-.18h0A2,2,0,0,1,17,44V60l.21.11A3.21,3.21,0,0,1,19,63H12L11,44,10,63H3a3.21,3.21,0,0,1,1.79-2.89L5,60V44a2,2,0,0,1-1.18,1.82h0A1.85,1.85,0,0,1,3,46a2,2,0,0,1-2-2V32a6,6,0,0,1,6-6h8A6,6,0,0,1,21,32Z"/><rect class="cls-4" x="48" y="13" width="10" height="13" rx="5"/><path class="cls-5" d="M16,19v2A5,5,0,0,1,6,21V19a5,5,0,0,0,10,0Z"/><path class="cls-5" d="M58,19v2a5,5,0,0,1-10,0V19a5,5,0,0,0,10,0Z"/><polyline class="cls-2" points="47 44 47 42 47 31"/><line class="cls-2" x1="47" y1="44" x2="47" y2="42"/><path class="cls-6" d="M63,32V44a2,2,0,0,1-2,2,1.85,1.85,0,0,1-.81-.18h0A2,2,0,0,1,59,44V60l.21.11A3.21,3.21,0,0,1,61,63H54L53,44,52,63H45a3.21,3.21,0,0,1,1.79-2.89L47,60V44a2,2,0,0,1-1.18,1.82h0A1.85,1.85,0,0,1,45,46a2,2,0,0,1-2-2V32a6,6,0,0,1,6-6h8A6,6,0,0,1,63,32Z"/><circle class="cls-7" cx="32" cy="10" r="7"/><path class="cls-8" d="M39,10a7,7,0,0,1-14,0,5.47,5.47,0,0,1,.08-1A7,7,0,0,0,38.92,9,5.47,5.47,0,0,1,39,10Z"/><path class="cls-5" d="M10.11,61,10,63H3a3.18,3.18,0,0,1,.7-2Z"/><path class="cls-5" d="M19,63H12l-.11-2H18.3A3.18,3.18,0,0,1,19,63Z"/><path class="cls-5" d="M52.11,61,52,63H45a3.18,3.18,0,0,1,.7-2Z"/><path class="cls-5" d="M61,63H54l-.11-2H60.3A3.18,3.18,0,0,1,61,63Z"/><path class="cls-9" d="M43.92,24.38a1,1,0,0,0,0-.76,1,1,0,0,0-.21-.33l-3-3a1,1,0,0,0-1.42,1.42L40.59,23H21a1,1,0,0,0,0,2H40.59l-1.3,1.29a1,1,0,0,0,0,1.42,1,1,0,0,0,1.42,0l3-3A1,1,0,0,0,43.92,24.38Z"/><path class="cls-9" d="M41,9H39.93a7.94,7.94,0,0,0-1.62-3.9l1.4-1.39a1,1,0,1,0-1.42-1.42L36.9,3.69A7.94,7.94,0,0,0,33,2.07V1a1,1,0,0,0-2,0V2.07a7.94,7.94,0,0,0-3.9,1.62l-1.39-1.4a1,1,0,0,0-1.42,1.42l1.4,1.39A7.94,7.94,0,0,0,24.07,9H23a1,1,0,0,0,0,2h1.07a7.94,7.94,0,0,0,1.62,3.9l-1.4,1.39a1,1,0,0,0,0,1.42,1,1,0,0,0,1.42,0l1.39-1.4A7.94,7.94,0,0,0,31,17.93V19a1,1,0,0,0,2,0V17.93a7.94,7.94,0,0,0,3.9-1.62l1.39,1.4a1,1,0,0,0,1.42,0,1,1,0,0,0,0-1.42l-1.4-1.39A7.94,7.94,0,0,0,39.93,11H41a1,1,0,0,0,0-2Zm-3.09,2A6,6,0,0,1,33,15.91a1,1,0,0,0-2,0A6,6,0,0,1,26.09,11a1,1,0,0,0,0-2A6,6,0,0,1,31,4.09a1,1,0,0,0,2,0A6,6,0,0,1,37.91,9a1,1,0,0,0,0,2Z"/><circle class="cls-9" cx="29.5" cy="8.5" r="1.5"/><circle class="cls-9" cx="35" cy="9" r="1"/><circle class="cls-9" cx="32" cy="12" r="1"/><path class="cls-9" d="M15.44,25A5.93,5.93,0,0,0,17,21V18A6,6,0,0,0,5,18v3a5.93,5.93,0,0,0,1.56,4A7,7,0,0,0,0,32V44a3,3,0,0,0,3,3,2.81,2.81,0,0,0,1-.18V59.4A4.21,4.21,0,0,0,2,63a1,1,0,0,0,1,1h7a1,1,0,0,0,1-1v0a1,1,0,0,0,1,1h7a1,1,0,0,0,1-1,4.17,4.17,0,0,0-2-3.6V46.82A2.81,2.81,0,0,0,19,47a3,3,0,0,0,3-3V32A7,7,0,0,0,15.44,25ZM7,18a4,4,0,0,1,8,0v3a4,4,0,0,1-8,0ZM20,44a1,1,0,0,1-1,1,1,1,0,0,1-.38-.08l-.08,0A1,1,0,0,1,18,44V31a1,1,0,0,0-2,0V60a1,1,0,0,0,.54.89l.23.12a2.23,2.23,0,0,1,1,1H13L12,44a1,1,0,0,0-2,0L9.05,62H4.23a2.25,2.25,0,0,1,1-1l.21-.11A1,1,0,0,0,6,60V31a1,1,0,0,0-2,0V44a1,1,0,0,1-.54.88l-.08,0A1,1,0,0,1,3,45a1,1,0,0,1-1-1V32a5,5,0,0,1,5-5h8a5,5,0,0,1,5,5Z"/><path class="cls-9" d="M57.44,25A5.93,5.93,0,0,0,59,21V18a6,6,0,0,0-12,0v3a5.93,5.93,0,0,0,1.56,4A7,7,0,0,0,42,32V44a3,3,0,0,0,3,3,2.81,2.81,0,0,0,1-.18V59.4A4.21,4.21,0,0,0,44,63a1,1,0,0,0,1,1h7a1,1,0,0,0,1-1v0a1,1,0,0,0,1,1h7a1,1,0,0,0,1-1,4.17,4.17,0,0,0-2-3.6V46.82A2.81,2.81,0,0,0,61,47a3,3,0,0,0,3-3V32A7,7,0,0,0,57.44,25ZM49,18a4,4,0,0,1,8,0v3a4,4,0,0,1-8,0ZM62,44a1,1,0,0,1-1,1,1,1,0,0,1-.38-.08l-.08,0A1,1,0,0,1,60,44V31a1,1,0,0,0-2,0V60a1,1,0,0,0,.54.89l.23.12a2.23,2.23,0,0,1,1,1H55L54,44a1,1,0,0,0-2,0l-1,18H46.23a2.25,2.25,0,0,1,1-1l.21-.11A1,1,0,0,0,48,60V31a1,1,0,0,0-2,0V44a1,1,0,0,1-.54.88l-.08,0A1,1,0,0,1,45,45a1,1,0,0,1-1-1V32a5,5,0,0,1,5-5h8a5,5,0,0,1,5,5Z"/></g></svg>