<svg xmlns="http://www.w3.org/2000/svg" xmlns:xlink="http://www.w3.org/1999/xlink" viewBox="0 0 64 64"><defs><style>.cls-1{fill:url(#linear-gradient);}.cls-2{fill:#42455e;}.cls-3{fill:url(#linear-gradient-2);}.cls-4{fill:#77cacb;}.cls-5{fill:#cf4055;}.cls-6{fill:url(#linear-gradient-3);}.cls-7{fill:url(#linear-gradient-4);}.cls-8{fill:url(#linear-gradient-5);}.cls-9{fill:url(#linear-gradient-6);}.cls-10{fill:url(#linear-gradient-7);}.cls-11{fill:url(#linear-gradient-8);}.cls-12{fill:url(#linear-gradient-9);}.cls-13{fill:#231f20;}</style><linearGradient id="linear-gradient" x1="32" y1="63" x2="32" y2="57" gradientUnits="userSpaceOnUse"><stop offset="0" stop-color="#474f72"/><stop offset="1" stop-color="#878c9f"/></linearGradient><linearGradient id="linear-gradient-2" x1="32" y1="57" x2="32" y2="1" gradientUnits="userSpaceOnUse"><stop offset="0" stop-color="#9dd5df"/><stop offset="1" stop-color="#c3e1f5"/></linearGradient><linearGradient id="linear-gradient-3" x1="45" y1="50" x2="45" y2="46" gradientUnits="userSpaceOnUse"><stop offset="0" stop-color="#da5466"/><stop offset="1" stop-color="#f4929c"/></linearGradient><linearGradient id="linear-gradient-4" x1="25" y1="15" x2="25" y2="9" xlink:href="#linear-gradient-3"/><linearGradient id="linear-gradient-5" x1="32" y1="41" x2="32" y2="23" xlink:href="#linear-gradient-3"/><linearGradient id="linear-gradient-6" x1="41.19" y1="24.81" x2="41.19" y2="20.81" xlink:href="#linear-gradient-3"/><linearGradient id="linear-gradient-7" x1="22.81" y1="43.19" x2="22.81" y2="39.19" xlink:href="#linear-gradient-3"/><linearGradient id="linear-gradient-8" x1="41.19" y1="43.19" x2="41.19" y2="39.19" xlink:href="#linear-gradient-3"/><linearGradient id="linear-gradient-9" x1="22.81" y1="24.81" x2="22.81" y2="20.81" xlink:href="#linear-gradient-3"/></defs><title>Virus Quarantine</title><g id="Virus_Quarantine" data-name="Virus Quarantine"><rect class="cls-1" x="9" y="57" width="46" height="6"/><rect class="cls-2" x="9" y="61" width="46" height="2"/><path class="cls-3" d="M32,1h0A20,20,0,0,1,52,21V57a0,0,0,0,1,0,0H12a0,0,0,0,1,0,0V21A20,20,0,0,1,32,1Z"/><rect class="cls-4" x="12" y="55" width="40" height="2"/><circle class="cls-5" cx="20" cy="50" r="2"/><path class="cls-6" d="M45,50a2,2,0,1,1,2-2A2,2,0,0,1,45,50Zm0-2h0Zm0,0h0Zm0,0h0Zm0,0h0Zm0,0h0Zm0,0h0Zm0,0h0Zm0,0h0Z"/><circle class="cls-7" cx="25" cy="12" r="3"/><path class="cls-5" d="M42,18a2,2,0,1,1,2-2A2,2,0,0,1,42,18Zm0-2Z"/><circle class="cls-8" cx="32" cy="32" r="9"/><path class="cls-5" d="M38.36,38.36A9,9,0,0,1,23.06,31a9,9,0,0,0,17.88,0A8.92,8.92,0,0,1,38.36,38.36Z"/><path class="cls-9" d="M41.19,24.81a2,2,0,1,1,1.42-.59A2,2,0,0,1,41.19,24.81Zm0-2Z"/><path class="cls-10" d="M22.81,43.19a2,2,0,1,1,1.41-.58A2,2,0,0,1,22.81,43.19Zm0-2Z"/><path class="cls-11" d="M41.19,43.19a2,2,0,0,1-1.41-.58,2,2,0,1,1,1.41.58Zm0-2Z"/><path class="cls-12" d="M22.81,24.81a2,2,0,1,1,1.41-.59A2,2,0,0,1,22.81,24.81Zm0-2Z"/><path class="cls-13" d="M55,56H53V21a21,21,0,0,0-42,0V56H9a1,1,0,0,0-1,1v6a1,1,0,0,0,1,1H55a1,1,0,0,0,1-1V57A1,1,0,0,0,55,56ZM13,21a19,19,0,0,1,38,0V56H13ZM54,62H10V58H54Z"/><path class="cls-13" d="M29.88,29.88h0a2,2,0,0,0-2.83,0,2,2,0,0,0,0,2.83,2,2,0,0,0,2.83,0,2,2,0,0,0,0-2.83Z"/><circle class="cls-13" cx="34.83" cy="29.88" r="1.5"/><path class="cls-13" d="M31.29,35.54a1,1,0,0,0,0,1.41,1,1,0,0,0,1.42,0,1,1,0,0,0,0-1.41A1,1,0,0,0,31.29,35.54Z"/><path class="cls-13" d="M42.61,39.78a2,2,0,0,0-1.93-.51l-.94-.94A9.92,9.92,0,0,0,42,33H44a1,1,0,0,0,0-2H42a9.92,9.92,0,0,0-2.21-5.33l.94-.94a1.81,1.81,0,0,0,.51.08,2,2,0,1,0-1.41-3.42,2,2,0,0,0-.51,1.93l-.94.94A9.92,9.92,0,0,0,33,22.05V20a1,1,0,1,0-2,0v2.06a9.92,9.92,0,0,0-5.33,2.21l-.94-.94a2,2,0,1,0-3.34.9,2,2,0,0,0,1.42.59,1.81,1.81,0,0,0,.51-.08l.94.94A9.92,9.92,0,0,0,22.05,31H20a1,1,0,1,0,0,2h2.06a9.92,9.92,0,0,0,2.21,5.33l-.94.94a2,2,0,1,0,1.41,1.41l.94-.94A9.93,9.93,0,0,0,31,41.94V44a1,1,0,0,0,2,0V41.94a9.93,9.93,0,0,0,5.33-2.2l.94.94a2,2,0,1,0,3.34-.9ZM32,40h0a8,8,0,0,1-4.89-1.68l.66-.66a1,1,0,0,0-1.42-1.42l-.66.66A8,8,0,0,1,24,32s0,0,0,0,0,0,0,0a7.94,7.94,0,0,1,1.69-4.88l.65.66a1,1,0,0,0,1.42,0,1,1,0,0,0,0-1.42l-.66-.65A7.94,7.94,0,0,1,32,24h0a7.94,7.94,0,0,1,4.88,1.69l-.66.65a1,1,0,0,0,0,1.42,1,1,0,0,0,1.42,0l.65-.66A7.94,7.94,0,0,1,40,32s0,0,0,0,0,0,0,0a8,8,0,0,1-1.68,4.88l-.66-.66a1,1,0,0,0-1.42,1.42l.66.66A8,8,0,0,1,32,40Z"/><path class="cls-13" d="M20,47a3,3,0,1,0,3,3A3,3,0,0,0,20,47Zm0,4a1,1,0,1,1,1-1A1,1,0,0,1,20,51Z"/><circle class="cls-13" cx="45" cy="48" r="2"/><path class="cls-13" d="M25,16a4,4,0,1,0-4-4A4,4,0,0,0,25,16Zm0-6a2,2,0,1,1-2,2A2,2,0,0,1,25,10Z"/><circle class="cls-13" cx="42" cy="16" r="2"/></g></svg>