<svg width="801" height="451" viewBox="0 0 801 451" fill="none" xmlns="http://www.w3.org/2000/svg">
<rect x="0.334961" y="0.120728" width="800" height="450" fill="#FFD600"/>
<path d="M422.955 191.255C422.806 190.736 422.597 190.278 422.327 189.881C422.057 189.476 421.727 189.135 421.336 188.858C420.953 188.574 420.512 188.357 420.015 188.208C419.525 188.059 418.982 187.984 418.385 187.984C417.27 187.984 416.29 188.261 415.445 188.815C414.607 189.369 413.953 190.175 413.485 191.234C413.016 192.285 412.781 193.57 412.781 195.09C412.781 196.61 413.012 197.903 413.474 198.968C413.936 200.033 414.589 200.847 415.434 201.408C416.279 201.962 417.277 202.239 418.428 202.239C419.472 202.239 420.363 202.054 421.102 201.685C421.847 201.308 422.416 200.779 422.806 200.097C423.204 199.415 423.403 198.609 423.403 197.679L424.34 197.817H418.715V194.344H427.845V197.093C427.845 199.011 427.441 200.658 426.631 202.036C425.821 203.407 424.706 204.465 423.286 205.211C421.865 205.949 420.239 206.319 418.406 206.319C416.361 206.319 414.564 205.868 413.016 204.966C411.468 204.057 410.26 202.768 409.394 201.099C408.534 199.422 408.105 197.434 408.105 195.133C408.105 193.364 408.36 191.788 408.872 190.403C409.39 189.011 410.115 187.832 411.045 186.866C411.975 185.9 413.058 185.165 414.294 184.66C415.53 184.156 416.869 183.904 418.311 183.904C419.546 183.904 420.697 184.085 421.762 184.447C422.828 184.802 423.772 185.307 424.596 185.96C425.427 186.614 426.105 187.391 426.631 188.293C427.156 189.188 427.494 190.175 427.643 191.255H422.955ZM438.619 206.34C436.964 206.34 435.533 205.989 434.325 205.285C433.125 204.575 432.198 203.588 431.545 202.324C430.891 201.052 430.565 199.579 430.565 197.903C430.565 196.212 430.891 194.735 431.545 193.471C432.198 192.199 433.125 191.212 434.325 190.509C435.533 189.799 436.964 189.444 438.619 189.444C440.273 189.444 441.701 189.799 442.901 190.509C444.109 191.212 445.039 192.199 445.692 193.471C446.346 194.735 446.673 196.212 446.673 197.903C446.673 199.579 446.346 201.052 445.692 202.324C445.039 203.588 444.109 204.575 442.901 205.285C441.701 205.989 440.273 206.34 438.619 206.34ZM438.64 202.824C439.393 202.824 440.021 202.611 440.526 202.185C441.03 201.752 441.41 201.163 441.665 200.417C441.928 199.671 442.06 198.822 442.06 197.871C442.06 196.919 441.928 196.07 441.665 195.324C441.41 194.579 441.03 193.989 440.526 193.556C440.021 193.123 439.393 192.906 438.64 192.906C437.88 192.906 437.241 193.123 436.722 193.556C436.211 193.989 435.824 194.579 435.561 195.324C435.305 196.07 435.178 196.919 435.178 197.871C435.178 198.822 435.305 199.671 435.561 200.417C435.824 201.163 436.211 201.752 436.722 202.185C437.241 202.611 437.88 202.824 438.64 202.824ZM458.327 189.657V193.066H448.473V189.657H458.327ZM450.71 185.736H455.249V200.992C455.249 201.411 455.313 201.738 455.44 201.972C455.568 202.199 455.746 202.359 455.973 202.452C456.207 202.544 456.477 202.59 456.783 202.59C456.996 202.59 457.209 202.572 457.422 202.537C457.635 202.494 457.798 202.462 457.912 202.441L458.626 205.818C458.398 205.889 458.079 205.971 457.667 206.063C457.255 206.163 456.754 206.223 456.165 206.244C455.071 206.287 454.112 206.141 453.288 205.807C452.472 205.474 451.836 204.955 451.381 204.252C450.927 203.549 450.703 202.661 450.71 201.589V185.736ZM472.893 206.329C471.849 206.329 470.919 206.148 470.102 205.786C469.285 205.417 468.639 204.873 468.163 204.156C467.694 203.432 467.46 202.53 467.46 201.45C467.46 200.541 467.627 199.778 467.961 199.16C468.295 198.542 468.749 198.045 469.324 197.668C469.9 197.292 470.553 197.008 471.285 196.816C472.023 196.624 472.797 196.489 473.607 196.411C474.559 196.312 475.326 196.219 475.908 196.134C476.491 196.042 476.913 195.907 477.176 195.729C477.439 195.552 477.57 195.289 477.57 194.941V194.877C477.57 194.202 477.357 193.68 476.931 193.311C476.512 192.942 475.915 192.757 475.141 192.757C474.324 192.757 473.675 192.938 473.192 193.3C472.709 193.655 472.389 194.103 472.233 194.643L468.035 194.302C468.248 193.307 468.667 192.448 469.292 191.724C469.917 190.992 470.724 190.431 471.711 190.04C472.705 189.643 473.856 189.444 475.162 189.444C476.072 189.444 476.942 189.55 477.773 189.763C478.611 189.976 479.353 190.307 479.999 190.754C480.653 191.202 481.167 191.777 481.544 192.48C481.92 193.176 482.108 194.011 482.108 194.984V206.021H477.805V203.751H477.677C477.414 204.263 477.062 204.714 476.622 205.104C476.182 205.488 475.653 205.79 475.035 206.01C474.417 206.223 473.703 206.329 472.893 206.329ZM474.193 203.197C474.861 203.197 475.45 203.066 475.961 202.803C476.473 202.533 476.874 202.171 477.165 201.717C477.456 201.262 477.602 200.747 477.602 200.172V198.435C477.46 198.528 477.265 198.613 477.016 198.691C476.775 198.762 476.501 198.829 476.196 198.893C475.89 198.95 475.585 199.003 475.28 199.053C474.974 199.096 474.697 199.135 474.449 199.17C473.916 199.248 473.451 199.373 473.053 199.543C472.655 199.714 472.346 199.945 472.126 200.236C471.906 200.52 471.796 200.875 471.796 201.301C471.796 201.919 472.02 202.391 472.467 202.718C472.922 203.038 473.497 203.197 474.193 203.197ZM499.966 206.34C498.29 206.34 496.848 205.985 495.641 205.275C494.441 204.557 493.517 203.563 492.871 202.292C492.232 201.021 491.912 199.557 491.912 197.903C491.912 196.226 492.235 194.756 492.882 193.492C493.535 192.221 494.462 191.23 495.662 190.52C496.863 189.802 498.29 189.444 499.945 189.444C501.373 189.444 502.623 189.703 503.695 190.222C504.767 190.74 505.616 191.468 506.241 192.405C506.866 193.343 507.211 194.444 507.275 195.708H502.992C502.871 194.891 502.551 194.234 502.033 193.737C501.522 193.233 500.85 192.981 500.02 192.981C499.316 192.981 498.702 193.172 498.176 193.556C497.658 193.932 497.253 194.483 496.962 195.207C496.671 195.932 496.525 196.809 496.525 197.839C496.525 198.883 496.667 199.771 496.951 200.502C497.243 201.234 497.651 201.791 498.176 202.175C498.702 202.558 499.316 202.75 500.02 202.75C500.538 202.75 501.003 202.643 501.415 202.43C501.834 202.217 502.179 201.908 502.449 201.503C502.725 201.092 502.907 200.598 502.992 200.023H507.275C507.203 201.273 506.863 202.373 506.252 203.325C505.648 204.27 504.814 205.008 503.748 205.541C502.683 206.074 501.422 206.34 499.966 206.34ZM517.574 206.34C515.919 206.34 514.488 205.989 513.28 205.285C512.08 204.575 511.153 203.588 510.5 202.324C509.846 201.052 509.52 199.579 509.52 197.903C509.52 196.212 509.846 194.735 510.5 193.471C511.153 192.199 512.08 191.212 513.28 190.509C514.488 189.799 515.919 189.444 517.574 189.444C519.229 189.444 520.656 189.799 521.856 190.509C523.064 191.212 523.994 192.199 524.648 193.471C525.301 194.735 525.628 196.212 525.628 197.903C525.628 199.579 525.301 201.052 524.648 202.324C523.994 203.588 523.064 204.575 521.856 205.285C520.656 205.989 519.229 206.34 517.574 206.34ZM517.595 202.824C518.348 202.824 518.976 202.611 519.481 202.185C519.985 201.752 520.365 201.163 520.621 200.417C520.883 199.671 521.015 198.822 521.015 197.871C521.015 196.919 520.883 196.07 520.621 195.324C520.365 194.579 519.985 193.989 519.481 193.556C518.976 193.123 518.348 192.906 517.595 192.906C516.835 192.906 516.196 193.123 515.677 193.556C515.166 193.989 514.779 194.579 514.516 195.324C514.26 196.07 514.133 196.919 514.133 197.871C514.133 198.822 514.26 199.671 514.516 200.417C514.779 201.163 515.166 201.752 515.677 202.185C516.196 202.611 516.835 202.824 517.595 202.824ZM539.072 199.053V189.657H543.611V206.021H539.253V203.048H539.083C538.714 204.007 538.099 204.778 537.24 205.36C536.388 205.942 535.347 206.234 534.118 206.234C533.025 206.234 532.062 205.985 531.231 205.488C530.4 204.991 529.751 204.284 529.282 203.368C528.82 202.452 528.586 201.354 528.579 200.076V189.657H533.117V199.266C533.124 200.232 533.383 200.996 533.895 201.557C534.406 202.118 535.091 202.398 535.951 202.398C536.498 202.398 537.009 202.274 537.485 202.025C537.961 201.77 538.344 201.393 538.635 200.896C538.934 200.399 539.079 199.785 539.072 199.053ZM554.613 212.391C553.143 212.391 551.882 212.192 550.831 211.795C549.787 211.397 548.956 210.861 548.338 210.186C547.72 209.511 547.319 208.762 547.134 207.938L551.332 207.373C551.46 207.672 551.662 207.952 551.939 208.215C552.216 208.485 552.582 208.705 553.036 208.876C553.498 209.046 554.059 209.131 554.719 209.131C555.707 209.131 556.52 208.897 557.159 208.428C557.805 207.959 558.129 207.189 558.129 206.116V203.123H557.937C557.738 203.577 557.44 204.007 557.042 204.412C556.644 204.817 556.133 205.147 555.508 205.403C554.883 205.658 554.137 205.786 553.271 205.786C552.042 205.786 550.923 205.502 549.915 204.934C548.913 204.359 548.114 203.481 547.518 202.302C546.928 201.116 546.634 199.618 546.634 197.807C546.634 195.953 546.935 194.405 547.539 193.162C548.143 191.919 548.945 190.989 549.947 190.371C550.955 189.753 552.06 189.444 553.26 189.444C554.176 189.444 554.943 189.6 555.561 189.913C556.179 190.218 556.676 190.601 557.053 191.063C557.436 191.518 557.731 191.965 557.937 192.405H558.107V189.657H562.614V206.18C562.614 207.544 562.273 208.684 561.591 209.6C560.909 210.523 559.964 211.219 558.757 211.688C557.557 212.157 556.175 212.391 554.613 212.391ZM554.709 202.377C555.44 202.377 556.058 202.196 556.562 201.834C557.074 201.464 557.464 200.939 557.734 200.257C558.011 199.568 558.15 198.744 558.15 197.785C558.15 196.827 558.015 195.996 557.745 195.293C557.475 194.582 557.085 194.032 556.573 193.641C556.062 193.251 555.44 193.055 554.709 193.055C553.963 193.055 553.335 193.258 552.823 193.663C552.312 194.06 551.925 194.614 551.662 195.324C551.399 196.035 551.268 196.855 551.268 197.785C551.268 198.73 551.399 199.547 551.662 200.236C551.932 200.918 552.319 201.447 552.823 201.823C553.335 202.192 553.963 202.377 554.709 202.377ZM570.763 196.56V206.021H566.225V184.202H570.636V192.544H570.827C571.197 191.578 571.793 190.822 572.617 190.275C573.441 189.721 574.474 189.444 575.717 189.444C576.854 189.444 577.844 189.692 578.69 190.19C579.542 190.68 580.202 191.386 580.671 192.31C581.147 193.226 581.381 194.323 581.374 195.601V206.021H576.836V196.411C576.843 195.403 576.587 194.618 576.069 194.057C575.558 193.496 574.84 193.215 573.917 193.215C573.299 193.215 572.752 193.347 572.276 193.609C571.808 193.872 571.438 194.256 571.168 194.76C570.906 195.257 570.771 195.857 570.763 196.56ZM588.845 199.479V199.117C588.852 197.874 588.962 196.883 589.175 196.145C589.395 195.406 589.715 194.81 590.134 194.355C590.553 193.9 591.057 193.489 591.647 193.119C592.087 192.835 592.481 192.54 592.829 192.235C593.177 191.93 593.454 191.592 593.66 191.223C593.866 190.847 593.969 190.427 593.969 189.966C593.969 189.476 593.852 189.046 593.618 188.677C593.383 188.307 593.067 188.023 592.67 187.824C592.279 187.626 591.846 187.526 591.37 187.526C590.908 187.526 590.471 187.629 590.059 187.835C589.648 188.034 589.31 188.332 589.047 188.73C588.785 189.121 588.643 189.607 588.621 190.19H584.275C584.31 188.769 584.651 187.597 585.297 186.674C585.944 185.744 586.8 185.051 587.865 184.597C588.93 184.135 590.106 183.904 591.391 183.904C592.805 183.904 594.055 184.138 595.141 184.607C596.228 185.069 597.08 185.74 597.698 186.621C598.316 187.501 598.625 188.563 598.625 189.806C598.625 190.637 598.486 191.376 598.209 192.022C597.939 192.661 597.559 193.229 597.069 193.726C596.579 194.217 596.001 194.66 595.333 195.058C594.772 195.392 594.31 195.74 593.948 196.102C593.593 196.464 593.327 196.883 593.149 197.359C592.979 197.835 592.89 198.421 592.883 199.117V199.479H588.845ZM590.954 206.297C590.244 206.297 589.637 206.049 589.133 205.552C588.635 205.047 588.39 204.444 588.398 203.741C588.39 203.045 588.635 202.448 589.133 201.951C589.637 201.454 590.244 201.205 590.954 201.205C591.629 201.205 592.222 201.454 592.733 201.951C593.245 202.448 593.504 203.045 593.511 203.741C593.504 204.209 593.38 204.639 593.138 205.03C592.904 205.413 592.595 205.722 592.211 205.957C591.828 206.184 591.409 206.297 590.954 206.297ZM422.955 227.255C422.806 226.736 422.597 226.278 422.327 225.881C422.057 225.476 421.727 225.135 421.336 224.858C420.953 224.574 420.512 224.357 420.015 224.208C419.525 224.059 418.982 223.984 418.385 223.984C417.27 223.984 416.29 224.261 415.445 224.815C414.607 225.369 413.953 226.175 413.485 227.234C413.016 228.285 412.781 229.57 412.781 231.09C412.781 232.61 413.012 233.903 413.474 234.968C413.936 236.033 414.589 236.847 415.434 237.408C416.279 237.962 417.277 238.239 418.428 238.239C419.472 238.239 420.363 238.054 421.102 237.685C421.847 237.308 422.416 236.779 422.806 236.097C423.204 235.415 423.403 234.609 423.403 233.679L424.34 233.817H418.715V230.344H427.845V233.093C427.845 235.011 427.441 236.658 426.631 238.036C425.821 239.407 424.706 240.465 423.286 241.211C421.865 241.949 420.239 242.319 418.406 242.319C416.361 242.319 414.564 241.868 413.016 240.966C411.468 240.057 410.26 238.768 409.394 237.099C408.534 235.422 408.105 233.434 408.105 231.133C408.105 229.364 408.36 227.788 408.872 226.403C409.39 225.011 410.115 223.832 411.045 222.866C411.975 221.9 413.058 221.165 414.294 220.66C415.53 220.156 416.869 219.904 418.311 219.904C419.546 219.904 420.697 220.085 421.762 220.447C422.828 220.802 423.772 221.307 424.596 221.96C425.427 222.614 426.105 223.391 426.631 224.293C427.156 225.188 427.494 226.175 427.643 227.255H422.955ZM438.683 242.34C436.999 242.34 435.55 241.999 434.336 241.317C433.129 240.628 432.198 239.655 431.545 238.398C430.891 237.134 430.565 235.639 430.565 233.913C430.565 232.23 430.891 230.753 431.545 229.481C432.198 228.21 433.118 227.219 434.304 226.509C435.497 225.799 436.896 225.444 438.501 225.444C439.581 225.444 440.586 225.618 441.516 225.966C442.454 226.307 443.271 226.822 443.967 227.511C444.67 228.199 445.217 229.066 445.607 230.11C445.998 231.147 446.193 232.361 446.193 233.753V235H432.376V232.187H441.921C441.921 231.534 441.779 230.955 441.495 230.451C441.211 229.947 440.817 229.552 440.312 229.268C439.815 228.977 439.237 228.832 438.576 228.832C437.887 228.832 437.276 228.991 436.744 229.311C436.218 229.623 435.806 230.046 435.508 230.579C435.21 231.104 435.057 231.69 435.05 232.337V235.011C435.05 235.82 435.199 236.52 435.497 237.109C435.803 237.699 436.232 238.153 436.786 238.473C437.34 238.793 437.997 238.952 438.757 238.952C439.261 238.952 439.723 238.881 440.142 238.739C440.561 238.597 440.92 238.384 441.218 238.1C441.516 237.816 441.744 237.468 441.9 237.056L446.097 237.333C445.884 238.342 445.447 239.222 444.787 239.975C444.134 240.721 443.288 241.303 442.251 241.722C441.222 242.134 440.032 242.34 438.683 242.34ZM457.859 225.657V229.066H448.004V225.657H457.859ZM450.241 221.736H454.78V236.992C454.78 237.411 454.844 237.738 454.972 237.972C455.099 238.199 455.277 238.359 455.504 238.452C455.739 238.544 456.009 238.59 456.314 238.59C456.527 238.59 456.74 238.572 456.953 238.537C457.166 238.494 457.33 238.462 457.443 238.441L458.157 241.818C457.93 241.889 457.61 241.971 457.198 242.063C456.786 242.163 456.286 242.223 455.696 242.244C454.602 242.287 453.643 242.141 452.82 241.807C452.003 241.474 451.367 240.955 450.913 240.252C450.458 239.549 450.234 238.661 450.241 237.589V221.736ZM476.462 225.657V229.066H466.608V225.657H476.462ZM468.845 221.736H473.383V236.992C473.383 237.411 473.447 237.738 473.575 237.972C473.703 238.199 473.881 238.359 474.108 238.452C474.342 238.544 474.612 238.59 474.917 238.59C475.131 238.59 475.344 238.572 475.557 238.537C475.77 238.494 475.933 238.462 476.047 238.441L476.76 241.818C476.533 241.889 476.214 241.971 475.802 242.063C475.39 242.163 474.889 242.223 474.3 242.244C473.206 242.287 472.247 242.141 471.423 241.807C470.606 241.474 469.971 240.955 469.516 240.252C469.062 239.549 468.838 238.661 468.845 237.589V221.736ZM486.7 242.34C485.017 242.34 483.568 241.999 482.354 241.317C481.146 240.628 480.216 239.655 479.562 238.398C478.909 237.134 478.582 235.639 478.582 233.913C478.582 232.23 478.909 230.753 479.562 229.481C480.216 228.21 481.135 227.219 482.322 226.509C483.515 225.799 484.914 225.444 486.519 225.444C487.599 225.444 488.604 225.618 489.534 225.966C490.471 226.307 491.288 226.822 491.984 227.511C492.687 228.199 493.234 229.066 493.625 230.11C494.015 231.147 494.211 232.361 494.211 233.753V235H480.393V232.187H489.939C489.939 231.534 489.797 230.955 489.513 230.451C489.229 229.947 488.834 229.552 488.33 229.268C487.833 228.977 487.254 228.832 486.594 228.832C485.905 228.832 485.294 228.991 484.761 229.311C484.236 229.623 483.824 230.046 483.525 230.579C483.227 231.104 483.074 231.69 483.067 232.337V235.011C483.067 235.82 483.216 236.52 483.515 237.109C483.82 237.699 484.25 238.153 484.804 238.473C485.358 238.793 486.015 238.952 486.775 238.952C487.279 238.952 487.741 238.881 488.16 238.739C488.579 238.597 488.937 238.384 489.236 238.1C489.534 237.816 489.761 237.468 489.917 237.056L494.115 237.333C493.902 238.342 493.465 239.222 492.805 239.975C492.151 240.721 491.306 241.303 490.269 241.722C489.239 242.134 488.05 242.34 486.7 242.34ZM510.787 230.323L506.633 230.579C506.562 230.224 506.409 229.904 506.175 229.62C505.94 229.329 505.631 229.098 505.248 228.927C504.871 228.75 504.42 228.661 503.895 228.661C503.192 228.661 502.599 228.81 502.116 229.109C501.633 229.4 501.391 229.79 501.391 230.28C501.391 230.671 501.547 231.001 501.86 231.271C502.172 231.541 502.709 231.758 503.469 231.921L506.43 232.518C508.021 232.844 509.207 233.37 509.988 234.094C510.77 234.819 511.16 235.771 511.16 236.949C511.16 238.022 510.844 238.963 510.212 239.773C509.587 240.582 508.728 241.214 507.634 241.669C506.547 242.116 505.294 242.34 503.873 242.34C501.707 242.34 499.981 241.889 498.696 240.987C497.417 240.078 496.668 238.842 496.448 237.28L500.912 237.045C501.047 237.706 501.373 238.21 501.892 238.558C502.41 238.899 503.074 239.07 503.884 239.07C504.68 239.07 505.319 238.917 505.802 238.611C506.292 238.299 506.54 237.898 506.547 237.408C506.54 236.996 506.366 236.658 506.025 236.396C505.684 236.126 505.159 235.92 504.449 235.778L501.615 235.213C500.017 234.893 498.827 234.339 498.046 233.551C497.272 232.763 496.885 231.758 496.885 230.536C496.885 229.485 497.169 228.579 497.737 227.82C498.312 227.06 499.118 226.474 500.155 226.062C501.199 225.65 502.421 225.444 503.82 225.444C505.887 225.444 507.513 225.881 508.699 226.754C509.893 227.628 510.589 228.817 510.787 230.323ZM522.722 225.657V229.066H512.868V225.657H522.722ZM515.105 221.736H519.643V236.992C519.643 237.411 519.707 237.738 519.835 237.972C519.963 238.199 520.14 238.359 520.368 238.452C520.602 238.544 520.872 238.59 521.177 238.59C521.39 238.59 521.603 238.572 521.816 238.537C522.029 238.494 522.193 238.462 522.306 238.441L523.02 241.818C522.793 241.889 522.473 241.971 522.061 242.063C521.65 242.163 521.149 242.223 520.559 242.244C519.466 242.287 518.507 242.141 517.683 241.807C516.866 241.474 516.23 240.955 515.776 240.252C515.321 239.549 515.098 238.661 515.105 237.589V221.736ZM532.96 242.34C531.277 242.34 529.828 241.999 528.613 241.317C527.406 240.628 526.475 239.655 525.822 238.398C525.169 237.134 524.842 235.639 524.842 233.913C524.842 232.23 525.169 230.753 525.822 229.481C526.475 228.21 527.395 227.219 528.581 226.509C529.775 225.799 531.174 225.444 532.779 225.444C533.858 225.444 534.863 225.618 535.794 225.966C536.731 226.307 537.548 226.822 538.244 227.511C538.947 228.199 539.494 229.066 539.885 230.11C540.275 231.147 540.471 232.361 540.471 233.753V235H526.653V232.187H536.199C536.199 231.534 536.056 230.955 535.772 230.451C535.488 229.947 535.094 229.552 534.59 229.268C534.093 228.977 533.514 228.832 532.853 228.832C532.164 228.832 531.554 228.991 531.021 229.311C530.495 229.623 530.083 230.046 529.785 230.579C529.487 231.104 529.334 231.69 529.327 232.337V235.011C529.327 235.82 529.476 236.52 529.775 237.109C530.08 237.699 530.51 238.153 531.064 238.473C531.618 238.793 532.275 238.952 533.034 238.952C533.539 238.952 534 238.881 534.419 238.739C534.838 238.597 535.197 238.384 535.495 238.1C535.794 237.816 536.021 237.468 536.177 237.056L540.375 237.333C540.162 238.342 539.725 239.222 539.064 239.975C538.411 240.721 537.566 241.303 536.529 241.722C535.499 242.134 534.309 242.34 532.96 242.34ZM549.462 242.287C548.219 242.287 547.093 241.967 546.085 241.328C545.083 240.682 544.288 239.734 543.699 238.484C543.116 237.226 542.825 235.685 542.825 233.86C542.825 231.985 543.127 230.426 543.73 229.183C544.334 227.933 545.137 226.999 546.138 226.381C547.147 225.756 548.251 225.444 549.451 225.444C550.368 225.444 551.131 225.6 551.742 225.913C552.36 226.218 552.857 226.601 553.233 227.063C553.617 227.518 553.908 227.965 554.107 228.405H554.245V220.202H558.773V242.021H554.299V239.4H554.107C553.894 239.854 553.592 240.305 553.201 240.753C552.818 241.193 552.317 241.559 551.699 241.85C551.088 242.141 550.343 242.287 549.462 242.287ZM550.9 238.675C551.632 238.675 552.25 238.476 552.754 238.079C553.265 237.674 553.656 237.109 553.926 236.385C554.203 235.66 554.341 234.812 554.341 233.839C554.341 232.866 554.206 232.021 553.936 231.303C553.667 230.586 553.276 230.032 552.765 229.641C552.253 229.251 551.632 229.055 550.9 229.055C550.154 229.055 549.526 229.258 549.015 229.663C548.503 230.067 548.116 230.628 547.853 231.346C547.591 232.063 547.459 232.894 547.459 233.839C547.459 234.79 547.591 235.632 547.853 236.364C548.123 237.088 548.51 237.656 549.015 238.068C549.526 238.473 550.154 238.675 550.9 238.675ZM578.152 225.657V229.066H568.297V225.657H578.152ZM570.534 221.736H575.073V236.992C575.073 237.411 575.137 237.738 575.265 237.972C575.392 238.199 575.57 238.359 575.797 238.452C576.032 238.544 576.301 238.59 576.607 238.59C576.82 238.59 577.033 238.572 577.246 238.537C577.459 238.494 577.623 238.462 577.736 238.441L578.45 241.818C578.223 241.889 577.903 241.971 577.491 242.063C577.079 242.163 576.578 242.223 575.989 242.244C574.895 242.287 573.936 242.141 573.113 241.807C572.296 241.474 571.66 240.955 571.206 240.252C570.751 239.549 570.527 238.661 570.534 237.589V221.736ZM588.326 242.34C586.671 242.34 585.24 241.989 584.032 241.285C582.832 240.575 581.905 239.588 581.252 238.324C580.598 237.052 580.272 235.579 580.272 233.903C580.272 232.212 580.598 230.735 581.252 229.471C581.905 228.199 582.832 227.212 584.032 226.509C585.24 225.799 586.671 225.444 588.326 225.444C589.98 225.444 591.408 225.799 592.608 226.509C593.816 227.212 594.746 228.199 595.4 229.471C596.053 230.735 596.38 232.212 596.38 233.903C596.38 235.579 596.053 237.052 595.4 238.324C594.746 239.588 593.816 240.575 592.608 241.285C591.408 241.989 589.98 242.34 588.326 242.34ZM588.347 238.824C589.1 238.824 589.728 238.611 590.233 238.185C590.737 237.752 591.117 237.163 591.373 236.417C591.635 235.671 591.767 234.822 591.767 233.871C591.767 232.919 591.635 232.07 591.373 231.324C591.117 230.579 590.737 229.989 590.233 229.556C589.728 229.123 589.1 228.906 588.347 228.906C587.587 228.906 586.948 229.123 586.429 229.556C585.918 229.989 585.531 230.579 585.268 231.324C585.012 232.07 584.885 232.919 584.885 233.871C584.885 234.822 585.012 235.671 585.268 236.417C585.531 237.163 585.918 237.752 586.429 238.185C586.948 238.611 587.587 238.824 588.347 238.824ZM605.36 242.287C604.118 242.287 602.992 241.967 601.983 241.328C600.982 240.682 600.186 239.734 599.597 238.484C599.015 237.226 598.723 235.685 598.723 233.86C598.723 231.985 599.025 230.426 599.629 229.183C600.233 227.933 601.035 226.999 602.037 226.381C603.045 225.756 604.15 225.444 605.35 225.444C606.266 225.444 607.029 225.6 607.64 225.913C608.258 226.218 608.755 226.601 609.132 227.063C609.515 227.518 609.806 227.965 610.005 228.405H610.144V220.202H614.672V242.021H610.197V239.4H610.005C609.792 239.854 609.49 240.305 609.1 240.753C608.716 241.193 608.216 241.559 607.598 241.85C606.987 242.141 606.241 242.287 605.36 242.287ZM606.799 238.675C607.53 238.675 608.148 238.476 608.652 238.079C609.164 237.674 609.554 237.109 609.824 236.385C610.101 235.66 610.24 234.812 610.24 233.839C610.24 232.866 610.105 232.021 609.835 231.303C609.565 230.586 609.174 230.032 608.663 229.641C608.152 229.251 607.53 229.055 606.799 229.055C606.053 229.055 605.424 229.258 604.913 229.663C604.402 230.067 604.015 230.628 603.752 231.346C603.489 232.063 603.358 232.894 603.358 233.839C603.358 234.79 603.489 235.632 603.752 236.364C604.022 237.088 604.409 237.656 604.913 238.068C605.424 238.473 606.053 238.675 606.799 238.675ZM623.069 242.329C622.025 242.329 621.095 242.148 620.278 241.786C619.461 241.417 618.815 240.873 618.339 240.156C617.87 239.432 617.636 238.53 617.636 237.45C617.636 236.541 617.803 235.778 618.137 235.16C618.47 234.542 618.925 234.045 619.5 233.668C620.075 233.292 620.729 233.008 621.46 232.816C622.199 232.624 622.973 232.489 623.783 232.411C624.735 232.312 625.502 232.219 626.084 232.134C626.666 232.042 627.089 231.907 627.352 231.729C627.615 231.552 627.746 231.289 627.746 230.941V230.877C627.746 230.202 627.533 229.68 627.107 229.311C626.688 228.942 626.091 228.757 625.317 228.757C624.5 228.757 623.85 228.938 623.367 229.3C622.884 229.655 622.565 230.103 622.409 230.643L618.211 230.302C618.424 229.307 618.843 228.448 619.468 227.724C620.093 226.992 620.899 226.431 621.887 226.04C622.881 225.643 624.031 225.444 625.338 225.444C626.247 225.444 627.117 225.55 627.948 225.763C628.786 225.976 629.529 226.307 630.175 226.754C630.828 227.202 631.343 227.777 631.72 228.48C632.096 229.176 632.284 230.011 632.284 230.984V242.021H627.98V239.751H627.852C627.59 240.263 627.238 240.714 626.798 241.104C626.357 241.488 625.828 241.79 625.21 242.01C624.593 242.223 623.879 242.329 623.069 242.329ZM624.369 239.197C625.036 239.197 625.626 239.066 626.137 238.803C626.649 238.533 627.05 238.171 627.341 237.717C627.632 237.262 627.778 236.747 627.778 236.172V234.435C627.636 234.528 627.441 234.613 627.192 234.691C626.95 234.762 626.677 234.829 626.372 234.893C626.066 234.95 625.761 235.003 625.455 235.053C625.15 235.096 624.873 235.135 624.624 235.17C624.092 235.248 623.627 235.373 623.229 235.543C622.831 235.714 622.522 235.945 622.302 236.236C622.082 236.52 621.972 236.875 621.972 237.301C621.972 237.919 622.195 238.391 622.643 238.718C623.097 239.038 623.673 239.197 624.369 239.197ZM638.021 248.125C637.446 248.125 636.906 248.079 636.402 247.986C635.905 247.901 635.493 247.795 635.166 247.667L636.189 244.268C636.991 244.517 637.666 244.581 638.213 244.46C638.767 244.347 639.204 243.92 639.523 243.182L639.79 242.489L633.92 225.657H638.692L642.08 237.674H642.251L645.67 225.657L650.475 225.678L644.115 243.789C643.809 244.663 643.394 245.422 642.868 246.069C642.35 246.722 641.693 247.226 640.898 247.582C640.102 247.944 639.143 248.125 638.021 248.125ZM654.425 242.297C653.722 242.297 653.118 242.049 652.614 241.552C652.116 241.047 651.868 240.444 651.868 239.741C651.868 239.045 652.116 238.448 652.614 237.951C653.118 237.454 653.722 237.205 654.425 237.205C655.107 237.205 655.703 237.454 656.214 237.951C656.726 238.448 656.982 239.045 656.982 239.741C656.982 240.209 656.861 240.639 656.619 241.03C656.385 241.413 656.076 241.722 655.692 241.957C655.309 242.184 654.886 242.297 654.425 242.297Z" fill="black"/>
<path d="M278.523 386.32H120.479C120.479 386.32 110.868 293.08 133.104 260.246C141.122 248.383 156.31 244.296 172.381 243.915C175.395 243.915 178.443 243.915 181.49 244.053C193.537 244.873 205.48 246.815 217.165 249.855C226.626 253.434 235.877 257.545 244.874 262.168C272.721 276.299 259.768 290.846 278.523 386.32Z" fill="#00C4FF"/>
<path d="M278.522 388.052H120.479C120.05 388.055 119.637 387.898 119.317 387.614C118.997 387.329 118.794 386.936 118.747 386.511C117.201 369.579 116.524 352.579 116.721 335.579C117.223 298.847 122.245 273.234 131.666 259.276C139.026 248.4 152.707 242.65 172.346 242.183C175.307 242.183 178.407 242.183 181.576 242.339C193.732 243.168 205.785 245.121 217.58 248.175C227.154 251.778 236.51 255.936 245.601 260.626C264.391 270.134 265.551 280.49 268.98 311.212C270.902 328.426 273.552 352.013 280.237 385.991C280.286 386.243 280.279 386.502 280.216 386.751C280.154 386.999 280.036 387.231 279.873 387.428C279.708 387.626 279.502 387.785 279.268 387.893C279.034 388 278.779 388.055 278.522 388.052V388.052ZM122.054 384.588H276.427C270.019 351.58 267.439 328.53 265.534 311.593C262.07 280.698 261.152 272.385 244.042 263.726C235.141 259.106 225.982 255 216.61 251.431C205.081 248.447 193.301 246.534 181.42 245.716C178.355 245.56 175.342 245.508 172.45 245.577C154.006 246.027 141.277 251.257 134.575 261.163C114.435 290.864 120.946 372.31 122.054 384.588Z" fill="#093F68"/>
<path d="M193.406 386.77H193.25C192.793 386.731 192.371 386.512 192.075 386.161C191.78 385.81 191.636 385.357 191.674 384.9L195.294 344.497C195.335 344.038 195.557 343.614 195.911 343.318C196.265 343.023 196.722 342.88 197.181 342.921C197.64 342.963 198.065 343.185 198.36 343.539C198.656 343.893 198.798 344.35 198.757 344.809L195.12 385.212C195.078 385.638 194.879 386.032 194.562 386.32C194.246 386.608 193.834 386.768 193.406 386.77Z" fill="#093F68"/>
<path d="M217.164 249.855L197.023 344.636L172.38 243.915C175.393 243.915 178.441 243.915 181.489 244.053C193.535 244.873 205.479 246.815 217.164 249.855V249.855Z" fill="white"/>
<path d="M197.023 346.368C196.628 346.379 196.24 346.255 195.925 346.015C195.61 345.776 195.386 345.436 195.292 345.051L170.7 244.33C170.641 244.08 170.638 243.819 170.692 243.568C170.746 243.316 170.855 243.08 171.012 242.876C171.168 242.667 171.369 242.497 171.599 242.377C171.83 242.257 172.085 242.191 172.345 242.183C175.307 242.183 178.407 242.183 181.576 242.339C193.732 243.168 205.784 245.121 217.58 248.175C218.017 248.282 218.396 248.555 218.635 248.937C218.874 249.318 218.955 249.778 218.861 250.218L198.721 344.948C198.636 345.341 198.417 345.694 198.101 345.943C197.785 346.193 197.391 346.325 196.989 346.316L197.023 346.368ZM174.51 245.629L196.833 336.877L215.051 251.136C203.989 248.347 192.698 246.556 181.316 245.785C179.082 245.664 176.779 245.629 174.579 245.629H174.51Z" fill="#093F68"/>
<path d="M238.223 388.052H238.119C237.678 388.026 237.264 387.831 236.961 387.51C236.659 387.188 236.49 386.762 236.491 386.32L242.189 285.876C242.202 285.649 242.26 285.426 242.36 285.221C242.459 285.016 242.598 284.832 242.769 284.681C242.939 284.53 243.138 284.414 243.353 284.339C243.569 284.265 243.797 284.234 244.025 284.248C244.481 284.275 244.908 284.481 245.213 284.822C245.518 285.163 245.676 285.61 245.652 286.067L239.955 386.511C239.908 386.936 239.705 387.329 239.385 387.614C239.065 387.899 238.651 388.055 238.223 388.052Z" fill="#093F68"/>
<path d="M257.377 290.846C259.767 285.963 262.319 281.16 265.032 276.438C268.097 271.069 269.24 262.48 277.449 263.761C279.821 261.718 281.692 259.172 283.995 257.059C285.08 255.926 286.384 255.025 287.828 254.412C289.272 253.799 290.825 253.486 292.394 253.492C300.637 254.184 305.383 261.614 308.552 268.42C312.154 276.091 313.002 283.296 306.664 289.374C301.226 294.57 269.69 314.399 268.374 316.546C266.642 312.113 264.616 307.714 262.728 303.315C262.018 301.653 256.598 292.44 257.377 290.846Z" fill="#FFC9B0"/>
<path d="M268.357 318.313H268.183C267.884 318.267 267.602 318.144 267.365 317.956C267.128 317.768 266.944 317.52 266.833 317.239C265.603 314.208 264.27 311.143 262.988 308.182L261.256 304.06C261.083 303.679 260.667 302.882 260.131 301.861C256.078 294.223 255.178 291.712 255.94 290.136C258.295 285.339 260.893 280.473 263.646 275.641C264.287 274.401 264.865 273.13 265.378 271.831C267.404 267.138 269.898 261.441 276.946 261.995C277.916 261.094 278.817 260.09 279.769 259.051C280.722 258.012 281.761 256.851 282.886 255.829C284.145 254.535 285.654 253.511 287.321 252.821C288.989 252.13 290.78 251.786 292.584 251.812C302.057 252.608 307.166 261.285 310.179 267.744C313.054 273.892 315.946 282.967 307.911 290.673C304.932 293.513 295.096 300.146 285.571 306.554C278.644 311.23 270.729 316.529 269.829 317.603C269.669 317.842 269.448 318.033 269.189 318.158C268.931 318.283 268.643 318.336 268.357 318.313ZM259.04 291.383C259.195 292.907 261.984 298.172 263.057 300.198C263.663 301.324 264.131 302.224 264.304 302.64L266.036 306.744C267.023 308.996 268.028 311.316 268.997 313.671C271.266 311.94 275.561 309.013 283.544 303.644C292.498 297.618 302.594 290.777 305.417 288.058C310.37 283.313 310.855 277.46 306.941 269.008C304.291 263.345 299.875 255.726 292.186 255.154C290.862 255.177 289.555 255.462 288.342 255.995C287.129 256.527 286.034 257.295 285.12 258.254C284.116 259.189 283.198 260.194 282.228 261.25C281.077 262.583 279.839 263.839 278.522 265.008C278.333 265.17 278.112 265.289 277.873 265.358C277.634 265.427 277.383 265.443 277.137 265.406C272.34 264.644 270.712 267.831 268.478 273.078C267.896 274.496 267.242 275.883 266.521 277.234C263.854 281.997 261.326 286.742 259.04 291.383Z" fill="#093F68"/>
<path d="M144.811 271.901C144.811 273.858 204.974 327.318 207.277 327.751C209.58 328.184 257.378 290.846 257.378 290.846L268.392 316.529C268.392 316.529 229.496 375.774 200.488 371.392C171.481 367.011 134.126 323.266 134.126 323.266" fill="#00C4FF"/>
<path d="M203.604 373.349C202.444 373.354 201.286 373.268 200.14 373.089C170.821 368.673 134.332 326.192 132.721 324.391C132.574 324.218 132.461 324.018 132.391 323.802C132.32 323.586 132.293 323.358 132.311 323.131C132.329 322.904 132.391 322.683 132.494 322.48C132.597 322.278 132.739 322.097 132.912 321.949C133.085 321.801 133.285 321.689 133.501 321.619C133.717 321.548 133.945 321.521 134.172 321.539C134.399 321.557 134.62 321.619 134.823 321.722C135.025 321.825 135.206 321.967 135.354 322.14C135.735 322.573 172.605 365.435 200.642 369.678C226.515 373.574 261.671 323.214 266.329 316.338L256.579 293.6C209.821 330.106 207.829 329.656 206.825 329.448C204.972 329.05 187.914 314.122 173.921 301.739C142.974 274.169 142.974 272.94 142.974 271.97C142.974 271.51 143.156 271.07 143.481 270.745C143.806 270.42 144.246 270.238 144.705 270.238C145.054 270.239 145.395 270.345 145.682 270.543C145.969 270.741 146.19 271.021 146.316 271.346C149.208 275.364 200.746 321.412 207.362 325.95C212.107 323.543 239.435 302.674 256.198 289.582C256.408 289.418 256.654 289.304 256.915 289.25C257.177 289.196 257.447 289.203 257.705 289.27C257.963 289.337 258.201 289.463 258.402 289.637C258.604 289.811 258.762 290.029 258.865 290.275L269.862 315.957C269.975 316.219 270.021 316.505 269.997 316.789C269.973 317.073 269.879 317.346 269.724 317.585C268.286 319.837 232.802 373.349 203.604 373.349Z" fill="#093F68"/>
<path d="M193.746 232.171L215.9 240.419L210.715 254.344C209.754 256.927 207.806 259.022 205.3 260.168C202.794 261.314 199.935 261.418 197.352 260.457L194.707 259.472C192.124 258.51 190.029 256.562 188.883 254.056C187.737 251.55 187.633 248.691 188.594 246.109L193.779 232.183L193.746 232.171Z" fill="#FFC9B0"/>
<path d="M200.92 262.861C199.478 262.86 198.047 262.602 196.695 262.099L194.062 261.111C192.569 260.558 191.2 259.716 190.032 258.633C188.864 257.55 187.921 256.248 187.257 254.8C186.593 253.353 186.22 251.789 186.161 250.197C186.101 248.606 186.356 247.018 186.91 245.525L192.106 231.671C192.266 231.241 192.589 230.892 193.006 230.701C193.428 230.528 193.901 230.528 194.322 230.701L216.489 238.944C216.702 239.025 216.897 239.147 217.062 239.303C217.228 239.459 217.361 239.646 217.454 239.853C217.547 240.061 217.599 240.285 217.606 240.512C217.613 240.739 217.574 240.966 217.494 241.178L212.298 255.033C211.424 257.341 209.866 259.327 207.833 260.725C205.8 262.124 203.388 262.869 200.92 262.861V262.861ZM194.738 234.407L190.166 246.703C189.764 247.77 189.577 248.907 189.615 250.047C189.654 251.187 189.917 252.308 190.39 253.346C190.863 254.384 191.537 255.318 192.372 256.095C193.207 256.872 194.188 257.476 195.257 257.873L197.907 258.86C198.976 259.262 200.113 259.448 201.254 259.408C202.395 259.369 203.517 259.104 204.555 258.629C205.593 258.154 206.527 257.479 207.303 256.642C208.079 255.805 208.682 254.822 209.077 253.751L213.649 241.456L194.738 234.407Z" fill="#093F68"/>
<path d="M273.968 139.418C276.981 138.414 280.358 138.5 283.406 137.011C288.632 134.28 292.872 129.98 295.528 124.715C296.567 122.741 298.334 108.662 298.421 108.61C292.238 112.575 284.099 112.316 277.189 109.805C270.279 107.293 264.321 102.877 258.347 98.5305C249.515 92.2095 240.319 86.2175 230.153 82.4075C219.988 78.5976 208.679 77.0736 198.184 79.8791C186.287 83.0829 181.628 90.443 174.822 99.5869C173.627 101.197 165.938 113.528 164.899 113.632C140.775 115.848 141.762 145.168 141.936 162.901C142.247 194.074 159.825 218.076 159.825 218.076C159.825 218.076 197.37 228.346 220.923 207.98C236.855 194.126 249.082 175.734 260.46 158.191C263.785 152.995 265.932 145.116 270.729 141.15C271.691 140.376 272.79 139.789 273.968 139.418V139.418Z" fill="#725858"/>
<path d="M181.731 222.406H181.593C174.124 222.421 166.681 221.532 159.426 219.756C159.042 219.653 158.706 219.42 158.473 219.098C157.746 218.094 140.567 194.195 140.255 162.919V161.377C140.064 143.817 139.753 114.515 164.327 111.883C165.574 110.549 169.349 104.765 171.254 101.908C172.38 100.176 173.176 98.9636 173.54 98.444L174.995 96.4871C181.021 88.2957 186.234 81.23 197.837 78.1127C210.462 74.6492 222.758 77.6452 230.862 80.6758C241.444 84.6416 250.865 90.8761 259.472 97.0066L260.909 98.0457C266.243 101.873 271.767 105.839 277.898 108.073C285.12 110.705 292.48 110.324 297.571 107.051C297.763 106.926 297.978 106.84 298.203 106.798C298.428 106.757 298.659 106.76 298.883 106.808C299.107 106.857 299.319 106.949 299.507 107.08C299.695 107.211 299.855 107.377 299.978 107.571C300.103 107.77 300.185 107.992 300.221 108.225C300.257 108.457 300.245 108.694 300.186 108.921C300.186 109.164 300.065 109.822 299.926 110.653C298.593 120.074 297.848 124.04 297.173 125.339C294.337 131.013 289.779 135.645 284.15 138.57C282.238 139.427 280.215 140.01 278.14 140.302C276.909 140.48 275.693 140.752 274.504 141.115V141.115C273.542 141.426 272.645 141.907 271.854 142.536C269.083 144.839 267.178 148.857 265.342 152.718C264.329 154.944 263.172 157.102 261.879 159.178C249.219 178.713 237.478 195.961 222.048 209.4C212.176 217.869 198.235 222.406 181.731 222.406ZM160.95 216.552C165.764 217.73 198.876 224.813 219.831 206.664C234.949 193.589 246.535 176.548 259.056 157.256C260.235 155.302 261.293 153.278 262.225 151.194C264.234 146.969 266.295 142.536 269.672 139.817C270.785 138.909 272.06 138.222 273.43 137.79C274.778 137.368 276.155 137.05 277.552 136.838C279.304 136.613 281.018 136.147 282.643 135.452C287.558 132.9 291.545 128.864 294.038 123.919C295.083 119.904 295.83 115.817 296.272 111.692C289.925 114.007 282.948 113.908 276.668 111.415C270.105 109.025 264.39 104.921 258.848 101.024L257.411 100.003C249.012 93.9933 239.816 87.8801 229.616 84.0874C221.978 81.23 210.427 78.4764 198.703 81.6283C188.312 84.4338 183.619 90.7375 177.748 98.7038L176.294 100.678C175.982 101.094 175.116 102.41 174.129 103.934C167.046 114.792 166.37 115.312 165.141 115.433C143.216 117.355 143.511 143.869 143.701 161.377V162.849C143.996 190.645 158.473 212.968 160.933 216.552H160.95Z" fill="#093F68"/>
<path d="M258.293 226.043C253.001 234.986 245.239 242.212 235.94 246.851C226.641 251.489 216.2 253.345 205.872 252.193C190.926 250.807 178.163 241.369 168.829 230.095C165.937 226.545 161.902 222.493 159.823 217.973C159.09 216.528 158.685 214.939 158.637 213.319C158.589 211.699 158.899 210.089 159.546 208.604C161.312 205.145 163.899 202.172 167.08 199.945C168.967 198.507 170.907 196.983 172.829 195.407C178.121 191.327 182.758 186.463 186.58 180.982C189.028 176.739 190.837 172.158 191.948 167.387C193.576 161.568 195.239 155.732 199.412 150.814C212.643 135.228 233.269 143.886 250.777 142.536C252.509 142.414 269.827 141.133 272.702 138.397C272.914 138.214 273.054 137.963 273.1 137.687L268.061 191.649L267.524 197.503C267.171 201.26 266.522 204.983 265.584 208.638C264.031 214.769 261.573 220.635 258.293 226.043Z" fill="#FFC9B0"/>
<path d="M211.675 254.202C209.701 254.202 207.709 254.202 205.7 253.924C192.054 252.643 178.476 244.573 167.497 231.186C166.804 230.355 166.059 229.454 165.297 228.606C162.52 225.676 160.16 222.378 158.284 218.804V218.804C157.459 217.133 157.007 215.302 156.959 213.44C156.911 211.577 157.269 209.726 158.007 208.015C159.899 204.303 162.669 201.111 166.077 198.715C168.311 196.983 170.129 195.58 171.792 194.195C176.927 190.218 181.439 185.496 185.179 180.185C187.536 176.145 189.287 171.78 190.374 167.231V167.04C192.106 161.135 193.751 155.039 198.184 149.826C208.142 138.102 221.91 139.28 235.21 140.405C240.384 140.989 245.595 141.169 250.796 140.942C258.364 140.457 269.673 138.933 271.578 137.323C271.693 136.933 271.942 136.596 272.281 136.371C272.62 136.146 273.027 136.048 273.431 136.093C273.881 136.145 274.294 136.373 274.579 136.726C274.864 137.078 274.999 137.529 274.955 137.981L269.257 197.745C268.895 201.601 268.229 205.423 267.266 209.175C265.661 215.448 263.134 221.448 259.767 226.978C254.098 236.461 245.77 244.073 235.816 248.868C228.271 252.432 220.02 254.255 211.675 254.202V254.202ZM161.453 217.418C163.204 220.663 165.376 223.661 167.913 226.337C168.709 227.255 169.471 228.069 170.164 228.987C180.555 241.663 193.301 249.283 206.029 250.461C216.034 251.591 226.151 249.802 235.161 245.309C244.171 240.816 251.688 233.812 256.806 225.142V225.142C259.985 219.893 262.371 214.203 263.889 208.257C264.817 204.696 265.448 201.064 265.776 197.399L270.972 141.219C265.118 143.28 253.498 144.146 250.831 144.319C245.468 144.554 240.095 144.374 234.76 143.782C221.754 142.674 209.476 141.618 200.678 151.974C196.73 156.615 195.188 162.105 193.543 167.906V168.097C192.385 172.956 190.53 177.623 188.036 181.951C184.094 187.567 179.337 192.563 173.922 196.775C172.19 198.161 170.458 199.633 168.12 201.364C165.206 203.426 162.83 206.159 161.193 209.331C160.653 210.572 160.394 211.917 160.433 213.27C160.472 214.623 160.808 215.95 161.418 217.158L161.453 217.418Z" fill="#093F68"/>
<path d="M263.976 182.021C263.976 182.021 275.838 208.136 272.028 208.794C268.219 209.452 258.78 207.79 258.78 207.79" fill="#FFC9B0"/>
<path d="M269.776 210.664C265.961 210.535 262.16 210.148 258.398 209.504C258.17 209.465 257.953 209.382 257.757 209.26C257.562 209.137 257.393 208.977 257.259 208.789C257.126 208.6 257.031 208.388 256.98 208.163C256.928 207.938 256.922 207.705 256.96 207.478C256.999 207.25 257.082 207.033 257.205 206.838C257.328 206.642 257.488 206.473 257.676 206.34C257.864 206.206 258.077 206.111 258.301 206.06C258.526 206.008 258.759 206.002 258.987 206.04C262.96 206.748 266.987 207.107 271.023 207.114C271.144 204.032 266.797 192.394 262.364 182.679C262.269 182.472 262.217 182.248 262.209 182.021C262.201 181.793 262.237 181.567 262.317 181.354C262.397 181.141 262.517 180.945 262.672 180.779C262.828 180.613 263.014 180.478 263.221 180.384C263.428 180.29 263.651 180.237 263.879 180.229C264.106 180.221 264.333 180.258 264.546 180.337C264.759 180.417 264.954 180.538 265.12 180.693C265.287 180.848 265.421 181.034 265.515 181.241C269.533 190.108 275.906 205.486 273.984 209.158C273.804 209.502 273.545 209.798 273.23 210.024C272.914 210.25 272.549 210.398 272.166 210.457C271.375 210.584 270.576 210.653 269.776 210.664V210.664Z" fill="#093F68"/>
<path d="M197.023 173.656C197.023 173.656 189.853 157.29 176.241 164.269C162.63 171.249 157.4 194.247 181.437 201.486" fill="#FFC9B0"/>
<path d="M181.506 203.218C181.34 203.242 181.171 203.242 181.004 203.218C166.492 198.853 163.548 189.692 163.097 184.618C162.816 180.173 163.836 175.742 166.032 171.867C168.228 167.992 171.505 164.841 175.462 162.797C177.246 161.785 179.222 161.16 181.263 160.963C183.304 160.766 185.364 161.001 187.308 161.654C194.72 164.287 198.461 172.686 198.599 173.032C198.691 173.24 198.742 173.465 198.747 173.692C198.753 173.92 198.714 174.146 198.631 174.358C198.549 174.571 198.426 174.765 198.269 174.93C198.112 175.094 197.924 175.226 197.716 175.318C197.507 175.41 197.282 175.46 197.053 175.464C196.825 175.468 196.598 175.427 196.386 175.344C196.173 175.26 195.979 175.135 195.815 174.976C195.651 174.817 195.52 174.628 195.43 174.418C195.43 174.418 192.122 167.04 186.13 164.91C184.632 164.424 183.048 164.258 181.481 164.426C179.914 164.593 178.4 165.088 177.038 165.88C173.71 167.627 170.953 170.291 169.093 173.557C167.233 176.822 166.348 180.553 166.544 184.306C167.202 191.563 172.692 197.104 182.009 199.893C182.227 199.958 182.431 200.066 182.608 200.21C182.785 200.355 182.931 200.532 183.039 200.734C183.147 200.935 183.214 201.155 183.236 201.382C183.258 201.61 183.236 201.839 183.169 202.057C183.049 202.401 182.824 202.698 182.525 202.906C182.227 203.114 181.87 203.223 181.506 203.218V203.218Z" fill="#093F68"/>
<path d="M232.196 168.98C231.742 169.002 231.287 168.934 230.858 168.779C230.43 168.625 230.036 168.388 229.699 168.082C229.362 167.776 229.089 167.406 228.895 166.994C228.701 166.582 228.59 166.136 228.568 165.681C228.547 165.226 228.615 164.772 228.769 164.343C228.923 163.915 229.16 163.521 229.466 163.184C229.773 162.847 230.143 162.574 230.554 162.38C230.966 162.186 231.413 162.075 231.867 162.053L256.615 159.767C257.07 159.725 257.528 159.773 257.965 159.908C258.401 160.043 258.806 160.263 259.158 160.555C259.509 160.847 259.8 161.205 260.012 161.609C260.225 162.013 260.357 162.455 260.399 162.91C260.441 163.365 260.393 163.824 260.258 164.26C260.123 164.696 259.903 165.102 259.611 165.453C259.319 165.805 258.961 166.095 258.557 166.308C258.152 166.521 257.71 166.652 257.256 166.694L232.508 168.98H232.196Z" fill="#093F68"/>
<path d="M237.046 185.432C236.587 185.506 236.117 185.394 235.74 185.121C235.364 184.848 235.111 184.437 235.037 183.977C234.964 183.518 235.076 183.048 235.348 182.672C235.621 182.295 236.032 182.042 236.492 181.968L245.636 178.869L232.699 176.288C232.472 176.244 232.255 176.155 232.062 176.027C231.869 175.899 231.703 175.734 231.574 175.542C231.444 175.35 231.354 175.134 231.308 174.907C231.262 174.68 231.261 174.446 231.305 174.219C231.349 173.991 231.438 173.775 231.566 173.582C231.694 173.389 231.859 173.223 232.051 173.093C232.243 172.964 232.459 172.873 232.686 172.827C232.913 172.781 233.147 172.78 233.375 172.825L252.649 176.669C253.027 176.741 253.37 176.937 253.624 177.226C253.878 177.514 254.028 177.879 254.052 178.262C254.072 178.64 253.967 179.014 253.755 179.327C253.542 179.639 253.233 179.874 252.875 179.994L237.6 185.19C237.428 185.296 237.241 185.378 237.046 185.432Z" fill="#093F68"/>
<path d="M227.001 226.406C224.386 228.381 221.684 231.602 223 234.529C223.953 236.711 226.603 237.525 228.94 237.888C233.396 238.561 237.933 238.479 242.362 237.646C244.293 237.289 246.176 236.708 247.973 235.914C252.406 233.905 260.875 225.125 257.896 219.86C257.331 218.926 256.531 218.155 255.575 217.626C246.639 212.275 234.17 221.107 227.001 226.406Z" fill="#093F68"/>
<path d="M235.038 240.07C232.933 240.07 230.832 239.913 228.751 239.603C224.907 239.014 222.517 237.576 221.478 235.239C220.075 232.035 221.772 228.225 226.032 225.021C232.059 220.518 246.156 209.972 256.546 216.223C258.136 217.059 259.354 218.46 259.96 220.15C260.566 221.839 260.516 223.695 259.82 225.35C257.64 230.568 253.733 234.879 248.753 237.559C246.833 238.375 244.821 238.956 242.761 239.291C240.217 239.791 237.631 240.052 235.038 240.07V240.07ZM228.11 227.809C225.894 229.541 223.816 231.931 224.647 233.836C225.166 234.996 226.725 235.775 229.271 236.174C233.536 236.818 237.88 236.742 242.121 235.949C243.91 235.644 245.654 235.12 247.316 234.39C251.418 232.123 254.652 228.56 256.512 224.259C256.75 223.713 256.873 223.123 256.873 222.527C256.873 221.931 256.75 221.342 256.512 220.795C256.087 220.119 255.489 219.569 254.78 219.202C246.398 214.145 233.6 223.722 228.128 227.861L228.11 227.809Z" fill="#093F68"/>
<path d="M273.119 245.629C272.787 245.628 272.462 245.532 272.184 245.352L261.221 238.425C261.029 238.302 260.863 238.143 260.733 237.956C260.602 237.769 260.51 237.558 260.461 237.335C260.412 237.112 260.407 236.882 260.447 236.658C260.487 236.433 260.57 236.219 260.693 236.026C260.816 235.834 260.975 235.668 261.162 235.538C261.349 235.407 261.56 235.315 261.783 235.266C262.006 235.216 262.236 235.212 262.461 235.252C262.685 235.292 262.9 235.375 263.092 235.498L274.037 242.425C274.357 242.624 274.604 242.922 274.74 243.274C274.876 243.625 274.893 244.012 274.789 244.374C274.685 244.737 274.466 245.056 274.165 245.282C273.863 245.508 273.496 245.63 273.119 245.629V245.629Z" fill="#093F68"/>
<path d="M262.157 260.834C261.824 260.834 261.498 260.737 261.218 260.556C260.939 260.374 260.717 260.116 260.581 259.813L255.507 248.539C255.351 248.126 255.358 247.67 255.526 247.263C255.695 246.856 256.013 246.528 256.415 246.347C256.817 246.166 257.273 246.145 257.69 246.288C258.106 246.432 258.453 246.729 258.658 247.119L263.733 258.393C263.92 258.811 263.934 259.286 263.772 259.714C263.609 260.143 263.284 260.489 262.867 260.678C262.644 260.78 262.402 260.833 262.157 260.834Z" fill="#093F68"/>
<path d="M286.281 229.472L270.799 229.125C270.34 229.125 269.899 228.943 269.575 228.618C269.25 228.293 269.067 227.853 269.067 227.393C269.067 226.934 269.25 226.494 269.575 226.169C269.899 225.844 270.34 225.662 270.799 225.662L286.299 226.008C286.758 226.008 287.199 226.19 287.523 226.515C287.848 226.84 288.031 227.28 288.031 227.74C288.031 228.199 287.848 228.64 287.523 228.964C287.199 229.289 286.758 229.472 286.299 229.472H286.281Z" fill="#093F68"/>
</svg>
