<svg width="600" height="600" viewBox="0 0 600 600" fill="none" xmlns="http://www.w3.org/2000/svg">
<path d="M309.641 193.669C309.641 193.669 278.06 198.292 250.926 189.182C223.793 180.073 193.733 196.985 193.733 196.985C193.733 196.985 209.748 210.445 216.146 227.942C216.146 227.942 236.531 220.139 266.239 224.801C283.589 227.676 301.365 226.569 318.224 221.563L309.641 193.669Z" fill="#0085FF"/>
<path d="M216.146 228.916C216.017 228.945 215.884 228.945 215.756 228.916C215.635 228.857 215.529 228.773 215.444 228.668C215.36 228.564 215.3 228.442 215.268 228.312C209.045 211.283 193.284 197.901 193.128 197.764C193.008 197.663 192.915 197.533 192.857 197.387C192.799 197.24 192.778 197.082 192.796 196.926C192.81 196.769 192.862 196.618 192.947 196.485C193.032 196.353 193.147 196.243 193.284 196.165C193.596 196.009 224.046 179.155 251.277 188.362C277.864 197.277 309.231 192.849 309.543 192.79C309.774 192.757 310.009 192.808 310.206 192.933C310.403 193.058 310.548 193.25 310.616 193.473L319.199 221.367C319.274 221.608 319.252 221.868 319.14 222.094C319.027 222.319 318.831 222.492 318.594 222.577C301.57 227.588 283.638 228.715 266.121 225.873C237.057 221.309 216.75 228.877 216.536 228.955C216.404 228.966 216.272 228.952 216.146 228.916ZM195.43 197.101C199.116 200.437 211.035 211.965 216.731 226.634C232.854 221.927 249.837 220.946 266.394 223.767C283.281 226.464 300.551 225.466 317.014 220.841L308.899 194.741C303.691 195.385 275.153 198.369 250.555 190.118C227.264 182.276 201.321 194.214 195.43 197.101Z" fill="#231F20"/>
<path d="M429.841 212.219C429.095 213.298 428.626 214.544 428.476 215.848C428.02 218.777 428.239 221.772 429.114 224.604C429.989 227.437 431.499 230.032 433.528 232.194C435.752 234.535 439.263 236.329 442.13 234.847C442.877 234.413 443.522 233.825 444.024 233.122C444.525 232.419 444.87 231.617 445.037 230.77C445.361 229.075 445.361 227.335 445.037 225.64C444.1 219.242 438.502 201.003 429.841 212.219Z" fill="#946D32"/>
<path d="M439.886 236.368C437.181 236.158 434.664 234.906 432.864 232.877C430.732 230.603 429.147 227.874 428.228 224.896C427.308 221.919 427.079 218.771 427.558 215.692C427.727 214.232 428.257 212.838 429.099 211.634C431.518 208.455 433.995 207.167 436.453 207.733C442.305 209.235 445.406 221.387 446.03 225.425C446.372 227.25 446.372 229.121 446.03 230.946C445.837 231.933 445.432 232.866 444.843 233.681C444.253 234.496 443.494 235.174 442.617 235.666C441.777 236.119 440.84 236.36 439.886 236.368ZM435.263 209.586C433.839 209.586 432.278 210.678 430.659 212.805C429.997 213.752 429.587 214.853 429.469 216.004C429.03 218.8 429.236 221.66 430.071 224.364C430.906 227.069 432.348 229.547 434.288 231.609C436.238 233.716 439.359 235.296 441.7 234.067C442.323 233.698 442.861 233.202 443.278 232.61C443.695 232.018 443.982 231.344 444.119 230.634C444.412 229.054 444.412 227.434 444.119 225.854C443.339 220.763 440.218 210.834 435.985 209.762C435.753 209.669 435.511 209.61 435.263 209.586V209.586Z" fill="#231F20"/>
<path d="M447.2 267.637C447.2 267.637 449.717 248.384 449.697 245.946C449.007 241.448 448.089 236.988 446.947 232.584C446.947 232.584 436.101 227.843 433.975 219.573C431.849 211.302 445.094 195.385 448.41 195.326C451.726 195.268 450.907 197.882 453.228 197.433C455.549 196.984 459.509 196.106 461.323 199.384C463.137 202.661 463.274 204.806 464.99 205.235C466.707 205.665 470.94 203.558 472.793 207.888C474.646 212.219 474.49 207.635 478.177 212.804C481.863 217.973 484.458 229.463 485.979 237.441C487.501 245.419 474.88 289.016 474.88 289.016L447.2 267.637Z" fill="#946D32"/>
<path d="M475.017 289.953C474.799 289.957 474.587 289.888 474.412 289.758L446.616 268.417C446.477 268.316 446.368 268.179 446.3 268.021C446.231 267.864 446.206 267.691 446.225 267.52C447.103 260.868 448.742 247.819 448.722 245.946C448.087 241.676 447.221 237.443 446.128 233.267C443.982 232.252 435.029 227.571 433.02 219.807C431.401 213.507 437.74 204.514 439.73 201.92C442.363 198.448 446.225 194.39 448.41 194.351C449.103 194.297 449.799 194.421 450.43 194.711C451.062 195.001 451.609 195.448 452.019 196.009C452.448 196.497 452.507 196.575 453.053 196.477H453.326C455.686 196.029 460.095 195.19 462.182 198.935C462.806 200.086 463.255 201.12 463.625 201.959C464.269 203.441 464.601 204.163 465.225 204.319C465.705 204.373 466.189 204.373 466.668 204.319C468.619 204.105 472.052 203.734 473.73 207.577C474.334 208.942 474.588 209.098 474.627 209.118H474.842C475.895 209.118 477.007 209.469 479.035 212.297C482.8 217.584 485.434 229.112 487.072 237.305C488.711 245.497 476.48 287.553 475.953 289.348C475.908 289.502 475.825 289.643 475.713 289.759C475.601 289.874 475.463 289.961 475.31 290.011L475.017 289.953ZM448.235 267.208L474.471 287.339C478.918 271.948 486.37 243.547 485.16 237.597C483.561 229.561 481.006 218.325 477.358 213.331C475.719 211.029 475.076 210.99 474.666 210.971C473.535 210.971 472.852 210.503 471.877 208.24C470.901 205.977 469.126 205.899 466.805 206.133C466.102 206.26 465.382 206.26 464.679 206.133C463.099 205.743 462.513 204.378 461.753 202.661C461.356 201.685 460.9 200.734 460.387 199.813C459.1 197.492 456.486 197.862 453.618 198.331H453.326C452.79 198.458 452.227 198.418 451.714 198.216C451.201 198.014 450.763 197.659 450.458 197.199C450.23 196.86 449.913 196.592 449.541 196.423C449.169 196.254 448.757 196.192 448.352 196.243C447.649 196.243 444.841 198.194 441.193 203.032C437.545 207.869 433.722 214.931 434.834 219.261C436.784 227.064 447.162 231.589 447.259 231.628C447.399 231.687 447.522 231.778 447.62 231.893C447.719 232.008 447.789 232.145 447.825 232.291C448.996 236.789 449.92 241.348 450.595 245.946C450.693 248.209 448.664 263.951 448.235 267.208Z" fill="#231F20"/>
<path d="M467.039 251.72C466.852 251.716 466.67 251.662 466.512 251.564C465.192 250.695 464.147 249.469 463.497 248.029C462.848 246.589 462.622 244.993 462.845 243.429C462.182 243.965 461.402 244.338 460.569 244.518C459.735 244.698 458.871 244.679 458.046 244.463C455.393 243.527 454.496 239.782 453.677 235.334C452.682 229.931 458.729 222.284 461.362 219.241C464.639 215.496 465.264 215.516 465.595 215.535C465.723 215.54 465.849 215.57 465.966 215.624C466.082 215.678 466.187 215.754 466.274 215.848C466.361 215.942 466.428 216.053 466.472 216.173C466.517 216.293 466.537 216.421 466.532 216.549C466.525 216.746 466.458 216.936 466.339 217.093C466.22 217.25 466.056 217.367 465.868 217.427C464.269 218.5 454.516 229.131 455.588 234.983C456.252 238.533 457.032 242.044 458.709 242.63C459.782 243.02 461.538 242.22 463.781 240.308C463.953 240.172 464.166 240.098 464.386 240.098C464.605 240.098 464.818 240.172 464.991 240.308C465.163 240.438 465.289 240.621 465.349 240.828C465.409 241.036 465.399 241.257 465.322 241.459C465.225 241.674 463.118 247.058 467.565 249.964C467.675 250.031 467.77 250.12 467.844 250.225C467.918 250.33 467.971 250.449 467.998 250.575C468.025 250.7 468.027 250.83 468.003 250.957C467.979 251.083 467.93 251.203 467.858 251.31C467.764 251.439 467.641 251.543 467.498 251.615C467.356 251.686 467.198 251.722 467.039 251.72Z" fill="#231F20"/>
<path d="M463.977 230.594C463.977 230.594 464.464 236.231 470.804 235.08Z" fill="#946D32"/>
<path d="M469.204 236.212C467.806 236.268 466.431 235.849 465.303 235.022C463.987 233.929 463.142 232.371 462.942 230.673C462.931 230.544 462.945 230.415 462.983 230.293C463.021 230.17 463.084 230.056 463.166 229.957C463.248 229.858 463.349 229.777 463.463 229.717C463.577 229.658 463.702 229.621 463.83 229.609C463.958 229.598 464.087 229.612 464.21 229.65C464.333 229.688 464.447 229.751 464.545 229.833C464.644 229.915 464.726 230.016 464.785 230.13C464.845 230.244 464.882 230.369 464.893 230.497C465.035 231.661 465.613 232.728 466.512 233.481C467.105 233.868 467.773 234.125 468.472 234.236C469.171 234.347 469.886 234.309 470.569 234.125C470.828 234.079 471.095 234.137 471.311 234.287C471.526 234.437 471.674 234.666 471.72 234.925C471.767 235.184 471.709 235.45 471.559 235.666C471.409 235.882 471.179 236.029 470.921 236.076C470.353 236.164 469.779 236.21 469.204 236.212V236.212Z" fill="#231F20"/>
<path d="M464.425 242.103H464.289C464.161 242.089 464.038 242.049 463.926 241.986C463.814 241.923 463.715 241.837 463.637 241.735C463.559 241.633 463.502 241.517 463.47 241.392C463.438 241.268 463.431 241.138 463.45 241.011C463.45 240.328 464.464 234.223 467.995 234.184C468.25 234.184 468.496 234.284 468.678 234.462C468.86 234.641 468.965 234.884 468.97 235.139C468.966 235.398 468.862 235.646 468.681 235.831C468.499 236.016 468.254 236.124 467.995 236.134C466.669 236.134 465.635 239.216 465.362 241.284C465.325 241.508 465.212 241.713 465.041 241.862C464.87 242.012 464.653 242.097 464.425 242.103Z" fill="#231F20"/>
<path d="M451.923 236.836C450.673 236.831 449.451 236.459 448.411 235.765C447.37 235.071 446.557 234.087 446.071 232.935C443.379 227.727 442.989 226.381 444.589 222.694C446.052 219.32 457.97 207.596 459.336 206.27C459.423 206.176 459.529 206.102 459.646 206.051C459.764 206 459.89 205.974 460.018 205.974C460.146 205.974 460.273 206 460.39 206.051C460.508 206.102 460.613 206.176 460.701 206.27C460.792 206.36 460.865 206.468 460.914 206.587C460.964 206.706 460.989 206.833 460.989 206.962C460.989 207.091 460.964 207.218 460.914 207.337C460.865 207.456 460.792 207.564 460.701 207.655C457.092 211.185 447.495 220.9 446.383 223.474C445.115 226.4 445.213 227.044 447.807 232.038C448.061 232.619 448.432 233.142 448.897 233.573C449.363 234.004 449.912 234.334 450.511 234.543C451.11 234.752 451.745 234.834 452.378 234.786C453.01 234.738 453.626 234.559 454.186 234.262C454.419 234.152 454.686 234.138 454.93 234.222C455.174 234.306 455.375 234.481 455.493 234.71C455.549 234.825 455.583 234.951 455.591 235.079C455.599 235.207 455.581 235.335 455.54 235.457C455.498 235.578 455.433 235.69 455.348 235.786C455.263 235.882 455.16 235.961 455.044 236.017C454.08 236.526 453.013 236.806 451.923 236.836V236.836Z" fill="#231F20"/>
<path d="M445.445 234.009C445.216 234.008 444.994 233.925 444.821 233.775L445.445 233.033L444.821 233.775C444.041 233.111 437.155 227.24 435.887 222.207C434.521 216.843 446.128 204.495 447.454 203.11C447.545 203.019 447.653 202.946 447.772 202.897C447.89 202.847 448.018 202.822 448.147 202.822C448.275 202.822 448.403 202.847 448.522 202.897C448.641 202.946 448.749 203.019 448.839 203.11C448.93 203.199 449.002 203.306 449.051 203.423C449.101 203.54 449.126 203.666 449.126 203.793C449.126 203.92 449.101 204.046 449.051 204.163C449.002 204.281 448.93 204.387 448.839 204.476C444.099 209.43 436.901 218.481 437.74 221.739C438.657 225.348 443.377 230.068 446.03 232.292C446.139 232.387 446.226 232.504 446.286 232.635C446.347 232.766 446.379 232.908 446.381 233.053C446.382 233.238 446.329 233.42 446.229 233.576C446.129 233.732 445.985 233.855 445.816 233.931C445.698 233.981 445.573 234.007 445.445 234.009Z" fill="#231F20"/>
<path d="M366.599 530L394.611 253.222L314.868 243.644L263.858 530H366.599Z" fill="#231F20"/>
<path d="M293.293 530C298.872 474.094 326.786 294.634 328.893 260.985C331.39 220.997 312.683 201.413 312.683 201.413C312.683 201.413 263.917 208.318 232.882 281.604C201.847 354.89 145.103 529.61 145.103 529.61L148.809 530H293.293Z" fill="#FFC500"/>
<path d="M347.055 530H400.678C396.972 518.862 388.467 491.962 387.024 476.708C385.931 464.205 409.866 302.847 408.949 277.976C408.032 253.105 394.514 253.222 394.514 253.222L368.804 272.144L376.197 279.283C376.197 279.283 350.605 466.292 347.055 530Z" fill="#FFC500"/>
<path d="M403.506 264.165L422.428 323.563L443.885 261.356L489.199 284.472C489.199 284.472 471.038 471.227 436.531 458.216C402.024 445.205 384.722 412.863 384.722 412.863L403.506 264.165Z" fill="#FFC500"/>
<path d="M269.36 450.686C278.781 450.959 286.506 451.798 286.506 451.798C286.506 451.798 308.724 479.244 314.147 474.933C319.57 470.622 299.439 444.542 297.937 443.215C297.937 443.215 310.031 445.673 317.443 449.867C324.856 454.061 333.673 463.736 340.442 462.761C347.21 461.785 347.62 458.606 341.046 451.622C334.473 444.639 320.213 435.276 310.928 432.428C310.928 432.428 316.156 429.268 326.241 431.472C336.326 433.676 354.603 447.916 360.163 441.225C365.722 434.535 355.559 426.713 343.621 422.343C331.683 417.974 323.802 415.048 316.917 414.326C316.917 414.326 331.761 410.269 340.324 411.439C348.888 412.609 364.239 415.926 369.136 412.492C374.032 409.059 369.565 405.548 364.864 403.363C360.163 401.179 332.229 396.868 327.567 396.868C322.905 396.868 301.233 405.899 290.251 407.167C279.269 408.435 267.936 401.803 267.936 401.803L242.753 439.372C242.753 439.372 259.958 450.394 269.36 450.686Z" fill="#946D32"/>
<path d="M312.801 476.299C305.622 476.299 289.92 457.553 285.979 452.715C284.282 452.54 277.357 451.876 269.301 451.642C259.724 451.369 242.909 440.641 242.187 440.192C241.973 440.043 241.82 439.821 241.758 439.568C241.73 439.44 241.729 439.308 241.756 439.18C241.783 439.053 241.837 438.932 241.914 438.827L267.175 401.257C267.311 401.047 267.524 400.898 267.769 400.844C268.013 400.789 268.269 400.832 268.482 400.964C268.482 400.964 279.62 407.519 290.115 406.27C296.084 405.568 305.213 402.564 313.249 399.931C319.979 397.707 325.305 396.029 327.548 396.029C332.366 396.029 360.338 400.301 365.273 402.623C369.682 404.69 372.023 406.894 372.218 409.177C372.221 410.049 371.987 410.906 371.541 411.655C371.094 412.404 370.451 413.018 369.682 413.429C365.312 416.492 354.077 414.717 345.221 413.312C343.407 413.019 341.69 412.746 340.188 412.551C334.804 411.83 326.807 413.215 321.793 414.307C329.033 416.178 336.148 418.503 343.094 421.271L343.894 421.563C351.697 424.47 360.826 429.678 362.406 435.628C362.698 436.733 362.708 437.895 362.435 439.006C362.163 440.117 361.616 441.141 360.845 441.987C356.769 446.863 347.542 442.26 338.608 437.812C334.602 435.594 330.371 433.809 325.987 432.487C321.953 431.479 317.733 431.479 313.698 432.487C324.1 436.878 333.593 443.169 341.69 451.038C345.767 455.368 347.249 458.294 346.469 460.498C345.689 462.703 342.704 463.502 340.52 463.814C335.545 464.536 329.85 460.206 324.329 456.012C321.961 454.125 319.479 452.386 316.897 450.804C311.689 448.204 306.188 446.24 300.512 444.952C305.193 450.804 316.117 466.194 316 472.865C316.025 473.425 315.922 473.983 315.698 474.497C315.475 475.01 315.138 475.467 314.712 475.83C314.148 476.203 313.473 476.368 312.801 476.299V476.299ZM269.36 449.692C278.703 449.965 286.506 450.804 286.584 450.804C286.711 450.819 286.833 450.86 286.943 450.924C287.054 450.987 287.151 451.073 287.228 451.174C296.201 462.254 310.285 476.708 313.503 474.153C313.695 473.955 313.843 473.719 313.937 473.46C314.031 473.202 314.069 472.926 314.049 472.651C314.225 465.453 298.444 445.03 297.235 443.918C297.08 443.77 296.976 443.578 296.938 443.367C296.899 443.157 296.928 442.94 297.02 442.747C297.116 442.554 297.274 442.399 297.468 442.307C297.663 442.215 297.883 442.192 298.093 442.24C298.581 442.338 310.441 444.796 317.853 449.009C320.518 450.621 323.078 452.399 325.519 454.334C330.708 458.236 336.072 462.39 340.247 461.766C342.821 461.396 344.304 460.713 344.635 459.816C344.967 458.918 344.479 456.812 340.266 452.345C333.478 445.108 319.316 436.096 310.597 433.423C310.419 433.368 310.26 433.263 310.14 433.121C310.02 432.979 309.943 432.805 309.918 432.62C309.893 432.436 309.922 432.248 310.001 432.079C310.08 431.91 310.205 431.767 310.363 431.668C310.597 431.512 316.039 428.313 326.397 430.575C330.948 431.926 335.337 433.77 339.486 436.076C347.288 439.977 356.261 444.425 359.363 440.738C359.936 440.135 360.343 439.395 360.544 438.588C360.746 437.781 360.736 436.936 360.514 436.135C359.382 431.824 352.575 426.83 343.211 423.397L342.431 423.104C330.942 418.891 323.373 416.121 316.761 415.438C316.536 415.42 316.325 415.321 316.168 415.16C316.01 414.998 315.916 414.786 315.902 414.56C315.884 414.334 315.943 414.108 316.071 413.92C316.199 413.731 316.387 413.593 316.605 413.527C317.229 413.371 331.722 409.43 340.442 410.62C341.963 410.815 343.699 411.088 345.533 411.381C353.687 412.668 364.844 414.443 368.57 411.83C369.76 410.991 370.345 410.152 370.267 409.333C370.15 407.87 368.024 406.056 364.415 404.378C360.026 402.33 332.58 397.98 327.528 397.98C325.578 397.98 319.882 399.931 313.874 401.881C305.739 404.554 296.532 407.577 290.368 408.299C280.752 409.43 271.115 404.71 268.306 403.188L244.138 438.983C247.669 441.187 261.518 449.399 269.399 449.614L269.36 449.692Z" fill="#231F20"/>
<path d="M327.723 182.472C327.723 182.472 392.251 219.261 395.996 230.048C399.039 238.845 340.851 226.322 330.708 219.105C320.564 211.887 327.723 182.472 327.723 182.472Z" fill="#231F20"/>
<path d="M388.584 234.047C372.394 234.047 337.458 225.132 330.065 219.905C319.512 212.395 326.437 183.466 326.729 182.237C326.763 182.09 326.831 181.953 326.928 181.838C327.025 181.722 327.148 181.631 327.287 181.572C327.426 181.513 327.577 181.488 327.727 181.498C327.878 181.509 328.024 181.555 328.153 181.633C330.806 183.135 393.032 218.695 396.816 229.716C397.026 230.239 397.051 230.817 396.888 231.356C396.725 231.895 396.383 232.363 395.919 232.681C393.646 233.803 391.108 234.275 388.584 234.047V234.047ZM328.407 183.954C327.197 189.611 322.926 212.395 331.255 218.324C342.335 226.127 390.008 234.729 394.846 231.121C394.911 231.086 394.969 231.039 395.015 230.981C395.062 230.924 395.096 230.857 395.116 230.786C395.136 230.715 395.142 230.641 395.132 230.567C395.123 230.494 395.098 230.424 395.061 230.36C392.154 221.972 347.036 194.663 328.407 183.954Z" fill="#231F20"/>
<path d="M362.699 82.6179C364.277 83.2141 366.018 83.2141 367.595 82.6179C369.663 81.7206 370.853 79.5944 372.238 77.8388C374.794 74.7575 378.264 72.5694 382.146 71.591C386.028 70.6126 390.12 70.8947 393.831 72.3965C396.835 73.7034 399.449 75.7711 402.492 76.9805C412.538 80.8818 424.808 74.6202 434.424 79.5359C435.747 80.13 436.908 81.034 437.808 82.1715C438.707 83.3089 439.32 84.6463 439.594 86.0705C439.75 87.4555 439.438 88.86 439.594 90.2449C440.627 98.2426 455.901 99.7446 454.321 107.645C453.716 110.707 450.42 112.697 449.835 115.74C448.937 119.895 453.112 124.479 450.907 128.107C450.166 129.336 448.84 130.058 448.001 131.267C444.88 135.637 450.322 141.82 448.567 146.872C447.572 149.759 444.529 151.398 442.91 153.992C440.042 158.576 442.071 165.286 438.521 169.383C436.941 171.216 434.522 172.114 432.669 173.635C428.592 176.932 427.48 182.608 424.691 187.056C414.294 203.656 366.873 179.039 355.384 171.685C343.895 164.331 316.371 138.328 330.65 123.328C332.6 121.377 335.468 119.427 335.136 116.598C334.941 114.823 333.42 113.497 332.718 111.839C331.43 108.815 333.049 105.401 334.668 102.515L340.13 92.5467C343.466 86.4217 348.498 79.3603 355.423 80.2186C357.907 80.8269 360.34 81.6292 362.699 82.6179V82.6179Z" fill="#0F0F0F"/>
<path d="M411.563 193.708C392.349 193.708 362.095 177.146 354.994 172.543C346.665 167.218 327.802 150.481 325.988 135.481C325.637 133.173 325.823 130.816 326.534 128.593C327.245 126.369 328.46 124.341 330.084 122.665C330.494 122.216 330.943 121.787 331.411 121.358C333.01 119.856 334.512 118.432 334.317 116.715C334.114 115.8 333.7 114.945 333.108 114.218C332.669 113.602 332.284 112.95 331.957 112.268C330.377 108.542 332.659 104.348 333.908 102.085L339.37 92.1176C341.32 88.6845 346.958 78.2095 355.657 79.3018C357.33 79.5822 358.961 80.067 360.515 80.7453C361.373 81.0964 362.251 81.428 363.109 81.6816C364.465 82.2048 365.967 82.2048 367.322 81.6816C368.721 80.8882 369.891 79.7457 370.716 78.3655L371.594 77.1951C374.281 73.9429 377.936 71.6329 382.027 70.6015C386.118 69.57 390.431 69.8709 394.339 71.4602C395.777 72.1299 397.177 72.8788 398.533 73.7035C399.942 74.5987 401.423 75.3751 402.961 76.0247C407.564 77.8583 412.851 77.3902 417.942 76.961C423.794 76.4539 429.646 75.9467 434.99 78.6386C436.456 79.2936 437.738 80.3005 438.721 81.5697C439.705 82.839 440.36 84.3314 440.628 85.9145C440.696 86.6477 440.696 87.3856 440.628 88.1188C440.57 88.7677 440.57 89.4205 440.628 90.0694C441.076 93.405 444.529 95.6093 448.001 97.755C452.098 100.33 456.331 102.983 455.355 107.781C454.907 109.442 454.071 110.973 452.917 112.248C452.016 113.305 451.351 114.542 450.966 115.877C450.78 117.657 451.049 119.456 451.747 121.104C452.546 123.601 453.366 126.176 451.922 128.556C451.446 129.284 450.868 129.941 450.206 130.506C449.751 130.891 449.34 131.322 448.977 131.794C447.553 133.745 448.294 136.378 449.074 139.167C450.089 141.716 450.293 144.515 449.659 147.184C448.913 148.953 447.764 150.523 446.304 151.769C445.405 152.586 444.6 153.502 443.905 154.499C442.821 156.651 442.228 159.016 442.169 161.424C442.177 164.506 441.223 167.514 439.438 170.027C438.356 171.182 437.09 172.151 435.693 172.894C434.894 173.36 434.126 173.875 433.391 174.435C431.059 176.662 429.288 179.409 428.222 182.452C427.472 184.228 426.599 185.949 425.608 187.602C424.66 189.069 423.419 190.325 421.961 191.288C420.504 192.252 418.863 192.903 417.142 193.2C415.307 193.575 413.436 193.745 411.563 193.708ZM354.272 81.1745C349.688 81.1745 345.319 85.0758 340.969 93.0539L335.507 103.022C334.025 105.753 332.542 108.874 333.654 111.507C333.932 112.086 334.258 112.641 334.629 113.165C335.409 114.139 335.933 115.292 336.151 116.52C336.463 119.212 334.434 121.124 332.659 122.821C332.23 123.23 331.801 123.621 331.411 124.03C329.986 125.503 328.921 127.285 328.298 129.238C327.676 131.19 327.513 133.26 327.822 135.286C329.46 148.784 346.958 165.13 355.95 170.904C366.445 177.595 400.327 194.917 416.713 191.25C418.181 191.008 419.584 190.468 420.836 189.663C422.087 188.858 423.16 187.804 423.989 186.568C424.915 184.982 425.742 183.341 426.466 181.652C427.647 178.325 429.606 175.329 432.182 172.914C432.982 172.299 433.822 171.738 434.698 171.236C435.908 170.586 437.012 169.758 437.975 168.778C439.475 166.563 440.264 163.943 440.238 161.268C440.286 158.553 440.953 155.884 442.188 153.466C442.963 152.343 443.859 151.309 444.861 150.384C446.111 149.319 447.105 147.985 447.767 146.482C448.236 144.18 448.012 141.791 447.123 139.616C446.265 136.534 445.368 133.335 447.338 130.604C447.776 130.021 448.273 129.485 448.821 129.004C449.347 128.573 449.807 128.067 450.186 127.502C451.181 125.883 450.557 123.913 449.835 121.65C449.007 119.688 448.717 117.54 448.996 115.428C449.459 113.8 450.286 112.299 451.415 111.039C452.367 109.987 453.067 108.733 453.463 107.372C454.165 103.9 450.83 101.812 446.967 99.3935C443.105 96.9747 439.262 94.5559 438.716 90.3035C438.648 89.5247 438.648 88.7415 438.716 87.9627C438.769 87.3136 438.769 86.6612 438.716 86.0121C438.474 84.7252 437.919 83.5178 437.099 82.4971C436.279 81.4763 435.22 80.6736 434.015 80.1601C429.236 77.7218 423.794 78.2095 418.02 78.6776C412.694 79.1458 407.174 79.6139 402.141 77.6243C400.516 76.9291 398.945 76.1141 397.44 75.186C396.188 74.3872 394.884 73.6705 393.539 73.0402C390.026 71.6168 386.152 71.3486 382.476 72.2745C378.801 73.2004 375.515 75.2722 373.096 78.19L372.257 79.3018C371.239 80.9514 369.798 82.2984 368.083 83.2031C366.29 83.8679 364.317 83.8679 362.524 83.2031V83.2031C361.626 82.93 360.71 82.5789 359.773 82.2083C358.37 81.589 356.896 81.1435 355.384 80.8819C355.008 80.9551 354.636 81.0529 354.272 81.1745V81.1745Z" fill="#231F20"/>
<path d="M389.559 217.466L377.855 254.119C377.855 254.119 361.392 277.527 338.725 261.649C316.059 245.77 319.394 224.898 319.394 224.898L333.517 181.496C336.345 172.875 339.115 164.233 341.983 155.631C342.672 152.547 343.843 149.591 345.455 146.872C349.142 141.879 356.944 141.781 359.968 136.358C361.918 132.886 360.494 128.088 362.913 124.928C365.332 121.767 369.818 121.826 372.354 119.076C375.475 115.662 374.988 108.815 379.494 107.742C384.448 106.552 387.94 114.609 392.953 113.692C394.904 113.321 396.406 111.585 398.356 111.058C401.126 110.337 403.955 112.268 405.554 114.628C407.154 116.988 407.954 119.817 409.456 122.255C410.973 124.632 413.1 126.558 415.615 127.835C418.129 129.111 420.94 129.69 423.754 129.512C422.662 132.945 425.178 136.69 428.416 138.25C431.444 139.419 434.67 139.988 437.916 139.928C438.774 149.155 435.302 160.39 433.41 169.461C430.874 181.633 428.201 194.956 421.842 205.802C411.133 223.962 389.559 217.466 389.559 217.466Z" fill="#946D32"/>
<path d="M354.507 268.164C348.597 267.998 342.885 266.001 338.16 262.449C315.279 246.317 318.4 224.957 318.439 224.742L335.507 172.485C337.458 166.75 339.233 161.015 341.145 155.28C341.379 154.617 341.574 153.914 341.788 153.212C342.369 150.738 343.372 148.382 344.753 146.248C346.767 143.926 349.328 142.143 352.205 141.06C355.072 139.714 357.784 138.426 359.227 135.832C359.947 134.251 360.325 132.536 360.339 130.799C360.352 128.485 361.029 126.224 362.29 124.284C363.678 122.724 365.445 121.549 367.42 120.87C369 120.344 370.45 119.486 371.672 118.354C372.785 116.888 373.6 115.218 374.072 113.438C375.066 110.512 376.022 107.586 379.299 106.728C382.576 105.87 384.644 107.976 386.926 109.869C388.877 111.488 390.828 113.048 392.778 112.658C393.682 112.415 394.534 112.012 395.295 111.468C396.156 110.862 397.102 110.389 398.104 110.064C401.361 109.205 404.599 111.429 406.355 113.965C407.201 115.298 407.932 116.701 408.54 118.159C409.044 119.352 409.623 120.512 410.276 121.631C411.698 123.854 413.688 125.655 416.041 126.849C418.394 128.042 421.024 128.585 423.657 128.419C423.817 128.404 423.978 128.429 424.126 128.492C424.274 128.555 424.403 128.654 424.502 128.781C424.601 128.907 424.667 129.056 424.693 129.215C424.719 129.373 424.705 129.536 424.652 129.687C423.716 132.672 426.095 135.929 428.826 137.256C431.728 138.357 434.813 138.893 437.916 138.836C438.156 138.848 438.384 138.945 438.559 139.109C438.734 139.274 438.845 139.495 438.872 139.733C439.555 147.087 437.526 155.728 435.732 163.355C435.244 165.501 434.756 167.569 434.347 169.539L434.132 170.573C431.694 182.277 428.943 195.502 422.662 206.172C413.007 222.655 394.553 219.573 390.203 218.578L378.695 254.353C378.669 254.447 378.622 254.534 378.558 254.607C378.246 255.056 370.755 265.648 358.622 267.754C357.265 268.007 355.888 268.144 354.507 268.164V268.164ZM380.47 108.542C380.217 108.514 379.962 108.514 379.709 108.542C377.563 109.049 376.783 111.332 375.808 113.985C375.259 116.021 374.304 117.926 372.999 119.583C371.589 120.924 369.905 121.942 368.064 122.567C366.363 123.116 364.827 124.081 363.597 125.376C362.607 127.039 362.095 128.942 362.114 130.877C362.077 132.902 361.612 134.897 360.749 136.729C359.013 139.85 355.872 141.333 352.946 142.757C350.364 143.714 348.059 145.296 346.236 147.36C344.991 149.306 344.087 151.45 343.563 153.7C343.349 154.441 343.134 155.143 342.9 155.826C340.949 161.561 339.135 167.296 337.263 173.031L320.234 225.152C320.234 225.152 317.327 245.4 339.194 260.79C348.245 267.15 357.315 267.891 366.171 262.975C370.327 260.595 373.967 257.412 376.881 253.612L388.584 217.115C388.661 216.871 388.831 216.666 389.057 216.545C389.283 216.425 389.548 216.398 389.794 216.472C390.652 216.725 410.783 222.519 421.004 205.197C427.11 194.78 429.724 182.277 432.24 170.085L432.455 169.071C432.864 167.12 433.352 164.994 433.859 162.829C435.537 155.65 437.448 147.555 437 140.669C433.918 140.682 430.863 140.093 428.007 138.933C426.349 138.198 424.946 136.989 423.974 135.459C423.002 133.928 422.505 132.144 422.545 130.331C419.762 130.287 417.033 129.55 414.605 128.188C412.177 126.826 410.126 124.881 408.637 122.528C407.901 121.347 407.249 120.115 406.686 118.842C406.145 117.489 405.493 116.184 404.736 114.94C403.37 112.99 400.952 111.156 398.611 111.78C397.796 112.045 397.026 112.433 396.329 112.931C395.369 113.629 394.282 114.133 393.129 114.414C390.184 114.94 387.882 113.048 385.639 111.195C384.243 109.782 382.432 108.852 380.47 108.542Z" fill="#231F20"/>
<path d="M350.41 172.27C344.714 172.476 339.167 170.421 334.98 166.554C328.952 160.917 327.294 152.705 328.816 144.804C329.27 141.902 330.377 139.141 332.054 136.729C332.898 135.53 333.99 134.527 335.255 133.786C336.52 133.046 337.93 132.586 339.388 132.437C342.9 132.242 346.099 134.271 349.025 136.222C353.394 139.128 353.121 141.781 355.325 145.975C355.072 145.585 354.974 144.551 354.721 144.161" fill="#946D32"/>
<path d="M349.552 173.265C343.878 173.268 338.413 171.121 334.259 167.257C328.407 161.814 326.066 153.602 327.802 144.629C328.279 141.577 329.446 138.675 331.216 136.144C332.148 134.835 333.349 133.741 334.739 132.933C336.128 132.126 337.673 131.624 339.272 131.462C343.173 131.228 346.88 133.647 349.513 135.363C352.006 136.978 353.844 139.425 354.702 142.269C354.838 142.6 354.955 142.951 355.111 143.283C355.262 143.368 355.389 143.488 355.482 143.634C355.686 144.006 355.831 144.407 355.911 144.824C355.911 145 356.028 145.273 356.067 145.409C356.182 145.633 356.208 145.893 356.14 146.136C356.071 146.378 355.912 146.586 355.697 146.716C355.479 146.837 355.224 146.872 354.982 146.814C354.74 146.756 354.529 146.61 354.39 146.404C354.333 146.319 354.287 146.227 354.253 146.131C353.715 145.08 353.24 143.999 352.829 142.893C352.125 140.416 350.535 138.285 348.362 136.904C345.241 134.817 342.51 133.101 339.331 133.276C338.014 133.419 336.743 133.84 335.603 134.513C334.463 135.186 333.479 136.094 332.718 137.177C331.129 139.475 330.082 142.103 329.655 144.863C328.056 153.114 330.202 160.722 335.507 165.696C337.481 167.532 339.799 168.959 342.326 169.896C344.853 170.834 347.541 171.262 350.235 171.158C350.491 171.157 350.738 171.253 350.926 171.427C351.114 171.6 351.229 171.839 351.249 172.094C351.254 172.222 351.234 172.35 351.19 172.47C351.146 172.591 351.078 172.701 350.991 172.795C350.904 172.89 350.8 172.966 350.683 173.02C350.567 173.073 350.441 173.103 350.313 173.108L349.552 173.265Z" fill="#231F20"/>
<path d="M384.643 232.74C384.643 232.74 371.418 237.109 364.591 222.109C357.764 207.108 362.133 198.525 362.133 198.525C362.133 198.525 371.886 214.267 389.559 217.466L384.643 232.74Z" fill="#231F20"/>
<path d="M380.294 234.281C375.553 234.281 368.219 232.447 363.694 222.577C356.749 207.323 361.08 198.506 361.275 198.136C361.352 197.982 361.468 197.853 361.612 197.76C361.756 197.667 361.923 197.615 362.094 197.609C362.264 197.612 362.431 197.656 362.581 197.737C362.73 197.819 362.858 197.935 362.952 198.077C362.952 198.233 372.706 213.487 389.735 216.569C389.871 216.593 390 216.645 390.114 216.722C390.229 216.8 390.325 216.9 390.398 217.018C390.454 217.144 390.484 217.28 390.484 217.418C390.484 217.556 390.454 217.692 390.398 217.818L385.482 233.111C385.436 233.257 385.355 233.391 385.247 233.499C385.138 233.608 385.005 233.689 384.858 233.735C383.367 234.118 381.832 234.301 380.294 234.281V234.281ZM362.406 200.671C361.587 203.792 360.631 211.107 365.469 221.719C371.223 234.34 381.542 232.545 383.883 231.96L388.291 218.208C374.208 215.223 365.469 204.748 362.406 200.671V200.671Z" fill="#231F20"/>
<path d="M404.111 150.286C404.111 150.286 410.372 174.864 406.061 177.205C401.75 179.546 393.636 174.104 393.636 174.104" fill="#946D32"/>
<path d="M403.409 178.687C398.766 178.687 393.304 175.04 393.031 174.786C392.816 174.639 392.667 174.414 392.616 174.159C392.565 173.904 392.616 173.639 392.758 173.421C392.831 173.314 392.924 173.222 393.032 173.151C393.14 173.08 393.261 173.032 393.388 173.008C393.515 172.985 393.645 172.987 393.772 173.014C393.898 173.041 394.018 173.093 394.124 173.167C396.23 174.572 402.375 177.888 405.535 176.191C407.817 174.981 406.101 161.853 403.175 150.403C403.11 150.144 403.151 149.871 403.288 149.642C403.425 149.413 403.647 149.248 403.906 149.184C404.165 149.119 404.439 149.16 404.667 149.297C404.896 149.434 405.061 149.657 405.125 149.915C406.627 155.767 411.211 175.43 406.51 177.927C405.557 178.438 404.49 178.7 403.409 178.687V178.687Z" fill="#231F20"/>
<path d="M375.827 137.821L397.031 144.278L382.888 129.824" fill="#946D32"/>
<path d="M397.03 145.253H396.737L375.533 138.777C375.405 138.74 375.286 138.678 375.182 138.594C375.078 138.511 374.991 138.408 374.927 138.291C374.862 138.174 374.822 138.046 374.807 137.913C374.792 137.781 374.804 137.647 374.841 137.519C374.878 137.39 374.94 137.271 375.023 137.167C375.107 137.063 375.21 136.976 375.327 136.912C375.443 136.847 375.572 136.807 375.704 136.792C375.837 136.777 375.971 136.789 376.099 136.826L393.655 142.171L382.205 130.467C382.113 130.376 382.041 130.268 381.991 130.15C381.942 130.031 381.916 129.903 381.916 129.774C381.916 129.646 381.942 129.518 381.991 129.399C382.041 129.28 382.113 129.173 382.205 129.082C382.295 128.991 382.403 128.918 382.522 128.868C382.641 128.819 382.768 128.793 382.897 128.793C383.026 128.793 383.153 128.819 383.272 128.868C383.391 128.918 383.499 128.991 383.59 129.082L397.712 143.536C397.864 143.691 397.96 143.892 397.985 144.108C398.01 144.323 397.962 144.541 397.849 144.726C397.772 144.879 397.656 145.009 397.511 145.102C397.367 145.194 397.201 145.247 397.03 145.253Z" fill="#231F20"/>
<path d="M430.932 148.589L415.541 149.311L432.57 158.225" fill="#946D32"/>
<path d="M432.573 159.201C432.415 159.202 432.261 159.161 432.124 159.084L415.095 150.169C414.908 150.07 414.759 149.912 414.669 149.72C414.58 149.528 414.555 149.313 414.599 149.106C414.644 148.899 414.754 148.712 414.913 148.573C415.073 148.434 415.274 148.351 415.485 148.336L430.875 147.614C431.006 147.603 431.137 147.62 431.261 147.662C431.385 147.703 431.498 147.77 431.595 147.858C431.692 147.946 431.77 148.053 431.824 148.172C431.878 148.291 431.907 148.42 431.909 148.55C431.915 148.678 431.894 148.806 431.85 148.927C431.806 149.047 431.738 149.157 431.652 149.252C431.565 149.346 431.46 149.422 431.343 149.476C431.227 149.529 431.101 149.56 430.973 149.565L419.269 150.111L433.099 157.348C433.3 157.445 433.461 157.608 433.557 157.809C433.652 158.011 433.675 158.239 433.623 158.455C433.57 158.672 433.445 158.864 433.268 159C433.091 159.135 432.873 159.206 432.651 159.201H432.573Z" fill="#231F20"/>
<path d="M390.826 184.754C385.326 188.791 381.678 196.087 385.208 202.544C386.886 205.665 390.865 206.191 393.967 205.196C398.941 203.616 398.492 200.261 400.014 196.126C400.642 194.845 401.387 193.624 402.238 192.478C402.974 191.274 403.363 189.89 403.363 188.479C403.363 187.068 402.974 185.684 402.238 184.48C400.151 181.437 396.542 181.652 393.596 183.076C392.623 183.549 391.696 184.11 390.826 184.754Z" fill="#AE5656"/>
<path d="M391.1 206.621C389.751 206.693 388.409 206.388 387.224 205.74C386.039 205.093 385.057 204.128 384.389 202.954C380.488 195.717 384.682 188.012 390.241 183.916C391.156 183.23 392.136 182.636 393.167 182.141C397.205 180.19 400.97 180.873 403.038 183.877C403.876 185.237 404.321 186.804 404.321 188.402C404.321 190 403.876 191.567 403.038 192.928C402.764 193.396 402.452 193.845 402.14 194.293C401.631 194.936 401.211 195.644 400.892 196.4C400.576 197.262 400.309 198.141 400.092 199.033C399.292 201.94 398.551 204.69 394.24 206.075C393.226 206.412 392.168 206.596 391.1 206.621V206.621ZM391.451 185.535C386.496 189.163 382.731 195.873 386.106 202.096C387.569 204.788 391.08 205.119 393.713 204.261C397.03 203.208 397.615 201.374 398.278 198.585C398.512 197.707 398.766 196.77 399.136 195.776C399.504 194.858 399.989 193.993 400.58 193.201C400.853 192.791 401.145 192.401 401.399 191.972C402.045 190.929 402.387 189.727 402.387 188.5C402.387 187.273 402.045 186.07 401.399 185.028C399.195 181.77 395.176 183.37 393.987 183.935C393.07 184.384 392.196 184.912 391.373 185.515L391.451 185.535Z" fill="#231F20"/>
<path d="M353.921 226.361C348.537 222.733 344.343 217.837 339.622 212.395C334.082 205.957 327.918 191.464 327.723 182.433C327.723 182.433 310.616 182.959 309.017 192.732C309.017 192.732 294.328 187.777 293.216 203.539C292.104 219.3 320.35 284.861 357.217 284.12C368.55 283.905 380.625 282.618 391.041 277.702C397.791 274.503 407.251 262.234 405.301 254.295C404.52 251.096 401.711 248.443 402.141 245.088C402.472 243.691 402.977 242.341 403.643 241.069C404.352 239.255 404.555 237.282 404.229 235.362C403.903 233.442 403.06 231.647 401.791 230.169C400.521 228.692 398.874 227.587 397.025 226.975C395.176 226.362 393.195 226.265 391.295 226.693C388.579 227.588 385.964 228.764 383.492 230.204C377.49 232.733 370.797 233.105 364.552 231.257C360.759 230.232 357.165 228.577 353.921 226.361V226.361Z" fill="#0085FF"/>
<path d="M356.594 285.154C345.455 285.154 334.337 279.399 323.55 268.046C304.511 248.033 291.422 215.086 292.339 203.519C292.69 198.486 294.407 194.916 297.45 192.907C299.095 191.972 300.909 191.371 302.787 191.14C304.665 190.909 306.571 191.052 308.393 191.561C311.046 182.12 327.1 181.515 327.802 181.496C327.932 181.488 328.061 181.507 328.183 181.551C328.305 181.596 328.416 181.665 328.51 181.755C328.603 181.845 328.677 181.953 328.726 182.073C328.776 182.193 328.8 182.322 328.797 182.452C329.031 191.62 335.254 205.86 340.501 211.712L340.657 211.907C345.338 217.329 349.376 222.011 354.604 225.561C357.774 227.688 361.274 229.276 364.962 230.262C370.988 232.043 377.443 231.692 383.24 229.267C384.059 228.877 384.859 228.448 385.658 228.019C387.397 226.991 389.267 226.204 391.218 225.678C393.282 225.218 395.433 225.325 397.441 225.99C399.449 226.654 401.24 227.85 402.623 229.451C404.005 231.052 404.928 232.997 405.294 235.081C405.659 237.164 405.453 239.308 404.697 241.283C404.521 241.732 404.326 242.161 404.131 242.59C403.707 243.366 403.405 244.201 403.234 245.068C403.225 246.854 403.755 248.601 404.755 250.081C405.454 251.309 405.998 252.62 406.374 253.982C408.461 262.526 398.786 275.166 391.588 278.56C380.08 284.022 366.562 284.9 357.374 285.076L356.594 285.154ZM304.063 193.024C302.077 192.96 300.116 193.482 298.425 194.526C295.928 196.204 294.524 199.266 294.192 203.655C293.49 213.682 305.701 246.453 324.954 266.7C335.566 277.858 346.411 283.457 357.198 283.183C366.191 283.008 379.455 282.15 390.613 276.863C397.089 273.801 406.218 261.824 404.268 254.509C403.929 253.322 403.444 252.182 402.824 251.115C401.612 249.286 401.005 247.123 401.088 244.931C401.282 243.863 401.637 242.83 402.141 241.869C402.317 241.478 402.492 241.088 402.649 240.698C403.293 239.05 403.477 237.258 403.181 235.513C402.884 233.768 402.119 232.137 400.966 230.794C399.814 229.451 398.318 228.447 396.638 227.89C394.959 227.332 393.159 227.242 391.432 227.629C389.65 228.114 387.944 228.842 386.361 229.794C385.522 230.243 384.683 230.672 383.825 231.082C377.645 233.692 370.751 234.078 364.318 232.174C360.423 231.136 356.725 229.462 353.375 227.219V227.219C348 223.224 343.185 218.527 339.057 213.253L338.901 213.077C333.674 207.011 327.451 193.083 326.807 183.505C323.277 183.798 311.202 185.339 309.993 192.946C309.967 193.084 309.912 193.214 309.831 193.329C309.75 193.443 309.646 193.539 309.524 193.61C309.402 193.682 309.266 193.729 309.125 193.745C308.984 193.762 308.841 193.749 308.705 193.707C307.199 193.254 305.635 193.024 304.063 193.024V193.024Z" fill="#231F20"/>
<path d="M344.988 218.559C346.679 219.419 348.093 220.74 349.067 222.369C350.04 223.998 350.533 225.869 350.489 227.766C351.347 255.992 345.963 263.346 336.034 274.874C323.628 289.251 314.577 321.417 331.938 352.257C331.938 352.257 359.696 346.405 375.164 356.353C375.164 356.353 348.46 312.951 361.12 284.179C368.005 268.574 374.423 254.51 376.725 238.28C379.027 222.051 344.988 218.559 344.988 218.559Z" fill="#0085FF"/>
<path d="M375.221 357.27C375.035 357.269 374.852 357.215 374.695 357.114C359.753 347.36 332.463 353.095 332.19 353.212C331.985 353.255 331.773 353.23 331.583 353.142C331.393 353.054 331.237 352.908 331.137 352.725C323.279 338.951 320.045 323.021 321.91 307.274C323.471 294.381 328.367 282.345 335.35 274.23C345.259 262.722 350.409 255.426 349.57 227.805C349.628 226.093 349.199 224.399 348.332 222.921C347.465 221.443 346.197 220.242 344.674 219.456C344.459 219.362 344.285 219.195 344.181 218.984C344.078 218.773 344.052 218.533 344.109 218.305C344.16 218.078 344.295 217.878 344.486 217.744C344.677 217.611 344.911 217.553 345.142 217.583C346.059 217.583 367.867 219.983 375.397 229.58C376.384 230.797 377.107 232.205 377.52 233.717C377.933 235.228 378.027 236.808 377.796 238.358C375.534 253.963 369.467 267.618 363.049 282.306L362.074 284.53C349.765 312.541 375.729 355.416 376.041 355.846C376.162 356.032 376.215 356.254 376.19 356.475C376.165 356.696 376.064 356.901 375.904 357.055C375.71 357.207 375.468 357.283 375.221 357.27V357.27ZM350.078 349.467C357.809 349.227 365.5 350.685 372.608 353.739C368.658 346.547 365.285 339.052 362.523 331.326C357.822 317.983 353.628 298.887 360.299 283.691L361.274 281.487C367.633 267.032 373.641 253.378 375.865 238.046C376.075 236.761 376.01 235.446 375.674 234.188C375.338 232.931 374.738 231.759 373.914 230.75C368.667 224.04 355.188 220.997 348.673 220.002C350.566 222.159 351.6 224.936 351.58 227.805C352.438 256.148 347.132 263.677 336.872 275.557C316.468 299.257 323.217 334.213 332.561 351.223C338.315 350.109 344.158 349.515 350.019 349.448L350.078 349.467Z" fill="#231F20"/>
<path d="M293.294 203.578C219.501 235.919 75.9334 325.006 91.7337 359.318C107.534 393.63 195.508 434.788 195.508 434.788L244.626 364.565L293.294 203.578Z" fill="#FFC500"/>
<path d="M233.118 454.587C232.976 454.614 232.83 454.614 232.688 454.587C204.775 440.562 137.224 403.246 136.56 402.856C136.433 402.804 136.319 402.725 136.224 402.626C136.13 402.526 136.058 402.407 136.012 402.278C135.967 402.148 135.949 402.01 135.96 401.873C135.972 401.737 136.012 401.604 136.078 401.483C136.145 401.363 136.236 401.258 136.345 401.176C136.455 401.093 136.581 401.034 136.715 401.004C136.849 400.973 136.988 400.971 137.122 400.998C137.257 401.025 137.385 401.08 137.497 401.159C138.179 401.53 204.463 438.222 232.786 452.461L266.747 401.92L183.922 323.894C183.733 323.715 183.623 323.469 183.616 323.209C183.609 322.95 183.705 322.698 183.883 322.509C184.062 322.32 184.308 322.21 184.568 322.203C184.827 322.195 185.079 322.291 185.268 322.47L268.678 401.12C268.845 401.282 268.952 401.496 268.981 401.726C269.009 401.957 268.957 402.191 268.834 402.388L233.937 454.275C233.832 454.385 233.705 454.47 233.563 454.524C233.421 454.579 233.269 454.6 233.118 454.587V454.587Z" fill="#231F20"/>
<path d="M211.094 349.018C210.976 349.02 210.858 348.999 210.747 348.955C210.637 348.912 210.536 348.847 210.451 348.764C210.359 348.673 210.287 348.566 210.237 348.447C210.188 348.328 210.162 348.2 210.162 348.072C210.162 347.943 210.188 347.815 210.237 347.697C210.287 347.578 210.359 347.47 210.451 347.379C210.821 346.969 247.513 306.806 266.454 286.207C266.538 286.103 266.643 286.017 266.761 285.956C266.88 285.894 267.01 285.857 267.143 285.848C267.277 285.839 267.411 285.857 267.537 285.902C267.663 285.946 267.778 286.016 267.876 286.107C267.974 286.198 268.052 286.309 268.105 286.431C268.159 286.554 268.186 286.686 268.187 286.82C268.187 286.954 268.159 287.086 268.106 287.209C268.053 287.331 267.975 287.442 267.878 287.533C248.917 308.132 212.265 348.296 211.894 348.706C211.792 348.813 211.667 348.896 211.529 348.95C211.391 349.004 211.242 349.027 211.094 349.018V349.018Z" fill="#231F20"/>
<path d="M398.2 202.953C398.027 202.956 397.856 202.912 397.705 202.826C397.554 202.74 397.429 202.616 397.342 202.466C393.44 195.443 383.687 195.619 383.687 195.6C383.429 195.6 383.181 195.497 382.998 195.314C382.815 195.131 382.712 194.883 382.712 194.624C382.712 194.366 382.815 194.117 382.998 193.935C383.181 193.752 383.429 193.649 383.687 193.649C384.116 193.649 394.572 193.454 399.078 201.451C399.204 201.677 399.236 201.943 399.167 202.191C399.097 202.44 398.932 202.651 398.707 202.778C398.558 202.883 398.382 202.943 398.2 202.953V202.953Z" fill="#231F20"/>
<path d="M342.497 255.156C342.303 255.164 342.111 255.109 341.951 255C321.059 240.604 310.389 201.22 309.941 199.562C309.873 199.303 309.912 199.029 310.047 198.798C310.182 198.568 310.404 198.4 310.662 198.333C310.921 198.266 311.196 198.304 311.426 198.44C311.657 198.575 311.824 198.796 311.891 199.055C311.989 199.465 322.834 239.414 343.102 253.381C343.209 253.453 343.3 253.546 343.371 253.654C343.442 253.762 343.491 253.883 343.514 254.01C343.538 254.137 343.536 254.268 343.509 254.394C343.481 254.52 343.429 254.64 343.355 254.746C343.26 254.883 343.131 254.993 342.981 255.065C342.83 255.137 342.663 255.168 342.497 255.156V255.156Z" fill="#222222"/>
<path d="M383.559 265.299C383.371 265.299 383.188 265.246 383.029 265.146C382.87 265.046 382.743 264.903 382.662 264.733C382.607 264.616 382.577 264.489 382.574 264.359C382.57 264.23 382.592 264.101 382.64 263.981C382.687 263.861 382.759 263.751 382.85 263.659C382.94 263.567 383.049 263.495 383.169 263.446C388.553 261.047 393.781 252.99 393.839 252.912C393.905 252.797 393.993 252.697 394.099 252.617C394.204 252.537 394.325 252.48 394.454 252.448C394.583 252.417 394.716 252.412 394.847 252.434C394.977 252.456 395.102 252.504 395.214 252.575C395.325 252.647 395.421 252.74 395.495 252.85C395.569 252.96 395.62 253.084 395.644 253.214C395.669 253.344 395.667 253.478 395.638 253.607C395.61 253.736 395.555 253.858 395.478 253.966C395.263 254.317 389.879 262.588 383.949 265.221C383.827 265.277 383.693 265.303 383.559 265.299V265.299Z" fill="#222222"/>
<path d="M336.255 328.129C336.03 328.129 335.812 328.052 335.638 327.909C335.463 327.767 335.344 327.569 335.299 327.349C335.104 326.354 330.422 302.829 338.712 288.336C338.827 288.156 338.996 288.018 339.195 287.942C339.393 287.865 339.612 287.855 339.817 287.911C340.022 287.968 340.204 288.089 340.335 288.257C340.466 288.425 340.54 288.63 340.546 288.843C340.511 295.116 341.458 301.356 343.355 307.335C343.421 307.458 343.459 307.594 343.468 307.734C343.477 307.873 343.456 308.012 343.406 308.143C343.356 308.273 343.279 308.391 343.179 308.489C343.08 308.587 342.961 308.663 342.83 308.711C342.699 308.759 342.559 308.778 342.419 308.767C342.28 308.756 342.145 308.716 342.023 308.648C341.901 308.581 341.794 308.488 341.711 308.376C341.628 308.264 341.57 308.135 341.541 307.999C339.885 303.118 338.927 298.029 338.693 292.881C333.212 306.789 337.171 326.666 337.21 326.881C337.239 327.006 337.241 327.137 337.218 327.263C337.195 327.39 337.147 327.511 337.075 327.618C337.004 327.726 336.912 327.818 336.805 327.889C336.697 327.96 336.576 328.009 336.45 328.032L336.255 328.129Z" fill="#222222"/>
<path d="M328.94 262.177C328.768 262.179 328.599 262.131 328.452 262.041C315.637 254.765 312.126 233.464 311.989 232.567C311.968 232.439 311.973 232.308 312.003 232.182C312.034 232.055 312.088 231.936 312.164 231.831C312.24 231.726 312.336 231.637 312.447 231.569C312.557 231.501 312.68 231.456 312.808 231.435C312.936 231.415 313.067 231.42 313.193 231.45C313.32 231.48 313.439 231.535 313.544 231.611C313.649 231.687 313.738 231.783 313.806 231.893C313.874 232.004 313.919 232.126 313.94 232.255C313.94 232.469 317.431 253.536 329.447 260.363C329.672 260.49 329.837 260.701 329.907 260.95C329.976 261.199 329.944 261.465 329.818 261.69C329.726 261.84 329.597 261.964 329.444 262.05C329.29 262.135 329.116 262.179 328.94 262.177V262.177Z" fill="#222222"/>
<path d="M221.217 209.801C221.014 209.802 220.815 209.739 220.65 209.619C220.485 209.5 220.363 209.331 220.3 209.138C220.258 209.016 220.241 208.887 220.249 208.759C220.258 208.63 220.292 208.505 220.351 208.39C220.409 208.275 220.49 208.174 220.588 208.091C220.687 208.008 220.801 207.946 220.925 207.909C221.139 207.909 244.176 200.36 261.888 201.179C262.149 201.194 262.393 201.311 262.568 201.504C262.743 201.698 262.835 201.952 262.824 202.213C262.825 202.342 262.799 202.47 262.747 202.588C262.695 202.706 262.618 202.812 262.522 202.898C262.427 202.985 262.314 203.05 262.191 203.09C262.068 203.13 261.938 203.143 261.81 203.13C244.469 202.349 221.802 209.684 221.588 209.762L221.217 209.801Z" fill="#222222"/>
<path d="M387.843 465.98H387.746C387.489 465.95 387.253 465.822 387.089 465.621C386.925 465.421 386.846 465.165 386.868 464.907C387.004 463.424 400.874 315.584 403 294.049C403.013 293.921 403.05 293.797 403.111 293.683C403.172 293.57 403.255 293.47 403.354 293.388C403.454 293.307 403.569 293.245 403.692 293.208C403.815 293.171 403.944 293.159 404.073 293.171C404.201 293.184 404.325 293.222 404.438 293.283C404.552 293.344 404.652 293.426 404.734 293.526C404.815 293.626 404.876 293.74 404.913 293.864C404.951 293.987 404.963 294.116 404.95 294.244C402.824 315.701 388.975 463.6 388.838 465.082C388.814 465.329 388.698 465.558 388.514 465.723C388.33 465.889 388.091 465.981 387.843 465.98V465.98Z" fill="#231F20"/>
<path d="M408.793 372.329H408.5C408.255 372.249 408.051 372.074 407.934 371.844C407.817 371.613 407.796 371.346 407.876 371.1L442.871 261.103C442.951 260.857 443.125 260.652 443.354 260.532C443.584 260.411 443.851 260.385 444.1 260.459C444.345 260.54 444.549 260.714 444.666 260.945C444.783 261.175 444.804 261.442 444.724 261.688L409.729 371.685C409.66 371.877 409.532 372.042 409.364 372.158C409.196 372.273 408.997 372.333 408.793 372.329V372.329Z" fill="#231F20"/>
<path d="M455.531 176.464C455.378 176.465 455.226 176.428 455.09 176.357C454.954 176.285 454.837 176.182 454.751 176.055C454.673 175.952 454.616 175.834 454.584 175.709C454.552 175.584 454.546 175.454 454.566 175.326C454.586 175.198 454.632 175.076 454.701 174.967C454.769 174.857 454.859 174.763 454.966 174.689L493.471 146.775C493.575 146.7 493.693 146.645 493.818 146.615C493.942 146.585 494.072 146.58 494.199 146.6C494.325 146.62 494.447 146.664 494.557 146.731C494.666 146.798 494.761 146.886 494.837 146.99C494.912 147.094 494.967 147.211 494.997 147.336C495.027 147.461 495.032 147.59 495.012 147.717C494.992 147.844 494.948 147.965 494.881 148.075C494.814 148.184 494.726 148.28 494.622 148.355L456.097 176.269C455.936 176.397 455.737 176.466 455.531 176.464Z" fill="#D1D3D4"/>
<path d="M463.137 190.04C462.924 190.038 462.717 189.967 462.547 189.837C462.378 189.706 462.257 189.524 462.201 189.318C462.166 189.195 462.156 189.066 462.171 188.939C462.186 188.812 462.227 188.69 462.291 188.579C462.355 188.468 462.44 188.371 462.542 188.293C462.644 188.216 462.76 188.16 462.884 188.128L499.127 178.199C499.38 178.139 499.647 178.178 499.872 178.309C500.097 178.439 500.263 178.652 500.336 178.901C500.402 179.15 500.367 179.414 500.24 179.637C500.112 179.859 499.901 180.023 499.654 180.091L463.391 190.001L463.137 190.04Z" fill="#D1D3D4"/>
<path d="M508.49 208.337H508.353L481.044 204.748C480.916 204.731 480.793 204.69 480.681 204.625C480.569 204.561 480.471 204.475 480.392 204.373C480.233 204.166 480.162 203.904 480.196 203.646C480.229 203.387 480.364 203.152 480.571 202.993C480.778 202.834 481.039 202.764 481.298 202.797L508.607 206.386C508.864 206.421 509.098 206.554 509.258 206.758C509.419 206.962 509.493 207.221 509.465 207.479C509.433 207.715 509.316 207.932 509.137 208.089C508.958 208.247 508.728 208.335 508.49 208.337Z" fill="#D1D3D4"/>
<path d="M503.498 230.263C503.362 230.29 503.223 230.29 503.088 230.263L488.614 223.689C488.498 223.637 488.393 223.561 488.306 223.468C488.219 223.374 488.152 223.264 488.108 223.144C488.065 223.024 488.046 222.897 488.052 222.769C488.058 222.642 488.09 222.517 488.146 222.402C488.252 222.167 488.448 221.983 488.689 221.892C488.93 221.8 489.198 221.808 489.433 221.914L503.966 228.312C504.224 228.364 504.452 228.516 504.598 228.736C504.745 228.955 504.798 229.224 504.746 229.482C504.694 229.741 504.542 229.969 504.322 230.115C504.103 230.261 503.834 230.314 503.576 230.263H503.498Z" fill="#D1D3D4"/>
</svg>
