<svg width="600" height="600" viewBox="0 0 600 600" fill="none" xmlns="http://www.w3.org/2000/svg">
<path d="M309.918 261.555H205.412V282.949H309.918V261.555Z" fill="#14548F"/>
<path d="M309.917 283.864H205.412C205.166 283.864 204.93 283.765 204.755 283.59C204.581 283.415 204.483 283.178 204.483 282.93V261.555C204.483 261.308 204.581 261.07 204.755 260.895C204.93 260.72 205.166 260.622 205.412 260.622H309.917C310.164 260.622 310.4 260.72 310.574 260.895C310.748 261.07 310.846 261.308 310.846 261.555V282.93C310.846 283.178 310.748 283.415 310.574 283.59C310.4 283.765 310.164 283.864 309.917 283.864V283.864ZM206.341 281.997H308.989V262.489H206.341V281.997Z" fill="#212121"/>
<path d="M293.983 245.482H198.522V261.555H293.983V245.482Z" fill="#003D75"/>
<path d="M293.983 262.488H198.522C198.276 262.488 198.04 262.39 197.866 262.215C197.692 262.04 197.594 261.802 197.594 261.555V245.482C197.594 245.234 197.692 244.997 197.866 244.822C198.04 244.647 198.276 244.548 198.522 244.548H293.983C294.229 244.548 294.466 244.647 294.64 244.822C294.814 244.997 294.912 245.234 294.912 245.482V261.555C294.907 261.801 294.808 262.036 294.635 262.21C294.461 262.384 294.228 262.483 293.983 262.488V262.488ZM199.451 260.621H293.055V246.415H199.451V260.621Z" fill="#212121"/>
<path d="M554.179 447.469H45.8222C45.5759 447.469 45.3397 447.371 45.1655 447.195C44.9914 447.02 44.8936 446.783 44.8936 446.535C44.8936 446.288 44.9914 446.05 45.1655 445.875C45.3397 445.7 45.5759 445.602 45.8222 445.602H554.179C554.425 445.602 554.661 445.7 554.835 445.875C555.009 446.05 555.107 446.288 555.107 446.535C555.107 446.783 555.009 447.02 554.835 447.195C554.661 447.371 554.425 447.469 554.179 447.469Z" fill="#D1D3D4"/>
<path d="M519.281 293.981H143.883V466.137H519.281V293.981Z" fill="#6B4A19"/>
<path d="M519.3 466.995H143.883C143.659 466.99 143.447 466.898 143.291 466.737C143.134 466.577 143.047 466.361 143.047 466.137V293.981C143.047 293.756 143.134 293.541 143.291 293.38C143.447 293.22 143.659 293.127 143.883 293.122H519.3C519.523 293.127 519.736 293.22 519.892 293.38C520.048 293.541 520.136 293.756 520.136 293.981V466.137C520.136 466.361 520.048 466.577 519.892 466.737C519.736 466.898 519.523 466.99 519.3 466.995V466.995ZM144.737 465.259H518.445V294.84H144.737V465.259Z" fill="#231F20"/>
<path d="M520.117 283.023H143.084C140.069 283.023 137.624 285.476 137.624 288.502C137.624 291.528 140.069 293.981 143.084 293.981H520.117C523.133 293.981 525.577 291.528 525.577 288.502C525.577 285.476 523.133 283.023 520.117 283.023Z" fill="#946D32"/>
<path d="M520.116 294.84H143.102C141.489 294.752 139.971 294.046 138.86 292.867C137.749 291.688 137.13 290.126 137.13 288.502C137.13 286.879 137.749 285.316 138.86 284.138C139.971 282.959 141.489 282.253 143.102 282.165H520.116C521.729 282.253 523.248 282.959 524.359 284.138C525.469 285.316 526.089 286.879 526.089 288.502C526.089 290.126 525.469 291.688 524.359 292.867C523.248 294.046 521.729 294.752 520.116 294.84ZM143.102 283.882C142.474 283.842 141.844 283.932 141.252 284.146C140.659 284.36 140.117 284.693 139.658 285.126C139.199 285.559 138.833 286.082 138.583 286.663C138.333 287.244 138.204 287.87 138.204 288.502C138.204 289.135 138.333 289.761 138.583 290.342C138.833 290.922 139.199 291.445 139.658 291.878C140.117 292.311 140.659 292.645 141.252 292.859C141.844 293.073 142.474 293.163 143.102 293.123H520.116C520.745 293.163 521.374 293.073 521.967 292.859C522.559 292.645 523.102 292.311 523.561 291.878C524.02 291.445 524.385 290.922 524.636 290.342C524.886 289.761 525.015 289.135 525.015 288.502C525.015 287.87 524.886 287.244 524.636 286.663C524.385 286.082 524.02 285.559 523.561 285.126C523.102 284.693 522.559 284.36 521.967 284.146C521.374 283.932 520.745 283.842 520.116 283.882H143.102Z" fill="#231F20"/>
<path d="M101.873 382.747C102.046 380.049 101.474 377.355 100.22 374.963C98.976 373.39 97.8167 371.751 96.7475 370.053C95.2803 366.898 96.3018 363.183 95.9675 359.711C95.6304 356.788 94.3216 354.065 92.253 351.982C90.3958 350.116 88.1115 348.883 86.3843 346.979C83.5613 343.843 82.6698 339.512 81.1469 335.499C78.8536 329.968 74.8995 325.295 69.8365 322.132C72.9194 328.367 65.8806 336.301 69.075 342.48C70.0779 344.44 72.0094 345.878 72.7894 347.95C74.6467 352.972 68.6293 358.404 70.5236 363.388C71.4708 365.871 74.1266 367.309 75.3524 369.661C77.0239 372.834 75.7053 376.699 75.8538 380.283C76.0396 385.23 79.0297 389.617 82.5955 393.089C84.8056 395.217 87.2757 397.065 89.6715 398.988C92.5316 401.303 93.7388 403.73 96.2646 400.015C99.7682 394.931 101.718 388.929 101.873 382.747V382.747Z" fill="#231F20"/>
<path d="M104.994 385.585C104.065 381.851 103.415 377.595 104.994 373.992C106.851 369.904 111.141 367.01 111.642 362.586C111.977 359.692 110.51 356.761 111.085 353.905C111.661 351.049 114.001 349.089 115.914 346.979C120.323 342.103 122.944 335.859 123.343 329.282C126.298 332.814 128.685 336.789 130.419 341.062C131.268 343.209 131.617 345.523 131.44 347.826C131.263 350.13 130.564 352.363 129.397 354.353C128.64 355.234 128.014 356.222 127.54 357.284C126.686 360.103 129.082 362.754 130.326 365.423C131.062 366.951 131.37 368.652 131.217 370.343C131.063 372.034 130.453 373.65 129.453 375.019C126.927 378.174 122.024 379.387 120.836 383.233C120.526 384.667 120.382 386.133 120.408 387.601C120.144 390.144 119.129 392.55 117.494 394.509C115.86 396.469 113.679 397.892 111.234 398.596C108.262 399.324 108.318 398.13 107.779 395.609C107.167 392.231 105.866 388.964 104.994 385.585Z" fill="#231F20"/>
<path d="M95.5768 358.05C93.4781 350.695 92.6238 343.004 90.3952 335.649C88.4932 329.924 86.178 324.346 83.4678 318.959L92.5495 322.824C95.4654 324.056 98.6041 325.512 99.9784 328.424C102.374 333.408 98.1212 339.774 100.591 344.703C101.679 346.297 102.877 347.813 104.176 349.239C106.85 352.972 106.441 358.2 104.974 362.586C104.343 364.453 101.594 374.235 99.1426 371.528C98.1583 370.446 98.0655 366.395 97.6569 364.901C97.0254 362.586 96.2454 360.346 95.5768 358.05Z" fill="#231F20"/>
<path d="M100.406 455.795C98.5483 443.773 92.9767 401.397 92.8652 400.967L94.7224 400.725C94.7224 401.135 100.443 443.511 102.263 455.515L100.406 455.795Z" fill="#231F20"/>
<path d="M102.82 467.126H100.963C100.963 452.826 107.017 398.204 110.435 394.433L111.809 395.703C109.209 398.559 102.932 451.277 102.82 467.126Z" fill="#231F20"/>
<path d="M105.902 464.42L104.045 464.327C105.382 433.562 98.9005 368.933 98.8262 368.28L100.683 368.093C100.739 368.747 107.258 433.524 105.902 464.42Z" fill="#231F20"/>
<path d="M84.9902 421.315H118.791L116.414 459.902C116.006 466.566 111.084 471.756 105.16 471.756H98.6222C92.6791 471.756 87.7575 466.566 87.3489 459.902L84.9902 421.315Z" fill="#96EABE"/>
<path d="M105.16 472.727H98.6223C92.2149 472.727 86.8476 467.127 86.4018 459.977L84.0432 421.39C84.0346 421.262 84.0516 421.133 84.093 421.011C84.1345 420.89 84.1996 420.777 84.2846 420.681C84.4724 420.493 84.7255 420.386 84.9904 420.382H118.792C118.92 420.384 119.047 420.411 119.165 420.462C119.283 420.513 119.39 420.588 119.479 420.681C119.57 420.774 119.64 420.885 119.685 421.007C119.73 421.13 119.748 421.26 119.739 421.39L117.38 459.977C116.934 467.127 111.567 472.727 105.16 472.727ZM86.0118 422.324L88.2776 459.828C88.6491 465.969 93.1807 470.786 98.5852 470.786H105.123C110.527 470.786 115.059 465.969 115.43 459.828L117.77 422.324H86.0118Z" fill="#231F20"/>
<path d="M234.441 94.9248H117.808V224.07H234.441V94.9248Z" fill="#0085FF"/>
<path d="M234.422 225.003H117.808C117.561 225.003 117.325 224.905 117.151 224.73C116.977 224.555 116.879 224.318 116.879 224.07V94.9251C116.879 94.6775 116.977 94.4401 117.151 94.2651C117.325 94.09 117.561 93.9917 117.808 93.9917H234.422C234.668 93.9917 234.904 94.09 235.079 94.2651C235.253 94.4401 235.351 94.6775 235.351 94.9251V224.07C235.351 224.318 235.253 224.555 235.079 224.73C234.904 224.905 234.668 225.003 234.422 225.003ZM118.736 223.137H233.493V95.8585H118.736V223.137Z" fill="#D1D3D4"/>
<path d="M144.644 200.025C144.516 200.053 144.383 200.053 144.254 200.025L140.02 198.046C139.831 197.958 139.678 197.809 139.583 197.623C139.489 197.437 139.46 197.225 139.5 197.02C141.469 186.659 147.672 181.712 154.228 176.485C158.563 173.279 162.46 169.513 165.817 165.284C171.593 157.612 170.887 153.635 170.07 149.006C169.319 145.857 169.274 142.579 169.94 139.41C172.28 129.292 182.364 118.689 182.792 118.241C182.932 118.091 183.118 117.993 183.32 117.963C183.522 117.932 183.728 117.971 183.906 118.073L190.035 121.527C190.161 121.601 190.269 121.703 190.35 121.826C190.43 121.949 190.481 122.09 190.499 122.236C190.51 122.385 190.487 122.535 190.433 122.674C190.378 122.813 190.293 122.938 190.183 123.039C186.896 125.921 184.553 129.734 183.46 133.978C188.307 133.623 205.357 133.343 209.183 146.262C213.881 162.148 206.582 183.597 183.794 192.334C168.25 198.233 164.721 192.203 162.158 187.798C160.672 185.259 159.874 184.064 157.738 184.68C150.309 186.827 145.554 199.316 145.517 199.428C145.473 199.549 145.403 199.66 145.314 199.754C145.224 199.847 145.117 199.92 144.997 199.969C144.885 200.014 144.765 200.034 144.644 200.025V200.025ZM141.469 196.572L144.143 197.822C145.443 194.705 150.049 184.923 157.143 182.888C160.765 181.843 162.251 184.381 163.681 186.846C166.039 190.897 168.974 195.918 183.052 190.579C207.437 181.339 210.91 158.844 207.325 146.803C203.388 133.511 182.569 135.92 182.346 135.938C182.207 135.956 182.067 135.942 181.935 135.897C181.803 135.851 181.683 135.776 181.584 135.677C181.487 135.576 181.411 135.456 181.363 135.324C181.315 135.192 181.295 135.052 181.306 134.911C182.13 130.175 184.456 125.833 187.936 122.535L183.572 120.052C181.51 122.311 173.617 131.439 171.685 139.84C171.078 142.763 171.122 145.785 171.815 148.688C172.633 153.318 173.487 158.022 167.228 166.404C163.79 170.698 159.806 174.521 155.379 177.773C148.99 182.944 143.437 187.368 141.469 196.572V196.572Z" fill="#231F20"/>
<path d="M220.79 198.308H199.06C198.814 198.308 198.578 198.209 198.404 198.034C198.23 197.859 198.132 197.622 198.132 197.374C198.132 197.127 198.23 196.889 198.404 196.714C198.578 196.539 198.814 196.441 199.06 196.441H220.79C221.036 196.441 221.272 196.539 221.446 196.714C221.621 196.889 221.718 197.127 221.718 197.374C221.714 197.62 221.614 197.855 221.441 198.029C221.268 198.203 221.035 198.303 220.79 198.308Z" fill="#D1D3D4"/>
<path d="M220.79 204.71H199.06C198.814 204.71 198.578 204.612 198.404 204.437C198.23 204.262 198.132 204.025 198.132 203.777C198.132 203.53 198.23 203.292 198.404 203.117C198.578 202.942 198.814 202.844 199.06 202.844H220.79C221.035 202.849 221.268 202.948 221.441 203.122C221.614 203.296 221.714 203.531 221.718 203.777C221.718 204.025 221.621 204.262 221.446 204.437C221.272 204.612 221.036 204.71 220.79 204.71Z" fill="#D1D3D4"/>
<path d="M214.791 211.992H198.689C198.445 211.987 198.211 211.887 198.038 211.713C197.865 211.539 197.765 211.304 197.761 211.058C197.761 210.811 197.859 210.573 198.033 210.398C198.207 210.223 198.443 210.125 198.689 210.125H214.791C215.038 210.125 215.274 210.223 215.448 210.398C215.622 210.573 215.72 210.811 215.72 211.058C215.715 211.304 215.616 211.539 215.443 211.713C215.27 211.887 215.036 211.987 214.791 211.992V211.992Z" fill="#D1D3D4"/>
<path d="M153.021 115.254H127.8C127.555 115.25 127.321 115.15 127.148 114.976C126.975 114.802 126.876 114.567 126.871 114.321C126.871 114.074 126.969 113.836 127.143 113.661C127.317 113.486 127.553 113.388 127.8 113.388H153.021C153.267 113.388 153.503 113.486 153.677 113.661C153.851 113.836 153.949 114.074 153.949 114.321C153.949 114.569 153.851 114.806 153.677 114.981C153.503 115.156 153.267 115.254 153.021 115.254Z" fill="#D1D3D4"/>
<path d="M153.021 124.364H127.8C127.555 124.359 127.321 124.259 127.148 124.085C126.975 123.911 126.876 123.677 126.871 123.43C126.871 123.183 126.969 122.946 127.143 122.77C127.317 122.595 127.553 122.497 127.8 122.497H153.021C153.267 122.497 153.503 122.595 153.677 122.77C153.851 122.946 153.949 123.183 153.949 123.43C153.949 123.678 153.851 123.915 153.677 124.09C153.503 124.266 153.267 124.364 153.021 124.364Z" fill="#D1D3D4"/>
<path d="M222.518 106.126H127.8C127.553 106.126 127.317 106.027 127.143 105.852C126.969 105.677 126.871 105.44 126.871 105.192C126.876 104.946 126.975 104.711 127.148 104.537C127.321 104.363 127.555 104.264 127.8 104.259H222.518C222.764 104.259 223 104.357 223.174 104.532C223.348 104.707 223.446 104.945 223.446 105.192C223.446 105.44 223.348 105.677 223.174 105.852C223 106.027 222.764 106.126 222.518 106.126Z" fill="#D1D3D4"/>
<path d="M402.964 477.637L400.754 505.079C400.754 505.079 360.973 512.21 350.609 512.21C340.246 512.21 341.323 505.994 357.091 496.51C369.479 489.043 379.062 488.203 379.062 488.203L380.306 475.416L402.964 477.637Z" fill="#212121"/>
<path d="M350.646 513.068C345.075 513.068 343.552 511.332 343.217 509.876C342.066 505.62 349.941 499.87 356.775 495.782C363.388 491.645 370.725 488.813 378.393 487.437L379.563 475.322C379.591 475.099 379.703 474.896 379.876 474.753C380.048 474.611 380.269 474.54 380.492 474.556L403.131 476.778C403.353 476.806 403.555 476.918 403.697 477.092C403.839 477.266 403.909 477.487 403.893 477.711L401.683 505.153C401.668 505.342 401.59 505.52 401.462 505.659C401.334 505.798 401.163 505.89 400.977 505.919C399.287 506.217 360.917 513.068 350.646 513.068ZM381.105 476.349L379.935 488.277C379.918 488.475 379.832 488.66 379.693 488.8C379.554 488.94 379.369 489.026 379.173 489.043C371.502 490.3 364.158 493.087 357.574 497.238C347.359 503.361 344.276 507.543 344.777 509.428C345.13 510.66 347.266 511.295 350.646 511.295C360.062 511.295 394.792 505.228 399.974 504.294L402.147 478.327L381.105 476.349Z" fill="#231F20"/>
<path d="M457.232 478.066C458.561 483.801 459.018 489.704 458.588 495.577C457.567 503.137 457.065 513.311 458.83 519.397C460.594 525.483 468.357 531.942 474.43 527.872C480.503 523.802 480.15 504.462 479.148 499.422C478.145 494.382 475.433 481.128 475.767 474.015L457.232 478.066Z" fill="#212121"/>
<path d="M470.288 530C469.164 529.99 468.052 529.781 467 529.384C464.882 528.527 462.978 527.208 461.427 525.523C459.876 523.839 458.716 521.829 458.03 519.639C455.783 511.967 457.25 499.198 457.751 495.464C458.158 489.698 457.707 483.904 456.414 478.271C456.387 478.16 456.382 478.045 456.401 477.933C456.421 477.82 456.463 477.713 456.526 477.618C456.58 477.521 456.655 477.438 456.745 477.373C456.835 477.309 456.937 477.265 457.046 477.244L475.618 473.175C475.745 473.149 475.876 473.152 476.001 473.184C476.127 473.216 476.243 473.277 476.342 473.361C476.443 473.444 476.522 473.55 476.574 473.67C476.626 473.791 476.648 473.921 476.639 474.052C476.323 480.81 478.812 493.355 479.889 498.694L480.001 499.254C480.929 503.939 481.561 524.138 474.912 528.581C473.549 529.513 471.936 530.008 470.288 530V530ZM458.253 478.719C459.489 484.284 459.883 490.005 459.423 495.688C458.94 499.328 457.566 511.799 459.646 519.173C460.271 521.098 461.303 522.864 462.672 524.349C464.041 525.835 465.714 527.005 467.576 527.778C468.608 528.204 469.727 528.371 470.837 528.264C471.947 528.156 473.014 527.778 473.946 527.162C479.518 523.429 479.351 504.761 478.311 499.59L478.199 499.03C477.178 493.896 474.856 482.229 474.893 475.079L458.253 478.719Z" fill="#231F20"/>
<path d="M431.863 244.66C428.39 242.476 378.004 240.927 378.004 240.927C378.004 240.927 374.605 409.442 378.914 482.415H404.005C404.005 482.415 429.17 373.413 424.842 334.939C424.842 334.939 452.608 443.343 453.592 485.85H482.23C482.23 485.85 486.465 386.313 476.046 342.256C465.627 298.2 431.863 244.66 431.863 244.66Z" fill="#231F20"/>
<path d="M482.25 486.616H453.611C453.398 486.616 453.193 486.532 453.04 486.382C452.887 486.232 452.799 486.028 452.794 485.814C451.977 450.755 432.643 369.755 426.162 343.47C426.719 387.209 405.064 481.613 404.822 482.584C404.783 482.767 404.682 482.93 404.537 483.046C404.391 483.162 404.21 483.223 404.024 483.219H378.858C378.648 483.219 378.446 483.138 378.293 482.991C378.141 482.845 378.051 482.646 378.041 482.435C373.788 410.283 377.094 242.589 377.131 240.89C377.134 240.781 377.159 240.674 377.203 240.574C377.248 240.475 377.312 240.386 377.391 240.311C377.468 240.233 377.561 240.173 377.664 240.134C377.767 240.096 377.876 240.08 377.986 240.087C383.149 240.255 428.688 241.73 432.235 243.97C432.343 244.033 432.433 244.123 432.495 244.232C432.829 244.754 466.538 298.369 476.864 342.014C487.19 385.66 483.104 484.843 483.067 485.758C483.075 485.869 483.059 485.981 483.021 486.086C482.983 486.192 482.924 486.288 482.847 486.369C482.77 486.45 482.677 486.513 482.574 486.556C482.471 486.599 482.361 486.619 482.25 486.616V486.616ZM454.391 484.974H481.451C481.804 475.49 485.035 383.775 475.248 342.406C465.275 300.254 433.368 248.749 431.195 245.333C427.963 243.858 397.858 242.402 378.728 241.805C378.487 254.704 375.59 411.683 379.62 481.613H403.355C405.417 472.597 428.13 371.472 424.026 335.014C424.011 334.812 424.07 334.612 424.193 334.452C424.316 334.291 424.493 334.182 424.691 334.145C424.889 334.108 425.094 334.146 425.266 334.251C425.438 334.356 425.565 334.522 425.623 334.715C425.92 335.761 453.11 442.299 454.41 484.974H454.391Z" fill="#231F20"/>
<path d="M469.954 137.918C468.815 136.213 467.738 134.495 466.723 132.765C463.06 126.571 460.131 119.967 457.994 113.089C455.802 106.014 456.044 98.1549 453.834 91.2851C450.881 82.0818 440.629 74.7453 431.714 72.2065C413.031 66.8861 392.304 77.6015 386.602 96.4748C385.395 101.206 384.814 106.077 384.875 110.961C384.355 128.061 383.829 145.155 383.297 162.242C382.814 178.147 380.306 193.809 389.834 207.68C398.154 219.814 412.752 226.348 427.294 228.215C448.485 230.921 472.127 223.286 483.363 205.029C486.51 199.838 488.567 194.055 489.407 188.036C490.247 182.016 489.853 175.887 488.248 170.027C484.905 158.098 476.807 148.316 469.954 137.918Z" fill="#620000"/>
<path d="M435.577 229.595C432.801 229.594 430.029 229.419 427.275 229.073C410.764 226.963 396.91 219.328 389.221 208.127C380.919 196.031 381.569 182.926 382.238 169.037C382.368 166.759 382.479 164.482 382.535 162.186L384.132 110.905C384.066 105.945 384.653 100.999 385.878 96.1943C391.617 77.2464 412.752 65.8962 432.048 71.3846C440.74 73.8675 451.549 81.0546 454.725 91.0233C455.764 94.6291 456.479 98.3216 456.86 102.056C457.229 105.699 457.913 109.303 458.903 112.827C461.022 119.644 463.92 126.19 467.539 132.335C468.468 133.904 469.508 135.584 470.752 137.45C472.182 139.616 473.668 141.781 475.154 143.928C480.726 151.937 486.464 160.244 489.157 169.802C490.789 175.779 491.189 182.027 490.334 188.165C489.478 194.303 487.384 200.2 484.18 205.495C473.594 222.576 453.406 229.595 435.577 229.595ZM422.038 71.702C406.679 71.702 392.025 81.708 387.512 96.6984C386.327 101.357 385.759 106.153 385.822 110.961L384.243 162.223C384.243 164.538 384.058 166.834 383.946 169.13C383.278 182.702 382.646 195.526 390.614 207.157C398.043 217.965 411.47 225.321 427.479 227.374C446.516 229.819 470.975 223.64 482.731 204.599C485.793 199.504 487.788 193.836 488.596 187.939C489.404 182.043 489.007 176.043 487.43 170.306C484.83 160.972 479.166 152.833 473.687 144.936C472.182 142.771 470.678 140.605 469.229 138.421C467.985 136.554 466.927 134.837 465.979 133.25C462.295 126.994 459.347 120.328 457.195 113.387C456.168 109.767 455.46 106.063 455.078 102.317C454.715 98.6841 454.025 95.0914 453.016 91.5833C450.156 82.6414 440.016 75.4916 431.491 73.0647C428.386 72.1715 425.174 71.7129 421.945 71.702H422.038Z" fill="#231F20"/>
<path d="M415.5 152.329C415.5 152.329 391.17 166.087 386.453 189.776C381.736 213.466 387.029 266.67 387.029 266.67L447.24 264.15C447.24 264.15 441.352 197.076 447.24 178.277C453.127 159.478 452.941 154.214 447.24 152.347C441.538 150.48 426.067 140.549 415.5 152.329Z" fill="#0085FF"/>
<path d="M387.03 267.529C386.819 267.525 386.617 267.443 386.462 267.298C386.308 267.153 386.212 266.956 386.194 266.745C386.194 266.222 380.938 213.168 385.618 189.609C390.187 166.685 413.049 152.777 414.962 151.657C424.248 141.483 437.119 147.102 444.065 150.126C445.421 150.724 446.609 151.228 447.501 151.526C453.89 153.617 454.019 159.423 448.039 178.52C442.282 196.964 448.039 263.403 448.039 264.075C448.055 264.306 447.982 264.533 447.835 264.71C447.758 264.797 447.663 264.867 447.558 264.915C447.452 264.963 447.338 264.989 447.222 264.99L387.03 267.51V267.529ZM428.149 147.513C425.868 147.466 423.606 147.925 421.523 148.858C419.439 149.79 417.586 151.173 416.095 152.908C416.03 152.975 415.955 153.032 415.872 153.076C415.631 153.225 391.729 166.927 387.253 189.945C382.925 211.675 387.123 259.016 387.754 265.774L446.275 263.329C445.569 254.984 440.815 195.807 446.386 177.998C452.497 158.452 451.549 154.663 446.925 153.151C445.959 152.833 444.752 152.31 443.359 151.694C439.292 149.94 433.72 147.513 428.149 147.513Z" fill="#231F20"/>
<path d="M416.188 144.414C416.188 144.414 418.045 147.139 413.773 156.548C409.706 164.276 405.49 199.129 404.617 211.058C402.89 234.897 396.761 390.588 396.761 390.588L355.717 387.62C355.717 387.62 373.955 209.359 378.003 188.563C379.807 178.423 384.309 168.964 391.032 161.19C397.756 153.417 406.449 147.619 416.188 144.414V144.414Z" fill="#FFC500"/>
<path d="M409.354 147.139C409.354 147.139 389.704 154.42 381.83 161.812C373.955 169.205 339.764 233.198 339.764 233.198L362.05 245.053L389.147 212.16" fill="#FFC500"/>
<path d="M370.035 234.001C369.682 234.001 369.125 233.833 368.847 232.825C368.794 232.608 368.827 232.378 368.937 232.184C369.048 231.989 369.228 231.845 369.441 231.78C369.618 231.733 369.803 231.733 369.98 231.78C371.967 226.889 376.498 198.849 379.043 181.227C379.059 181.117 379.096 181.011 379.153 180.915C379.209 180.819 379.284 180.735 379.373 180.668C379.462 180.602 379.563 180.553 379.67 180.526C379.778 180.498 379.89 180.492 379.999 180.508C380.109 180.524 380.215 180.562 380.31 180.619C380.405 180.676 380.489 180.751 380.555 180.84C380.621 180.929 380.67 181.031 380.697 181.139C380.724 181.247 380.73 181.359 380.714 181.47C373.174 233.74 370.945 233.927 370.091 233.983L370.035 234.001Z" fill="#231F20"/>
<path d="M413.7 138.048L413.589 156.548C413.589 156.548 415.446 166.89 426.589 163.735C429.892 162.778 432.939 161.091 435.51 158.798C438.081 156.505 440.109 153.663 441.447 150.481L440.184 118.447C438.711 112.848 438.085 107.058 438.327 101.272C424.713 101.048 414.016 90.7246 414.016 90.7246C414.016 90.7246 409.335 97.7811 407.311 100.059C405.672 101.735 404.255 103.618 403.095 105.659C401.238 109.206 401.238 113.668 401.368 117.606C401.414 122.281 401.88 126.942 402.761 131.533C404.655 140.195 413.7 138.048 413.7 138.048Z" fill="#FFDFAF"/>
<path d="M422.688 165.191C420.836 165.224 419.013 164.726 417.432 163.753C415.032 162.089 413.357 159.564 412.752 156.697L412.864 139.056C410.436 139.383 407.969 138.898 405.843 137.674C404.828 136.987 403.964 136.097 403.306 135.06C402.648 134.022 402.209 132.86 402.018 131.644C401.118 127.006 400.652 122.294 400.625 117.569C400.532 113.835 400.42 109 402.482 105.192C403.657 103.073 405.099 101.116 406.772 99.3676C408.741 97.2021 413.347 90.2389 413.402 90.1829C413.466 90.0749 413.555 89.9844 413.662 89.9193C413.769 89.8541 413.89 89.8165 414.015 89.8096C414.136 89.793 414.259 89.8046 414.375 89.8434C414.491 89.8823 414.597 89.9473 414.684 90.0336C414.795 90.1269 425.326 100.133 438.438 100.338C438.549 100.34 438.659 100.364 438.761 100.409C438.863 100.454 438.955 100.518 439.032 100.6C439.115 100.683 439.18 100.782 439.225 100.891C439.269 101 439.292 101.117 439.292 101.234C439.037 106.451 439.544 111.678 440.796 116.747C440.957 117.277 441.069 117.821 441.13 118.372C441.13 118.577 442.393 150.406 442.393 150.406C442.413 150.511 442.413 150.618 442.393 150.723C441.019 154.041 438.917 157.005 436.245 159.394C433.573 161.782 430.399 163.534 426.96 164.519C425.575 164.944 424.137 165.17 422.688 165.191V165.191ZM414.442 156.547C414.692 157.828 415.224 159.035 416.001 160.08C416.777 161.126 417.778 161.982 418.928 162.586C420.078 163.19 421.349 163.527 422.646 163.57C423.943 163.614 425.233 163.364 426.421 162.839C429.57 161.923 432.479 160.321 434.942 158.146C437.404 155.971 439.358 153.278 440.666 150.256L439.403 118.372C439.35 117.954 439.263 117.542 439.143 117.139C437.895 112.202 437.364 107.109 437.565 102.018C426.068 101.496 416.894 94.2339 414.257 91.9377C412.325 94.9066 410.243 97.7728 408.016 100.525C406.442 102.15 405.07 103.962 403.931 105.92C402.073 109.336 402.222 113.649 402.315 117.438C402.343 122.064 402.803 126.676 403.689 131.215C403.834 132.207 404.182 133.158 404.709 134.009C405.236 134.86 405.932 135.593 406.754 136.162C408.822 137.28 411.217 137.624 413.514 137.133C413.639 137.108 413.769 137.11 413.894 137.139C414.019 137.168 414.136 137.223 414.238 137.301C414.337 137.382 414.417 137.484 414.472 137.601C414.527 137.717 414.555 137.844 414.554 137.973L414.442 156.473V156.547Z" fill="#231F20"/>
<path d="M413.811 147.139C418.349 147.215 422.743 145.538 426.087 142.454C427.454 141.179 428.527 139.62 429.233 137.885C429.939 136.151 430.259 134.282 430.173 132.41C430.173 132.41 422.094 137.861 413.699 138.011L413.811 147.139Z" fill="#231F20"/>
<path d="M414.145 147.904H413.773C413.563 147.895 413.365 147.804 413.219 147.651C413.074 147.498 412.993 147.294 412.993 147.083L412.882 137.991C412.882 137.777 412.965 137.571 413.115 137.417C413.264 137.264 413.467 137.175 413.68 137.17C421.741 136.983 429.652 131.719 429.727 131.682C429.845 131.613 429.98 131.577 430.117 131.577C430.254 131.577 430.388 131.613 430.507 131.682C430.634 131.737 430.746 131.825 430.83 131.936C430.915 132.047 430.97 132.178 430.99 132.316C431.097 134.314 430.766 136.31 430.022 138.165C429.277 140.019 428.137 141.687 426.681 143.05C423.273 146.219 418.787 147.956 414.145 147.904V147.904ZM414.535 138.776L414.628 146.243C418.665 146.165 422.532 144.597 425.492 141.837C427.679 139.707 429.053 136.873 429.374 133.829C424.857 136.58 419.789 138.288 414.535 138.832V138.776Z" fill="#231F20"/>
<path d="M420.218 111.465C420.218 111.465 414.312 120.351 415.705 121.9C417.098 123.45 421.054 122.423 421.054 122.423" fill="#FFDFAF"/>
<path d="M418.454 123.636C417.85 123.687 417.243 123.613 416.668 123.421C416.094 123.228 415.564 122.92 415.111 122.516C413.495 120.761 417.191 114.582 419.55 111.054C419.671 110.873 419.858 110.748 420.07 110.706C420.283 110.664 420.503 110.709 420.683 110.83C420.864 110.955 420.988 111.146 421.03 111.363C421.072 111.579 421.027 111.804 420.906 111.987C418.101 116.188 415.965 120.593 416.337 121.433C417.117 122.292 419.717 121.975 420.85 121.676C420.955 121.648 421.064 121.641 421.172 121.656C421.279 121.671 421.383 121.708 421.476 121.763C421.569 121.819 421.651 121.893 421.715 121.98C421.78 122.068 421.827 122.167 421.853 122.273C421.904 122.486 421.87 122.71 421.759 122.899C421.648 123.087 421.469 123.224 421.258 123.281C420.34 123.507 419.399 123.626 418.454 123.636Z" fill="#231F20"/>
<path d="M412.832 109.91C412.874 108.849 412.45 107.971 411.887 107.949C411.323 107.926 410.832 108.769 410.791 109.83C410.749 110.891 411.173 111.769 411.737 111.791C412.3 111.814 412.791 110.971 412.832 109.91Z" fill="#231F20"/>
<path d="M426.85 108.172C426.891 107.111 426.468 106.233 425.904 106.21C425.341 106.188 424.85 107.03 424.808 108.091C424.767 109.152 425.19 110.031 425.754 110.053C426.318 110.075 426.808 109.233 426.85 108.172Z" fill="#231F20"/>
<path d="M416.188 127.127L420.905 125.914C420.905 125.914 421.871 132.821 419.215 133.381C416.559 133.941 416.188 127.127 416.188 127.127Z" fill="#FFDFAF"/>
<path d="M418.861 134.296C418.384 134.298 417.92 134.141 417.542 133.848C415.685 132.41 415.369 127.687 415.332 127.164C415.322 126.975 415.378 126.787 415.489 126.634C415.601 126.481 415.762 126.372 415.945 126.324L420.663 125.111C420.774 125.081 420.89 125.075 421.004 125.093C421.118 125.111 421.227 125.153 421.323 125.217C421.42 125.28 421.502 125.363 421.564 125.461C421.626 125.559 421.667 125.668 421.684 125.783C421.851 127.071 422.594 133.493 419.362 134.24C419.198 134.277 419.03 134.295 418.861 134.296V134.296ZM417.004 127.743C417.032 129.452 417.562 131.115 418.527 132.522C418.594 132.561 418.671 132.582 418.75 132.582C418.828 132.582 418.905 132.561 418.972 132.522C420.124 132.261 420.347 129.255 420.142 126.922L417.004 127.743Z" fill="#231F20"/>
<path d="M434.11 108.944C434.809 106.641 435.979 104.511 437.546 102.69C438.347 101.79 439.4 101.155 440.567 100.868C441.734 100.581 442.96 100.657 444.084 101.085C446.442 102.261 447.241 105.285 447.241 107.936C447.16 110.958 446.615 113.949 445.625 116.803C445.192 118.539 444.322 120.133 443.099 121.433C442.473 122.063 441.659 122.471 440.781 122.596C439.903 122.72 439.009 122.555 438.233 122.124" fill="#FFDFAF"/>
<path d="M440.035 123.505C439.226 123.519 438.434 123.278 437.769 122.815C437.675 122.755 437.594 122.676 437.531 122.583C437.468 122.49 437.425 122.385 437.404 122.275C437.384 122.165 437.385 122.052 437.41 121.942C437.434 121.833 437.48 121.729 437.546 121.639C437.608 121.546 437.687 121.467 437.779 121.405C437.872 121.344 437.976 121.301 438.084 121.28C438.193 121.26 438.305 121.261 438.414 121.284C438.522 121.307 438.625 121.351 438.716 121.415C439.333 121.734 440.035 121.846 440.72 121.736C441.406 121.625 442.037 121.296 442.523 120.799C443.67 119.617 444.478 118.147 444.863 116.542C445.844 113.777 446.377 110.871 446.442 107.936C446.442 106.816 446.256 103.083 443.749 101.851C442.784 101.5 441.737 101.45 440.743 101.706C439.749 101.962 438.855 102.514 438.177 103.288C436.697 105.034 435.591 107.067 434.927 109.262C434.844 109.471 434.683 109.639 434.478 109.73C434.273 109.821 434.041 109.827 433.832 109.747C433.62 109.667 433.449 109.507 433.355 109.3C433.261 109.094 433.252 108.859 433.33 108.646C434.098 106.219 435.364 103.98 437.045 102.075C437.967 101.071 439.168 100.367 440.492 100.054C441.816 99.7415 443.202 99.834 444.473 100.32C447.761 101.944 448.188 106.2 448.188 107.936C448.128 111.049 447.57 114.131 446.535 117.065C446.067 118.939 445.12 120.657 443.786 122.049C442.76 122.987 441.422 123.506 440.035 123.505V123.505Z" fill="#231F20"/>
<path d="M442.504 146.897C442.504 146.897 436.394 196.087 436.394 222.073C436.394 251.942 435.893 393.258 435.893 393.258L503.848 390.346C503.848 390.346 476.194 305.22 473.111 270.572C471.254 248.656 469.397 189.591 470.344 174.021C471.291 158.452 442.504 146.897 442.504 146.897Z" fill="#FFC500"/>
<path d="M374.865 222.072L404.803 289.52H346.672L317.495 223.584L374.865 222.072Z" fill="#E3E3E3"/>
<path d="M404.803 290.378H346.672C346.506 290.375 346.345 290.324 346.207 290.231C346.068 290.138 345.959 290.008 345.892 289.855L316.716 223.939C316.647 223.816 316.611 223.678 316.611 223.538C316.611 223.397 316.647 223.259 316.716 223.136C316.789 223.018 316.89 222.919 317.01 222.847C317.129 222.776 317.264 222.734 317.403 222.726L374.753 221.213C374.923 221.201 375.091 221.244 375.235 221.334C375.378 221.425 375.489 221.559 375.552 221.717L405.49 289.165C405.559 289.291 405.594 289.432 405.594 289.575C405.594 289.719 405.559 289.86 405.49 289.986C405.417 290.103 405.316 290.201 405.196 290.269C405.076 290.337 404.941 290.375 404.803 290.378V290.378ZM347.23 288.661H403.485L374.289 222.931L318.777 224.406L347.23 288.661Z" fill="#231F20"/>
<path d="M427.033 279.738C414.813 280.167 401.979 277.18 390.409 281.605L382.497 284.666C382.545 283.765 382.829 282.893 383.322 282.138C383.815 281.384 384.498 280.775 385.302 280.373C386.916 279.607 388.447 278.675 389.87 277.591L383.147 280.839C381.847 281.455 379.934 281.922 379.247 280.653C381.843 278.056 384.743 275.787 387.883 273.895C385.47 275.07 382.99 276.099 380.454 276.975C378.857 277.516 376.74 277.908 375.7 276.602C378.49 274.425 381.631 272.745 384.986 271.636L378.69 273.503C377.963 273.782 377.181 273.891 376.406 273.82C376.021 273.764 375.668 273.575 375.407 273.285C375.146 272.996 374.993 272.624 374.976 272.233C375.042 271.911 375.176 271.606 375.368 271.339C375.56 271.072 375.806 270.848 376.09 270.684C380.359 267.408 385.302 265.131 390.558 264.019C390.056 262.675 387.437 255.507 388.385 254.275C389.332 253.043 392.879 259.632 398.432 260.286C403.985 260.939 422.817 261.835 422.817 261.835" fill="#FFDFAF"/>
<path d="M382.498 285.581C382.34 285.584 382.184 285.538 382.052 285.45C381.936 285.385 381.839 285.29 381.771 285.176C381.702 285.061 381.665 284.93 381.662 284.797C381.6 283.862 381.841 282.931 382.35 282.146C380.492 282.687 379.155 282.332 378.505 281.119C378.413 280.959 378.378 280.772 378.405 280.589C378.432 280.406 378.52 280.238 378.654 280.111C379.508 279.252 380.4 278.431 381.328 277.628L380.697 277.852C378.041 278.767 376.128 278.562 375.014 277.236C374.864 277.053 374.791 276.819 374.809 276.583C374.824 276.469 374.861 276.359 374.918 276.259C374.976 276.16 375.052 276.073 375.144 276.004C375.65 275.591 376.177 275.205 376.722 274.847H376.128C375.541 274.757 375.004 274.46 374.616 274.008C374.228 273.556 374.013 272.98 374.011 272.382C374.083 271.938 374.25 271.515 374.5 271.141C374.75 270.767 375.077 270.452 375.459 270.217C379.561 267.054 384.283 264.802 389.314 263.608C386.417 255.507 387.271 254.387 387.606 253.957C387.713 253.813 387.85 253.694 388.007 253.607C388.163 253.52 388.337 253.467 388.516 253.453C389.351 253.453 390.094 254.107 391.339 255.32C393.171 257.492 395.653 259.011 398.415 259.651C403.875 260.286 422.558 261.163 422.744 261.182C422.947 261.212 423.132 261.314 423.265 261.47C423.399 261.626 423.473 261.825 423.473 262.031C423.473 262.237 423.399 262.436 423.265 262.592C423.132 262.748 422.947 262.85 422.744 262.88C421.964 262.88 403.8 261.984 398.284 261.35C394.737 260.92 392.026 258.288 390.224 256.533C389.816 256.141 389.314 255.656 388.98 255.376C389.349 258.324 390.137 261.203 391.32 263.926C391.375 264.036 391.404 264.157 391.404 264.281C391.404 264.404 391.375 264.525 391.32 264.635C391.261 264.744 391.178 264.839 391.079 264.914C390.98 264.988 390.865 265.039 390.744 265.065C385.615 266.143 380.792 268.363 376.629 271.561C376.277 271.841 375.868 272.196 375.831 272.494C375.794 272.793 376.184 273.092 376.574 273.185C377.207 273.23 377.843 273.128 378.431 272.886L384.745 271.02C384.851 270.985 384.963 270.972 385.074 270.982C385.185 270.991 385.293 271.023 385.392 271.076C385.491 271.128 385.578 271.199 385.649 271.286C385.719 271.372 385.772 271.472 385.804 271.58C385.869 271.793 385.849 272.023 385.749 272.221C385.648 272.42 385.475 272.571 385.265 272.644C382.407 273.593 379.709 274.971 377.261 276.732C378.279 276.871 379.316 276.742 380.27 276.359C382.804 275.496 385.285 274.479 387.698 273.316C387.895 273.209 388.126 273.186 388.341 273.251C388.555 273.316 388.735 273.463 388.841 273.661C388.946 273.859 388.97 274.091 388.905 274.307C388.841 274.522 388.694 274.703 388.497 274.809C385.695 276.503 383.085 278.5 380.715 280.764C381.503 280.813 382.288 280.638 382.981 280.26L389.686 277.012C389.87 276.926 390.078 276.906 390.274 276.957C390.471 277.008 390.644 277.127 390.763 277.292C390.878 277.46 390.928 277.665 390.904 277.867C390.88 278.07 390.784 278.257 390.633 278.394C389.691 279.209 388.641 279.887 387.513 280.41C386.974 280.69 386.435 280.97 385.934 281.287C385.029 281.818 384.285 282.586 383.78 283.509L390.28 280.988C398.396 277.852 407.143 278.3 415.612 278.73C419.438 278.916 423.375 279.122 427.183 278.991C427.408 278.986 427.627 279.068 427.793 279.221C427.959 279.374 428.06 279.586 428.074 279.812C428.079 280.037 427.997 280.255 427.844 280.419C427.691 280.583 427.48 280.68 427.257 280.69C423.375 280.839 419.382 280.69 415.519 280.428C407.236 280.018 398.656 279.57 390.893 282.575L382.981 285.637C382.818 285.672 382.649 285.652 382.498 285.581V285.581Z" fill="#231F20"/>
<path d="M469.433 166.012C469.433 166.012 514.471 279.439 497.756 285.17C490.903 287.522 415.314 289.575 415.314 289.575L413.457 259.371L451.326 254.162L469.433 166.012Z" fill="#FFC500"/>
<path d="M465.775 253.715C465.561 253.715 465.354 253.635 465.196 253.49C465.037 253.345 464.939 253.145 464.921 252.93L458.588 179.902C458.563 179.783 458.563 179.66 458.589 179.541C458.615 179.423 458.666 179.311 458.738 179.214C458.809 179.116 458.901 179.035 459.007 178.976C459.112 178.917 459.229 178.881 459.349 178.87C459.469 178.859 459.59 178.874 459.704 178.914C459.818 178.954 459.923 179.018 460.01 179.101C460.098 179.185 460.167 179.286 460.213 179.398C460.259 179.51 460.281 179.631 460.278 179.752L466.611 252.781C466.621 252.892 466.609 253.003 466.576 253.109C466.544 253.215 466.49 253.313 466.419 253.398C466.349 253.483 466.262 253.553 466.164 253.604C466.066 253.655 465.959 253.686 465.849 253.696L465.775 253.715Z" fill="#231F20"/>
<path d="M425.752 292.339C425.55 292.308 425.365 292.206 425.231 292.05C425.097 291.894 425.023 291.695 425.023 291.489C425.023 291.283 425.097 291.084 425.231 290.928C425.365 290.773 425.55 290.67 425.752 290.64L477.383 286.906C477.494 286.896 477.606 286.908 477.713 286.943C477.819 286.977 477.918 287.032 478.003 287.105C478.087 287.178 478.157 287.268 478.207 287.368C478.257 287.469 478.286 287.578 478.293 287.69C478.308 287.915 478.235 288.137 478.089 288.308C477.943 288.479 477.736 288.586 477.513 288.605L425.882 292.339H425.752Z" fill="#231F20"/>
<path d="M331.907 269.414C332.26 270.459 332.705 271.505 333.021 272.42C333.653 274.621 334.792 276.642 336.346 278.319C338.283 279.94 340.655 280.947 343.162 281.212C345.91 281.679 348.64 282.164 351.389 282.687C352.768 283.138 354.267 283.03 355.568 282.388C355.694 282.32 355.805 282.227 355.894 282.115C355.984 282.003 356.05 281.873 356.088 281.735C356.095 281.524 356.049 281.314 355.955 281.125C355.861 280.936 355.722 280.773 355.549 280.652C352.522 277.889 347.767 278.169 344.294 276.004C347.143 276.807 350.113 277.085 353.061 276.825C353.809 276.847 354.551 276.689 355.226 276.365C355.902 276.04 356.49 275.558 356.942 274.958C353.228 272.382 348.157 273.316 344.09 271.43C347.639 272.125 351.315 271.708 354.621 270.235C355.196 269.993 355.846 269.283 355.401 268.854C355.211 268.704 354.973 268.631 354.732 268.649L341.732 267.846C344.233 267.824 346.699 267.251 348.956 266.166C350.145 265.587 351.389 264.672 351.5 263.347C351.532 263.104 351.472 262.858 351.333 262.656C351.073 262.339 350.59 262.376 350.2 262.432C348.547 262.675 341.75 263.646 339.967 263.963C339.226 264.198 338.445 264.278 337.672 264.198C336.899 264.118 336.15 263.879 335.473 263.496C334.857 262.949 334.358 262.283 334.005 261.536C333.249 262.115 332.617 262.842 332.148 263.673C331.679 264.504 331.382 265.422 331.275 266.371C331.31 267.414 331.523 268.444 331.907 269.414V269.414Z" fill="#FFDFAF"/>
<path d="M353.506 283.789C352.745 283.765 351.987 283.678 351.24 283.527C348.492 283.005 345.669 282.519 343.013 282.053C340.341 281.769 337.817 280.683 335.77 278.935C334.121 277.162 332.906 275.027 332.222 272.7C332.092 272.308 331.925 271.897 331.758 271.486C331.591 271.076 331.312 270.292 331.108 269.62C330.699 268.566 330.479 267.447 330.458 266.315C330.562 265.237 330.887 264.191 331.411 263.243C331.935 262.296 332.647 261.467 333.504 260.808C333.601 260.731 333.715 260.675 333.836 260.646C333.957 260.617 334.083 260.614 334.205 260.639C334.327 260.664 334.442 260.716 334.543 260.79C334.643 260.864 334.726 260.96 334.785 261.07C334.97 261.55 335.252 261.986 335.613 262.351C335.974 262.716 336.406 263.002 336.882 263.192C337.358 263.381 337.868 263.469 338.38 263.451C338.891 263.433 339.394 263.309 339.856 263.086C341.248 262.825 345.687 262.171 348.324 261.798L350.182 261.536C350.509 261.459 350.849 261.465 351.174 261.553C351.498 261.641 351.795 261.808 352.039 262.04C352.186 262.221 352.295 262.431 352.359 262.655C352.423 262.88 352.44 263.115 352.41 263.347C352.41 264.318 351.76 265.737 349.383 266.875L348.287 267.38L354.769 267.772C355.205 267.776 355.626 267.935 355.958 268.22C356.122 268.366 356.244 268.554 356.313 268.764C356.381 268.974 356.393 269.198 356.348 269.414C356.252 269.771 356.074 270.1 355.829 270.376C355.584 270.651 355.278 270.866 354.936 271.001C353.797 271.509 352.608 271.897 351.389 272.159C353.528 272.38 355.587 273.096 357.406 274.249C357.58 274.371 357.702 274.552 357.75 274.759C357.798 274.966 357.768 275.183 357.666 275.369C357.157 276.099 356.473 276.688 355.678 277.083C354.883 277.477 354.002 277.665 353.116 277.628L351.89 277.722C353.442 278.159 354.88 278.93 356.106 279.98C356.39 280.194 356.614 280.479 356.754 280.806C356.894 281.134 356.946 281.493 356.905 281.847C356.848 282.101 356.74 282.34 356.586 282.548C356.433 282.757 356.238 282.932 356.013 283.061C355.27 283.552 354.396 283.806 353.506 283.789V283.789ZM332.705 269.134C332.91 269.732 333.132 270.31 333.337 270.852C333.541 271.393 333.69 271.729 333.82 272.121C334.414 274.202 335.475 276.118 336.921 277.722C338.741 279.215 340.955 280.142 343.291 280.391C346.059 280.858 348.863 281.343 351.556 281.866C352.718 282.254 353.982 282.194 355.103 281.698L355.252 281.586C355.164 281.487 355.071 281.394 354.973 281.306C353.273 280.003 351.285 279.132 349.179 278.767C347.314 278.36 345.518 277.681 343.849 276.751C343.683 276.639 343.561 276.472 343.505 276.279C343.449 276.087 343.462 275.881 343.541 275.696C343.621 275.512 343.762 275.362 343.94 275.272C344.118 275.181 344.323 275.156 344.517 275.201C347.268 275.983 350.139 276.249 352.986 275.985C353.927 275.977 354.846 275.705 355.642 275.201C353.786 274.366 351.8 273.861 349.773 273.708C347.701 273.52 345.668 273.03 343.737 272.252C343.546 272.165 343.394 272.01 343.309 271.817C343.224 271.625 343.213 271.407 343.277 271.207C343.341 271.006 343.477 270.836 343.657 270.73C343.838 270.623 344.052 270.587 344.257 270.628C347.63 271.28 351.12 270.889 354.268 269.508L341.713 268.742C341.603 268.737 341.495 268.711 341.396 268.664C341.296 268.618 341.207 268.552 341.132 268.47C341.058 268.389 341.001 268.293 340.963 268.189C340.926 268.085 340.909 267.975 340.914 267.865C340.923 267.645 341.014 267.437 341.169 267.281C341.324 267.125 341.531 267.034 341.75 267.025C344.129 266.999 346.475 266.451 348.622 265.419C349.532 264.99 350.609 264.281 350.683 263.31C350.683 263.31 350.683 263.31 350.349 263.31L348.492 263.571C345.854 263.963 341.453 264.598 340.078 264.841C339.222 265.106 338.319 265.187 337.429 265.077C336.54 264.968 335.683 264.671 334.915 264.206C334.466 263.847 334.082 263.411 333.782 262.918C332.833 263.859 332.23 265.096 332.074 266.427C332.109 267.361 332.297 268.282 332.631 269.153L332.705 269.134Z" fill="#231F20"/>
<path d="M413.532 260.229C413.322 260.227 413.119 260.148 412.962 260.007C412.805 259.866 412.704 259.674 412.677 259.464C412.657 259.239 412.725 259.015 412.868 258.84C413.01 258.665 413.215 258.554 413.439 258.531L472.015 251.997C472.239 251.976 472.462 252.045 472.636 252.188C472.81 252.331 472.921 252.538 472.944 252.762C472.957 252.873 472.948 252.985 472.917 253.091C472.887 253.198 472.836 253.298 472.767 253.385C472.698 253.472 472.612 253.544 472.515 253.597C472.418 253.651 472.311 253.684 472.201 253.696L413.625 260.211L413.532 260.229Z" fill="#231F20"/>
<path d="M461.058 359.842C459.31 359.878 457.575 359.532 455.972 358.83C454.369 358.127 452.936 357.084 451.772 355.772C446.201 348.996 447.761 326.127 447.817 325.157C447.835 324.942 447.933 324.742 448.092 324.597C448.25 324.452 448.457 324.372 448.671 324.373H476.065C476.267 324.403 476.452 324.505 476.586 324.661C476.72 324.817 476.793 325.016 476.793 325.222C476.793 325.428 476.72 325.627 476.586 325.783C476.452 325.939 476.267 326.041 476.065 326.071H449.507C449.265 330.178 448.448 349.089 453.11 354.689C454.542 356.244 456.395 357.343 458.442 357.85C460.488 358.358 462.637 358.252 464.624 357.546C467.874 356.388 473.353 352.599 473.576 340.203C473.581 339.983 473.671 339.775 473.827 339.621C473.984 339.467 474.193 339.382 474.412 339.382V339.382C474.635 339.387 474.848 339.479 475.004 339.64C475.16 339.8 475.248 340.016 475.248 340.24C475.006 353.663 468.84 357.844 465.181 359.151C463.855 359.609 462.461 359.843 461.058 359.842V359.842Z" fill="#231F20"/>
<path d="M378.337 355.567C376.873 355.549 375.436 355.158 374.163 354.43C372.89 353.702 371.821 352.66 371.057 351.404C366.73 344.646 367.974 321.853 368.03 320.882C368.048 320.666 368.146 320.464 368.304 320.315C368.461 320.167 368.668 320.083 368.884 320.079H389.871C390.097 320.079 390.315 320.17 390.475 320.331C390.635 320.492 390.725 320.71 390.725 320.938C390.725 321.166 390.635 321.384 390.475 321.545C390.315 321.706 390.097 321.797 389.871 321.797H369.683C369.497 325.941 368.884 344.87 372.469 350.489C373.227 351.763 374.374 352.756 375.74 353.321C377.105 353.886 378.615 353.993 380.046 353.625C384.745 352.281 387.623 345.654 387.753 335.928C387.756 335.815 387.78 335.704 387.826 335.601C387.871 335.498 387.936 335.404 388.017 335.326C388.098 335.248 388.193 335.187 388.298 335.146C388.403 335.105 388.514 335.086 388.626 335.088C388.85 335.093 389.062 335.186 389.218 335.346C389.375 335.507 389.462 335.722 389.462 335.947C389.239 351.124 383.129 354.615 380.51 355.268C379.803 355.468 379.072 355.569 378.337 355.567Z" fill="#231F20"/>
<path d="M441.52 196.087C444.351 196.087 446.646 193.78 446.646 190.935C446.646 188.089 444.351 185.782 441.52 185.782C438.689 185.782 436.395 188.089 436.395 190.935C436.395 193.78 438.689 196.087 441.52 196.087Z" fill="#231F20"/>
<path d="M441.519 196.907C440.345 196.904 439.197 196.55 438.222 195.892C437.248 195.233 436.489 194.299 436.042 193.207C435.595 192.115 435.48 190.914 435.711 189.757C435.943 188.599 436.51 187.537 437.342 186.703C438.174 185.869 439.233 185.302 440.385 185.073C441.537 184.844 442.731 184.964 443.816 185.416C444.901 185.869 445.828 186.635 446.48 187.617C447.133 188.599 447.481 189.753 447.481 190.934C447.481 191.72 447.326 192.498 447.027 193.224C446.727 193.95 446.287 194.609 445.734 195.164C445.18 195.719 444.522 196.159 443.799 196.458C443.076 196.757 442.301 196.91 441.519 196.907V196.907ZM441.519 186.603C440.667 186.603 439.834 186.857 439.125 187.333C438.417 187.808 437.865 188.485 437.538 189.276C437.212 190.068 437.127 190.938 437.293 191.779C437.46 192.619 437.87 193.39 438.472 193.996C439.075 194.602 439.843 195.014 440.679 195.181C441.514 195.349 442.381 195.263 443.168 194.935C443.955 194.607 444.628 194.052 445.102 193.34C445.575 192.628 445.828 191.79 445.828 190.934C445.823 189.787 445.367 188.688 444.56 187.877C443.754 187.066 442.66 186.608 441.519 186.603V186.603Z" fill="#231F20"/>
<path d="M443.859 193.528C446.116 193.528 447.945 191.69 447.945 189.421C447.945 187.153 446.116 185.314 443.859 185.314C441.603 185.314 439.773 187.153 439.773 189.421C439.773 191.69 441.603 193.528 443.859 193.528Z" fill="#231F20"/>
<path d="M443.86 194.351C442.89 194.351 441.942 194.062 441.136 193.52C440.33 192.979 439.701 192.209 439.33 191.308C438.959 190.408 438.862 189.417 439.051 188.461C439.24 187.505 439.707 186.627 440.393 185.938C441.079 185.248 441.952 184.779 442.904 184.589C443.855 184.399 444.84 184.496 445.736 184.869C446.632 185.242 447.398 185.874 447.937 186.684C448.476 187.495 448.763 188.448 448.763 189.422C448.763 190.73 448.247 191.983 447.327 192.907C446.408 193.832 445.16 194.351 443.86 194.351ZM443.86 186.137C443.213 186.133 442.579 186.323 442.039 186.682C441.499 187.04 441.077 187.552 440.827 188.152C440.577 188.752 440.509 189.413 440.633 190.052C440.757 190.691 441.067 191.278 441.524 191.739C441.98 192.2 442.562 192.515 443.197 192.643C443.831 192.772 444.49 192.708 445.088 192.46C445.686 192.212 446.198 191.79 446.558 191.25C446.918 190.709 447.11 190.073 447.11 189.422C447.11 188.554 446.768 187.721 446.159 187.106C445.55 186.49 444.724 186.142 443.86 186.137V186.137Z" fill="#231F20"/>
<path d="M402.481 176.765H402.388C402.175 176.741 401.979 176.634 401.843 176.466C401.708 176.299 401.643 176.084 401.664 175.869C401.794 174.6 405.063 145.067 418.788 142.267C419.001 142.228 419.222 142.275 419.402 142.397C419.582 142.519 419.708 142.706 419.753 142.92C419.797 143.133 419.755 143.355 419.637 143.537C419.519 143.719 419.333 143.846 419.122 143.891C406.567 146.448 403.317 175.757 403.298 176.056C403.268 176.252 403.169 176.431 403.019 176.561C402.869 176.691 402.679 176.763 402.481 176.765V176.765Z" fill="#231F20"/>
<path d="M442.504 189.142H442.411C442.29 189.13 442.172 189.094 442.064 189.036C441.957 188.978 441.862 188.898 441.786 188.802C441.71 188.707 441.653 188.596 441.62 188.478C441.587 188.36 441.578 188.237 441.594 188.115C445.03 157.481 440.702 145.477 440.665 145.365C440.572 145.142 440.571 144.892 440.662 144.668C440.752 144.444 440.927 144.265 441.148 144.171C441.377 144.086 441.631 144.095 441.853 144.196C442.075 144.297 442.249 144.483 442.337 144.712C442.523 145.197 446.868 157.145 443.377 188.32C443.351 188.539 443.249 188.741 443.089 188.891C442.93 189.041 442.722 189.13 442.504 189.142Z" fill="#231F20"/>
<path d="M411.117 210.423C410.873 210.419 410.639 210.319 410.466 210.145C410.293 209.971 410.194 209.736 410.189 209.49C410.189 209.242 410.287 209.005 410.461 208.83C410.635 208.655 410.871 208.557 411.117 208.557C411.893 208.557 412.636 208.248 413.186 207.699C413.736 207.15 414.047 206.405 414.052 205.626V187.518C414.047 184.697 412.93 181.994 410.946 179.999C408.962 178.005 406.272 176.882 403.466 176.877H401.497C398.691 176.882 396.001 178.005 394.017 179.999C392.033 181.994 390.916 184.697 390.911 187.518V205.626C390.916 206.401 391.225 207.144 391.77 207.693C392.316 208.241 393.055 208.552 393.827 208.557C394.073 208.557 394.309 208.655 394.483 208.83C394.658 209.005 394.755 209.242 394.755 209.49C394.755 209.738 394.658 209.975 394.483 210.15C394.309 210.325 394.073 210.423 393.827 210.423C392.562 210.418 391.351 209.911 390.457 209.013C389.563 208.114 389.059 206.897 389.054 205.626V187.518C389.059 184.202 390.371 181.024 392.704 178.679C395.036 176.335 398.198 175.015 401.497 175.01H403.466C406.764 175.015 409.927 176.335 412.259 178.679C414.592 181.024 415.904 184.202 415.909 187.518V205.626C415.904 206.9 415.397 208.12 414.499 209.019C413.601 209.919 412.385 210.423 411.117 210.423V210.423Z" fill="#231F20"/>
<path d="M396.092 207.661C396.092 207.114 395.651 206.671 395.107 206.671C394.564 206.671 394.123 207.114 394.123 207.661V211.432C394.123 211.978 394.564 212.421 395.107 212.421C395.651 212.421 396.092 211.978 396.092 211.432V207.661Z" fill="#231F20"/>
<path d="M395.109 213.243C394.617 213.243 394.144 213.046 393.796 212.696C393.448 212.346 393.252 211.871 393.252 211.376V207.642C393.252 207.147 393.448 206.672 393.796 206.322C394.144 205.972 394.617 205.775 395.109 205.775C395.602 205.775 396.074 205.972 396.422 206.322C396.771 206.672 396.966 207.147 396.966 207.642V211.376C396.966 211.871 396.771 212.346 396.422 212.696C396.074 213.046 395.602 213.243 395.109 213.243ZM395.109 207.493C395.065 207.493 395.022 207.511 394.991 207.542C394.96 207.574 394.942 207.616 394.942 207.661V211.394C394.942 211.581 395.258 211.581 395.258 211.394V207.661C395.258 207.619 395.243 207.579 395.216 207.548C395.188 207.517 395.15 207.497 395.109 207.493V207.493Z" fill="#231F20"/>
<path d="M411.693 207.661C411.693 207.114 411.253 206.671 410.709 206.671C410.165 206.671 409.725 207.114 409.725 207.661V211.432C409.725 211.978 410.165 212.421 410.709 212.421C411.253 212.421 411.693 211.978 411.693 211.432V207.661Z" fill="#231F20"/>
<path d="M410.709 213.243C410.216 213.243 409.744 213.046 409.396 212.696C409.047 212.346 408.852 211.871 408.852 211.376V207.642C408.952 207.239 409.184 206.881 409.511 206.625C409.837 206.369 410.239 206.229 410.653 206.229C411.067 206.229 411.469 206.369 411.796 206.625C412.122 206.881 412.354 207.239 412.454 207.642V211.376C412.455 211.852 412.275 212.311 411.951 212.658C411.626 213.005 411.182 213.214 410.709 213.243V213.243ZM410.709 207.493C410.664 207.493 410.622 207.511 410.591 207.542C410.559 207.574 410.542 207.617 410.542 207.661V211.395C410.542 211.581 410.876 211.581 410.876 211.395V207.661C410.876 207.617 410.858 207.574 410.827 207.542C410.796 207.511 410.753 207.493 410.709 207.493V207.493Z" fill="#231F20"/>
<path d="M443.861 194.463H443.712C442.807 194.415 441.929 194.141 441.157 193.665C440.385 193.189 439.743 192.526 439.292 191.737C439.001 190.865 438.906 189.94 439.012 189.027C439.118 188.114 439.422 187.235 439.905 186.454C440.032 186.245 440.235 186.095 440.472 186.036C440.708 185.976 440.958 186.013 441.168 186.137C441.272 186.198 441.364 186.28 441.436 186.378C441.509 186.475 441.562 186.586 441.591 186.705C441.621 186.823 441.626 186.946 441.608 187.066C441.589 187.187 441.547 187.302 441.483 187.406C441.159 187.93 440.947 188.516 440.861 189.127C440.775 189.737 440.816 190.359 440.982 190.953C441.372 191.812 442.412 192.372 444.065 192.596C444.311 192.613 444.54 192.728 444.702 192.915C444.864 193.103 444.946 193.347 444.928 193.595C444.911 193.842 444.797 194.073 444.61 194.235C444.424 194.398 444.181 194.48 443.935 194.463H443.861Z" fill="white"/>
<path d="M408.146 120.93C405.97 120.934 403.842 120.288 402.031 119.075C400.22 117.862 398.808 116.137 397.973 114.116C397.139 112.096 396.92 109.873 397.343 107.727C397.767 105.582 398.814 103.611 400.353 102.064C401.892 100.517 403.853 99.4644 405.987 99.0386C408.122 98.6128 410.334 98.8332 412.344 99.672C414.353 100.511 416.07 101.93 417.277 103.75C418.484 105.571 419.126 107.71 419.122 109.897C419.117 112.822 417.959 115.625 415.902 117.693C413.844 119.761 411.056 120.925 408.146 120.93V120.93ZM408.146 100.545C406.309 100.545 404.514 101.092 402.987 102.118C401.46 103.143 400.27 104.601 399.567 106.307C398.864 108.012 398.68 109.889 399.038 111.7C399.397 113.51 400.281 115.173 401.58 116.479C402.879 117.784 404.533 118.673 406.334 119.033C408.136 119.393 410.003 119.208 411.7 118.502C413.396 117.796 414.847 116.599 415.867 115.064C416.887 113.529 417.432 111.725 417.432 109.879C417.432 107.403 416.454 105.029 414.712 103.278C412.971 101.528 410.609 100.545 408.146 100.545V100.545Z" fill="#231F20"/>
<path d="M429.095 119.193C426.92 119.197 424.792 118.552 422.982 117.34C421.171 116.128 419.759 114.403 418.924 112.384C418.089 110.365 417.869 108.142 418.291 105.997C418.713 103.852 419.759 101.881 421.296 100.334C422.833 98.7864 424.792 97.732 426.925 97.3041C429.058 96.8761 431.27 97.0939 433.28 97.9298C435.29 98.7657 437.008 100.182 438.217 102C439.426 103.818 440.071 105.955 440.071 108.142C440.067 111.068 438.909 113.873 436.852 115.944C434.796 118.015 432.007 119.183 429.095 119.193V119.193ZM429.095 98.8078C427.259 98.8078 425.463 99.3552 423.936 100.381C422.409 101.406 421.219 102.864 420.516 104.57C419.813 106.275 419.629 108.152 419.988 109.963C420.346 111.773 421.23 113.436 422.529 114.742C423.828 116.047 425.482 116.936 427.284 117.296C429.085 117.657 430.952 117.472 432.649 116.765C434.346 116.059 435.796 114.862 436.816 113.327C437.837 111.792 438.381 109.988 438.381 108.142C438.381 105.666 437.403 103.292 435.662 101.542C433.92 99.7912 431.558 98.8078 429.095 98.8078V98.8078Z" fill="#231F20"/>
<path d="M334.081 221.009L339.077 229.727L363.592 228.756L359.005 220.169L334.081 221.009Z" fill="#231F20"/>
<path d="M339.002 230.566C338.859 230.564 338.719 230.525 338.596 230.453C338.472 230.381 338.369 230.279 338.296 230.155L333.43 221.4C333.362 221.277 333.326 221.139 333.326 220.999C333.326 220.858 333.362 220.72 333.43 220.597C333.503 220.476 333.603 220.374 333.723 220.3C333.842 220.225 333.977 220.18 334.118 220.168L359.06 219.347C359.211 219.342 359.361 219.38 359.492 219.456C359.623 219.531 359.731 219.642 359.803 219.776L364.39 228.363C364.454 228.487 364.487 228.625 364.487 228.765C364.487 228.904 364.454 229.042 364.39 229.166C364.319 229.287 364.219 229.387 364.099 229.459C363.979 229.531 363.843 229.571 363.703 229.577L339.188 230.566H339.002ZM335.399 221.773L339.466 228.886L362.18 227.99L358.466 221.008L335.399 221.773Z" fill="#231F20"/>
<path d="M346.858 216.435C345.909 216.099 344.873 216.099 343.924 216.435C343.297 216.679 342.759 217.107 342.378 217.663C341.997 218.219 341.791 218.877 341.788 219.553C341.825 220.389 342.068 221.204 342.494 221.923C342.888 222.695 343.431 223.38 344.091 223.94C346.394 225.806 351.39 225.526 351.186 221.643C351.065 220.59 350.675 219.587 350.053 218.731C349.3 217.601 348.165 216.785 346.858 216.435V216.435Z" fill="#231F20"/>
<path d="M347.49 225.787C346.088 225.796 344.72 225.351 343.589 224.518C342.82 223.896 342.188 223.12 341.732 222.24C341.229 221.404 340.948 220.453 340.915 219.477C340.92 218.635 341.177 217.813 341.655 217.12C342.132 216.427 342.806 215.895 343.589 215.594C344.713 215.196 345.939 215.196 347.062 215.594C348.53 215.995 349.812 216.9 350.684 218.152C351.392 219.127 351.828 220.274 351.947 221.475C352.029 222.228 351.881 222.989 351.523 223.656C351.165 224.323 350.613 224.864 349.941 225.208C349.181 225.594 348.341 225.792 347.49 225.787V225.787ZM345.205 216.976C344.864 216.972 344.524 217.029 344.202 217.144C343.736 217.329 343.334 217.65 343.05 218.066C342.765 218.481 342.611 218.973 342.605 219.477C342.649 220.177 342.859 220.855 343.218 221.456C343.552 222.134 344.02 222.738 344.592 223.229C345.262 223.706 346.041 224.004 346.856 224.095C347.671 224.187 348.496 224.069 349.254 223.752C349.637 223.553 349.949 223.24 350.148 222.856C350.347 222.471 350.424 222.035 350.368 221.605C350.252 220.699 349.907 219.838 349.365 219.104C348.701 218.163 347.716 217.499 346.598 217.237V217.237C346.152 217.072 345.681 216.984 345.205 216.976V216.976Z" fill="#231F20"/>
</svg>
