<svg width="57" height="56" viewBox="0 0 57 56" fill="none" xmlns="http://www.w3.org/2000/svg">
<circle cx="28.1973" cy="28" r="27.25" fill="#424242" stroke="white" stroke-width="1.5"/>
<path d="M39.1554 16.9306C38.8387 15.9963 37.9519 15.3312 36.9067 15.3312H19.487C18.4418 15.3312 17.5708 15.9963 17.2382 16.9306L14.1185 25.9097C14.0077 26.2422 13.9443 26.5906 13.9443 26.9549V38.2935C13.9443 39.6079 15.0054 40.6689 16.3198 40.6689C17.6341 40.6689 18.6952 39.6079 18.6952 38.2935V37.5017H37.6985V38.2935C37.6985 39.5921 38.7595 40.6689 40.0739 40.6689C41.3725 40.6689 42.4493 39.6079 42.4493 38.2935V26.9549C42.4493 26.6065 42.386 26.2422 42.2751 25.9097L39.1554 16.9306ZM19.487 32.7509C18.1726 32.7509 17.1116 31.6899 17.1116 30.3755C17.1116 29.0611 18.1726 28.0001 19.487 28.0001C20.8014 28.0001 21.8624 29.0611 21.8624 30.3755C21.8624 31.6899 20.8014 32.7509 19.487 32.7509ZM36.9067 32.7509C35.5923 32.7509 34.5313 31.6899 34.5313 30.3755C34.5313 29.0611 35.5923 28.0001 36.9067 28.0001C38.2211 28.0001 39.2821 29.0611 39.2821 30.3755C39.2821 31.6899 38.2211 32.7509 36.9067 32.7509ZM17.1116 24.8328L19.1227 18.7834C19.3444 18.15 19.9462 17.7066 20.6272 17.7066H35.7665C36.4474 17.7066 37.0492 18.15 37.2709 18.7834L39.2821 24.8328H17.1116Z" fill="white"/>
</svg>
