<svg width="56" height="56" viewBox="0 0 56 56" fill="none" xmlns="http://www.w3.org/2000/svg">
<circle cx="28" cy="28" r="27.25" fill="#673AB7" stroke="white" stroke-width="1.5"/>
<path d="M29.3222 19.0757C30.7765 19.0757 31.9664 17.8858 31.9664 16.4315C31.9664 14.9771 30.7765 13.7872 29.3222 13.7872C27.8678 13.7872 26.6779 14.9771 26.6779 16.4315C26.6779 17.8858 27.8678 19.0757 29.3222 19.0757ZM24.4303 23.5709L20.7284 42.2129H23.5048L25.8846 31.6359L28.6611 34.2801V42.2129H31.3053V32.2969L28.5289 29.6527L29.3222 25.6863C31.0409 27.6695 33.6852 28.9916 36.5938 28.9916V26.3474C34.0818 26.3474 31.9664 25.0253 30.9087 23.1743L29.5866 21.0589C29.2295 20.488 28.681 20.0627 28.039 19.8592C27.3971 19.6557 26.7037 19.6873 26.083 19.9483L19.4062 22.7777V28.9916H22.0505V24.4964L24.4303 23.5709Z" fill="white"/>
</svg>
